<svg width="192" height="151" viewBox="0 0 192 151" fill="none" xmlns="http://www.w3.org/2000/svg">
<path fill-rule="evenodd" clip-rule="evenodd" d="M145.101 136.202L145.205 136.227L145.411 136.277C148.753 137.112 152.009 138.288 155.112 139.783C156.85 140.619 158.658 141.581 160.58 141.433C161.131 141.391 161.674 141.257 162.226 141.251C164.098 141.23 165.677 142.644 167.507 143.04C169.093 143.383 170.73 142.937 172.351 142.845C173.971 142.753 175.845 143.18 176.595 144.62C176.699 144.82 176.779 145.049 176.73 145.269C176.663 145.566 176.395 145.752 176.114 145.893L176.058 145.921L175.938 145.976C173.781 146.942 171.478 147.931 169.141 147.647L168.977 147.625L168.734 147.594C166.543 147.346 164.333 148.058 162.121 147.996C157.556 147.868 152.902 147.373 148.515 146.447L148.046 146.346L147.81 146.295C140.288 144.689 136.504 145.853 132.989 145.942L132.877 145.945L132.658 145.948C131.303 145.955 126.808 145.927 125.2 146.348C124.39 146.561 123.851 145.333 124.279 144.612C124.69 143.92 125.513 143.627 126.266 143.327L126.36 143.289L126.435 143.258C127.165 142.952 127.925 142.463 128.066 141.703L128.079 141.624L128.09 141.548C128.266 140.585 129.416 140.157 130.403 139.937L130.483 139.92L131.049 139.8C132.564 139.485 134.109 139.224 135.631 139.46C136.493 139.594 139.785 137.532 140.772 136.683C141.917 135.697 143.605 135.857 145.101 136.202ZM157.689 72.5053L157.566 72.5456C156.535 72.8422 155.549 73.2947 154.659 73.8947C153.139 74.9197 151.858 76.3638 150.126 76.9667C148.929 77.3835 147.581 77.3478 146.407 76.8682C146.814 77.7511 147.942 78.059 148.909 77.9587C151.732 77.6656 153.656 75.0078 156.194 73.7362C156.754 73.4557 157.343 73.2454 157.949 73.0983C158.202 73.6714 158.453 74.2501 158.704 74.8332L158.702 74.84C158.509 74.9822 158.334 75.1474 158.182 75.3363C157.601 76.0618 157.456 77.1622 157.974 77.9345C158.494 78.71 159.446 78.9465 160.416 78.9176L160.417 78.9142L160.767 79.7737C161.35 81.2114 161.929 82.6742 162.503 84.1622L162.456 84.1872C162.317 84.2573 162.178 84.3284 162.04 84.4006C158.27 86.3717 154.854 89.1236 150.772 90.3234C150.014 90.5461 149.217 90.7135 148.438 90.5822C147.659 90.451 146.9 89.9657 146.636 89.2215C146.344 89.242 146.315 89.6733 146.439 89.9386C147.134 91.4211 149.247 91.4135 150.819 90.9556C155.021 89.7316 158.594 87.0115 162.465 84.9593L162.748 84.8102L163.195 85.9995C182.632 139.147 130.198 135.213 115.13 131.311C92.7885 125.525 26.4292 147.128 11.8843 131.311C5.83392 124.731 2.81535 116.071 2.28838 106.384C6.70862 104.554 10.5544 101.351 15.0609 99.6558C17.8907 98.5916 20.9514 98.146 23.9672 98.3593C25.4799 98.4662 27.0268 98.7546 28.2979 99.5817C29.569 100.409 30.5129 101.87 30.3719 103.38C30.2736 104.432 29.6828 105.368 29.0605 106.222C28.6287 106.814 28.1694 107.394 27.6117 107.869C26.5481 108.777 25.1664 109.262 23.7747 109.393C22.3433 109.528 20.8228 109.278 19.6764 108.41C18.53 107.543 17.8587 105.975 18.3046 104.608C18.4856 104.053 18.8315 103.563 19.2388 103.145C20.0703 102.291 21.2534 101.698 22.4352 101.853C23.617 102.007 24.6954 103.074 24.602 104.263C24.5086 105.451 22.9743 106.342 22.0022 105.653C22.1537 105.131 21.3853 104.641 20.976 104.998C20.619 105.31 20.7388 105.938 21.1019 106.243C21.465 106.548 21.9719 106.606 22.4459 106.609C23.2181 106.615 24.0299 106.495 24.6449 106.028C26.046 104.964 25.5904 102.486 24.0745 101.593C22.5587 100.7 20.54 101.149 19.1393 102.213C18.4354 102.748 17.8286 103.445 17.5355 104.279C16.9255 106.015 17.8558 108.037 19.3816 109.065C20.9075 110.094 22.878 110.267 24.6947 109.973C25.7259 109.807 26.7519 109.493 27.609 108.896C28.4562 108.306 29.0978 107.47 29.6899 106.624C30.4714 105.508 31.2172 104.27 31.231 102.907C31.246 101.381 30.299 99.9568 29.0393 99.0945C27.7796 98.2322 26.2449 97.8619 24.7274 97.6964C20.1607 97.1984 15.5222 98.4299 11.4513 100.558C8.33662 102.187 5.46343 104.348 2.25713 105.727C1.9312 98.0927 3.13102 89.8419 5.59533 81.4821L5.79247 81.4418C8.83669 80.8077 11.9403 80.4591 15.0493 80.4021C17.1122 80.3643 19.2022 80.4585 21.1809 81.043C22.0116 81.2883 22.8274 81.6207 23.6903 81.6954C25.3457 81.8388 27.0309 81.0221 28.638 81.4438C29.4488 81.6565 29.9873 80.428 29.5595 79.7072C29.1318 78.9863 28.2556 78.6992 27.4786 78.3848C26.7016 78.0704 25.8642 77.5508 25.7597 76.7191C25.6287 75.6754 24.3843 75.2346 23.3556 75.015L22.9782 74.9348C21.403 74.6028 19.7933 74.3094 18.2077 74.5557C17.3455 74.6896 16.4399 74.9775 15.6284 74.6569C14.4173 74.1784 14.0535 72.6273 13.0664 71.7781C12.0486 70.9025 10.6025 70.9312 9.24316 71.1905C14.4319 58.6308 22.2331 46.2945 31.7624 35.903L31.7676 35.9091C31.8224 35.916 31.8772 35.9225 31.9317 35.9287C35.5284 36.3369 39.2141 35.9422 42.6429 34.7817C45.0943 33.952 47.7526 35.0989 49.9796 36.4173C52.2067 37.7357 54.47 39.3025 57.0569 39.3786C58.9094 39.4331 60.681 38.7065 62.4701 38.2226C70.0811 36.1642 78.0823 38.4802 85.8616 39.7636C88.257 40.1587 90.953 40.3856 92.883 38.9129C92.2997 37.6371 90.9035 36.9 89.5186 36.6771C88.1336 36.4543 86.7211 36.6527 85.3213 36.7433C80.4372 37.0594 75.4725 36.0238 71.1221 33.7815C68.7342 32.5507 65.9035 32.7353 63.2319 32.453C60.5603 32.1706 57.5907 31.0791 56.6585 28.5595C55.836 26.3363 53.5116 24.8932 51.1522 24.665C48.7927 24.4368 46.4333 25.2621 44.4049 26.4888C42.3766 27.7155 40.6184 29.3318 38.8124 30.8671C38.1486 31.4314 37.4551 31.9982 36.6269 32.2686C36.1594 32.4212 35.6709 32.4723 35.178 32.4983L35.012 32.5032C68.6321 -1.22885 121.034 -10.3386 157.689 72.5053ZM158.963 75.4371C159.023 75.5782 159.084 75.722 159.145 75.8661L160.152 78.2748C159.585 78.2437 159.044 78.0702 158.701 77.6348C158.208 77.0102 158.366 76.0304 158.93 75.4686L158.963 75.4371ZM25.6881 53.3811L25.5008 53.4804C25.2138 53.6349 24.9374 53.7951 24.536 54.0375L23.5863 54.6152C22.3405 55.3652 21.6623 55.7015 20.8044 55.9537C20.4256 56.065 20.1506 56.1024 19.8991 56.06C19.6201 56.013 19.3861 55.8444 19.3112 55.6332L19.2455 55.448L19.0495 55.4617C18.6949 55.4865 18.6198 55.8704 18.7476 56.143C19.0846 56.8622 20.0104 57.0061 20.9703 56.7265C21.9448 56.4427 22.7031 56.0735 24.0855 55.2595L24.9711 54.7328C26.1163 54.0554 26.7179 53.7433 27.4783 53.4573C28.6816 53.0047 29.9836 52.8152 31.266 52.9059C32.0163 52.9589 32.586 53.1054 33.0381 53.3996C33.5557 53.7363 33.878 54.2981 33.8292 54.8208C33.7976 55.159 33.6354 55.4813 33.3039 55.936C33.0794 56.244 32.9063 56.446 32.7111 56.6125C32.3105 56.9542 31.7695 57.1624 31.1758 57.2183C30.5507 57.2773 29.9736 57.1508 29.5628 56.8398C29.1216 56.5059 28.9011 55.926 29.0523 55.4623C29.1128 55.277 29.2315 55.0958 29.4005 54.9223C29.7422 54.5714 30.1844 54.381 30.5804 54.4329C30.9888 54.4863 31.3323 54.8544 31.3043 55.2108L31.2991 55.2511C31.2509 55.5164 30.9433 55.7177 30.7056 55.6806L30.6803 55.6753L30.6796 55.6696C30.596 55.3154 30.113 55.0894 29.8053 55.3582C29.5246 55.6034 29.5846 56.0609 29.8643 56.2956C30.0597 56.4596 30.2969 56.5139 30.6167 56.5162C31.0696 56.5195 31.4432 56.4326 31.7371 56.2093C32.4896 55.6378 32.2956 54.331 31.4624 53.8401C30.7402 53.4146 29.7554 53.566 29.0154 54.1285C28.6421 54.4123 28.3642 54.7594 28.2261 55.1524C27.9284 55.9999 28.3415 57.013 29.1333 57.5468C29.8117 58.0042 30.7044 58.1366 31.6438 57.9849C32.1855 57.8974 32.6456 57.7349 33.0255 57.4704C33.3763 57.2261 33.6459 56.9184 34 56.4126C34.4815 55.7249 34.7152 55.2186 34.7211 54.6406C34.7282 53.9136 34.3024 53.2033 33.6496 52.7564C33.1117 52.3882 32.4537 52.1892 31.6449 52.101C29.7033 51.8892 27.6398 52.3607 25.6881 53.3811Z" fill="#3457DC"/>
<path fill-rule="evenodd" clip-rule="evenodd" d="M6.38705 100.855C6.65091 101.6 7.41072 102.085 8.18935 102.216C8.96799 102.347 9.76553 102.18 10.5231 101.957C13.2281 101.162 15.6409 99.6856 18.0581 98.2062C19.2884 97.4531 20.52 96.6994 21.7917 96.0345C25.8627 93.9062 30.5012 92.6747 35.0678 93.1727C36.5854 93.3382 38.1201 93.7085 39.3797 94.5708C40.6394 95.4331 41.5865 96.857 41.5712 98.3835C41.5577 99.746 40.8119 100.984 40.0304 102.101C39.4383 102.946 38.7966 103.782 37.9495 104.372C37.0924 104.969 36.0663 105.283 35.0352 105.449C33.2184 105.743 31.248 105.57 29.7221 104.542C28.1962 103.513 27.2659 101.491 27.876 99.755C28.1691 98.9208 28.7758 98.2247 29.4798 97.6896C30.8805 96.625 32.8991 96.176 34.415 97.0691C35.9308 97.9622 36.3865 100.44 34.9854 101.504C34.3704 101.971 33.5586 102.091 32.7863 102.085C32.3123 102.082 31.8054 102.024 31.4423 101.719C31.0792 101.415 30.9595 100.786 31.3165 100.474C31.7258 100.117 32.4942 100.607 32.3426 101.129C33.3147 101.819 34.8491 100.927 34.9425 99.739C35.0359 98.5507 33.9575 97.4836 32.7757 97.3289C31.5938 97.1742 30.4108 97.7672 29.5792 98.6211C29.1719 99.0393 28.826 99.5292 28.645 100.084C28.1992 101.451 28.8705 103.019 30.0168 103.887C31.1632 104.755 32.6837 105.004 34.1152 104.869C35.5069 104.738 36.8886 104.253 37.9521 103.346C38.5099 102.87 38.9692 102.29 39.401 101.698C40.0233 100.844 40.6141 99.9081 40.7123 98.8563C40.8534 97.3464 39.9094 95.885 38.6384 95.058C37.3673 94.2309 35.8203 93.9425 34.3077 93.8356C31.2918 93.6223 28.2312 94.0679 25.4013 95.1321C23.0314 96.0234 20.8442 97.3318 18.6602 98.6384C16.0601 100.194 13.4645 101.746 10.5705 102.59C8.99861 103.047 6.88557 103.055 6.19081 101.573C6.0665 101.307 6.09483 100.876 6.38705 100.855Z" fill="#3457DC"/>
<path fill-rule="evenodd" clip-rule="evenodd" d="M80.9186 117.676C77.8372 121.613 69.4251 118.572 65.8119 116.272C62.1987 113.972 63.5859 111.744 63.5859 110.655C63.5859 109.565 63.3377 108.232 62.7334 107.291C62.1291 106.349 52.573 102.309 52.573 97.8728C52.573 93.7347 55.4374 89.9486 59.4444 88.2336C65.8119 85.5082 68.9269 87.2411 74.8109 89.6345C80.6949 92.028 80.211 97.8728 80.211 97.8728C80.211 97.8728 85.0367 112.413 80.9186 117.676Z" fill="#E7EAEE"/>
<path d="M77.1225 119.856C64.1054 119.006 51.9138 110.636 46.1825 98.9178C40.4512 87.1994 41.2687 72.5958 48.0238 61.4362C54.7789 50.2765 67.182 42.8201 80.1864 41.7936C83.5495 41.5281 86.9847 41.6723 90.2082 42.667C93.7092 43.7474 96.8564 45.7945 100.373 46.8224C105.208 48.2356 110.35 47.1692 114.697 44.623C117.929 42.7298 120.849 40.2619 124.32 38.8544C128.376 37.2097 133.125 37.8229 136.999 39.8585C140.874 41.8941 143.942 45.227 146.307 48.9097C153.347 59.8751 154.391 73.5109 155.236 86.5146C155.7 93.66 156.127 101.066 153.574 107.755C151.257 113.827 146.684 118.746 141.913 123.158C136.854 127.837 131.409 132.164 125.319 135.39C113.45 141.678 99.5651 143.496 86.1872 142.296C72.8092 141.095 59.8443 137.016 47.3606 132.059C40.3928 129.293 32.8804 136.752 25.5446 135.206C21.0121 134.25 17.836 130.101 13.5287 128.397C8.89988 126.566 3.1702 128.04 0 131.878C2.77452 125.163 12.2727 122.369 18.2415 126.512C21.2619 128.609 25.3115 128.478 28.8823 127.601C32.4531 126.725 35.8707 125.193 39.5177 124.725C44.7376 124.057 49.9586 125.617 55.2046 126.034C61.6218 126.545 68.0379 125.34 74.3627 124.141C81.1751 122.85 87.9875 121.558 94.7999 120.267C98.0868 119.644 101.43 119.002 104.389 117.44C107.721 115.682 110.431 112.771 111.946 109.321C100.599 118.83 83.5472 119.33 77.1225 119.856Z" fill="white"/>
<path fill-rule="evenodd" clip-rule="evenodd" d="M81.8883 117.999C78.8069 121.936 70.3948 118.895 66.7816 116.595C63.1684 114.295 64.5556 112.067 64.5556 110.978C64.5556 109.888 64.3074 108.555 63.7031 107.614C63.0988 106.672 53.5427 102.632 53.5427 98.1958C53.5427 94.0577 56.4071 90.2716 60.4141 88.5566C66.7816 85.8312 69.8966 87.5641 75.7806 89.9575C81.6646 92.351 81.1807 98.1958 81.1807 98.1958C81.1807 98.1958 86.0065 112.736 81.8883 117.999Z" fill="#E7EAEE"/>
<path fill-rule="evenodd" clip-rule="evenodd" d="M94.6564 99.6232C94.751 100.024 95.197 100.425 95.535 100.19C97.3005 98.9616 99.0726 97.7292 100.985 96.7454C102.217 96.1118 103.536 95.5606 104.496 94.5611C103.332 95.1276 101.958 95.0415 100.691 94.7796C99.424 94.5177 98.182 94.0925 96.8902 94.0165C95.7837 93.9514 94.6626 94.1498 93.6456 94.5906C93.0339 94.8558 92.4329 95.2351 92.1193 95.8235C91.8057 96.4119 91.8803 97.2451 92.428 97.6253C93.0186 98.0351 93.9685 97.8429 94.3811 98.4315C94.6174 98.7687 94.5619 99.2225 94.6564 99.6232Z" fill="#E7EAEE"/>
<path fill-rule="evenodd" clip-rule="evenodd" d="M111.494 61.5059C114.136 66.237 117.497 69.615 115.356 71.7632C113.5 73.6258 114.148 70.3854 112.042 69.6901C110.643 69.2286 107.66 70.1804 105.049 70.071C101.452 69.9202 100.954 72.2896 98.2754 72.1637C94.1076 71.9677 88.4359 69.2323 86.6928 68.559C84.6001 67.7508 85.2269 64.9497 86.6928 63.6213C87.2325 63.1323 89.0003 64.5635 89.1956 63.9084C89.9211 61.4738 88.3473 59.3015 89.5487 58.9764C90.1013 58.8269 92.1178 59.4865 92.8812 60.2688C93.7777 61.1873 94.68 62.5543 96.532 61.9986C99.9612 60.9697 99.5208 58.7275 102.201 58.7275C104.881 58.7275 108.383 60.6907 110.071 61.2683C111.759 61.846 108.853 56.7749 111.494 61.5059Z" fill="#E7EAEE"/>
<path fill-rule="evenodd" clip-rule="evenodd" d="M84.263 85.364C84.6135 86.4088 85.3327 87.3238 86.1472 88.0662C86.9093 88.7609 88.1239 89.3533 87.9723 90.3734C89.4828 88.7769 91.7418 87.9207 93.931 88.1149C94.6734 88.1808 95.4027 88.3598 96.1458 88.4176C98.8754 88.6296 101.437 87.2131 103.807 85.8427C105.509 84.8586 107.211 83.8745 108.913 82.8903C109.308 82.0705 109.003 81.0468 108.393 80.3713C107.784 79.6959 106.927 79.3026 106.078 78.9756C105.158 78.6212 104.199 78.32 103.213 78.2998C102.251 78.2801 100.993 78.3639 100.645 77.4666C100.184 76.2757 99.0578 75.3683 97.7962 75.1705C96.5345 74.9727 95.1849 75.492 94.3813 76.4846C93.5496 77.5119 92.1902 77.9071 90.9482 78.3593C89.4434 78.9072 87.9967 79.6148 86.6404 80.4663C85.5033 81.1803 84.3272 82.1763 84.263 83.5175C84.2356 84.088 84.0813 84.8226 84.263 85.364Z" fill="#E7EAEE"/>
<path fill-rule="evenodd" clip-rule="evenodd" d="M87.814 55.2465C89.6013 55.7564 91.2764 54.0897 93.1246 53.8932C94.6346 53.7327 96.1272 54.5745 97.6318 54.3692C98.175 54.2951 98.8163 53.7887 98.5303 53.3209C98.3634 53.0478 97.987 53.0146 97.6669 53.0114C95.9273 52.9944 94.1877 52.9774 92.4481 52.9604C91.8824 52.9549 91.2689 52.933 90.8298 52.5763C89.9157 51.8338 88.8028 51.379 87.6803 51.0226C86.1454 50.5353 84.5576 50.2123 82.9531 50.0747C81.2014 49.9244 79.4308 49.9955 77.6968 50.2858C77.0166 51.1691 76.3363 52.0525 75.656 52.9358C74.8208 54.0202 73.7011 55.2253 72.3508 55.0015C70.5887 54.7095 68.7364 54.9904 67.1401 55.7916C68.7454 55.2613 70.5228 55.267 72.1247 55.8076C73.1415 56.1508 74.0821 56.6998 75.11 57.0083C77.6657 57.7755 80.4105 56.9773 82.9084 56.0385C84.4877 55.445 86.1917 54.7835 87.814 55.2465Z" fill="#E7EAEE"/>
<path d="M118.14 75.3999C118.181 75.7523 118.407 76.0528 118.635 76.3246C119.785 77.6951 121.264 78.853 122.993 79.3116C126.194 80.1601 129.634 78.4123 131.724 75.8441C133.814 73.2759 134.828 70.0206 135.756 66.8425C136.025 65.9251 136.423 64.8679 137.343 64.6109C138.339 64.3329 139.167 63.5215 139.466 62.5324C139.765 61.5433 139.525 60.4086 138.85 59.6261C138.087 58.7413 136.442 58.4869 135.86 59.5002C135.634 59.894 135.082 59.9854 134.651 59.8447C134.219 59.7039 133.87 59.3914 133.504 59.1218C131.242 57.4526 128.223 57.3575 125.411 57.3285C124.521 57.3193 123.62 57.3113 122.755 57.5213C120.968 57.9557 119.522 59.269 117.797 59.9093C115.592 60.7278 112.976 60.3266 111.118 58.8849C113.136 62.0798 114.821 65.485 116.137 69.0276C116.233 69.739 117.907 73.3935 118.14 75.3999Z" fill="white"/>
<path fill-rule="evenodd" clip-rule="evenodd" d="M72.8875 62.8151C72.4212 61.681 71.7215 60.3482 70.4961 60.3028C70.1616 60.2904 69.8335 60.3837 69.5035 60.4398C67.744 60.7389 65.5754 58.5266 64.9157 58.3474C64.2559 58.1681 63.4563 59.4121 62.6205 59.7855C61.7847 60.159 60.9072 60.7555 60.7856 61.6628C60.6883 62.3888 61.1114 63.1515 60.8554 63.8378C60.4921 64.8119 59.0232 64.978 58.6374 65.9434C58.3001 66.7874 58.9861 67.6712 59.648 68.2942C61.1241 69.6835 62.8694 71.1505 63.0149 73.1723C63.0694 73.9294 63.7776 74.4434 64.4002 74.8775C66.6942 76.4771 68.7239 78.4548 70.3825 80.7066C70.003 80.1822 70.2013 79.4183 70.6107 78.9169C71.0202 78.4156 71.5974 78.0853 72.0872 77.6621C73.0466 76.833 73.6654 75.651 74.678 74.8878C75.9528 73.927 77.6362 73.775 79.2076 73.4939C80.779 73.2129 82.4797 72.6513 83.2632 71.2605C83.3395 71.1251 83.4072 70.9749 83.3922 70.8202C83.3495 70.3811 82.767 70.2819 82.3966 70.0423C81.7022 69.5931 81.753 68.5883 81.5145 67.7964C81.1676 66.6441 80.0845 65.8335 78.9323 65.4863C77.7802 65.1391 76.5518 65.1792 75.3493 65.2224C74.1238 65.2664 73.3538 63.9492 72.8875 62.8151Z" fill="#E7EAEE"/>
<path d="M191.579 137.518C191.445 137.634 191.313 137.339 191.415 137.194C191.559 137.152 191.606 137.382 191.573 137.529L191.579 137.518Z" fill="black"/>
<path fill-rule="evenodd" clip-rule="evenodd" d="M139.781 108.845C138.97 109.15 137.982 108.899 137.415 108.244C137.126 107.911 136.571 108.113 136.242 108.407C135.913 108.7 135.588 109.09 135.148 109.087C134.696 109.084 134.35 108.633 134.301 108.184C134.252 107.735 134.422 107.294 134.588 106.874C133.97 106.991 133.321 107.107 132.723 106.913C132.125 106.718 131.616 106.098 131.774 105.489C131.831 105.266 131.969 105.072 132.128 104.906C132.654 104.354 133.445 104.068 134.203 104.156C134.571 104.199 134.7 103.679 134.669 103.309C134.609 102.605 134.495 101.881 134.693 101.202C134.89 100.523 135.519 99.9027 136.22 99.9956C137.109 100.114 137.483 101.188 137.581 102.08C137.615 102.384 137.869 102.802 138.106 102.608C138.87 101.986 140.09 102.02 140.817 102.685C141.097 102.942 141.312 103.302 141.292 103.682C141.27 104.124 140.94 104.494 140.572 104.741C140.204 104.988 139.784 105.152 139.426 105.413C140.205 105.935 141.023 106.719 140.863 107.643C140.767 108.199 140.309 108.646 139.781 108.845ZM136.341 105.839C136.36 105.929 136.38 106.019 136.399 106.109C135.748 106.436 135.547 107.253 135.417 107.97C135.611 108.117 135.882 107.926 136.021 107.726C136.325 107.29 136.469 106.764 136.692 106.28C136.915 105.797 137.262 105.321 137.773 105.173C137.986 105.111 138.211 105.111 138.429 105.069C138.891 104.978 139.292 104.699 139.677 104.428C139.892 104.276 140.119 104.109 140.207 103.861C140.404 103.307 139.715 102.764 139.137 102.871C138.558 102.977 138.138 103.47 137.798 103.951C137.458 104.431 137.115 104.956 136.575 105.19C136.418 105.258 136.239 105.297 136.078 105.24C135.917 105.183 135.794 105.001 135.848 104.84C135.903 104.678 136.169 104.63 136.245 104.783C136.381 104.721 136.445 104.539 136.379 104.405C135.692 104.528 135.005 104.65 134.318 104.772C133.941 104.839 133.55 104.912 133.239 105.136C132.928 105.36 132.724 105.783 132.873 106.136C133.87 106.795 135.18 105.555 136.341 105.839ZM138.071 105.907C137.601 105.997 137.423 106.629 137.605 107.073C137.787 107.516 138.193 107.818 138.553 108.134C138.901 108.44 139.507 108.299 139.756 107.907C140.005 107.516 139.925 106.975 139.644 106.606C139.363 106.237 138.917 106.024 138.463 105.928C138.335 105.901 138.201 105.882 138.071 105.907ZM136.816 102.859C136.789 102.171 136.721 101.394 136.186 100.959C136.023 100.827 135.814 101.062 135.748 101.262C135.579 101.771 135.501 102.31 135.519 102.846C135.528 103.114 135.564 103.392 135.714 103.615C135.863 103.837 136.153 103.985 136.406 103.895C136.782 103.761 136.832 103.258 136.816 102.859L136.816 102.859Z" fill="#FFB61D"/>
<path fill-rule="evenodd" clip-rule="evenodd" d="M136.155 48.2694C135.834 48.0462 135.513 47.823 135.192 47.5998C135.676 47.2512 136.391 47.3536 136.847 47.7385C137.303 48.1234 137.524 48.7304 137.564 49.3256C137.595 49.7793 137.495 50.2994 137.109 50.541C136.738 50.7736 136.257 50.6596 135.836 50.5382C135.489 50.4381 135.141 50.338 134.794 50.2379C134.429 50.1328 134.108 50.4974 133.932 50.8338C133.757 51.1703 133.555 51.5729 133.179 51.6232C132.678 51.69 132.382 51.1056 132.025 50.7478C130.987 49.7061 128.915 50.4534 127.957 49.338C127.549 48.863 127.489 48.1441 127.737 47.5689C127.985 46.9937 128.503 46.5612 129.085 46.3302C129.322 46.2364 129.576 46.1693 129.775 46.0108C129.973 45.8524 130.101 45.5636 129.981 45.3393C129.707 44.8278 129.429 44.2993 129.372 43.7221C129.315 43.1449 129.536 42.5004 130.047 42.2273C130.543 41.963 131.181 42.1193 131.618 42.4723C132.054 42.8252 132.327 43.3389 132.558 43.8508C132.624 43.9973 132.695 44.1538 132.832 44.2383C132.969 44.3228 133.19 44.2865 133.234 44.1319C133.458 43.3498 134.515 43.0249 135.238 43.3979C135.961 43.7708 136.325 44.6389 136.302 45.452C136.293 45.7416 136.24 46.0396 136.077 46.2795C135.963 46.4481 135.802 46.5784 135.64 46.7026C135.156 47.0756 134.648 47.4179 134.12 47.727C134.097 48.7317 134.91 49.6875 135.906 49.8253C136.244 49.8721 136.648 49.7991 136.808 49.4979C137.048 49.0478 136.574 48.5604 136.155 48.2694ZM134.314 46.6041C134.876 46.5317 135.376 46.1058 135.536 45.563C135.697 45.0202 135.509 44.3908 135.078 44.0244C134.993 43.9521 134.893 43.8874 134.782 43.8802C134.651 43.8719 134.53 43.9432 134.419 44.012C133.613 44.509 132.709 45.1778 132.728 46.124C132.747 47.1231 132.413 48.1258 131.797 48.9127C131.574 49.1969 131.743 49.624 131.994 49.8833C132.245 50.1426 132.576 50.336 132.746 50.6541C132.865 50.8761 133.222 50.8483 133.39 50.6612C133.559 50.474 133.587 50.203 133.599 49.9514C133.644 49.011 133.565 48.0648 133.365 47.1447C133.321 46.9415 133.5 46.749 133.697 46.6816C133.894 46.6142 134.108 46.6308 134.314 46.6041M131.895 47.2338C131.557 47.4203 131.191 47.0744 130.862 46.8739C129.947 46.3169 128.631 47.0389 128.379 48.0801C128.281 48.4868 128.572 48.9067 128.944 49.0971C129.317 49.2875 129.751 49.3029 130.169 49.3143C130.449 49.3219 130.753 49.3216 130.973 49.1486C131.116 49.0355 131.2 48.8649 131.277 48.6993C131.501 48.2186 131.707 47.7297 131.895 47.2338ZM130.756 42.8267C130.428 42.8071 130.148 43.1073 130.082 43.4294C130.017 43.7514 130.114 44.083 130.23 44.3906C130.615 45.412 131.217 46.351 131.984 47.1269C132.168 45.7329 132.284 44.12 131.294 43.1218C131.146 42.9732 130.964 42.8393 130.756 42.8267V42.8267Z" fill="#E7EAEE"/>
<path fill-rule="evenodd" clip-rule="evenodd" d="M62.7202 80.0278C61.8315 80.5145 61.2594 81.5286 61.3023 82.5409C61.3209 82.9792 61.3971 83.5252 61.025 83.7573C60.7179 82.6971 60.8619 81.514 61.4144 80.5584C61.5508 80.3226 61.7194 80.0925 61.9597 79.9642C62.2 79.8358 62.5265 79.8362 62.7202 80.0278V80.0278Z" fill="#00160A"/>
<circle cx="133.174" cy="67.9121" r="1.13103" fill="#FFB61D"/>
<path fill-rule="evenodd" clip-rule="evenodd" d="M97.4339 103.747C97.5245 103.36 97.7014 102.941 98.0712 102.797C98.8859 102.477 99.5242 103.717 100.397 103.784C100.873 103.82 101.3 103.494 101.771 103.414C102.552 103.281 103.365 103.974 103.358 104.766C103.351 105.438 102.856 106.024 102.813 106.694C102.372 106.618 101.876 106.798 101.649 107.184C101.422 107.57 101.54 108.141 101.936 108.35C102.332 108.559 102.914 108.268 102.928 107.82C102.935 107.579 102.8 107.357 102.764 107.118C102.729 106.879 102.879 106.57 103.118 106.606C103.58 106.904 103.83 107.498 103.718 108.036C103.607 108.575 103.142 109.021 102.6 109.111C102.433 109.138 102.256 109.136 102.109 109.219C101.857 109.36 101.789 109.681 101.692 109.952C101.503 110.478 101.094 110.937 100.564 111.115C100.034 111.294 99.3927 111.153 99.0368 110.722C98.6809 110.291 98.6863 109.583 99.0944 109.201C98.8427 109.073 98.5845 109.338 98.3479 109.491C97.7521 109.879 96.8626 109.49 96.6132 108.824C96.3638 108.158 96.6677 107.374 97.2103 106.915C97.3838 106.768 97.604 106.581 97.5352 106.364C97.2677 105.522 97.2323 104.607 97.4339 103.747ZM100.048 106.931C99.8345 107.819 99.6202 108.708 99.5086 109.614C99.4753 109.884 99.4708 110.204 99.6843 110.372C99.9146 110.554 100.262 110.442 100.489 110.257C101.101 109.76 101.234 108.772 100.776 108.131C100.453 107.68 100.747 107.035 101.156 106.661C101.565 106.286 102.092 106.025 102.39 105.557C102.687 105.088 102.562 104.292 102.015 104.205C101.588 104.137 101.121 104.255 100.824 104.568C100.555 104.852 100.454 105.25 100.362 105.63C100.258 106.064 100.153 106.498 100.048 106.931ZM99.2997 106.286C99.7014 106.062 99.7688 105.503 99.666 105.055C99.5483 104.542 99.2692 104.067 98.8782 103.714C98.7854 103.63 98.6788 103.55 98.5544 103.538C98.2176 103.506 98.0589 103.939 98.0136 104.274C97.947 104.767 97.8843 105.291 98.087 105.746C98.2896 106.201 98.8645 106.528 99.2997 106.286M97.4346 108.673C97.7142 109.016 98.291 108.817 98.5823 108.484C98.8735 108.151 99.0563 107.706 99.4372 107.481C99.6024 107.383 99.4726 107.098 99.2832 107.067C99.0939 107.036 98.9158 107.15 98.7438 107.235C98.4025 107.403 98.0116 107.472 97.7009 107.692C97.3902 107.912 97.1942 108.378 97.4346 108.673Z" fill="#FFB61D"/>
<path d="M191.082 132.294C191.229 132.24 191.282 132.496 191.203 132.632C191.053 132.684 191 132.428 191.075 132.288L191.082 132.294Z" fill="black"/>
<path fill-rule="evenodd" clip-rule="evenodd" d="M139.466 62.5324C139.849 61.5448 139.524 60.4086 138.85 59.6261C138.087 58.7413 136.442 58.4869 135.86 59.5002C135.634 59.894 135.082 59.9854 134.651 59.8447C134.219 59.7039 133.87 59.3914 133.504 59.1218C131.242 57.4526 128.223 57.3575 125.411 57.3285C124.521 57.3193 123.62 57.3113 122.755 57.5213C120.968 57.9557 119.522 59.269 117.797 59.9093C115.592 60.7278 112.976 60.3266 111.118 58.8849C111.869 60.0743 113.934 63.9191 113.934 63.9191C113.934 63.9191 113.562 62.1231 114.118 61.9582C115.139 61.6552 116.438 62.267 117.441 62.1262C121.18 61.6013 123.159 59.779 124.611 59.6261C134.651 58.5695 138.472 65.0979 139.466 62.5324Z" fill="#E7EAEE"/>
<path fill-rule="evenodd" clip-rule="evenodd" d="M141.913 120.573C136.853 125.252 131.408 129.579 125.319 132.805C113.449 139.093 99.5643 140.912 86.1864 139.711C72.8084 138.511 59.8435 134.431 47.3598 129.475C43.8294 128.073 75.5732 138.106 101.016 135.667C125.789 133.293 144.266 118.397 141.913 120.573Z" fill="#E7EAEE"/>
<circle cx="120.896" cy="74.2138" r="1.61576" fill="#FFB61D"/>
<path d="M70.1364 83.1132C70.9863 84.669 72.404 85.8726 73.1568 87.4776C74.0575 89.3979 85.0192 106.904 85.3993 106.967C86.1901 107.098 87.5434 105.796 87.4017 106.235C87.3467 106.15 99.872 113.096 97.3284 114.791C94.4071 116.739 88.3724 118.829 80.7658 118.829C77.8273 118.173 75.9977 115.322 74.4905 112.715C69.9242 104.818 65.3465 96.8623 62.2503 88.2818C61.8909 87.2859 61.5104 86.2234 60.669 85.5807C59.9673 85.0447 59.0533 84.8888 58.1755 84.7937C55.9779 84.5557 53.7576 84.7928 51.5628 84.9109C49.0008 85.0489 49.0008 83.7878 49.7002 83.4028C50.7678 82.8152 51.9295 82.5874 52.7644 81.8328C51.5902 82.3569 51.1481 82.6025 49.873 82.768C48.5979 82.9336 49.1885 81.8928 49.2506 81.4019C49.0564 82.1667 47.9522 82.6719 47.3384 82.0768C46.5405 81.3034 47.6675 79.5431 48.5039 79.075C48.6463 78.9953 53.3075 76.5845 53.6302 76.3895C53.2197 76.2933 49.1218 79.1719 47.7753 78.7379C46.8995 78.4557 47.8182 76.9202 48.6662 75.9617C51.2912 72.9949 50.5965 74.0079 51.5617 73.031C52.0996 72.4865 52.9702 72.51 53.7332 72.571C54.8846 72.663 59.5116 72.3164 63.3348 74.83C66.9256 77.1909 69.7466 82.3997 70.1364 83.1132Z" fill="white"/>
<path fill-rule="evenodd" clip-rule="evenodd" d="M142.414 22.7458C141.793 22.9148 141.274 23.4204 141.089 24.0373C140.953 24.489 140.99 24.9726 141.04 25.4414C141.124 26.2087 141.266 27.0224 141.79 27.5887C142.359 27.0606 142.363 26.1675 142.235 25.4019C142.216 25.2893 142.196 25.1758 142.175 25.0619C142.054 24.4016 141.93 23.7258 142.157 23.1039C142.759 24.0507 142.948 25.2499 142.667 26.336L144.456 25.5992C144.792 25.4608 145.19 25.6598 145.397 25.9581C145.604 26.2563 145.665 26.6288 145.722 26.9875C145.855 27.8422 145.883 28.9261 145.122 29.3365C144.9 29.4562 144.589 29.722 144.797 29.8648C145.419 30.292 145.584 31.2428 145.172 31.8748C144.76 32.5069 143.857 32.7458 143.17 32.4337C142.483 32.1216 142.071 31.3163 142.182 30.5699L140.611 31.5753C140.467 31.6675 140.305 31.7637 140.136 31.7362C139.925 31.7019 139.796 31.4931 139.694 31.3051C139.292 30.5636 138.888 29.6589 139.292 28.9191C138.617 28.747 138.003 28.2915 137.712 27.6585C137.422 27.0255 137.494 26.2217 137.95 25.6959C138.407 25.17 139.247 24.9956 139.843 25.3566C140.122 25.5255 140.332 25.0561 140.343 24.7303C140.373 23.842 140.658 22.8541 141.443 22.4376C141.804 22.2464 142.408 22.3376 142.414 22.7458ZM143.52 28.6617C144.14 29.0117 145.042 28.6392 145.234 27.9543C145.426 27.2694 144.849 26.4821 144.138 26.4589C143.282 26.431 142.684 27.2912 142.36 28.0847C142.23 28.4026 141.758 28.3184 141.453 28.1611C141.147 28.0038 140.714 27.8539 140.513 28.133C140.25 28.5007 139.847 28.7665 139.406 28.8652C139.662 29.0692 139.755 29.3901 139.85 29.7129L139.85 29.7131L139.85 29.7133C139.891 29.8556 139.933 29.9982 139.989 30.1313C140.171 30.5664 140.787 30.9228 141.08 30.5532C141.594 29.905 142.193 29.3239 142.856 28.8293C143.051 28.6845 143.31 28.5426 143.52 28.6617ZM138.916 25.9631C138.598 25.8792 138.27 26.1631 138.209 26.4865C138.149 26.81 138.29 27.1395 138.481 27.408C138.567 27.5302 138.667 27.6465 138.792 27.7286C139.114 27.9397 139.544 27.8854 139.903 27.746C140.048 27.6899 140.187 27.6217 140.327 27.5535C140.534 27.4519 140.741 27.3504 140.964 27.2898C140.444 26.646 139.716 26.174 138.916 25.9631ZM144.655 31.3586C144.791 31.0879 144.703 30.7482 144.519 30.5082C144.334 30.2682 144.068 30.1065 143.809 29.9504L143.384 29.6949C143.221 29.5968 143.027 29.4954 142.85 29.5657C142.554 29.6833 142.609 30.1155 142.723 30.413C142.887 30.8404 143.081 31.2878 143.458 31.5466C143.836 31.8054 144.45 31.7677 144.655 31.3586ZM111.084 28.5824C111.329 28.8187 111.364 29.2549 111.131 29.5035C110.897 29.7522 110.426 29.7245 110.25 29.4322C110.156 29.275 110.154 29.0872 110.152 28.9005C110.151 28.8417 110.15 28.7831 110.147 28.7255C110.132 28.485 109.931 27.9299 109.879 27.8021C109.227 27.2686 108.98 26.3903 108.848 25.5586C108.749 24.9372 108.699 24.2785 108.943 23.6986C109.188 23.1188 109.809 22.6545 110.425 22.7855C111.138 22.9375 111.48 23.7352 111.71 24.4276C111.897 24.9929 112.02 25.7535 111.511 26.063C111.424 25.3084 111.32 24.5104 110.847 23.9159C110.547 23.5386 109.929 23.2919 109.608 23.6517C109.47 23.8063 109.437 24.0258 109.421 24.2323C109.301 25.8313 109.928 27.4709 111.084 28.5824ZM109.893 32.3051L109.799 32.3195C108.962 32.4489 108.093 32.5833 107.436 31.8295C106.755 31.0476 106.518 29.3428 106.887 28.8983C107.406 28.273 108.234 27.904 109.049 27.9576C109.084 28.0419 109.062 28.2311 109.039 28.4221C109.016 28.6167 108.993 28.8131 109.03 28.9024C108.465 28.6086 107.693 28.8103 107.344 29.3428C107.301 29.4088 107.262 29.4888 107.286 29.5642C107.471 30.1552 107.674 30.7708 108.116 31.2046C108.559 31.6383 109.319 31.8151 109.799 31.4235C109.952 31.2983 110.061 31.1314 110.17 30.964L110.17 30.9639L110.17 30.9638C110.257 30.829 110.345 30.6939 110.457 30.58C110.707 30.3246 111.215 30.2413 111.371 30.5629C110.992 30.944 110.631 31.3442 110.292 31.7615C110.211 31.8611 110.13 32.0085 110.214 32.1056C110.42 32.3435 110.459 32.6663 110.498 32.9854C110.509 33.0741 110.52 33.1625 110.534 33.2487C110.6 33.645 110.85 34.0951 111.252 34.0853C111.591 34.0771 111.819 33.7472 111.989 33.4539L112.629 32.3511C112.814 32.3737 112.935 32.577 112.931 32.764C112.927 32.9511 112.832 33.1227 112.736 33.2834C112.441 33.7787 112.116 34.2559 111.763 34.7115C111.655 34.8504 111.532 34.9958 111.361 35.0357C111.184 35.0772 111.002 34.9935 110.849 34.8941C110.022 34.3563 109.614 33.2509 109.893 32.3051ZM113.534 25.4558C113.818 25.313 114.202 25.3168 114.417 25.5514C114.89 26.6957 114.572 28.1207 113.657 28.9553L113.624 28.9849L113.591 29.0147C113.44 29.1492 113.284 29.2881 113.232 29.4804C113.173 29.7011 113.363 29.9911 113.58 29.9189C113.731 29.8687 113.779 29.6988 113.825 29.5377C113.835 29.5029 113.845 29.4685 113.855 29.4357C113.987 29.0305 114.429 28.7512 114.852 28.8059C115.395 29.04 116.495 29.6727 116.287 31.3497C116.101 32.8498 115.36 32.7794 115.095 32.7543C115.064 32.7514 115.039 32.7491 115.023 32.75C114.305 32.7917 113.875 32.01 113.525 31.3743L113.506 31.3392C113.341 31.0399 112.969 30.7166 112.712 30.9412C112.611 31.029 112.581 31.171 112.562 31.3031C112.534 31.5054 112.525 31.7323 112.654 31.8913C112.782 32.0502 113.094 32.0486 113.149 31.8517C113.215 32.4487 113.541 33.0255 114.055 33.3363C114.569 33.6471 115.267 33.6577 115.758 33.3118C116.113 33.0619 116.332 32.6633 116.495 32.261C116.644 31.892 116.757 31.5025 116.765 31.1045C116.785 30.1363 116.178 29.24 115.395 28.6694C115.191 28.5205 114.947 28.3359 114.973 28.0846L115.088 26.9634C115.143 26.4232 115.196 25.8596 115.002 25.3525C114.808 24.8453 114.285 24.4195 113.753 24.5262C113.327 24.6116 113.061 24.9735 112.792 25.3392C112.547 25.6718 112.3 26.0077 111.928 26.1417C111.517 26.2899 111.496 26.8557 111.55 27.2895C111.569 27.4354 111.59 27.5894 111.682 27.7045C111.773 27.8195 111.961 27.8716 112.069 27.7719C112.041 27.1449 112.453 26.5941 112.844 26.1033C113.042 25.8547 113.25 25.5986 113.534 25.4558ZM76.3708 49.6902C77.1741 48.9812 78.2856 48.7475 79.3511 48.6337C83.0929 48.2342 86.9525 49.0218 90.2386 50.8556C90.3031 50.8917 90.3678 50.9282 90.4327 50.9649L90.4335 50.9653C91.0336 51.3043 91.6485 51.6516 92.3315 51.6939C92.5458 51.7072 92.76 51.6896 92.9744 51.6719C93.1618 51.6565 93.3492 51.6411 93.5369 51.6463C93.9858 51.6587 94.4052 51.7254 94.82 51.7914C95.5976 51.9151 96.359 52.0362 97.2691 51.7924C98.5727 51.4432 98.7646 51.7855 98.9033 52.4861C99.0419 53.1867 98.5369 53.895 97.8878 54.1929C97.2387 54.4908 96.4877 54.4601 95.7825 54.3469C95.5785 54.3142 95.375 54.2751 95.1715 54.2359L95.1714 54.2359C94.6718 54.1397 94.1722 54.0436 93.6647 54.0427C92.6607 54.0408 91.6637 54.4054 90.6823 54.7644C89.2952 55.2717 87.9391 55.7677 86.6379 55.2017C86.1775 55.0014 85.6478 55.1434 85.1668 55.2875L80.0824 56.8108C78.8242 57.1878 77.5232 57.5689 76.2182 57.4192C75.1822 57.3002 74.2263 56.8566 73.2705 56.4131C72.3071 55.966 71.3438 55.5189 70.2989 55.4046C69.4185 55.3083 68.5268 55.4543 67.6396 55.5996C66.5101 55.7845 65.3882 55.9683 64.3068 55.6491C64.3657 55.3703 64.6702 55.2289 64.9371 55.1291C66.5669 54.5198 68.2238 53.9044 69.9588 53.7736C70.2446 53.7521 70.5363 53.7423 70.829 53.7326C71.8893 53.6972 72.962 53.6614 73.81 53.0623C74.4301 52.6241 74.8144 51.96 75.2005 51.2931C75.5369 50.7117 75.8746 50.1282 76.3708 49.6902ZM87.4905 54.6001C88.5449 54.901 89.5602 54.4443 90.595 53.9788C91.3144 53.6553 92.0431 53.3275 92.801 53.2469C93.5401 53.1684 94.2749 53.3299 95.009 53.4912C95.7749 53.6595 96.54 53.8277 97.3082 53.7229C97.8515 53.6488 98.4928 53.1424 98.2068 52.6746C98.0398 52.4015 97.6634 52.3682 97.3433 52.3651L92.1245 52.3141C91.5588 52.3086 90.9453 52.2866 90.5062 51.93C89.5921 51.1875 88.4792 50.7327 87.3568 50.3763C85.8218 49.8889 84.234 49.566 82.6295 49.4284C80.8778 49.2781 79.1073 49.3492 77.3733 49.6394L75.3324 52.2895C74.4973 53.3739 73.3775 54.579 72.0272 54.3552C70.2652 54.0632 68.4128 54.3441 66.8166 55.1453C68.4219 54.6149 70.1992 54.6206 71.8011 55.1613C72.2707 55.3198 72.7241 55.5222 73.1773 55.7245L73.1774 55.7246L73.1775 55.7246C73.7055 55.9603 74.2333 56.196 74.7864 56.362C77.3422 57.1292 80.087 56.3309 82.5848 55.3922L82.6745 55.3585C84.2285 54.7741 85.8988 54.1459 87.4905 54.6001ZM72.9328 76.3881C73.8344 75.3036 74.7112 74.2491 76.0546 74.1982C78.145 74.119 80.1972 73.3716 81.8817 72.1313C82.2902 71.8306 82.6972 71.4734 82.8449 70.9881C82.9926 70.5029 82.7632 69.873 82.2682 69.7621C81.309 69.5471 80.943 68.5473 80.583 67.5641C80.4678 67.2492 80.3531 66.9361 80.2198 66.651C79.6517 65.4357 78.4674 64.5285 77.1461 64.2965C76.6453 64.2086 76.1359 64.2126 75.6261 64.2166C75.1743 64.2202 74.7223 64.2238 74.2758 64.1634C73.3255 64.0348 72.3102 63.4774 72.1364 62.5343C71.6969 60.1498 68.9857 58.4582 66.6508 59.1117C65.9859 59.2978 65.421 58.8693 64.8381 58.4273C64.378 58.0783 63.9067 57.7209 63.3662 57.6505C62.8963 57.5894 62.4301 57.7568 61.9858 57.9214C60.9839 58.2926 59.9551 58.6799 59.1652 59.3993C58.3753 60.1187 57.8715 61.2593 58.207 62.2737C58.407 62.8784 57.9082 63.4888 57.3811 63.8464C57.2724 63.9201 57.1593 63.991 57.0458 64.0622L57.0457 64.0622L57.0457 64.0623L57.0456 64.0623L57.0455 64.0624L57.0455 64.0624L57.0454 64.0625C56.6088 64.3363 56.1666 64.6136 55.9458 65.0683C55.6132 65.7534 55.9185 66.58 56.3457 67.2106C56.8158 67.9046 57.4414 68.5274 58.0614 69.1446C59.2526 70.3305 60.4232 71.4959 60.4317 73.1061L53.7332 72.5709C52.9702 72.5099 52.0996 72.4864 51.5617 73.0309C51.24 73.3566 51.1027 73.4611 50.9654 73.5656C50.6908 73.7747 50.4162 73.9837 48.6662 75.9617C47.8182 76.9202 46.8994 78.4556 47.7753 78.7379C48.659 79.0227 50.728 77.8806 52.1618 77.0891C52.9125 76.6747 53.4891 76.3564 53.6302 76.3894C53.4086 76.5233 51.1413 77.702 49.6962 78.4533C49.0367 78.7961 48.5485 79.05 48.5039 79.0749C47.6675 79.543 46.5405 81.3034 47.3384 82.0767C47.9522 82.6718 49.0564 82.1666 49.2506 81.4018C49.2383 81.4986 49.2056 81.6167 49.1706 81.7428L49.1706 81.7428C49.0281 82.2562 48.8493 82.9009 49.873 82.7679C51.0186 82.6192 51.4918 82.4059 52.4276 81.984L52.4282 81.9837L52.4326 81.9817C52.5369 81.9347 52.647 81.8851 52.7644 81.8327C52.2435 82.3035 51.5955 82.5692 50.9224 82.8452C50.5166 83.0116 50.1018 83.1817 49.7002 83.4027C49.0008 83.7877 49.0008 85.0488 51.5628 84.9109C51.9984 84.8874 52.4351 84.8593 52.8724 84.8311C54.6382 84.7173 56.4141 84.6028 58.1755 84.7936C59.0533 84.8887 59.9673 85.0446 60.669 85.5806C61.5065 86.2203 61.8874 87.2759 62.2453 88.2679L62.2503 88.2817C65.3465 96.8622 69.9242 104.818 74.4905 112.715C75.9977 115.321 77.8273 118.173 80.7658 118.829C72.979 109.352 66.8726 98.4978 62.8154 86.9223C62.3457 85.5823 61.0759 84.6482 59.7227 84.2183C58.3694 83.7884 56.9227 83.7861 55.5028 83.7877C54.6028 83.7887 53.8714 83.9192 53.1634 84.0456C52.2325 84.2117 51.3422 84.3706 50.1624 84.2183C49.2119 84.0956 50.0163 83.7631 51.1587 83.2909C52.3098 82.815 53.8041 82.1973 54.1917 81.5096C53.7453 80.8 52.6463 81.1051 51.9441 81.563C51.2419 82.0209 49.0677 82.7286 49.5922 81.8327C50.2418 80.7232 51.398 80.1235 52.5632 79.5191C52.9314 79.3281 53.3005 79.1367 53.6548 78.9285C54.0417 78.7012 53.7513 78.0256 53.3075 77.9589C52.8636 77.8922 52.4551 78.1879 52.1037 78.467C51.7163 78.7747 51.2741 79.2207 50.8175 79.6811L50.8175 79.6811C49.7452 80.7622 48.5937 81.9233 47.8867 81.563C46.3492 80.7796 51.2354 78.1932 53.9417 76.7607C54.1179 76.6674 54.2849 76.579 54.4402 76.4964C53.826 75.4388 52.1781 75.9596 51.2514 76.7577C51.2034 76.799 51.1549 76.841 51.106 76.8834L51.1051 76.8842C50.2091 77.66 49.1566 78.5713 48.0709 78.165C47.4255 77.9235 48.3598 77.1568 49.2941 76.39C49.7613 76.0066 50.2285 75.6232 50.4981 75.3055C50.9513 74.7717 51.4188 74.2259 52.0331 73.89C52.7846 73.4789 53.6751 73.4251 54.5316 73.4173C56.6641 73.398 58.7986 73.6083 60.8864 74.0433C63.9245 76.0563 66.5512 78.6874 68.5591 81.7288C73.2467 88.8295 77.8378 95.9934 82.4286 103.157C82.4816 103.24 82.5778 103.399 82.7045 103.608L82.7046 103.608L82.7047 103.608L82.7048 103.608C83.3792 104.723 84.917 107.265 85.3993 107.325C85.9319 107.391 86.4834 106.948 86.8744 106.603L105.641 94.9212C108.691 93.0224 112.067 91.0474 115.63 91.5092C121.403 92.2575 127.258 92.9376 133.028 92.1628C138.797 91.3881 144.555 88.9986 148.293 84.5364C141.539 89.9167 132.672 92.5684 124.073 91.7796C122.902 91.6723 121.722 91.5051 120.541 91.3378L120.541 91.3378C116.978 90.8332 113.404 90.327 110.043 91.4533C109.178 91.7429 108.302 92.1365 107.424 92.5309C104.939 93.6468 102.44 94.7692 100.162 93.5604C98.0926 92.4626 95.5043 93.0308 93.4457 94.1479C91.3872 95.265 88.7944 96.7904 90.597 98.7243C92.3996 100.658 88.6354 99.7763 86.5337 98.7426C84.432 97.7089 83.9396 94.103 86.0864 92.6424C85.1254 93.7346 85.1576 95.9227 86.5618 96.3029C87.966 96.683 89.4421 95.99 90.597 95.1053C91.9042 94.1039 91.7217 92.8149 91.5586 91.6626C91.3842 90.4306 91.2319 89.3548 92.9463 88.9538C94.1209 88.679 95.3316 88.7641 96.5442 88.8492H96.5443C97.6503 88.9269 98.7577 89.0046 99.8406 88.8096C101.627 88.4879 103.145 87.4737 104.673 86.4532C105.628 85.8156 106.586 85.1755 107.616 84.7003C110.295 83.4642 113.331 83.394 116.291 83.3255L116.294 83.3255C116.467 83.3215 116.64 83.3175 116.812 83.3133C122.225 83.1806 127.743 82.7254 132.729 80.6155C137.715 78.5057 142.147 74.4883 143.549 69.259C144.703 64.9545 143.611 60.1125 140.723 56.7191C137.834 53.3258 133.228 51.4757 128.795 51.9278C126.479 52.164 124.241 52.9784 122.017 53.7878C118.967 54.8981 115.942 55.9991 112.776 55.5856C108.172 54.9845 104.64 51.3512 101.502 47.93C105.243 48.5035 109.143 48.0012 112.617 46.4984C114.387 45.7328 116.043 44.7176 117.695 43.7042C119.953 42.3197 122.205 40.9387 124.735 40.2029C131.013 38.3768 138.005 41.0219 142.59 45.6826C147.176 50.3433 149.649 56.715 150.954 63.1216C151.805 67.2964 152.209 71.5399 152.612 75.7849C152.828 78.0543 153.044 80.3241 153.328 82.584C153.471 83.7227 153.631 84.8685 153.792 86.0182C154.729 92.731 155.684 99.5745 153.433 105.886C151.51 111.277 147.46 115.595 143.485 119.714C138.085 125.309 132.52 130.93 125.698 134.661C119.387 138.112 112.26 139.795 105.146 140.86C99.5664 141.695 93.9141 142.174 88.2793 141.884C76.4906 141.278 65.1553 137.345 54.0622 133.31C50.0757 131.86 45.9105 130.367 41.698 130.867C39.5341 131.124 37.4312 131.9 35.3437 132.669C32.2456 133.812 29.1816 134.942 26.003 134.345C23.0814 133.796 20.7048 131.887 18.3302 129.98C15.9202 128.044 13.5122 126.109 10.5385 125.6C13.197 125.161 15.8179 126.383 18.3943 127.585C21.3696 128.973 24.2855 130.333 27.1308 129.073C37.4762 124.491 49.3717 125.987 60.5752 127.571L74.3495 129.518C76.2805 129.79 78.1917 129.355 80.1118 128.917L80.1119 128.917C81.2418 128.66 82.3748 128.402 83.5166 128.287C86.4753 127.989 89.3878 128.656 92.3093 129.324C93.8541 129.678 95.4014 130.032 96.9594 130.244C108.631 131.835 120.912 124.389 124.899 113.305C125.42 111.855 125.839 110.32 126.259 108.782C127.471 104.345 128.689 99.8858 132.378 97.4079C132.764 97.1489 133.178 96.9087 133.594 96.6679C134.901 95.9104 136.221 95.1456 136.695 93.764C133.203 94.9094 130.152 97.3489 128.265 100.503C126.939 102.722 126.202 105.209 125.464 107.699L125.464 107.699C125.127 108.837 124.79 109.976 124.396 111.09C120.756 121.381 110.831 129.976 99.9351 129.331C97.7428 129.202 95.5858 128.719 93.4323 128.236L93.4322 128.236C90.739 127.633 88.0511 127.032 85.3063 127.124C83.7751 127.175 82.265 127.442 80.754 127.709L80.7539 127.709C79.5207 127.927 78.287 128.146 77.0406 128.247C72.9394 128.579 68.8538 127.637 64.8469 126.701C73.8703 124.476 83.0141 122.74 92.225 121.503C99.0054 120.592 106.816 119.34 110.288 113.445C112.764 109.241 116.794 106.332 120.821 103.425C124.935 100.456 129.045 97.4895 131.492 93.1464C119.876 104.808 103.148 114.829 79.0282 119.756C78.8612 119.789 78.6967 119.822 78.5346 119.856C78.6995 119.823 78.864 119.79 79.0282 119.756C80.6956 119.432 82.6031 119.18 84.6781 118.907C92.6609 117.855 103.124 116.477 111.946 109.321C110.431 112.771 107.721 115.682 104.389 117.44C101.43 119.002 98.0868 119.644 94.7999 120.267L74.3627 124.141C68.0379 125.34 61.6218 126.545 55.2046 126.034C53.4225 125.893 51.6432 125.619 49.8658 125.346C46.4114 124.814 42.9643 124.284 39.5177 124.725C37.2654 125.014 35.1007 125.709 32.9333 126.404C31.5911 126.835 30.2479 127.266 28.8823 127.601C25.3115 128.478 21.2619 128.609 18.2415 126.512C12.2727 122.369 2.77452 125.163 0 131.878C3.1702 128.04 8.89988 126.566 13.5287 128.397C15.4186 129.145 17.0908 130.363 18.7553 131.576C20.8843 133.127 23.0008 134.669 25.5446 135.206C29.0024 135.934 32.4994 134.662 35.9601 133.404C39.8414 131.992 43.6771 130.597 47.3606 132.059C59.8443 137.016 72.8092 141.095 86.1872 142.296C99.5651 143.496 113.45 141.678 125.319 135.39C131.409 132.164 136.854 127.837 141.913 123.158C146.684 118.746 151.257 113.827 153.574 107.755C156.127 101.066 155.7 93.66 155.236 86.5146C154.391 73.5109 153.347 59.8751 146.307 48.9097C143.942 45.227 140.874 41.8941 136.999 39.8585C133.125 37.8229 128.376 37.2097 124.32 38.8544C122.078 39.7636 120.066 41.1153 118.051 42.4687C116.946 43.2105 115.841 43.9528 114.697 44.623C110.35 47.1692 105.208 48.2356 100.373 46.8224C98.5695 46.2952 96.863 45.4999 95.1562 44.7045C93.535 43.949 91.9136 43.1933 90.2082 42.667C86.9847 41.6723 83.5495 41.5281 80.1864 41.7936C67.182 42.8201 54.7789 50.2765 48.0238 61.4361C41.2687 72.5958 40.4512 87.1994 46.1825 98.9178C51.9138 110.636 64.1054 119.006 77.1225 119.856C75.5066 118.854 73.6327 118.478 71.7508 118.101L71.7507 118.101C70.6886 117.888 69.6241 117.674 68.602 117.347C65.7689 116.441 62.9213 113.849 63.6349 110.961C64.2469 108.485 62.0543 106.21 59.8395 104.943C59.4083 104.697 58.9623 104.46 58.5145 104.223L58.5142 104.223C56.6618 103.241 54.7786 102.244 53.7896 100.443C51.6592 96.5634 54.9798 92.0343 58.0716 88.8676C54.632 90.8425 52.0746 94.2947 51.1876 98.1605C53.256 101.748 56.559 104.608 60.4052 106.141C62.3799 108.718 63.339 112.052 63.0352 115.284C51.7787 108.409 44.109 95.9758 43.0151 82.8309C42.7539 79.6928 42.8686 76.4241 44.1847 73.5633C47.1347 67.1511 50.1653 60.6339 54.9068 55.4052C62.0905 47.4834 73.0759 43.1751 83.7298 44.1014C94.3836 45.0276 104.461 51.1671 110.17 60.2098C108.087 59.0606 105.936 57.8886 103.572 57.6224C101.209 57.3563 98.5537 58.2194 97.4002 60.2992C96.5268 61.8739 94.1468 60.6294 92.8888 59.341C91.6309 58.0526 89.0735 57.0229 88.4326 58.7056L89.0748 62.3879C86.6306 61.1824 83.6601 64.8328 85.3372 66.981C85.9068 67.7105 86.77 68.1376 87.603 68.5409C92.2684 70.7994 97.7001 73.0866 102.438 70.9845C104.869 69.9058 107.538 69.3671 110.197 69.4183C110.838 69.4306 111.507 69.4851 112.056 69.8155C112.486 70.0741 112.796 70.4717 113.108 70.8713C113.317 71.1399 113.528 71.4095 113.775 71.6383C114.392 72.2076 115.565 72.3948 115.945 71.6465C116.946 73.4331 117.967 75.2776 118.221 77.31C118.475 79.3424 117.779 81.6338 116.017 82.6788C114.255 83.7239 111.48 82.8435 111.126 80.826C110.789 78.9025 108.815 78.4161 106.745 77.9062C104.992 77.4745 103.172 77.0261 102.22 75.6745C101.22 74.2552 99.1666 73.97 97.496 74.4426C96.2721 74.7888 95.1773 75.4499 94.0828 76.1108L94.0828 76.1109C93.6833 76.3521 93.284 76.5932 92.8784 76.8191C92.2343 77.1777 91.5649 77.5032 90.8957 77.8287L90.8956 77.8288C89.2045 78.6513 87.5142 79.4734 86.2348 80.8273C84.449 82.7171 83.9535 86.2046 86.0864 87.6916C86.8839 88.2475 92.8784 93.1464 89.5818 94.8069C84.6677 97.2821 86.0146 92.86 86.5324 92.0739C84.1616 92.3564 83.0795 95.6593 84.3645 97.6716C85.6496 99.6839 88.5277 100.94 90.863 100.443C92.0197 100.196 91.6796 99.5775 91.2789 98.8485C90.8707 98.1057 90.3996 97.2486 91.3845 96.5544C91.1957 97.2718 91.9101 97.5192 92.7018 97.7933C93.3214 98.0078 93.9884 98.2388 94.3068 98.7243C94.881 99.5999 93.9898 100.681 93.1784 101.343L87.2218 106.202C87.1407 106.245 87.0374 106.309 86.9195 106.382C86.4842 106.651 85.8503 107.042 85.3993 106.967C85.0192 106.904 81.0396 99.9359 80.2309 96.3561C80.1376 95.9428 80.0648 95.5184 79.9921 95.095C79.7301 93.5675 79.4701 92.0515 78.2534 91.1065C77.6474 90.6357 76.9306 90.2819 76.2198 89.9312C74.9663 89.3124 73.7316 88.703 73.1568 87.4775C72.7524 86.6153 72.1561 85.8689 71.5591 85.1216C71.0447 84.4777 70.5297 83.8332 70.1364 83.1132C69.2865 81.5574 69.2643 79.232 70.8204 78.3829C71.6511 77.9296 72.2981 77.1514 72.9328 76.3881ZM68.8792 59.9795C70.1046 60.0249 70.8043 61.3577 71.2706 62.4918C71.7369 63.6259 72.5069 64.9431 73.7324 64.8991C74.935 64.8559 76.1633 64.8158 77.3155 65.163C78.4677 65.5102 79.5507 66.3208 79.8977 67.4731C79.9642 67.6941 80.0082 67.9317 80.0521 68.1692L80.0522 68.1692L80.0522 68.1693L80.0522 68.1694L80.0522 68.1694L80.0522 68.1695L80.0523 68.1696L80.0523 68.1696L80.0523 68.1697C80.1659 68.783 80.2793 69.3953 80.7797 69.719C80.8864 69.788 81.0107 69.8454 81.1346 69.9026C81.4409 70.044 81.7449 70.1843 81.7753 70.4969C81.7904 70.6516 81.7226 70.8018 81.6463 70.9372C80.8628 72.328 79.1621 72.8896 77.5907 73.1707C77.3643 73.2112 77.1355 73.249 76.906 73.2869C75.5426 73.5123 74.1522 73.7422 73.0611 74.5645C72.5152 74.976 72.0837 75.5093 71.6516 76.0433C71.2823 76.4998 70.9125 76.9568 70.4703 77.3388C70.2998 77.4862 70.1187 77.6222 69.9378 77.7582C69.599 78.0127 69.2608 78.2668 68.9939 78.5937C68.5845 79.095 68.3861 79.8589 68.7656 80.3833C67.1071 78.1315 65.0774 76.1538 62.7833 74.5542C62.1607 74.1201 61.4525 73.6061 61.3981 72.849C61.2639 70.985 59.77 69.5927 58.3809 68.298C58.2632 68.1883 58.1463 68.0794 58.0311 67.9709C57.3692 67.3479 56.6832 66.4641 57.0205 65.6201C57.2119 65.1411 57.67 64.8589 58.1274 64.5771C58.5918 64.291 59.0555 64.0053 59.2385 63.5145C59.383 63.1273 59.3112 62.7156 59.2387 62.3V62.3V62.2999V62.2999V62.2999V62.2998V62.2998V62.2998V62.2997C59.1827 61.9789 59.1263 61.6557 59.1687 61.3395C59.2411 60.7996 59.4614 60.659 60.0094 60.3091C60.3824 60.071 60.9072 59.7359 61.6405 59.112C62.753 58.1656 64.3422 58.8803 65.7181 59.4991C66.5819 59.8876 67.3616 60.2383 67.8867 60.1165C68.2112 60.0413 68.5447 59.9671 68.8792 59.9795ZM77.4944 91.4529C78.2762 92.3435 79.0927 93.3077 79.2483 94.4825C79.3275 95.0812 79.2218 95.7031 78.9491 96.2419L75.414 90.7343C75.3758 90.6747 75.3363 90.6019 75.3648 90.5372C75.4111 90.4319 75.5675 90.4643 75.6713 90.514L77.1242 91.2098C77.2583 91.274 77.3963 91.3411 77.4944 91.4529ZM114.701 64.2234C114.67 64.519 114.775 64.8264 114.982 65.0404C115.251 65.1755 115.536 65.0453 115.825 64.9131C115.96 64.8515 116.096 64.7895 116.231 64.7536C116.48 64.6878 116.742 64.7127 116.998 64.7381L120.138 65.0497C120.331 64.7505 119.936 64.4187 119.6 64.2999C118.033 63.7455 116.285 63.7182 114.701 64.2234ZM131.816 69.8825C130.538 71.8431 128.539 73.3216 126.29 73.9692L126.27 74.4735C128.775 73.9142 131.05 72.3831 132.511 70.2727C132.68 70.0296 132.818 69.6505 132.576 69.4801C132.313 69.2945 131.992 69.6125 131.816 69.8825ZM126.763 64.888C126.457 64.8027 126.042 64.7237 125.894 65.005C126.427 65.4897 127.026 66.0021 127.747 66.0237C128.262 66.0392 128.746 65.7968 129.204 65.5606C130.282 65.0048 131.369 64.4428 132.303 63.6684C132.267 63.3415 131.841 63.1895 131.529 63.2941C131.27 63.381 131.071 63.578 130.874 63.7722C130.851 63.7953 130.828 63.8184 130.804 63.8413L130.77 63.8745L130.754 63.8899C129.716 64.8794 128.145 65.2724 126.763 64.888ZM123.902 71.5471C123.985 71.6844 124.088 71.8298 124.244 71.8659C124.356 71.8916 124.471 71.8553 124.58 71.8193L126.278 71.2583C126.278 71.0579 126.064 70.9191 125.865 70.8992C125.753 70.888 125.641 70.9012 125.53 70.9145L125.53 70.9145C125.442 70.9249 125.354 70.9353 125.266 70.9339C124.586 70.9231 124.113 70.2338 123.943 69.5754C123.884 69.3461 123.845 69.1101 123.807 68.8744C123.736 68.4336 123.664 67.9941 123.457 67.6025C123.065 67.5836 122.923 68.1137 122.948 68.5049C123.016 69.5757 123.346 70.6289 123.902 71.5471ZM119.078 67.7961C119.476 67.3653 120.073 66.7923 120.529 67.162C119.753 68.6834 118.061 69.6899 116.354 69.6462C117.299 71.4315 117.908 73.3935 118.141 75.3998C118.182 75.7523 118.408 76.0528 118.636 76.3246C119.786 77.6951 121.264 78.853 122.994 79.3116C126.194 80.1601 129.635 78.4123 131.725 75.8441C133.814 73.2758 134.828 70.0205 135.757 66.8425C136.025 65.925 136.424 64.8679 137.344 64.6108C138.339 64.3329 139.168 63.5214 139.467 62.5323C139.766 61.5433 139.525 60.4086 138.85 59.626C138.088 58.7412 136.443 58.4869 135.861 59.5002C135.635 59.8939 135.083 59.9854 134.651 59.8446C134.302 59.7307 134.007 59.5042 133.713 59.2791C133.644 59.2261 133.575 59.1732 133.505 59.1218C131.242 57.4526 128.223 57.3575 125.412 57.3284C124.522 57.3192 123.621 57.3112 122.756 57.5213C121.749 57.766 120.85 58.2897 119.949 58.8148L119.949 58.8148C119.251 59.2218 118.551 59.6297 117.798 59.9092C115.593 60.7278 112.977 60.3266 111.118 58.8848C113.137 62.0797 114.822 65.485 116.138 69.0276C117.233 69.0611 118.333 68.6 119.078 67.7961ZM89.0316 58.8719C89.1487 59.2481 89.3226 59.6076 89.496 59.9658C89.7669 60.526 90.0366 61.0832 90.0857 61.6973C90.1662 62.7041 89.1103 63.8562 88.2571 63.3157C87.3714 62.7545 86.0638 63.2811 85.6509 64.2448C85.238 65.2086 85.6289 66.394 86.4162 67.0864C87.0103 67.609 87.7769 67.883 88.5234 68.1455C89.4258 68.4627 90.4424 68.8905 91.498 69.3347C94.1625 70.4558 97.0758 71.6817 99.0286 71.4994C100.007 71.4082 101.829 70.3401 102.449 69.9553C103.632 69.2215 105.003 68.4578 106.341 68.8395C108.028 69.3202 109.885 69.1726 111.475 68.4316C112.25 68.0702 112.968 69.0183 113.286 69.8125C113.603 70.6066 114.235 71.5847 115.046 71.3122C115.493 71.1619 115.734 70.6479 115.719 70.1764C115.705 69.7049 115.493 69.2648 115.286 68.8412L111.514 61.1447C110.508 61.4264 109.615 60.8428 108.696 60.2421C108.071 59.8335 107.433 59.417 106.74 59.2596C106.392 59.1806 106.034 59.1694 105.676 59.1582C105.304 59.1465 104.932 59.1348 104.571 59.0468C104.185 58.9526 103.825 58.7739 103.466 58.5956C103.029 58.3783 102.592 58.1617 102.112 58.0997C101.081 57.9666 100.096 58.5783 99.3451 59.2974C99.0982 59.5336 98.8642 59.785 98.6303 60.0361C98.1524 60.5493 97.6752 61.0618 97.0906 61.4436C96.22 62.0123 94.9849 62.2165 94.1783 61.5601C93.8664 61.3063 93.6581 60.9595 93.4492 60.6116L93.4491 60.6114C93.3458 60.4394 93.2423 60.2671 93.1261 60.1057C92.2307 58.8622 90.465 58.3301 89.0316 58.8719ZM85.6896 85.0651C86.0402 86.1099 86.7594 87.0249 87.5738 87.7673C87.7518 87.9295 87.9545 88.0862 88.1586 88.244C88.8287 88.762 89.5151 89.2926 89.399 90.0745C90.9094 88.478 93.1684 87.6218 95.3576 87.816C95.716 87.8478 96.0714 87.906 96.4267 87.9641C96.8074 88.0265 97.1881 88.0888 97.5724 88.1187C100.302 88.3307 102.863 86.9142 105.233 85.5439L110.34 82.5914C110.735 81.7716 110.429 80.7479 109.82 80.0724C109.21 79.397 108.353 79.0037 107.504 78.6768C106.584 78.3223 105.626 78.0211 104.64 78.0009C104.547 77.999 104.451 77.9981 104.353 77.9971C103.442 77.9882 102.386 77.9779 102.072 77.1677C101.61 75.9768 100.484 75.0694 99.2228 74.8716C97.9612 74.6738 96.6116 75.1932 95.808 76.1857C95.0656 77.1026 93.9029 77.516 92.7785 77.9158C92.6431 77.9639 92.5083 78.0118 92.3748 78.0604C90.87 78.6083 89.4234 79.3159 88.0671 80.1674C86.9299 80.8814 85.7538 81.8774 85.6896 83.2186C85.6825 83.3664 85.6669 83.5253 85.6508 83.6889C85.6048 84.1568 85.555 84.664 85.6896 85.0651ZM137.097 77.0363C139.221 75.3803 141.081 73.3172 142.176 70.8566C143.271 68.396 143.547 65.511 142.595 62.9915C142.029 61.4933 141.062 60.1786 139.996 58.9834C138.145 56.9086 135.723 55.0409 132.943 55.0022C132.016 54.9892 131.1 55.1825 130.193 55.3748L124.934 56.49C127.914 56.4343 130.903 56.9199 133.712 57.9159L133.735 57.924C134.367 58.1482 135.058 58.3933 135.685 58.1581C137.224 57.5805 139.126 58.2216 140.002 59.6128C140.878 61.0041 140.633 62.9969 139.446 64.1347C139.206 64.3646 138.936 64.56 138.666 64.7552C138.368 64.9711 138.07 65.187 137.812 65.4494C137.044 66.2333 136.73 67.3287 136.425 68.3936C136.401 68.4769 136.377 68.5601 136.353 68.6429C136.342 68.6819 136.331 68.7209 136.319 68.7598C134.501 74.959 129.757 80.6324 123.438 81.9768C128.358 81.8197 133.215 80.0631 137.097 77.0363ZM131.363 54.6886C132.973 54.5108 134.645 54.349 136.177 54.8743C137.579 55.3549 138.725 56.3644 139.832 57.3499L141.433 58.7761C139.045 54.9718 134.633 52.5248 130.142 52.5136C127.982 52.5081 125.849 53.0266 123.814 53.7502C123.167 53.9804 122.527 54.2314 121.888 54.4824C121.67 54.568 121.451 54.6536 121.233 54.7384C118.856 55.6609 116.394 56.4951 113.845 56.5573C111.296 56.6195 108.618 55.8082 106.934 53.8944C106.86 53.8099 106.786 53.7227 106.713 53.6352C106.354 53.2089 105.988 52.7741 105.468 52.6014C106.959 54.5236 108.482 56.476 110.473 57.8734C112.465 59.2709 115.033 60.055 117.367 59.3701C118.424 59.0601 119.364 58.4767 120.304 57.8926C120.733 57.6266 121.162 57.3605 121.602 57.1199C124.564 55.501 128.007 55.0592 131.363 54.6886ZM95.3057 99.2991C95.4002 99.6998 95.8463 100.101 96.1842 99.866C97.9498 98.6376 99.7218 97.4052 101.635 96.4214C101.84 96.3156 102.048 96.2121 102.257 96.1085C103.297 95.5912 104.346 95.0697 105.145 94.237C103.982 94.8036 102.608 94.7174 101.34 94.4555C100.936 94.3719 100.534 94.2717 100.132 94.1714C99.275 93.9577 98.4188 93.7442 97.5395 93.6925C96.433 93.6274 95.3119 93.8257 94.2949 94.2665C93.6831 94.5317 93.0821 94.911 92.7686 95.4995C92.455 96.0879 92.5295 96.9211 93.0773 97.3012C93.332 97.478 93.6536 97.5428 93.9701 97.6065C94.3874 97.6905 94.7957 97.7728 95.0303 98.1075C95.1866 98.3305 95.2153 98.6045 95.2441 98.8805C95.2589 99.0217 95.2737 99.1635 95.3057 99.2991ZM121.898 80.3679C121.402 80.0693 121 79.6398 120.605 79.216L118.667 77.1363L118.893 80.5764C118.915 80.909 118.936 81.2516 118.83 81.5677C118.724 81.8838 118.459 82.1705 118.126 82.1972C117.951 82.2113 117.947 82.5031 118.098 82.5932C118.249 82.6832 118.44 82.6334 118.608 82.5811L123.179 81.1564C123.462 81.0681 123.755 80.9746 123.977 80.777C123.264 80.8867 122.516 80.7392 121.898 80.3679ZM131.573 60.5054C130.061 60.4049 128.556 60.7145 127.072 61.0223C126.684 61.1028 126.293 61.1843 125.929 61.3409C125.08 61.706 124.456 62.4407 123.864 63.1507C123.776 63.2561 123.683 63.378 123.697 63.5145C123.721 63.7466 124.049 63.829 124.253 63.7161C124.423 63.6224 124.53 63.4536 124.635 63.2875C124.656 63.2536 124.678 63.2197 124.699 63.1867C125.477 62.0113 127.009 61.6505 128.393 61.3845C129.566 61.1592 130.773 60.9336 131.945 61.1629C132.15 61.2029 132.265 60.8858 132.139 60.7198C132.013 60.5538 131.781 60.5192 131.573 60.5054Z" fill="#00160A"/>
</svg>
