<svg width="150" height="151" viewBox="0 0 150 151" fill="none" xmlns="http://www.w3.org/2000/svg">
<path fill-rule="evenodd" clip-rule="evenodd" d="M35.2213 41.4063C39.1009 38.0217 44.2953 36.694 49.068 34.7631C62.8752 29.1768 73.718 18.1725 86.5881 10.6755C92.9572 6.96545 100.542 4.06801 107.596 6.20572C112.505 7.69347 116.589 11.6707 118.205 16.5391C121.257 25.7304 115.735 35.2591 112.636 44.4349C106.724 61.9452 109.723 81.3713 116.235 98.6678C117.659 102.45 119.256 106.209 119.921 110.195C121.467 119.461 117.637 129.127 111.148 135.918C104.658 142.71 95.7837 146.857 86.6488 149.047C75.4527 151.73 63.6041 151.647 52.4467 148.807C46.7925 147.368 41.2328 145.184 36.6486 141.574C32.0644 137.965 28.5186 132.804 27.6939 127.028C26.4519 118.33 31.3388 109.967 32.2005 101.223C32.5839 97.3324 32.1624 93.4117 31.7122 89.5281C31.0443 83.766 30.3123 78.0114 29.5164 72.2657C28.7664 66.8508 27.9578 61.3785 28.5017 55.9391C29.0456 50.4997 31.102 44.9999 35.2213 41.4063Z" fill="#3457DC"/>
<path d="M85.3412 111.864C85.4108 112.766 85.4572 113.701 85.1391 114.547C84.5834 116.026 83.0746 116.885 81.6755 117.619C73.4598 121.932 65.1523 126.177 56.3172 129.012C55.924 128.373 53.866 124.844 55.34 123.583C58.5277 120.856 75.0709 109.798 75.0709 109.798C75.0709 109.798 73.1685 106.111 74.2365 105.029C76.2871 102.953 82.3074 102.619 83.6218 102.887C84.501 103.066 85.2878 111.171 85.3412 111.864Z" fill="white"/>
<path fill-rule="evenodd" clip-rule="evenodd" d="M59.9425 122.511C59.9425 122.511 60.2394 123.162 61.1739 123.162C62.1085 123.162 63.8625 119.562 64.8104 117.65C65.7682 115.718 65.712 115.695 67.4014 111.616C69.0908 107.536 65.7525 101.419 65.7525 101.419C65.7525 101.419 60.2928 100.692 59.3645 101.419C57.9098 102.559 58.8384 109.838 58.8384 109.838L59.9425 122.511Z" fill="white"/>
<path d="M86.1204 63.3445C83.2947 62.3277 79.5754 61.8984 76.937 60.4642C77.0448 60.4493 76.3728 58.5372 76.9919 56.5771C77.6824 54.3911 103.724 67.1625 105.194 68.6028C105.349 68.7543 108.968 72.9377 107.575 73.2198C106.729 73.3912 106.189 72.8121 103.111 71.121C100.034 69.43 100.544 72.3452 100.034 72.413C99.5917 72.4716 99.4184 71.734 99.4246 71.8398C95.6947 68.0667 91.1126 65.1409 86.1204 63.3445Z" fill="white"/>
<path fill-rule="evenodd" clip-rule="evenodd" d="M100.31 24.8732C101.274 26.3968 101.498 27.354 101.743 29.1405C100.296 30.3172 83.658 40.8866 71.6019 45.7233L71.8264 45.7063C73.8647 45.5431 75.3746 45.1849 75.7884 44.6837C77.8487 52.3428 77.8022 60.5574 75.6553 68.1928C75.3533 69.267 76.6069 70.0601 77.6576 70.4696L77.7117 70.4904C85.159 73.3193 92.2296 77.1378 98.6791 81.8141C94.9769 83.5904 91.5857 86.0126 88.7047 88.9386L88.3984 89.2523C87.3785 90.3035 86.3574 91.3916 85.0327 91.9998C83.5755 92.6689 81.6071 92.5615 80.6455 91.2784L82.3922 94.5076C78.5461 96.7721 74.2115 98.2021 69.7731 98.6723L69.5394 98.6961C69.0633 98.7429 68.5429 98.768 68.1496 98.4956C67.8676 98.3003 67.7006 97.9845 67.5512 97.6736L61.6751 85.3391C60.6044 83.0853 59.5585 80.7892 59.1534 78.3309C58.2747 72.9984 60.2743 67.5285 59.465 62.1851C58.5987 56.465 54.4536 51.8676 51.9905 46.6328C51.0421 44.6173 49.6445 41.6741 50.8175 38.474C51.9905 35.274 65.2934 35.6638 75.6553 32.9331C89.0358 29.4069 100.138 24.6027 100.31 24.8732Z" fill="white"/>
<ellipse cx="62.7923" cy="26.308" rx="7.91704" ry="9.56568" fill="white"/>
<path d="M73.57 56.2065C73.3061 57.3485 71.9237 58.0761 70.8266 57.6636C70.6806 57.6087 70.6151 57.4428 70.5673 57.2944C69.9391 55.3454 69.5242 53.3278 69.3324 51.2891C69.2977 50.92 69.2712 50.5403 69.3767 50.185C69.6065 49.4112 70.5237 48.9191 71.2954 49.1556C71.8212 49.3166 72.2266 49.7539 72.4739 50.245C72.7212 50.7361 72.8317 51.2828 72.9395 51.822C73.1176 52.712 73.2956 53.602 73.4737 54.492C73.5869 55.0578 73.7 55.6443 73.57 56.2065Z" fill="white"/>
<path d="M68.3857 105.29C68.2128 105.186 66.8629 102.001 67.4671 101.636C69.9991 100.107 89.7786 92.7591 92.0954 91.3997C94.4122 90.0403 91.6069 88.4322 91.7558 87.3846C91.9912 85.7276 97.0923 84.5041 97.1034 83.6633C100.425 85.8252 103.58 87.8482 105.856 91.0919C106.705 92.3006 107.571 94.6721 106.748 95.8978C106.26 96.6236 105.011 96.9876 104.177 97.2512C97.4865 99.366 67.0715 107.398 68.3857 105.29Z" fill="white"/>
<path d="M56.5545 130.508C55.9939 135.183 54.791 139.781 52.9902 144.131C52.662 144.924 52.2726 145.757 51.5388 146.202C50.8049 146.646 49.6371 146.458 49.3722 145.641C47.3185 139.314 46.3013 132.65 46.3732 125.998C46.3761 125.728 46.3845 125.444 46.5214 125.212C46.7298 124.858 47.1678 124.724 47.5667 124.626C49.6084 124.123 51.6879 123.775 53.7818 123.583C54.014 123.693 53.3405 129.46 56.5545 130.508Z" fill="white"/>
<circle cx="109.215" cy="33.8007" r="10.9709" fill="#FFB61D"/>
<path fill-rule="evenodd" clip-rule="evenodd" d="M102.163 24.1596C102.478 25.5505 102.977 26.9428 104.148 26.7294C105.669 26.4521 102.563 25.9031 123.129 23.9969C123.364 23.9751 122.952 23.5183 122.747 23.4014C121.666 22.7846 120.526 22.2616 119.354 21.8425C117.453 21.1627 101.982 23.3634 102.163 24.1596Z" fill="white"/>
<path fill-rule="evenodd" clip-rule="evenodd" d="M99.4251 71.8394C95.6951 68.0663 91.1131 65.1405 86.1209 63.3441C83.2952 62.3273 80.3213 61.6583 77.6829 60.224C77.9093 60.1928 78.1151 60.0395 78.2098 59.8314C85.5004 62.3356 93.0504 64.9962 98.557 70.3908C98.9689 70.7943 99.3915 71.2638 99.4251 71.8394Z" fill="#00160A"/>
<path fill-rule="evenodd" clip-rule="evenodd" d="M77.6477 51.9645C78.7591 52.3758 79.6243 53.2463 80.5347 54.0049C85.5304 58.1674 92.4655 59.2891 97.6865 63.1652C97.2111 63.04 96.7593 62.8399 96.3099 62.6407C91.5482 60.5292 86.7773 58.4132 82.2486 55.8396C80.4852 54.8375 78.6942 53.7019 77.6477 51.9645L77.6477 51.9645Z" fill="#00160A"/>
<path fill-rule="evenodd" clip-rule="evenodd" d="M54.3456 23.8761C53.8572 21.9383 53.4337 19.8861 53.9809 17.9641C54.5281 16.0421 56.3662 14.3408 58.3426 14.6366C59.6815 14.8369 60.9909 14.2307 62.2217 13.661L62.2723 13.6375C63.8736 12.8965 65.5681 12.1969 67.3312 12.2636C69.0944 12.3303 70.9403 13.3746 71.3875 15.0814C71.5799 15.8155 71.5017 16.5899 71.4222 17.3447L70.7605 23.6278C70.4968 26.1314 70.1888 28.7573 68.7369 30.814C67.285 32.8706 64.2848 34.0671 62.1697 32.7017C61.8784 33.5184 62.5247 34.4291 63.3333 34.7422C64.1419 35.0554 65.0456 34.9333 65.9029 34.803C76.0106 33.2672 86.4311 31.0587 94.5753 24.8784C94.4171 23.8089 94.9787 22.6692 95.9233 22.1432L96.0127 22.0933C96.6368 21.7445 97.5925 21.2104 98.2447 21.3461C99.0042 21.5041 99.5386 22.2553 100.031 22.947C100.153 23.1194 100.273 23.2882 100.393 23.4431C101.43 24.779 101.775 26.5095 102.089 28.171C102.188 28.6956 102.142 29.4397 101.612 29.5101C104.532 29.5593 107.447 29.8873 110.305 30.4881L110.981 28.6932C109.225 25.9253 104.35 26.1792 102.891 29.1144C102.445 28.5817 103.159 27.8635 103.776 27.5433C103.776 27.5427 103.776 27.542 103.775 27.5414C103.775 27.5414 103.775 27.5415 103.775 27.5415C102.843 25.8684 102.156 24.0587 101.744 22.1882C101.744 22.1887 101.744 22.1892 101.744 22.1897C101.744 22.1892 101.744 22.1887 101.744 22.1882L101.785 22.2776C102.147 23.0462 102.529 23.6832 102.911 24.3203C103.307 24.9819 103.704 25.6435 104.077 26.4524C107.059 25.0729 110.186 24.7757 113.454 24.465L113.516 24.4591C113.527 24.458 113.539 24.4568 113.551 24.4557C112.264 24.9372 111.478 26.4748 111.842 27.7999C113.381 27.7677 114.908 27.2814 116.182 26.4176C115.376 26.033 114.758 25.2738 114.546 24.4063C116.075 25.1787 117.149 26.0241 116.566 26.705C115.75 27.6565 112.665 28.3346 111.601 28.4656L111 30.6716C113.579 31.3896 116.021 32.5988 118.156 34.2153C119.503 35.2355 120.745 37.3257 119.447 38.4075L127.594 38.525C128.13 38.5327 128.887 38.8849 128.625 39.3516L93.6177 39.3698C93.1355 39.37 92.4823 38.8281 92.9106 38.6067C94.8692 38.7118 96.8381 38.625 98.7799 38.3479C98.0008 36.631 97.7378 34.6838 98.0335 32.8217C98.4809 30.0047 97.0876 26.9823 94.655 25.4928C83.9815 33.0981 70.3318 34.8274 57.2952 36.1724C55.7124 36.3357 54.0177 36.5435 52.8229 37.5944C51.5766 38.6906 51.1651 40.5082 51.3845 42.1534C51.6038 43.7986 52.3641 45.317 53.1471 46.7805C53.6047 47.6358 54.0763 48.4921 54.5496 49.3514C57.4972 54.7038 60.508 60.171 60.5987 66.2123C60.6223 67.7805 60.4441 69.3452 60.2661 70.9083C60.0436 72.8619 59.8213 74.8132 59.9936 76.7658C60.284 80.0565 61.6741 83.1358 63.0442 86.1418L67.8673 96.7236C68.0528 97.1307 68.2547 97.5578 68.6232 97.8114C69.2363 98.2333 70.0649 98.0314 70.7767 97.814L78.821 95.3576C79.6102 95.1166 80.5466 94.7026 80.6118 93.8801C80.6477 93.427 80.3886 93.009 80.1398 92.6287L77.9192 89.235L82.9817 91.1659C83.3387 91.302 83.7147 91.4406 84.0931 91.3879C84.5597 91.3231 84.9337 90.9835 85.2788 90.663C88.937 87.2663 92.9337 84.2344 97.1904 81.6267C90.5404 76.6365 82.9858 72.8556 75.0055 70.5237C76.8068 62.2483 76.8551 53.5957 75.1461 45.3008L63.8768 48.8837C63.8226 50.2634 64.1718 51.6122 64.5198 52.9562C64.6117 53.3111 64.7035 53.6656 64.7878 54.0203C65.1912 55.7184 65.4107 57.5725 64.6747 59.1551C63.9387 60.7377 61.9349 61.8317 60.382 61.0349C62.2297 61.6402 64.2016 60.0028 64.6932 58.1215C65.1848 56.2403 64.6285 54.2621 64.0756 52.3979L62.9096 48.4665C75.4055 44.7575 87.2023 38.7075 97.5058 30.7237C91.3147 36.7515 83.5036 40.791 75.7893 44.6837C77.8496 52.3429 77.8031 60.5575 75.6562 68.1928C75.349 69.2855 76.6515 70.0874 77.7126 70.4905C85.1598 73.3193 92.2304 77.1379 98.6799 81.8141C94.9777 83.5904 91.5865 86.0127 88.7055 88.9386C88.5593 89.0871 88.4138 89.2374 88.2679 89.3879C87.2911 90.3961 86.3013 91.4177 85.0335 91.9999C83.5764 92.669 81.6079 92.5615 80.6463 91.2784L82.3931 94.5076C78.4794 96.8119 74.0601 98.2521 69.5403 98.6962C69.0641 98.743 68.5438 98.7681 68.1504 98.4957C67.8496 98.2874 67.6797 97.9419 67.5223 97.6116L61.8651 85.7365C60.7305 83.355 59.5832 80.9338 59.1543 78.331C58.71 75.6349 59.0587 72.9038 59.4075 70.1716C59.7486 67.4998 60.0899 64.827 59.6897 62.1851C59.1207 58.4278 57.137 55.155 55.1446 51.8677C54.1037 50.1504 53.0605 48.4291 52.2153 46.6329C51.2669 44.6173 50.553 42.3814 50.9135 40.1832C51.2739 37.985 52.979 35.8855 55.1987 35.6986C54.6393 32.9154 54.8604 29.9797 55.8304 27.3117C55.8615 30.1672 55.7198 33.0246 55.4061 35.863L62.7338 35.208L60.6534 31.8916C63.289 33.8043 67.2885 32.1583 68.9523 29.3589C70.6162 26.5595 70.5693 23.0962 70.3589 19.8465C68.2159 21.1591 65.4213 21.3404 63.1267 20.3156C62.0614 19.8399 60.7641 20.4806 60.1125 21.4484C59.461 22.4163 59.2968 23.621 59.1497 24.7784C58.6422 24.5854 58.5223 24.0421 58.3975 23.4767C58.3099 23.0797 58.2199 22.6718 57.9917 22.3665C57.1769 21.2765 55.2374 22.4561 55.2863 23.816C55.3353 25.1759 56.4952 26.2045 57.5965 27.0037C55.9986 27.612 54.7635 25.534 54.3456 23.8761ZM103.775 27.5415C103.736 27.5628 103.735 27.5648 103.776 27.5434C103.776 27.5428 103.775 27.5421 103.775 27.5415ZM98.8252 22.4754C98.6162 22.2323 98.3693 21.982 98.0509 21.9453C97.7003 21.905 97.3821 22.1348 97.1044 22.3525L96.0756 23.1586C95.7242 23.434 95.3626 23.7213 95.1535 24.1158C94.9444 24.5103 94.9295 25.0444 95.24 25.3653C96.3034 26.4645 97.3832 27.5862 98.0718 28.9518C98.7604 30.3174 99.0103 31.9895 98.361 33.3743C98.0244 34.0919 98.4585 34.9909 99.1374 35.4C99.8163 35.8091 100.658 35.8322 101.447 35.7505C102.888 35.6011 104.277 35.1452 105.653 34.6921L108.503 33.7541C109.49 33.429 110.186 32.3778 110.098 31.3416C110.225 31.1274 109.904 30.9322 109.659 30.8876C107.812 30.5517 105.948 30.3033 104.078 30.1436C102.333 29.9946 100.402 29.978 99.0469 31.0872C99.6327 30.0708 100.627 29.2975 101.756 28.9795C101.428 26.591 100.397 24.3033 98.8252 22.4754ZM109.782 33.8197C110.718 34.1404 111.369 34.9956 111.817 35.8782C111.977 36.1947 112.12 36.5209 112.263 36.847C112.518 37.43 112.772 38.0125 113.129 38.5374C114.626 38.594 116.126 38.5832 117.622 38.5052C118.02 38.4845 118.427 38.4568 118.792 38.2984C119.158 38.14 119.479 37.8237 119.535 37.4292C119.548 37.3377 119.546 37.2443 119.544 37.1512V37.1511V37.1511V37.151V37.1509C119.542 37.0138 119.54 36.8773 119.584 36.7485C119.597 36.7074 119.615 36.6645 119.633 36.6212L119.634 36.621C119.699 36.464 119.768 36.3001 119.656 36.1898C117.34 33.8996 114.434 32.2101 111.298 31.3294C111.12 31.2795 110.91 31.2381 110.766 31.3545C110.686 31.42 110.646 31.522 110.609 31.6193L109.782 33.8197ZM99.8582 38.4721L106.313 38.4922C106.726 38.4935 107.001 38.0806 107.197 37.7173L109.134 34.1318C108.02 34.3464 106.956 34.7409 105.891 35.1358L105.891 35.1358C105.241 35.3765 104.592 35.6174 103.93 35.8178C102.183 36.3467 100.224 36.5728 98.5847 35.7699C98.6094 36.5354 98.9151 37.2887 99.4309 37.8549C99.2914 37.9086 99.2134 38.0845 99.2673 38.2239C99.3495 38.4364 99.6303 38.4714 99.8582 38.4721ZM107.301 38.4687C108.518 38.3515 109.744 38.3907 110.966 38.43L112.335 38.474C111.942 37.2073 111.335 36.0072 110.548 34.9398C110.398 34.7359 110.23 34.528 109.994 34.4354C109.758 34.3428 109.439 34.4148 109.343 34.6492C108.794 35.9873 108.109 37.2693 107.301 38.4687ZM110.677 27.7169C110.785 27.7707 110.906 27.824 111.021 27.7889C111.189 27.7374 111.247 27.5327 111.278 27.3593L111.611 25.5118C111.63 25.4092 111.646 25.295 111.589 25.2077C111.499 25.07 111.29 25.0875 111.141 25.1584C111.103 25.1765 111.066 25.1971 111.028 25.2178C110.919 25.278 110.809 25.3384 110.687 25.3365C109.8 25.3226 108.91 25.5213 108.113 25.9115C108.872 26.6355 109.74 27.2461 110.677 27.7169ZM69.7099 22.8516L68.2744 23.5065C68.1591 23.5592 68.0238 23.6118 67.9107 23.5545C67.7663 23.4813 67.7566 23.263 67.8504 23.131C67.9442 22.999 68.1029 22.9325 68.2533 22.8724L68.8787 22.6224C69.0396 22.5581 69.2092 22.4926 69.3811 22.5144C69.553 22.5362 69.7228 22.6788 69.7099 22.8516ZM64.7028 24.2778C64.9168 24.2622 65.133 24.0492 65.0521 23.8505L64.1886 23.6693C63.4627 23.517 62.6118 23.3954 62.0617 23.8929C61.8832 24.0543 61.7658 24.3605 61.9457 24.5204C62.5147 24.0117 63.3705 23.8486 64.0867 24.1124C64.1279 24.1276 64.169 24.1441 64.2103 24.1607L64.2103 24.1607C64.3707 24.2251 64.5326 24.2901 64.7028 24.2778ZM67.139 24.852L66.9736 24.5639C66.8994 24.5248 66.7967 24.5546 66.755 24.6273C66.4555 25.5239 66.595 26.556 67.1217 27.341C67.2515 27.5344 67.0267 27.8073 66.7939 27.8061C66.561 27.805 66.3662 27.6349 66.2089 27.4633C66.0261 27.7673 66.3411 28.1942 66.6958 28.1902C67.0505 28.1862 67.3408 27.8637 67.4142 27.5167C67.4876 27.1696 67.3904 26.8095 67.262 26.4787C67.2301 26.3965 67.1962 26.3147 67.1622 26.233L67.1622 26.233L67.1622 26.2329L67.1622 26.2329L67.1622 26.2329L67.1622 26.2329L67.1622 26.2329L67.1621 26.2328L67.1621 26.2328L67.1621 26.2328L67.1621 26.2328C67.0596 25.9859 66.9569 25.7389 66.9102 25.4766C66.8677 25.2386 66.9116 24.9335 67.139 24.852ZM61.1023 28.757C61.0018 28.2854 60.9783 27.6546 61.4238 27.47C61.7553 27.3327 62.1398 27.5771 62.3072 27.8945C62.4345 28.1359 62.4751 28.4086 62.5157 28.6807C62.5284 28.7663 62.5412 28.8517 62.5566 28.9361C62.621 29.2891 62.7595 29.6636 63.0706 29.8422C64.0214 30.3882 65.1175 30.6783 66.2139 30.6741C65.1522 31.1409 63.9425 30.5911 62.9157 30.0516L60.5778 28.8231C60.426 28.7433 60.2484 28.5794 60.3414 28.4353C60.6095 28.5026 60.8672 28.6116 61.1023 28.757ZM61.8002 28.4426C61.853 28.6758 61.8671 28.9177 61.8418 29.1555C62.0387 29.1856 62.2255 29.2786 62.3682 29.4175C62.3178 28.8923 62.1836 28.3752 61.9723 27.8917C61.8562 27.6262 61.4047 27.7281 61.3009 27.9987C61.1972 28.2692 61.3263 28.5702 61.4737 28.8197C61.4813 28.6404 61.6238 28.4757 61.8002 28.4426ZM63.3661 73.5019C67.195 72.9834 71.1289 72.4306 74.4949 70.5334C74.6406 70.4513 74.7993 70.2546 74.6699 70.1487C70.939 71.9587 66.8401 73.0061 62.6982 73.2077C62.7018 73.4846 63.0916 73.5391 63.3661 73.5019ZM66.8724 112.057C67.0861 111.593 67.2533 111.109 67.3709 110.612L64.4098 109.952C64.47 109.707 64.8042 109.678 65.0545 109.711C65.8717 109.82 66.6765 110.023 67.4483 110.313L67.9988 108.019C68.116 107.955 68.2608 107.944 68.386 107.99C68.0086 110.099 67.4082 112.169 66.5981 114.152C66.4805 114.44 66.29 114.774 65.9789 114.772C65.9567 114.588 65.9864 114.399 66.0637 114.231C65.318 114.275 64.4869 114.29 63.9272 113.796C64.6611 113.701 65.4113 113.733 66.1343 113.891C66.4282 113.439 66.6541 112.943 66.802 112.425C65.9436 112.384 65.0926 112.193 64.2982 111.866C64.3797 111.63 64.7106 111.632 64.9557 111.68L66.8724 112.057ZM50.6785 145.145C49.0897 139.163 48.115 133.019 47.7749 126.839C47.7454 126.302 47.7412 125.703 48.1015 125.304C48.35 131.473 49.2229 137.618 50.7025 143.612C50.8284 144.122 50.9503 144.695 50.6785 145.145ZM52.9246 134.39C53.7777 134.198 54.678 134.218 55.5218 134.448L55.9037 132.968C54.865 132.883 53.8372 132.667 52.8525 132.326C53.9029 132.131 55.0129 132.269 55.9831 132.717C55.8172 131.945 56.0359 131.101 56.5552 130.508C55.9947 135.183 54.7918 139.781 52.9909 144.131C52.6627 144.924 52.2734 145.757 51.5395 146.202C50.8056 146.646 49.6378 146.458 49.373 145.641C47.3193 139.314 46.302 132.65 46.3739 125.998C46.3768 125.728 46.3852 125.444 46.5221 125.212C46.7305 124.858 47.1685 124.724 47.5674 124.626C49.6091 124.123 51.6886 123.775 53.7826 123.583C54.0148 123.693 53.7099 124.011 53.4574 124.059L46.6737 125.335C46.7453 132.119 47.7783 138.891 49.7322 145.388C49.8082 145.64 49.8975 145.91 50.1093 146.067C50.656 146.473 51.3598 145.823 51.7062 145.237C53.2914 142.554 54.4111 139.597 55.0003 136.537C54.2801 136.855 53.4085 136.805 52.7296 136.406C53.4991 136.201 54.3195 136.191 55.0938 136.377L55.4789 134.997L52.9246 134.39ZM92.0957 89.8846C92.0974 89.682 92.0086 89.4895 91.9025 89.317C91.6282 88.8714 91.2229 88.5075 90.7503 88.2827C90.5443 88.6012 90.8249 88.9985 91.056 89.2992C91.2872 89.6 91.4437 90.1095 91.1134 90.2962L85.5908 93.4176C85.4081 93.5209 85.2003 93.746 85.3415 93.9012C86.6109 93.7421 87.7447 93.0575 88.8352 92.3886L91.2662 90.8974C91.6557 90.6585 92.0919 90.3414 92.0957 89.8846ZM71.1817 72.8374C71.3297 72.7952 71.1578 72.5813 71.0048 72.5652C70.8518 72.5491 70.6377 72.4085 70.754 72.3079L71.3985 72.3337C71.6798 72.451 71.5868 72.9232 71.3102 73.0513C71.0335 73.1794 70.7102 73.0796 70.4225 72.9787C70.3874 73.3348 70.0005 73.6127 69.6519 73.5323C69.3032 73.4519 69.0771 73.0326 69.2015 72.6971C69.4036 72.5233 69.7063 72.4761 69.9518 72.5802C69.9757 72.6846 69.8683 72.7168 69.7517 72.7517C69.6843 72.7718 69.6139 72.7929 69.564 72.8293C69.3617 72.9767 69.6549 73.3194 69.8894 73.2321C70.124 73.1448 70.2172 72.8691 70.2812 72.6271C70.5473 72.7936 70.8694 72.8687 71.1817 72.8374ZM64.5664 25.0983C64.953 25.0387 65.1218 25.6328 64.9118 25.9628C64.7327 26.2442 64.3512 26.4213 64.0531 26.2717C63.9672 25.9491 64.0385 25.5884 64.2407 25.3228C64.3226 25.2152 64.4327 25.1189 64.5664 25.0983ZM68.8336 25.592C69.2125 25.3831 69.0757 24.8129 68.8885 24.4229C68.3643 24.4892 68.0281 25.1669 68.2924 25.6244C68.4739 25.6574 68.6721 25.681 68.8336 25.592ZM67.4675 101.636L69.9252 100.518C70.1257 99.9244 69.8917 99.2121 69.3783 98.8534C69.3637 99.2733 69.4551 99.6965 69.6418 100.073C68.5817 100.585 67.4913 101.035 66.3782 101.419C66.9955 102.907 67.448 104.464 67.7247 106.051C69.2104 106.1 70.7014 105.986 72.1623 105.712L73.8787 109.434L66.8925 114.63C64.5582 116.366 63.4418 119.253 62.4392 121.984C63.3278 121.168 63.8066 120.024 64.2831 118.884C64.8073 117.632 65.3288 116.385 66.3901 115.589L73.5003 110.254C73.7575 110.061 74.0315 109.844 74.1095 109.532C74.1826 109.24 74.0643 108.937 73.9483 108.658L72.6614 105.572C76.3851 105.005 80.0581 104.105 83.6225 102.887L84.5524 111.584C84.6735 112.715 84.7725 113.948 84.1583 114.906C83.7169 115.595 82.9763 116.024 82.2616 116.422C73.954 121.046 65.2892 125.03 56.3699 128.324L54.712 124.025C56.3018 122.848 57.9535 121.755 59.6581 120.752C59.6465 121.354 59.6432 121.99 59.9435 122.511C60.2439 123.033 60.9641 123.362 61.4686 123.034C62.0317 122.668 61.9548 121.835 61.8226 121.177C60.5639 114.903 60.3626 108.471 60.1651 102.075C59.6647 108.797 60.1562 115.593 61.6189 122.173C61.718 122.619 61.028 122.886 60.6571 122.619C60.2861 122.352 60.1926 121.849 60.131 121.396C59.298 115.278 58.9259 109.096 59.0188 102.922C59.0251 102.505 59.0632 102.026 59.3979 101.777C59.6184 101.614 59.9116 101.597 60.1861 101.586L65.986 101.359C63.9859 101.068 61.9503 101.024 59.9396 101.227C59.6134 101.26 59.2653 101.309 59.0216 101.528C58.7031 101.815 58.665 102.293 58.6519 102.721C58.4856 108.146 58.7846 113.584 59.5448 118.958C59.6831 119.936 58.9386 120.831 58.1021 121.357C57.7506 121.577 57.3754 121.759 57.0006 121.94L57.0005 121.94C56.4834 122.191 55.9671 122.441 55.5152 122.792C54.7356 123.399 54.1752 124.481 54.5974 125.374L56.3179 129.012C65.153 126.177 73.4605 121.932 81.6762 117.62C83.0753 116.885 84.5841 116.027 85.1398 114.548C85.4579 113.701 85.4115 112.766 85.342 111.865C85.106 108.807 84.6544 105.765 83.9914 102.77C90.7566 100.908 97.4869 98.9184 104.178 96.8037C105.011 96.5401 105.908 96.2289 106.395 95.5031C107.219 94.2774 106.453 92.6328 105.604 91.4241C103.328 88.1804 100.425 85.3777 97.1038 83.2158C97.0927 84.0566 97.86 84.6689 98.5318 85.1746C100.881 86.9433 102.955 89.0772 104.657 91.4762C105.379 92.4951 106.022 93.9414 105.223 94.9014C104.865 95.3321 104.303 95.5264 103.771 95.7005C92.0519 99.5282 80.1562 102.814 68.1341 105.543L67.4675 101.636ZM121.377 72.1633C121.638 72.6709 122.045 73.2877 122.603 73.1667C121.422 70.7344 119.756 68.5392 117.73 66.7481L123.549 61.5031L123.015 70.4985C122.977 71.1418 122.945 71.8185 123.229 72.3971C123.773 72.2172 123.868 71.5019 123.872 70.9292C123.943 60.5741 125.707 50.2325 129.073 40.4394C128.721 39.9416 128.017 39.8848 127.407 39.8819C124.63 39.8687 121.854 39.9953 119.079 40.122C115.979 40.2634 112.879 40.4049 109.777 40.3513C108.295 40.3258 106.81 40.2559 105.324 40.1861C101.337 39.9987 97.3495 39.8112 93.4279 40.4795C93.3685 40.4896 93.3071 40.5008 93.2576 40.5349C93.1073 40.6386 93.1519 40.8681 93.2127 41.0402C95.6336 47.8948 97.3027 55.0145 98.1807 62.2308C98.308 63.2767 99.2328 64.0157 100.085 64.6359L103.472 67.102C103.953 67.4524 104.782 67.7216 105.011 67.172C105.174 66.7804 105.668 66.6132 106.084 66.6931C106.501 66.7731 106.854 67.0409 107.179 67.3135C109.078 68.906 110.599 70.9458 111.584 73.22L117.162 67.1743C118.918 68.4918 120.371 70.2115 121.377 72.1633ZM108.723 44.9611C111.614 45.0219 114.515 44.0085 116.74 42.1611C117.073 41.884 117.394 41.5872 117.658 41.2436C117.889 40.9436 118.287 40.572 118.569 40.8245C118.299 41.9358 118.256 43.1023 118.446 44.2302C118.59 45.0859 117.829 45.7982 117.143 46.33L115.068 47.9399C114.551 48.3418 114.018 48.7512 113.394 48.9506C112.769 49.1499 112.023 49.0996 111.541 48.6558L107.941 45.3446C107.669 45.0947 107.39 44.8348 107.241 44.4972C107.12 44.2242 107.093 43.92 107.073 43.622C107.011 42.6862 107.004 41.7467 107.053 40.8101C108.155 41.0179 109.287 40.9847 110.408 40.9508L113.3 40.8633C113.495 40.8573 113.694 40.8519 113.882 40.9067C114.055 40.9575 114.21 41.0572 114.362 41.1557L116.098 42.2828C115.646 42.25 115.298 42.5665 114.947 42.8861C114.792 43.0271 114.637 43.1686 114.472 43.281C114.129 43.5135 113.722 43.6262 113.32 43.7253C112.681 43.8831 112.036 44.0159 111.386 44.1235C110.147 44.3287 108.868 44.4405 107.64 44.1754C107.509 44.6751 108.207 44.9502 108.723 44.9611ZM104.761 55.9782C104.95 55.8326 105.151 55.6817 105.387 55.6532C105.628 55.6242 105.863 55.7269 106.079 55.8361C108.391 57.0032 110.058 59.1118 111.649 61.1556C110.002 62.0461 108.513 63.2254 107.268 64.6235L107.238 64.6572C107.037 64.8841 106.829 65.1177 106.552 65.2397C106.262 65.3677 105.869 65.3286 105.695 65.0635C104.258 62.8826 102.447 60.9486 100.365 59.3712L104.761 55.9782ZM106.379 54.8241C108.075 53.4939 109.827 52.2362 111.63 51.0556C111.814 50.9348 112.009 50.8114 112.228 50.792C112.468 50.7709 112.698 50.8767 112.911 50.9878C114.938 52.0449 116.565 53.8474 117.41 55.9713C115.55 57.0876 113.881 58.5214 112.497 60.1921C112.339 60.3821 112.037 60.5795 111.887 60.3832C110.303 58.3016 108.446 56.4276 106.379 54.8241ZM119.924 58.0408C121 58.9993 122.159 59.864 123.384 60.6216C121.05 62.1261 118.981 64.0419 117.302 66.2544C116.108 64.4188 114.645 62.7582 112.975 61.3423C112.892 61.2723 112.803 61.1927 112.789 61.0854C112.772 60.9654 112.854 60.8563 112.931 60.7634C114.549 58.8294 116.542 57.2109 118.767 56.025C118.703 56.8269 119.323 57.5056 119.924 58.0408ZM99.4233 40.8351C99.869 40.8182 100.377 40.8322 100.672 41.1667C102.226 42.9298 104.353 44.1799 106.649 44.6802C105.111 46.2192 103.368 47.5535 101.482 48.6368C101.176 48.8123 100.804 48.5791 100.533 48.353C98.0756 46.2993 95.888 43.9228 94.0444 41.3039C95.8283 41.0599 97.6241 40.9034 99.4233 40.8351ZM107.147 66.3608C108.172 64.5233 109.851 63.0594 111.811 62.2937C112.467 62.0374 113.154 62.5528 113.653 63.05C114.733 64.1267 115.722 65.2947 116.607 66.5373C116.656 66.6064 116.707 66.6807 116.711 66.7654C116.722 66.9527 116.52 67.07 116.353 67.1558C115.362 67.666 114.697 68.572 114.027 69.4845C113.51 70.1885 112.99 70.8964 112.316 71.4297C112.249 71.4828 112.175 71.536 112.09 71.5441C111.947 71.5575 111.827 71.4427 111.73 71.3369L107.147 66.3608ZM118.931 46.0224C120.504 47.7187 122.34 49.1709 124.353 50.311C122.312 51.6137 120.443 53.1844 118.808 54.9701C118.572 55.2273 118.166 54.9304 117.951 54.656C116.543 52.862 114.857 51.2858 112.973 50.0005C115.122 49.1761 117.029 47.7297 118.402 45.8819C118.527 45.7135 118.788 45.8685 118.931 46.0224ZM112.21 50.0507C109.824 50.9348 107.673 52.446 106.033 54.3913C104.775 52.4998 102.995 51.0273 101.241 49.584C103.352 48.512 105.314 47.1455 107.051 45.5364C108.653 47.1691 110.379 48.6797 112.21 50.0507ZM124.358 41.8269C125.093 41.3115 125.865 40.781 126.755 40.6595C127.234 40.5941 127.72 40.652 128.199 40.7127C127.055 43.7972 126.126 46.9617 125.424 50.1756C123.308 48.8877 121.334 47.368 119.548 45.6525C119.497 45.6036 119.444 45.5507 119.427 45.4821C119.391 45.3358 119.53 45.2107 119.654 45.1243L124.358 41.8269ZM100.142 58.8185C99.7797 58.2993 99.2908 57.8694 98.7297 57.5767L98.6919 57.5572C98.5683 57.4934 98.4416 57.428 98.3583 57.3177C98.287 57.2233 98.2554 57.1056 98.2254 56.9912C97.9681 56.0122 97.7088 54.9964 97.8807 53.9988C98.1082 52.6786 99.0476 51.6087 99.9718 50.6389C100.086 50.5194 100.209 50.3947 100.37 50.3587C100.542 50.3205 100.717 50.3911 100.875 50.466C102.781 51.3649 104.196 53.0442 105.401 54.7718C103.373 55.7014 101.56 57.0964 100.142 58.8185ZM119.353 56.1255C119.466 55.2623 120.056 54.5416 120.677 53.9315C121.977 52.6552 123.524 51.6328 125.208 50.9384L123.771 60.0584C122.033 59.0939 120.512 57.7402 119.353 56.1255ZM99.6479 59.2129C99.6835 59.3631 99.5565 59.4984 99.441 59.6007L98.8826 60.095C98.9042 60.2301 99.0991 60.2493 99.2218 60.1887C99.2587 60.1704 99.2945 60.1481 99.3302 60.1257C99.4132 60.0739 99.4958 60.0222 99.5914 60.0229C99.6804 60.0236 99.7616 60.0706 99.8376 60.1169C102.045 61.4615 103.917 63.3516 105.24 65.5716C105.323 65.7112 105.407 65.8611 105.405 66.0237C105.402 66.2577 105.226 66.449 105.061 66.6153C104.69 66.9905 104.082 67.3788 103.697 67.0175C102.448 65.8455 101.053 64.8287 99.555 63.998C99.2304 63.818 99.1445 63.3986 99.0926 63.0311L98.4053 58.1633C98.8088 58.4044 99.1834 58.694 99.5185 59.0237C99.5737 59.0781 99.6301 59.1375 99.6479 59.2129ZM95.4315 44.3197C97.0403 46.0259 98.7056 47.6787 100.424 49.2746C99.2651 50.3825 98.0697 51.5448 97.5126 53.0481L95.1519 44.2184C95.254 44.2061 95.3609 44.2449 95.4315 44.3197ZM119.01 43.5546C118.934 42.6045 118.877 41.5773 119.39 40.7742L124.962 40.9145L119.125 45.0065L119.01 43.5546ZM106.493 44.2169L105.399 43.7341L105.425 43.438C105.261 43.5853 105.071 43.4503 104.87 43.3067C104.69 43.1786 104.501 43.0436 104.311 43.096C104.266 43.1085 104.215 43.1282 104.163 43.1481C104.002 43.2105 103.834 43.2752 103.815 43.1291C103.807 43.0699 103.848 43.0165 103.887 42.971L105.271 41.334C105.434 41.1414 105.611 40.9395 105.852 40.8658C106.093 40.7922 106.411 40.9135 106.449 41.1629C106.601 42.1727 106.616 43.2031 106.493 44.2169ZM104.425 40.9678C104.522 40.8593 104.724 40.8788 104.798 41.0037C104.543 41.6557 104.086 42.227 103.506 42.6186C103.34 42.7309 103.043 42.7829 102.999 42.587C102.947 42.3539 102.675 42.3049 102.422 42.2595L102.422 42.2595C102.369 42.2498 102.316 42.2404 102.267 42.2294C101.712 42.1057 101.322 41.4853 101.451 40.932C102.038 40.6452 102.719 40.6465 103.373 40.6538C103.75 40.6579 104.176 40.6832 104.425 40.9678ZM117.177 41.0316C116.971 41.1641 116.826 41.389 116.791 41.6319C116.098 41.6383 115.408 41.3389 114.939 40.8286C115.425 40.7347 115.945 40.8275 116.368 41.0838C116.555 40.8417 116.961 40.8156 117.177 41.0316ZM123.145 24.1137C122.551 23.0732 119.253 21.4821 116.858 20.9926C111.808 19.9602 106.486 20.2847 101.599 21.9231C105.63 20.0116 110.482 19.7607 115.088 20.2175C119.215 20.6269 124.895 24.1699 123.495 24.4848C122.323 24.7486 117.507 24.4848 114.938 23.8655C116.309 23.4625 119.162 23.7939 121.117 24.0209C122.355 24.1647 123.233 24.2667 123.145 24.1137Z" fill="#00160A"/>
<path fill-rule="evenodd" clip-rule="evenodd" d="M51.3533 132.542C51.5104 132.875 51.5765 133.251 51.5424 133.619C51.1812 133.35 50.8495 133.042 50.5551 132.702C50.2684 132.942 49.916 133.102 49.5469 133.16C49.5096 132.781 49.7361 132.39 50.0837 132.234C49.6388 132.084 49.0943 131.77 49.1988 131.312C49.6278 131.317 50.0558 131.393 50.4595 131.538C50.4556 131.14 50.6591 130.746 50.9858 130.518C51.0798 130.94 51.1738 131.362 51.2678 131.784C51.5148 131.89 51.7741 131.967 52.0388 132.013C51.8957 132.273 51.6411 132.469 51.3533 132.542L51.3533 132.542Z" fill="#FFB61D"/>
<path fill-rule="evenodd" clip-rule="evenodd" d="M63.0217 110.378C62.6237 110.269 62.2641 110.025 62.0165 109.695C61.7535 109.893 61.4264 110.004 61.0974 110.007C61.1934 109.753 61.3412 109.518 61.529 109.321C61.2394 109.064 60.973 108.78 60.7339 108.475C61.1336 108.183 61.8087 108.862 62.134 108.489C62.2345 108.374 62.2385 108.207 62.2915 108.063C62.3445 107.92 62.5134 107.787 62.6395 107.873C62.7919 108.144 62.8552 108.464 62.8173 108.772C63.0394 108.843 63.2615 108.913 63.4836 108.984C63.4755 109.242 63.1799 109.448 62.9347 109.365C62.9637 109.703 62.9927 110.04 63.0217 110.378H63.0217Z" fill="#FFB61D"/>
<path fill-rule="evenodd" clip-rule="evenodd" d="M102.749 68.1783C102.972 67.984 103.316 68.1363 103.559 68.3035C105.199 69.4305 106.455 71.0209 107.683 72.5862C107.804 72.7399 107.931 72.9182 107.902 73.1114C107.873 73.3046 107.58 73.432 107.479 73.2646C106.415 71.4984 104.992 69.9491 103.323 68.7384C103.104 68.58 102.873 68.418 102.749 68.1783L102.749 68.1783Z" fill="#00160A"/>
<path fill-rule="evenodd" clip-rule="evenodd" d="M61.8002 28.4422C61.853 28.6754 61.8671 28.9174 61.8418 29.1552C62.0387 29.1852 62.2255 29.2782 62.3682 29.4172C62.3178 28.8919 62.1836 28.3748 61.9723 27.8913C61.8562 27.6258 61.4047 27.7278 61.3009 27.9983C61.1972 28.2688 61.3263 28.5698 61.4737 28.8193C61.4813 28.64 61.6238 28.4754 61.8002 28.4422Z" fill="#FFB61D"/>
<path fill-rule="evenodd" clip-rule="evenodd" d="M106.319 72.64C104.828 71.794 103.271 71.0642 101.667 70.4595C101.314 70.3265 100.876 70.4901 100.696 70.8217C100.473 70.659 100.604 70.2667 100.859 70.1597C101.114 70.0528 101.404 70.1368 101.666 70.2252C103.061 70.6967 104.421 71.2741 105.729 71.9507C106.014 72.0981 106.338 72.3196 106.319 72.64H106.319Z" fill="#00160A"/>
<path fill-rule="evenodd" clip-rule="evenodd" d="M99.7467 67.9152C100.223 69.2366 100.401 70.6643 100.266 72.0623C100.251 72.2158 100.188 72.4116 100.034 72.4125C99.8553 72.4135 99.8122 72.166 99.8245 71.9881C99.9254 70.5224 99.7326 69.0371 99.2607 67.6458C99.3867 67.4509 99.668 67.6968 99.7467 67.9152H99.7467Z" fill="#00160A"/>
<path fill-rule="evenodd" clip-rule="evenodd" d="M107.113 71.1207C106.346 70.2223 105.578 69.3238 104.811 68.4254C104.719 68.3177 104.623 68.1619 104.707 68.0474C105.718 68.8828 106.545 69.9391 107.113 71.1207Z" fill="#00160A"/>
<path fill-rule="evenodd" clip-rule="evenodd" d="M21.1701 72.0922C21.0463 72.0171 20.9777 71.8607 21.0065 71.7188C21.0871 71.6352 21.2392 71.6374 21.3172 71.7234C21.3917 71.8619 21.3215 72.0578 21.176 72.1174L21.1701 72.0922Z" fill="#00160A"/>
<path fill-rule="evenodd" clip-rule="evenodd" d="M103.12 1.29687C103.029 1.31068 102.938 1.32449 102.847 1.3383C102.797 1.25544 102.778 1.15458 102.793 1.05913C102.872 1.00782 102.971 0.988576 103.064 1.00663C103.115 1.08457 103.134 1.18388 103.113 1.27514L103.12 1.29687Z" fill="#00160A"/>
<path fill-rule="evenodd" clip-rule="evenodd" d="M73.57 56.2061C73.3061 57.3481 71.9237 58.0757 70.8266 57.6632C70.6806 57.6083 70.6151 57.4424 70.5673 57.294C69.9391 55.3451 69.5242 53.3274 69.3324 51.2887C69.2977 50.9197 69.2712 50.54 69.3767 50.1846C69.6065 49.4109 70.5237 48.9188 71.2954 49.1552C71.8212 49.3163 72.2266 49.7535 72.4739 50.2446C72.7212 50.7358 72.8317 51.2825 72.9395 51.8217C73.1176 52.7117 73.2956 53.6016 73.4737 54.4916C73.5869 55.0574 73.7 55.6439 73.57 56.2061ZM71.0992 57.282C71.2714 57.4313 71.523 57.4524 71.7473 57.4121C72.7084 57.2395 73.2359 56.133 73.2044 55.157C73.173 54.1811 72.7534 53.2645 72.5402 52.3116C72.3917 51.648 72.3353 50.9419 71.9808 50.3616C71.6264 49.7813 70.8295 49.3893 70.2541 49.7516C69.6733 50.1174 69.679 50.9532 69.7715 51.6334C70.0064 53.3615 70.3607 55.0734 70.8308 56.7529C70.8849 56.9462 70.9475 57.1505 71.0992 57.282Z" fill="#FFB61D"/>
<path fill-rule="evenodd" clip-rule="evenodd" d="M72.4004 56.306C72.1976 56.4362 71.9127 56.3491 71.7472 56.1738C71.5818 55.9984 71.5077 55.7581 71.4422 55.5261C71.0539 54.1501 70.7846 52.7406 70.6384 51.3183C70.6183 51.1233 70.6019 50.9187 70.6777 50.7379C70.7536 50.5571 70.9529 50.4122 71.1415 50.4659C71.3254 50.5183 71.4155 50.7208 71.4795 50.901C72.0088 52.3904 72.3853 53.934 72.6012 55.4998C72.6413 55.7904 72.6473 56.1474 72.4004 56.306ZM70.9519 50.7241C70.989 52.4352 71.3085 54.1398 71.8935 55.7482C71.9603 55.9321 72.1468 56.1542 72.3034 56.0369C72.1915 54.2021 71.7304 52.3893 70.9519 50.7241Z" fill="#FFB61D"/>
<path fill-rule="evenodd" clip-rule="evenodd" d="M110.98 28.6929L110.304 30.4878C110.152 30.4558 109.973 30.4168 109.772 30.3728L109.771 30.3727C107.947 29.9746 104.263 29.1705 101.755 29.5236C99.3314 29.8649 98.241 31.5104 98.0327 32.8214C97.737 34.6835 98 36.6306 98.7791 38.3475C98.4867 38.3893 98.8126 38.4207 99.568 38.4438C99.6618 38.4654 99.7641 38.4715 99.8574 38.4717L101.3 38.4762C104.238 38.5109 109.107 38.5025 113.091 38.4813C113.103 38.4998 113.116 38.5183 113.128 38.5367C114.625 38.5932 116.125 38.5825 117.621 38.5045C117.845 38.4928 118.071 38.479 118.291 38.441C119.453 38.4274 119.969 38.4147 119.446 38.4071C120.745 37.3254 119.502 35.2352 118.155 34.215C116.02 32.5985 113.579 31.3893 110.999 30.6713L111.6 28.4652C113.426 28.2406 115.205 27.6408 116.794 26.7139C117.261 27.7787 118.153 26.2283 114.545 24.406C114.758 25.2735 115.375 26.0326 116.181 26.4173C114.907 27.2811 113.38 27.7673 111.841 27.7996C111.478 26.4745 112.264 24.9368 113.55 24.4553C111.366 24.4553 106.634 25.7634 104.185 27.062C102.866 27.7617 102.734 28.9276 102.89 29.1141C104.349 26.1788 109.224 25.925 110.98 28.6929ZM118.291 38.441C118.463 38.4114 118.631 38.3671 118.791 38.2977C119.157 38.1393 119.479 37.8229 119.534 37.4284C119.547 37.3369 119.545 37.2434 119.544 37.1503V37.1502C119.542 37.0131 119.539 36.8765 119.583 36.7477C119.597 36.7066 119.615 36.6637 119.633 36.6203C119.699 36.4632 119.767 36.2994 119.656 36.189C117.339 33.8989 114.433 32.2094 111.297 31.3287C111.119 31.2788 110.909 31.2373 110.766 31.3537C110.685 31.4192 110.645 31.5212 110.608 31.6185L109.781 33.8189C110.718 34.1396 111.368 34.9949 111.816 35.8774C111.977 36.1939 112.119 36.5202 112.262 36.8463C112.508 37.4089 112.754 37.9709 113.091 38.4813C115.22 38.47 117.097 38.455 118.291 38.441ZM101.3 38.4762L106.312 38.4919C106.725 38.4932 107 38.0802 107.196 37.7169L109.133 34.1315C108.02 34.346 106.955 34.7405 105.89 35.1354L105.89 35.1354C105.241 35.3762 104.591 35.6171 103.929 35.8174C102.182 36.3464 100.223 36.5725 98.584 35.7696C98.6087 36.5351 98.9144 37.2884 99.4301 37.8546C99.2906 37.9082 99.2126 38.0842 99.2666 38.2236C99.3151 38.349 99.4328 38.4126 99.568 38.4438C100.011 38.4573 100.601 38.468 101.3 38.4762ZM99.137 35.3994C98.4581 34.9902 98.024 34.0913 98.3606 33.3736C99.7545 30.4011 100.806 29.8637 104.077 30.143C105.948 30.3027 107.811 30.551 109.659 30.887C109.904 30.9316 110.225 31.1268 110.098 31.341C110.185 32.3771 109.49 33.4284 108.502 33.7535L105.653 34.6915C104.277 35.1446 102.888 35.6005 101.446 35.7498C100.658 35.8316 99.8159 35.8085 99.137 35.3994ZM107.301 38.4683C108.518 38.3511 109.744 38.3903 110.966 38.4296L112.335 38.4736C111.942 37.2069 111.335 36.0068 110.548 34.9394C110.398 34.7355 110.23 34.5276 109.994 34.435C109.758 34.3424 109.439 34.4144 109.343 34.6488C108.794 35.987 108.109 37.269 107.301 38.4683ZM111.021 27.7885C110.906 27.8236 110.785 27.7704 110.677 27.7166C109.74 27.2457 108.872 26.6351 108.113 25.9111C108.91 25.521 109.8 25.3222 110.687 25.3361C110.809 25.3381 110.919 25.2776 111.028 25.2174C111.066 25.1967 111.103 25.1761 111.141 25.158C111.29 25.0872 111.499 25.0696 111.589 25.2074C111.646 25.2947 111.63 25.4088 111.611 25.5114L111.278 27.359C111.247 27.5323 111.189 27.737 111.021 27.7885Z" fill="white"/>
</svg>
