<svg width="162" height="151" viewBox="0 0 162 151" fill="none" xmlns="http://www.w3.org/2000/svg">
<path fill-rule="evenodd" clip-rule="evenodd" d="M41.8357 141.3C41.6029 141.442 41.3022 141.395 41.1232 141.19C40.0477 140.248 38.834 139.487 37.7289 138.581C37.138 138.09 36.5081 137.648 35.8454 137.259C35.3609 136.979 34.9969 136.543 34.533 136.224L34.4038 136.141C33.8361 135.794 33.3757 135.293 32.8283 134.904C32.3665 134.576 32.0343 134.089 31.5716 133.737C30.9045 133.217 30.2641 132.664 29.6528 132.08C29.2156 131.753 28.8418 131.349 28.5498 130.888C28.4843 130.756 28.3638 130.728 28.2768 130.646C27.8916 130.308 27.5273 129.947 27.1861 129.565C26.4867 128.736 25.7079 127.974 25.0223 127.136C24.525 126.527 23.9938 125.951 23.4794 125.358C22.9848 124.788 22.5015 124.207 22.0295 123.617C20.9194 122.24 19.8909 120.799 18.9493 119.302C18.2267 118.121 17.5715 116.9 16.9867 115.645C16.4714 114.647 16.0232 113.616 15.6451 112.558C15.3709 111.704 14.971 110.885 14.7785 110.022C14.5969 109.208 14.3696 108.399 14.169 107.595C13.7042 105.734 13.3151 103.86 13.0016 101.973C12.8158 100.862 12.6526 99.7401 12.4498 98.6362C12.2119 97.3409 12.1229 96.0286 11.8892 94.7336C11.7529 93.9749 11.7122 93.1718 11.6229 92.3932C11.5363 91.6396 11.5557 90.8784 11.4218 90.1304C11.3145 89.3799 11.2453 88.6244 11.2145 87.8668C11.1625 87.1637 10.9436 86.4244 11.1757 85.7033C10.8118 85.1983 11.0616 84.6136 11.0028 84.0723C10.944 83.531 10.9213 82.9801 10.8313 82.4536C10.7384 81.911 10.6588 81.3555 10.5823 80.8164C10.4268 79.7216 10.1675 78.6482 10.0105 77.5602C9.91426 76.8963 9.62555 76.3096 9.47517 75.6721C9.18045 74.453 8.76514 73.2662 8.23537 72.1292C8.01372 71.6768 7.86208 71.1934 7.78563 70.6954C7.73711 70.3162 7.38351 70.1548 7.27943 69.8092C7.11111 69.2498 6.84872 68.7195 6.63691 68.1736C6.59952 67.9881 6.46499 67.8372 6.285 67.7789L6.42971 67.2994C6.35264 67.104 6.27363 67.336 6.16794 67.274C6.05988 67.058 5.88775 66.8525 5.91855 66.558C5.94804 66.2812 5.63392 66.1992 5.56695 65.9414C5.41915 65.3814 4.80066 65.0001 4.93028 64.3223C4.50526 63.9375 4.36114 63.3798 4.07176 62.9112C3.91934 62.6921 3.84985 62.4267 3.87439 62.1622L3.88172 62.1012C3.93001 61.8425 3.42014 61.8126 3.61704 61.4826C2.9535 60.7727 2.92056 59.798 2.65386 58.9485C2.22634 57.5852 1.69245 56.2469 1.49367 54.8015C1.39402 54.0786 1.08079 53.3561 0.965475 52.6214C0.705831 50.97 0.333094 49.3336 0.27177 47.6507C0.246769 46.9555 0.0667997 46.2658 0.0483382 45.5699L0.0271987 44.7656C-0.00271408 43.559 -0.0197743 42.3518 0.0403903 41.145C0.0112565 40.8652 0.0611 40.5828 0.184269 40.3299C0.3653 40.0493 0.0607045 39.7954 0.0870732 39.4865C0.116583 39.1198 0.320929 38.8035 0.284851 38.4023C0.264976 38.1812 0.381641 37.8523 0.359243 37.5959C0.286743 36.7622 0.701112 35.9887 0.608993 35.1572C0.6263 34.8451 0.713022 34.5408 0.862838 34.2665C1.19472 33.3214 1.07672 32.2756 1.53692 31.3768C1.75657 30.9322 1.86972 30.4431 1.86807 29.9482L1.86453 29.7568C1.86285 29.6152 1.86921 29.4788 1.95267 29.3983C2.30196 29.0626 2.29071 28.5882 2.43606 28.1834C2.59166 27.7499 2.59517 27.2673 2.81031 26.8357C3.0729 26.4222 3.25995 25.9654 3.36275 25.4865C3.43876 24.6571 3.84289 23.9719 4.14502 23.2427C4.29578 22.8784 4.3058 22.4154 4.77207 22.2068C5.00923 22.1006 4.55835 21.7341 4.89854 21.5775L4.93809 21.5615C5.18277 21.475 5.20888 21.2703 5.18904 21.0162C5.17086 20.7838 5.58555 20.6985 5.51475 20.4516C5.44396 20.2046 5.45233 19.8648 5.58927 19.8458C5.93184 19.7965 5.66468 19.3856 5.94842 19.3666C5.97771 19.3568 6.00079 19.334 6.0109 19.3048C6.25424 18.4673 6.92651 17.8633 7.21276 17.0339C7.40534 16.5425 7.68908 16.0919 8.04903 15.7059C8.35765 15.3263 8.63431 14.9219 8.87616 14.4967C9.31508 13.7874 9.94844 13.242 10.3757 12.5344C10.4917 12.3429 11.0111 12.5054 10.8151 12.0359C11.1445 11.9811 11.107 11.6427 11.2671 11.4638C11.4312 11.3362 11.6141 11.2346 11.8092 11.1628C12.0034 10.731 12.2966 10.3511 12.665 10.0538C13.3388 9.36359 14.0556 8.71673 14.8111 8.11705L15.4345 7.62497C16.2676 6.96913 17.12 6.33423 18.1315 5.95925C18.3916 5.86289 18.3305 5.58226 18.5494 5.47467C19.8201 4.84156 21.0218 4.08105 22.4119 3.67659C22.9936 3.50688 23.5351 3.11916 24.1306 2.94088C25.3259 2.58262 26.4633 2.06622 27.7268 1.87829C28.4748 1.76744 29.233 1.53325 29.9957 1.40061C31.5709 1.08069 33.1789 0.951609 34.7849 1.01615L35.7715 1.07936C36.6485 1.13575 37.5253 1.19988 38.3984 1.32922C38.8116 1.39053 39.183 1.59064 39.5678 1.60987C39.9426 1.62815 40.3095 1.72385 40.6455 1.89093C40.9117 2.01873 41.1911 1.81919 41.4697 2.00211C41.6758 2.18797 41.9588 2.26026 42.2269 2.19835L42.2803 2.18418C42.4379 2.12649 42.6921 2.32941 42.9014 2.41707C43.2112 2.51744 43.5098 2.64977 43.7922 2.81192C44.0068 2.96141 44.3661 2.66615 44.4637 3.06465C44.7998 2.88701 45.0506 3.13378 45.3261 3.24107L45.3639 3.25478C45.6408 3.34819 45.9052 3.47948 46.1751 3.59404L47.0748 3.97597C47.3262 4.12712 47.6 4.2373 47.886 4.30238C48.4179 4.33348 48.8392 4.66026 49.3519 4.75953C49.9182 4.9135 50.4631 5.13698 50.9744 5.42488C51.4359 5.64491 51.9655 5.53755 52.4254 5.80715C52.8578 6.10153 53.3467 6.30281 53.861 6.39822C54.3886 6.4503 54.8291 6.78893 55.3002 6.81776L55.389 6.81938C55.9916 6.80689 56.3961 7.23718 56.9222 7.29499C58.0693 7.42091 59.1371 7.90688 60.2601 8.05454C61.6767 8.24077 63.0612 8.60181 64.4946 8.72001C65.4261 8.79689 66.3643 8.84428 67.2968 8.92158C68.2311 8.96244 69.1671 8.9239 70.0948 8.80636C71.2567 8.69079 72.4073 8.4816 73.5355 8.18084C74.6748 7.8911 75.7568 7.4318 76.8864 7.12549C77.4018 6.98561 77.8796 6.75428 78.4031 6.62915C78.9665 6.49447 79.4784 6.13975 80.0423 6.00295C81.4536 5.66046 82.7486 4.93878 84.2044 4.75381C85.8828 4.02158 87.7181 3.89374 89.4602 3.40231C90.2702 3.17301 91.1383 3.15626 91.9851 3.05155L92.1663 3.02765C93.6654 2.81862 95.1751 2.76166 96.685 2.69039C98.0704 2.63627 99.4578 2.67339 100.838 2.80152C101.832 2.88543 102.822 3.01759 103.817 3.08281C104.221 3.10956 104.559 3.45738 104.989 3.28575C105.817 3.6763 106.782 3.54941 107.602 3.97049C108.209 3.90117 108.714 4.20893 109.217 4.45899C109.601 4.65063 110.026 4.46832 110.404 4.7175C110.742 4.97763 111.143 5.14397 111.566 5.19971C112.281 5.21568 112.842 5.57854 113.453 5.82573C114.872 6.40032 116.282 6.99944 117.681 7.62311C118.139 7.82776 118.686 7.87641 119.032 8.31613C119.336 8.70195 119.94 8.60022 120.227 9.04329C120.332 9.2046 120.544 8.96524 120.72 9.10427C121.064 9.3755 121.575 9.32675 121.865 9.75777C122.08 10.0768 122.608 9.97975 122.841 10.3603L122.871 10.4153C123.001 10.6844 123.553 10.2013 123.593 10.7569C124.127 10.894 124.524 11.2687 124.97 11.5564C125.34 11.794 125.828 11.7827 126.127 12.1946C126.382 12.5458 127.001 12.4296 127.189 12.9216C127.839 13.0417 128.233 13.6143 128.83 13.8521C129.279 14.0589 129.699 14.325 130.077 14.6433C130.684 15.1051 131.305 15.5491 131.934 15.9769C132.159 16.1343 132.376 16.3041 132.582 16.4854C132.698 16.5841 132.7 16.7578 132.878 16.8314C134.004 17.298 134.868 18.1557 135.764 18.9306C136.282 19.3268 136.768 19.7637 137.217 20.2371L137.366 20.3963C137.494 20.5531 137.796 20.6725 137.897 20.877C138.179 21.4461 138.689 21.7903 139.138 22.1814L139.212 22.2471C139.466 22.4641 139.686 22.7167 139.867 22.9971C139.901 23.0506 139.901 23.1532 139.944 23.1722C140.742 23.5255 141.117 24.3031 141.67 24.8978C142.205 25.4728 142.632 26.1473 143.18 26.7068C144.284 27.835 155.423 45.5143 156.526 48.4209L156.842 49.2527C157.156 50.0858 157.465 50.9235 157.736 51.77L157.967 52.4907C158.197 53.2127 158.42 53.9385 158.602 54.6689L158.846 55.6439C159.332 57.5948 159.799 59.5517 160.141 61.5375C160.446 63.3093 160.643 65.0903 160.844 66.8735C160.972 68.0184 161.05 69.1593 161.084 70.3085C161.137 72.145 161.149 73.9818 161.12 75.8187C161.09 77.5479 160.691 79.2372 160.754 80.963C160.34 81.9431 160.587 83.0552 160.141 84.0284C160.25 84.5669 159.983 85.059 159.877 85.5521C159.768 86.0613 159.788 86.6185 159.492 87.1019C159.357 87.3214 159.523 87.6432 159.355 87.9106C159.184 88.1277 159.119 88.4099 159.178 88.6799C158.802 88.7786 159.173 89.098 158.988 89.3004C158.789 89.5203 158.669 89.8003 158.647 90.0962C158.633 90.7648 158.153 91.2997 158.115 91.8992C158.077 92.5126 157.691 92.9699 157.597 93.509L157.583 93.6111C157.509 94.3275 156.911 94.7711 156.776 95.4374C156.764 95.4958 156.616 95.5254 156.53 95.5702C156.528 95.725 156.7 95.7203 156.797 95.8581C156.58 95.9886 156.382 96.1484 156.209 96.3331C156.055 96.6011 155.93 96.8843 155.834 97.1783L156.204 97.881C155.965 98.2036 155.97 98.5363 155.685 98.7721C155.561 98.8753 155.553 99.2558 155.495 99.5093C155.419 99.8423 154.953 99.9664 155.01 100.25C155.037 100.569 154.954 100.888 154.775 101.154C153.678 103.768 152.571 106.378 151.452 108.982C151.333 109.262 151.327 109.638 150.939 109.746C151.259 110.219 150.62 110.252 150.554 110.571C150.451 110.862 150.286 111.127 150.069 111.346C149.743 111.771 149.618 112.348 149.386 112.85C149.283 113.217 149.08 113.547 148.799 113.802C148.517 114.008 148.475 114.444 148.235 114.759C147.907 115.134 147.631 115.55 147.414 115.998C147.314 116.329 147.123 116.626 146.862 116.854C146.636 117.03 146.715 117.492 146.318 117.585C146.107 118.176 145.658 118.601 145.295 119.087L145.228 119.179C144.326 120.436 143.35 121.637 142.304 122.777C141.432 123.737 140.577 124.713 139.696 125.665C139.41 125.972 139.11 126.275 138.805 126.56C137.732 127.619 136.602 128.618 135.419 129.552C134.346 130.352 133.309 131.202 132.198 131.956C131.607 132.358 131.089 132.887 130.507 133.322C129.137 134.348 127.742 135.336 126.296 136.251C125.06 137.107 123.745 137.841 122.368 138.443C121.996 138.588 121.668 138.839 121.305 139.008C120.874 139.155 120.454 139.333 120.048 139.54C119.562 139.859 119.007 140.019 118.522 140.308C118.145 140.533 117.651 140.279 117.328 140.746C117.092 141.085 116.478 140.837 116.187 141.231C115.595 141.147 115.219 141.669 114.651 141.763L114.576 141.772C113.986 141.827 113.425 142.198 112.851 142.43C112.29 142.696 111.712 142.923 111.12 143.112C110.023 143.391 109.023 143.935 107.946 144.233C106.92 144.517 105.951 145.027 104.874 145.096C104.619 145.112 104.627 145.336 104.442 145.398C104.251 145.464 104.071 145.366 103.893 145.449C103.165 145.761 102.412 146.014 101.644 146.205C100.562 146.513 99.4697 146.791 98.3942 147.107C96.7229 147.57 95.0285 147.944 93.3178 148.228C92.2065 148.431 91.0881 148.595 89.9729 148.77L88.4181 149.015C87.6406 149.137 86.8626 149.256 86.0837 149.361C85.0927 149.494 84.0941 149.561 83.1017 149.682C82.3162 149.777 81.5323 149.905 80.7503 150.033C79.669 150.21 78.5794 150.349 77.5004 150.519C75.9708 150.751 74.4295 150.897 72.8837 150.957C72.1013 151.011 71.3164 151.014 70.5336 150.968C70.0975 150.93 69.6596 150.919 69.2223 150.936L69.0038 150.947C67.9864 151.016 67.0141 150.809 66.022 150.725C65.7171 150.697 65.4358 150.605 65.1505 150.55L65.0278 150.528C64.7819 150.491 64.5456 150.437 64.3067 150.385L64.1269 150.347C63.2788 150.175 62.4603 149.854 61.5896 149.793L61.4258 149.785C61.3635 149.785 61.3022 149.77 61.2467 149.742C60.3961 149.261 59.396 149.224 58.5144 148.82L58.3601 148.744C57.5421 148.319 56.5602 148.325 55.7544 147.838C55.1377 147.938 54.6796 147.474 54.1307 147.374C52.7128 147.117 51.4713 146.414 50.1654 145.878L49.9946 145.809C48.6318 145.27 47.2941 144.666 45.9422 144.099C45.0166 143.645 44.1296 143.115 43.2902 142.516C43.1145 142.349 42.918 142.206 42.7055 142.089C42.3171 141.961 42.001 141.674 41.8357 141.3Z" fill="#3457DC"/>
<path fill-rule="evenodd" clip-rule="evenodd" d="M61.5804 64.9281C60.6258 68.8494 58.2469 71.9068 54.5571 74.3807C55.4999 71.6466 56.7184 68.4474 57.6611 65.7133C56.7527 67.5785 55.1152 69.408 53.2925 70.4024C54.4408 66.2873 56.8488 63.0153 56.8488 57.7995C56.8488 55.9239 54.8151 54.4752 54.8946 53.7124C54.975 52.9408 55.3863 52.2505 55.7059 51.5435C57.4944 47.587 62.2235 66.5506 61.5804 64.9281Z" fill="white"/>
<path fill-rule="evenodd" clip-rule="evenodd" d="M134.486 30.6633C134.442 30.6587 134.398 30.6535 134.355 30.6475C134.407 30.5862 134.45 30.5903 134.486 30.6633ZM105.623 89.5701C105.442 89.7254 105.261 89.8801 105.081 90.0343C104.932 90.0343 104.338 89.0265 103.512 87.6253C102.751 86.3345 101.794 84.71 100.806 83.2319C99.9428 81.9407 98.9987 80.7767 98.3217 79.9419C97.7062 79.183 97.3114 78.6962 97.3988 78.6333C99.3045 77.2617 101.291 75.9878 103.276 74.7149C106.484 72.6585 109.687 70.6045 112.539 68.1448C120.157 61.5758 125.458 53.3243 128.632 46.2439C131.309 40.2711 132.754 35.5507 133.559 32.9178C133.955 31.6235 134.197 30.8337 134.355 30.6475C132.689 30.4187 131.21 29.1364 130.76 27.5143C130.299 25.8497 130.953 23.9339 132.335 22.8979C133.881 21.7397 134.384 19.6567 134.538 17.7319C134.57 17.3351 134.593 16.9348 134.615 16.5339C134.701 14.9898 134.788 13.4366 135.425 12.0421C135.674 11.4967 136.102 10.9286 136.702 10.9151C137.659 10.8935 138.002 12.1587 138.041 13.1151L138.212 17.4024C138.616 16.684 139.802 16.8625 140.286 17.5289C140.771 18.1952 140.76 19.0883 140.728 19.9117C140.954 18.0841 141.684 16.3215 142.818 14.87C143.174 14.4145 143.709 13.9465 144.26 14.121C144.842 14.3054 144.986 15.0523 145.006 15.6628C145.18 20.96 143.595 26.3003 140.557 30.6441C139.971 31.4824 139.653 32.4536 139.444 33.4617C139.521 34.1681 139.556 34.9295 139.47 35.5649C138.491 42.8151 136.864 49.9775 134.613 56.9389C133.274 61.0805 131.676 65.2219 128.99 68.647C127.573 70.4534 125.882 72.0231 124.191 73.5761C119.009 78.3352 112.714 83.7227 107.142 88.4912C106.387 89.1372 105.645 89.7718 104.921 90.392C104.883 90.392 105.136 90.1058 105.623 89.5701Z" fill="white"/>
<path d="M49.3266 113.498C49.765 114.745 50.8673 116.339 50.8673 116.339C50.8673 116.339 43.1952 127.178 40.2724 133.371C37.5561 139.126 34.8134 152.453 26.3979 144.452C30.4058 133.113 34.4407 121.714 40.2724 111.194C42.9247 106.409 45.2418 104.711 45.2418 104.711C45.2418 104.711 47.7931 109.134 49.3266 113.498Z" fill="white"/>
<path fill-rule="evenodd" clip-rule="evenodd" d="M57.7335 49.1869C57.1652 49.6735 57.6538 50.6245 58.2763 51.0395C58.8989 51.4545 59.7076 51.7689 59.9212 52.4853C58.9723 52.5434 58.1156 51.7411 57.1709 51.8472C56.1263 51.9644 55.5099 53.2091 55.7106 54.2396C55.9113 55.27 56.6822 56.0891 57.4784 56.7744C58.7193 57.8424 60.1073 58.7398 61.5909 59.4334C62.1341 59.6873 62.7367 60.4548 62.2005 60.7232C61.7017 60.438 61.2028 60.1529 60.704 59.8678C61.537 62.4568 62.3967 65.0983 64.0235 67.279C65.6504 69.4597 68.213 71.135 70.9315 70.9782C71.4555 70.948 72.2137 71.0606 72.1644 71.5825C71.8118 71.6642 71.4593 71.7459 71.1068 71.8277C72.1958 72.7535 73.7493 72.9799 75.1594 72.7415C76.5695 72.5031 77.8722 71.853 79.1357 71.1839C81.6701 69.842 84.2 68.3458 86.0418 66.1494C87.3056 64.6422 88.1975 62.8586 88.9319 61.0346C91.2558 55.2626 92.0904 48.8997 91.3335 42.7247C91.2955 42.4145 91.1076 42.0037 90.8099 42.1001C83.5971 44.4355 75.4664 43.7926 68.7116 40.3527C67.2501 39.6085 65.7976 38.6865 64.9543 37.2812C68.0808 39.2064 71.4893 40.6739 75.0375 41.6222C78.5156 42.5519 82.1706 42.982 85.7311 42.4468C89.2915 41.9116 92.758 40.3589 95.2363 37.7504C98.6141 34.1952 99.8527 28.9841 99.3701 24.107C98.8875 19.2299 96.8524 14.6316 94.3986 10.3875C93.6942 13.2849 91.1939 15.4978 88.4021 16.5544C85.6102 17.611 82.5459 17.6743 79.5639 17.5284C76.5819 17.3826 73.5903 17.041 70.6193 17.3359C68.7797 17.5185 66.8429 18.0142 65.6058 19.3862C63.7225 21.4747 64.1376 24.6887 64.6685 27.4488C63.8409 27.0122 63.3846 25.9733 63.6234 25.0695C60.3188 25.6783 57.9138 28.7518 57.0689 31.9998C56.224 35.2478 56.634 38.6734 57.0494 42.0035C57.2257 43.417 57.402 44.8305 57.5783 46.2439C57.6859 47.107 57.8216 48.0321 58.4169 48.6668C60.2909 50.6646 61.6026 53.1829 62.1648 55.8622C64.184 52.4137 65.5889 48.6077 66.2939 44.6754C66.4527 43.7899 66.5895 42.864 67.0995 42.1224C67.6096 41.3809 68.6281 40.8965 69.4338 41.2989C66.2228 46.1947 66.0789 52.8316 62.1101 57.1376C61.4592 55.5023 60.8082 53.8668 60.1573 52.2314C59.6606 50.9836 59.0155 49.5919 57.7335 49.1869Z" fill="white"/>
<path fill-rule="evenodd" clip-rule="evenodd" d="M105.024 97.7927C102.476 99.6123 99.8514 101.323 97.1582 102.92C96.5672 107.039 95.1921 114.956 94.1322 121.628C93.6502 124.663 93.6502 127.245 93.238 129.367C92.3996 133.683 88.8799 135.977 84.6483 135.768C59.8831 134.545 59.5138 147.675 58.5641 139.193C57.6143 130.712 57.1848 122.173 57.2787 113.639C55.3666 115.048 53.4545 116.457 51.5424 117.865C50.9272 116.943 45.5529 108.271 45.826 105.111C46.1237 101.666 49.9451 96.6632 54.3088 92.7247C57.0272 90.2711 60.2044 88.484 62.1116 86.9678C62.8825 86.3549 66.8979 82.7237 67.8291 79.1775C68.8036 75.4664 66.7158 71.8373 68.54 71.3515C69.9797 70.968 70.8997 72.1055 72.5168 72.8296C73.7599 73.3862 75.8114 72.397 76.2922 73.1838C76.7729 73.9707 76.1351 77.0801 77.3531 78.2752C79.6105 80.4902 84.27 80.8612 84.6483 80.821C89.6912 80.2858 94.9688 77.9908 96.4908 78.5617C101.722 80.524 105.696 90.378 106.546 93.759C106.74 94.5304 106.899 95.3633 106.611 96.1046C106.327 96.8347 105.662 97.3369 105.024 97.7927Z" fill="white"/>
<path fill-rule="evenodd" clip-rule="evenodd" d="M98.9174 80.2759C98.7606 80.0736 98.6087 79.8955 98.4655 79.7385C97.773 78.9798 97.2818 78.7178 97.3992 78.6333C102.384 75.046 107.922 72.1271 112.54 68.1448C120.157 61.5758 125.459 53.3243 128.632 46.2439C131.061 40.8254 127.607 53.2563 119.557 65.2163C112.936 75.0528 99.1881 80.6249 98.9174 80.2759Z" fill="#E7EAEE"/>
<path fill-rule="evenodd" clip-rule="evenodd" d="M105.024 97.7927C105.662 97.3369 106.326 96.8347 106.61 96.1046C106.899 95.3633 106.739 94.5304 106.545 93.759C105.088 87.9611 101.859 82.6201 97.3985 78.6333C115.946 69.4373 129.984 51.6312 134.583 31.4681C130.573 42.9383 125.191 54.1217 117.095 63.1897C108.998 72.2577 97.9405 79.0862 85.843 80.37C83.1517 80.6556 80.15 80.5705 78.1294 78.7722C76.1088 76.974 76.1714 72.9461 78.7432 72.1041C83.5806 70.5204 87.4467 66.6018 89.6311 62.0097C91.8155 57.4177 92.4392 52.2051 92.1554 47.1291C92.0262 44.818 91.8976 42.0709 93.7466 40.675C98.4249 37.1433 100.664 30.9976 100.398 25.1469C100.132 19.2962 97.6298 13.7326 94.3068 8.90674C93.1926 12.3289 90.3355 15.1341 86.8903 16.1886C84.0021 17.0725 80.9728 16.7599 77.9322 16.4462C76.4497 16.2932 74.9644 16.14 73.4916 16.125C68.998 16.0794 63.6624 18.2891 63.1625 22.7489C62.9988 24.2089 61.6776 25.0522 60.3726 25.885C59.9483 26.1559 59.5257 26.4256 59.1451 26.7151C55.6873 29.3456 55.3786 34.4 55.9173 38.7074C55.995 39.3286 56.083 39.9554 56.1715 40.5849C56.6965 44.3208 57.2356 48.1576 55.705 51.5435C55.6372 51.6935 55.5652 51.8428 55.4932 51.9923C55.2257 52.5472 54.9571 53.1045 54.8937 53.7124C54.7119 55.4571 56.1061 56.6258 57.5407 57.8282C58.3021 58.4665 59.075 59.1143 59.6295 59.8628C60.9995 61.7121 60.9681 64.3102 60.134 66.4545C59.3 68.5988 57.778 70.3931 56.283 72.1431C57.8791 68.9985 58.6999 65.465 58.6531 61.9397L54.3995 69.0734C55.8904 65.5036 56.7326 61.6648 56.873 57.7995L53.428 70.1447C55.2507 69.1503 56.7519 67.5785 57.6602 65.7133L54.832 73.9156C58.0378 71.8284 60.4719 68.5863 61.5795 64.9281C62.2226 66.5505 63.3149 67.9928 64.7031 69.0524C69.5186 72.7279 69.1493 81.2781 64.0349 84.5259C53.8745 90.978 46.1041 100.674 40.2724 111.194C34.4407 121.714 30.4058 133.113 26.3979 144.452C32.1725 131.113 38.4412 117.987 45.187 105.111C46.7593 109.606 48.9 113.902 51.542 117.865L57.2783 113.639C57.1844 122.173 57.614 130.712 58.5637 139.193C59.6921 139.313 59.9595 137.661 59.7816 136.541C58.0785 125.824 57.8228 114.878 59.0237 104.093C57.8901 104.816 57.8683 106.323 57.848 107.732C57.8441 107.999 57.8403 108.263 57.829 108.517C57.6736 112.012 55.0635 115.26 51.6806 116.168C49.9358 113.962 48.1645 111.709 47.1716 109.078C46.1788 106.447 46.0707 103.329 47.5747 100.953C51.614 94.569 57.4302 89.3197 64.1971 85.9502C67.2075 88.8722 70.7772 91.2175 74.6558 92.8215C75.8886 93.3314 77.3083 93.7637 78.523 93.212C79.3624 92.8308 79.9378 92.0464 80.4382 91.2728C82.3337 88.3425 83.7152 85.0815 84.5012 81.6823C88.1359 81.1666 91.7347 80.3978 95.2626 79.3833C96.6902 78.9729 98.0613 80.1307 99.0262 81.2587C102.019 84.7576 104.233 88.917 105.464 93.3514C105.715 94.2554 105.92 95.2489 105.54 96.1068C105.234 96.7965 104.602 97.2772 103.985 97.7132C101.68 99.3444 99.2416 100.788 96.7024 102.026C96.9699 99.2729 96.2662 96.4352 94.7429 94.125C97.1435 100.564 95.8742 107.394 94.5918 114.294C93.6123 119.565 92.625 124.877 93.2603 130.087L97.1578 102.92C99.851 101.323 102.476 99.6123 105.024 97.7927ZM57.7336 49.187C59.0156 49.5919 59.6608 50.9837 60.1574 52.2315L62.1102 57.1377C64.3241 54.7357 65.3478 51.6086 66.3776 48.4629C67.1939 45.9692 68.0141 43.4638 69.434 41.299C68.6283 40.8965 67.6098 41.3809 67.0997 42.1224C66.6238 42.8143 66.4728 43.6667 66.3258 44.497C66.3152 44.5566 66.3047 44.6161 66.2941 44.6755C65.589 48.6077 64.1842 52.4138 62.1649 55.8622C61.6028 53.1829 60.2911 50.6646 58.4171 48.6668C57.8217 48.0321 57.686 47.107 57.5784 46.2439L57.0495 42.0035C56.6341 38.6734 56.2242 35.2479 57.0691 31.9998C57.9139 28.7518 60.3189 25.6783 63.6235 25.0695C63.3847 25.9733 63.8411 27.0122 64.6686 27.4488C64.1377 24.6888 63.7227 21.4748 65.6059 19.3862C66.8431 18.0143 68.7798 17.5185 70.6195 17.3359C72.8923 17.1103 75.1772 17.2572 77.4606 17.404C78.162 17.4491 78.8633 17.4942 79.564 17.5285C82.546 17.6743 85.6104 17.611 88.4022 16.5544C91.1941 15.4978 93.6943 13.2849 94.3987 10.3875C96.8526 14.6317 98.8876 19.2299 99.3702 24.107C99.8529 28.9841 98.6142 34.1952 95.2365 37.7504C92.7582 40.3589 89.2917 41.9116 85.7312 42.4468C82.1707 42.982 78.5158 42.5519 75.0376 41.6222C71.4895 40.6739 68.0809 39.2064 64.9544 37.2813C65.7978 38.6865 67.2503 39.6085 68.7117 40.3528C75.4666 43.7926 83.5973 44.4356 90.81 42.1001C91.1077 42.0037 91.2957 42.4145 91.3337 42.7247C92.0905 48.8997 91.2559 55.2626 88.9321 61.0346C88.1977 62.8586 87.3058 64.6422 86.0419 66.1494C84.2002 68.3458 81.6702 69.842 79.1359 71.184C77.8723 71.853 76.5696 72.5031 75.1596 72.7415C73.7495 72.9799 72.196 72.7535 71.107 71.8277L72.1645 71.5825C72.2139 71.0607 71.4557 70.948 70.9317 70.9782C68.2132 71.1351 65.6506 69.4597 64.0237 67.279C62.3968 65.0983 61.5372 62.4568 60.7041 59.8678L62.2007 60.7232C62.7368 60.4549 62.1343 59.6873 61.5911 59.4334C60.1074 58.7398 58.7194 57.8424 57.4786 56.7744C56.6823 56.0891 55.9114 55.27 55.7107 54.2396C55.51 53.2091 56.1264 51.9644 57.171 51.8472C57.6552 51.7928 58.1164 51.9771 58.5786 52.1619C59.0182 52.3375 59.4588 52.5136 59.9213 52.4853C59.7544 51.9254 59.2239 51.611 58.7029 51.3023C58.5573 51.216 58.4125 51.1301 58.2765 51.0395C57.6539 50.6245 57.1654 49.6735 57.7336 49.187ZM70.6163 72.4995C71.979 73.524 73.8039 73.9091 75.4652 73.5226C74.689 75.4974 75.6661 77.8326 77.299 79.1895C78.932 80.5465 81.0785 81.1065 83.1762 81.4412C83.1147 85.1619 81.7732 88.8496 79.4289 91.7421C78.7399 92.5923 77.4085 92.4076 76.3628 92.0822C72.2235 90.7939 68.3938 88.5247 65.2779 85.5139C65.5468 85.1235 65.9762 84.9036 66.4073 84.6829C66.8038 84.4799 67.2017 84.2761 67.4774 83.9382C67.7273 83.632 67.8512 83.2447 67.9607 82.8651C69.0358 79.1398 69.2357 75.1656 68.5397 71.3515C69.1947 71.3617 69.7302 71.7927 70.2534 72.2138C70.3746 72.3113 70.4951 72.4083 70.6163 72.4995ZM134.021 23.826C132.949 24.43 131.739 25.2511 131.712 26.4815C131.689 27.5322 132.499 28.2366 133.335 28.9628C133.925 29.4755 134.527 29.9991 134.858 30.6633C133.139 30.4857 131.593 29.1789 131.132 27.5143C130.671 25.8497 131.325 23.934 132.707 22.898C134.253 21.7397 134.756 19.6568 134.91 17.7319C134.942 17.3353 134.965 16.9352 134.987 16.5345L134.987 16.5339V16.5339C135.073 14.9898 135.159 13.4366 135.796 12.0421C136.046 11.4967 136.474 10.9286 137.074 10.9151C138.031 10.8936 138.374 12.1588 138.412 13.1152L138.584 17.4024C138.988 16.6841 140.174 16.8625 140.658 17.5289C141.143 18.1953 141.132 19.0884 141.1 19.9117C141.326 18.0842 142.056 16.3215 143.19 14.8701C143.546 14.4146 144.08 13.9465 144.632 14.121C145.214 14.3054 145.358 15.0524 145.378 15.6629C145.552 20.96 143.967 26.3004 140.929 30.6441C139.961 32.0282 139.726 33.7743 139.5 35.4513L139.484 35.5649C138.506 42.8151 136.878 49.9775 134.627 56.9389C133.289 61.0805 131.69 65.2219 129.004 68.647C127.587 70.4534 125.896 72.0231 124.205 73.5761C118.322 78.9799 112.345 84.2825 106.278 89.4806C105.763 89.4806 106 88.6444 106.39 88.3069C107.706 87.1684 109.031 86.0382 110.356 84.9078L110.357 84.9067L110.357 84.9065C115.926 80.1564 121.5 75.4024 126.437 70.0083C127.876 68.4362 129.266 66.802 130.355 64.9698C131.403 63.2063 132.156 61.2855 132.856 59.3574C135.935 50.8815 138.082 42.0676 139.245 33.1254C139.328 32.4835 139.397 31.7883 139.073 31.2276C143.111 26.879 145.119 20.7198 144.419 14.8278C142.846 15.5516 142.504 17.3079 142.151 19.1163C141.856 20.6319 141.553 22.1839 140.514 23.1955L140.358 18.9147C140.343 18.5038 140.28 18.0137 139.911 17.8327C139.301 17.534 138.775 18.3935 138.713 19.0693C138.651 19.745 138.533 20.6336 137.863 20.7454C138.083 17.6306 137.897 14.4875 137.314 11.42C135.816 12.8157 135.78 15.0936 135.748 17.1695L135.748 17.1731C135.746 17.3 135.744 17.4261 135.742 17.5512C135.702 19.7243 135.137 22.3176 133.099 23.0726C133.59 23.4549 134.144 23.0705 134.71 22.6779C134.954 22.5083 135.201 22.3371 135.445 22.2255C136.803 21.6065 138.358 23.3174 137.978 24.76C137.599 26.2026 135.98 27.0233 134.488 27.017C134.801 26.4958 135.412 26.1801 136 25.8767C136.774 25.4765 137.507 25.0978 137.461 24.2971C137.42 23.6009 136.666 23.1226 135.969 23.1272C135.271 23.1318 134.629 23.4837 134.021 23.826ZM69.5722 48.8521C69.5903 48.596 69.9616 48.5583 70.2294 48.5689C71.0537 48.6018 71.8604 48.3599 72.6422 48.1076L72.7529 48.0718L72.7529 48.0718C73.4988 47.8304 74.2554 47.5857 75.0412 47.5636C75.8658 47.5403 76.7458 47.8052 77.2398 48.4379C77.3049 48.5213 77.3651 48.6199 77.3508 48.7231C77.3263 48.8995 77.0928 48.9843 76.9129 48.9397C76.7728 48.905 76.6558 48.8198 76.5395 48.7351L76.5393 48.735L76.5392 48.7349C76.5062 48.7109 76.4733 48.6868 76.4398 48.664C75.5265 48.0409 74.2639 48.3098 73.2133 48.6857C73.1338 48.7142 73.0539 48.7431 72.9735 48.7722C71.9924 49.1277 70.9537 49.504 69.9609 49.2185C69.7723 49.1643 69.5589 49.0402 69.5722 48.8521ZM78.9082 61.1028C79.5349 61.1326 80.2147 61.1476 80.726 60.782C81.4395 60.2718 81.5282 59.2476 81.4489 58.371C81.4019 57.8518 81.3199 57.3362 81.2379 56.8209L81.2378 56.8207C81.1251 56.1122 81.0124 55.404 80.991 54.6876C80.9541 53.4501 81.236 52.1267 82.118 51.2629C82.1666 50.9625 81.7711 50.7473 81.4869 50.8522C81.2027 50.957 81.0336 51.2467 80.9098 51.5245C80.064 53.4212 80.2729 55.5687 80.4766 57.6629L80.4767 57.6633C80.5077 57.9817 80.5385 58.2988 80.5655 58.6135C80.6092 59.1225 80.6042 59.7219 80.2004 60.0319C79.8998 60.2626 79.5062 60.2374 79.1157 60.2123C78.9876 60.2041 78.8598 60.1959 78.7358 60.1967C78.476 60.1985 78.1603 60.2963 78.1122 60.553C78.0443 60.9161 78.5412 61.0853 78.9082 61.1028ZM77.3178 51.08C77.6128 51.038 77.8636 51.3597 77.8547 51.663C77.8458 51.9664 77.6545 52.2321 77.4434 52.4462C76.6789 53.2219 75.5719 53.5802 74.493 53.5863C73.4142 53.5924 72.356 53.2752 71.3594 52.8542C71.1439 52.7632 70.9241 52.6628 70.7645 52.4893C70.605 52.3159 70.5195 52.0504 70.617 51.8345C70.7145 51.6185 71.0333 51.522 71.1951 51.6932C71.9302 52.4708 73.0719 52.6718 74.1314 52.6899C75.0892 52.7062 76.1825 52.531 76.7108 51.7167C76.7404 51.6709 76.7694 51.6226 76.7986 51.5737C76.9328 51.3493 77.0731 51.1148 77.3178 51.08ZM90.0965 52.2649C88.9024 53.3009 87.055 53.624 85.5403 53.0618C85.1218 52.9065 84.7123 52.674 84.4886 52.3091C84.4012 52.1665 84.3452 51.9918 84.4079 51.8383C84.5093 51.59 84.8737 51.5245 85.139 51.6207C85.3392 51.6932 85.5016 51.8277 85.6636 51.9618C85.7164 52.0056 85.7691 52.0492 85.8231 52.0907C86.7762 52.8232 88.276 52.8442 89.2522 52.1389C89.273 52.1239 89.2937 52.1086 89.3147 52.0931L89.3147 52.0931C89.4707 51.9778 89.6336 51.8575 89.829 51.8544C90.0506 51.851 90.2589 52.124 90.0965 52.2649ZM50.1159 116.339C49.6622 116.608 49.3392 117.045 49.0326 117.473C45.8866 121.866 43.1092 126.521 40.7388 131.374C38.344 136.276 36.3686 141.369 34.3963 146.455C34.2291 146.886 34.065 147.386 34.2871 147.791C34.5945 148.353 35.4782 148.326 35.9583 147.902C36.4385 147.477 36.6201 146.819 36.7854 146.202C39.5416 135.901 44.1206 126.112 50.0208 117.22C50.2009 116.948 50.3675 116.546 50.1159 116.339ZM76.0518 67.3413C76.0744 67.85 75.4706 68.1407 74.972 68.1448C74.43 68.1493 73.8487 67.95 73.5546 67.4851C73.2604 67.0203 73.4008 66.2754 73.9098 66.0854L70.3945 64.7306C70.0989 64.6167 69.786 64.5008 69.4743 64.5537C69.4022 64.566 69.3311 64.5872 69.2603 64.6084L69.2603 64.6084C69.141 64.644 69.0223 64.6795 68.8994 64.6718C68.7034 64.6595 68.4997 64.4546 68.5894 64.2762C68.6229 64.2094 68.6881 64.1663 68.7505 64.1264L70.0396 63.3001C70.1859 63.2064 70.3467 63.1089 70.5185 63.1269C70.6903 63.1448 70.8483 63.343 70.7628 63.4963C70.5096 63.9505 71.1407 64.373 71.636 64.5043C73.3002 64.9454 74.9778 65.3888 76.6946 65.4852C78.4113 65.5816 80.1911 65.3082 81.6638 64.4021C82.1163 64.1237 82.6774 63.7809 83.1261 64.0656C82.9532 64.5708 82.4454 64.8509 81.949 65.1246C81.3932 65.4311 80.8518 65.7297 80.8111 66.3275C80.769 66.9445 80.2284 67.4843 79.6235 67.5132C79.0185 67.5421 78.4309 67.0563 78.3326 66.446C78.317 66.3495 78.2031 66.3117 78.1088 66.295C77.6737 66.218 77.2145 66.1779 76.8002 66.334C76.3859 66.4902 76.0317 66.8908 76.0518 67.3413ZM75.4157 66.2467C75.2222 66.0037 74.8164 66.0401 74.6 66.262C74.3836 66.484 74.3285 66.8259 74.3615 67.1373C74.6178 67.2842 74.9612 67.2526 75.1877 67.0612C75.4141 66.8699 75.5089 66.5314 75.4157 66.2467ZM80.0195 66.4299C80.0509 66.3067 80.1311 66.1972 80.2381 66.1317C80.1053 65.8957 79.7555 65.9883 79.5174 66.1106C79.391 66.1755 79.2488 66.2623 79.2317 66.4057C79.2107 66.5818 79.4111 66.7172 79.5836 66.696C79.7561 66.6748 79.8976 66.5518 80.0278 66.4343L80.0195 66.4299ZM87.2866 49.5929C87.4508 49.6351 87.6151 49.6773 87.7822 49.7082C88.6487 49.8687 89.5843 49.7079 90.3221 49.2718C90.5185 49.1557 90.3361 48.8527 90.1018 48.8302C89.9207 48.8128 89.7523 48.8868 89.5854 48.9602C89.5365 48.9817 89.4877 49.0031 89.4388 49.0222C88.8095 49.2674 88.107 49.1263 87.4077 48.9858C86.6781 48.8392 85.9519 48.6933 85.3159 48.9877C85.0863 49.094 84.8719 49.2865 84.8836 49.517C84.8954 49.7476 85.2592 49.9256 85.4282 49.7508C85.6994 49.4704 86.1612 49.3991 86.5732 49.4449C86.8159 49.4719 87.0511 49.5323 87.2866 49.5929Z" fill="#00160A"/>
<path fill-rule="evenodd" clip-rule="evenodd" d="M75.4657 73.5226C74.9781 73.636 74.4764 73.683 73.9764 73.6668C72.773 73.6279 71.4051 77.7994 73.9764 82.5573C76.5031 87.2327 81.2628 89.1031 81.8783 87.6232C82.6919 85.667 83.1418 83.5594 83.1768 81.4412C81.0791 81.1065 78.9326 80.5465 77.2996 79.1895C75.6667 77.8326 74.6895 75.4974 75.4657 73.5226Z" fill="#E7EAEE"/>
<circle cx="66.3234" cy="61.3676" r="1.50605" fill="#FFB61D"/>
<circle cx="85.4001" cy="61.8697" r="1.50605" fill="#FFB61D"/>
<path fill-rule="evenodd" clip-rule="evenodd" d="M69.1051 115.914C69.6458 115.285 70.7442 115.59 71.5759 115.811C73.7912 116.399 76.4815 115.74 78.1308 114.206C79.7904 112.662 82.8382 114.504 85.0135 113.553C86.3248 112.98 87.3865 111.412 88.7082 111.816C90.3298 112.312 92.3353 111.917 93.6599 110.861L93.6603 110.547L93.6651 109.854C92.347 111.019 90.2345 111.472 88.5408 110.954C87.2191 110.55 86.1573 112.118 84.846 112.692C82.6707 113.643 79.623 111.8 77.9633 113.344C76.347 114.848 73.7309 115.511 71.5419 114.983L71.1052 114.87C70.326 114.67 69.4147 114.497 68.9377 115.052C67.4327 116.803 64.4535 117.528 62.2607 116.677L62.532 117.577L62.6618 117.622C64.8282 118.337 67.653 117.603 69.1051 115.914ZM67.0518 106.065C67.623 105.474 68.6989 105.793 69.5142 106.024C71.6857 106.64 74.396 106.07 76.1177 104.635C77.8504 103.191 80.7828 105.031 82.9966 104.169C84.3311 103.649 85.4704 102.168 86.7632 102.587C88.3492 103.1 94.208 100.029 94.208 100.029C92.729 99.9878 88.3976 102.274 86.7589 101.791L86.6425 101.756C85.3498 101.337 84.2104 102.818 82.876 103.338C80.6622 104.2 77.7298 102.36 75.9971 103.804C74.3098 105.21 71.6731 105.786 69.5245 105.228L69.0963 105.109C68.3321 104.899 67.4351 104.712 66.9312 105.234C65.3414 106.88 61.0011 106.164 60.2052 106.638C60.2052 106.638 65.5178 107.653 67.0518 106.065Z" fill="#FFB61D"/>
<path fill-rule="evenodd" clip-rule="evenodd" d="M68.6525 134.58C69.1932 133.952 70.2916 134.257 71.1233 134.477C73.3386 135.065 76.0289 134.406 77.6781 132.872C79.3378 131.328 82.3856 133.171 84.5609 132.22C85.8721 131.647 86.9339 130.078 88.2556 130.482C89.8771 130.978 91.8826 130.584 93.2073 129.527L93.2076 129.214L93.2125 128.521C91.8944 129.685 89.7818 130.139 88.0881 129.621C86.7664 129.217 85.7047 130.785 84.3934 131.358C82.2181 132.309 79.1703 130.467 77.5106 132.011C75.8944 133.514 73.2783 134.177 71.0893 133.65L70.6525 133.536C69.8734 133.336 68.9621 133.164 68.485 133.719C66.98 135.469 64.0009 136.194 61.8081 135.343L62.0794 136.244L62.2092 136.288C64.3756 137.004 67.2003 136.27 68.6525 134.58ZM66.5992 124.732C67.1703 124.141 68.2463 124.459 69.0616 124.69C71.233 125.306 73.9434 124.736 75.6651 123.302C77.3977 121.858 80.3302 123.698 82.544 122.835C83.8784 122.315 85.0178 120.834 86.3105 121.253C87.8965 121.767 93.7554 118.695 93.7554 118.695C92.2763 118.654 87.9449 120.94 86.3062 120.458L86.1899 120.422C84.8972 120.003 83.7578 121.484 82.4234 122.004C80.2096 122.867 77.2771 121.027 75.5445 122.47C73.8572 123.876 71.2204 124.452 69.0719 123.895L68.6436 123.776C67.8795 123.566 66.9825 123.379 66.4785 123.901C64.8887 125.546 60.5485 124.83 59.7526 125.305C59.7526 125.305 65.0651 126.32 66.5992 124.732Z" fill="#FFB61D"/>
<path fill-rule="evenodd" clip-rule="evenodd" d="M64.1004 28.3157C65.5521 29.2095 70.8731 19.3862 78.7965 19.3862C95.5901 19.3862 96.8529 14.6316 94.399 10.3875C93.6946 13.2849 91.1944 15.4978 88.4025 16.5544C85.6107 17.611 82.5463 17.6743 79.5643 17.5284C76.5823 17.3826 73.5907 17.041 70.6198 17.3359C68.7801 17.5185 66.8434 18.0142 65.6062 19.3862C63.723 21.4747 64.138 24.6887 64.6689 27.4488C63.8414 27.0122 63.385 25.9733 63.6238 25.0695C60.3192 25.6783 57.9142 28.7518 57.0694 31.9998C56.2245 35.2478 56.6345 38.6734 57.0498 42.0035C57.2261 43.417 57.4024 44.8305 57.5787 46.2439C57.5787 46.2439 58.331 34.8572 59.3513 31.9998C60.7404 28.11 64.4246 28.8558 64.1004 28.3157Z" fill="#E7EAEE"/>
</svg>
