<svg width="440" height="425" viewBox="0 0 440 425" fill="none" xmlns="http://www.w3.org/2000/svg">
<path d="M65.541 394.296C151.199 434.066 290.126 434.066 375.761 394.296C461.396 354.526 461.431 289.946 375.761 250.129C290.091 210.311 151.176 210.358 65.541 250.129C-20.0938 289.899 -20.1289 354.49 65.541 394.296Z" fill="#F5F5F5"/>
<path d="M261.223 336.103C238.378 346.981 201.345 346.981 178.512 336.103C155.679 325.224 155.668 307.562 178.512 296.672C201.357 285.782 238.378 285.793 261.223 296.672C284.067 307.55 284.067 325.213 261.223 336.103Z" fill="#E6E6E6"/>
<path d="M326.388 352.046C356.938 352.046 381.703 340.242 381.703 325.68C381.703 311.119 356.938 299.315 326.388 299.315C295.838 299.315 271.072 311.119 271.072 325.68C271.072 340.242 295.838 352.046 326.388 352.046Z" fill="#E6E6E6"/>
<path d="M152.813 344.782C130.741 355.309 94.9594 355.309 72.8752 344.782C50.791 334.254 50.8027 317.212 72.8752 306.684C94.9477 296.157 130.741 296.157 152.813 306.684C174.886 317.212 174.863 334.266 152.813 344.782Z" fill="#E6E6E6"/>
<path d="M75.7875 274.985C74.8868 263.756 64.9091 241.157 52.0423 227.495C39.1754 213.832 20.0506 204.685 7.40598 210.171C-4.33795 215.318 -1.76458 231.109 13.7926 240.455C29.3498 249.801 52.4985 261.264 60.4291 278.95L75.7875 300.192V274.985Z" fill="#3457DC"/>
<path opacity="0.1" d="M75.7875 274.985C74.8868 263.756 64.9091 241.157 52.0423 227.495C39.1754 213.832 20.0506 204.685 7.40598 210.171C-4.33795 215.318 -1.76458 231.109 13.7926 240.455C29.3498 249.801 52.4985 261.264 60.4291 278.95L75.7875 300.192V274.985Z" fill="black"/>
<path d="M77.8463 290.273C77.6681 290.274 77.4946 290.216 77.3529 290.108C77.2111 290 77.109 289.849 77.0625 289.677C66.4649 251.965 32.9643 223.307 13.898 217.926C13.7074 217.851 13.5515 217.707 13.4604 217.523C13.3693 217.34 13.3495 217.129 13.4047 216.931C13.4599 216.733 13.5862 216.563 13.7594 216.453C13.9325 216.343 14.1402 216.301 14.3425 216.336C33.8065 221.833 67.9154 250.947 78.6768 289.232C78.7088 289.354 78.7125 289.482 78.6877 289.606C78.6628 289.73 78.61 289.847 78.5333 289.947C78.4566 290.047 78.358 290.129 78.245 290.185C78.1321 290.242 78.0077 290.272 77.8813 290.273H77.8463Z" fill="white"/>
<path d="M74.1031 315.223C71.7637 309.059 63.2598 299.268 50.1006 291.665C35.5493 283.267 17.7463 280.296 13.1259 273.207C7.58145 264.703 14.4009 255.661 28.7065 256.316C43.0121 256.971 69.471 274.283 75.7875 303.058L74.1031 315.223Z" fill="#3457DC"/>
<path d="M76.3141 308.415C76.1567 308.415 76.0028 308.369 75.8702 308.284C75.7377 308.199 75.632 308.079 75.5655 307.936C61.178 276.049 35.2104 266.551 23.4898 265.967C23.3823 265.961 23.2769 265.935 23.1796 265.889C23.0823 265.842 22.9951 265.778 22.9228 265.698C22.8506 265.618 22.7948 265.525 22.7586 265.423C22.7224 265.322 22.7066 265.214 22.712 265.107C22.7173 264.999 22.7438 264.894 22.7899 264.797C22.8361 264.699 22.9009 264.612 22.9807 264.54C23.0606 264.468 23.1538 264.412 23.2552 264.376C23.3566 264.339 23.4642 264.324 23.5717 264.329C36.5321 264.961 62.3828 274.716 77.0627 307.257C77.1077 307.356 77.1328 307.462 77.1365 307.57C77.1403 307.678 77.1226 307.785 77.0845 307.887C77.0465 307.988 76.9888 308.08 76.9148 308.159C76.8408 308.238 76.7519 308.301 76.6533 308.345C76.5463 308.392 76.4308 308.416 76.3141 308.415Z" fill="white"/>
<path d="M365.807 276.471C366.59 266.727 371.047 250.737 382.382 235.531C394.5 219.225 409.285 209.025 420.257 213.797C430.48 218.242 426.608 232.361 409.004 246.28C396.664 256.047 383.855 268.762 376.966 284.109L365.807 303.643V276.471Z" fill="#3457DC"/>
<g opacity="0.1">
<path opacity="0.1" d="M365.807 276.471C366.59 266.727 371.047 250.737 382.382 235.531C394.5 219.225 409.285 209.025 420.257 213.797C430.48 218.242 426.608 232.361 409.004 246.28C396.664 256.047 383.855 268.762 376.966 284.109L365.807 303.643V276.471Z" fill="black"/>
</g>
<path d="M366.789 283.898C366.932 283.898 367.071 283.854 367.188 283.772C367.305 283.691 367.394 283.576 367.444 283.442C377.258 256.433 397.681 229.109 414.958 219.868C415.039 219.826 415.111 219.769 415.169 219.699C415.228 219.628 415.271 219.547 415.297 219.46C415.324 219.373 415.332 219.281 415.322 219.19C415.312 219.099 415.284 219.012 415.239 218.932C415.196 218.852 415.138 218.782 415.067 218.724C414.997 218.667 414.916 218.624 414.829 218.598C414.742 218.572 414.651 218.563 414.561 218.572C414.471 218.582 414.383 218.608 414.303 218.652C396.757 228.009 376.053 255.673 366.146 282.986C366.114 283.071 366.1 283.162 366.103 283.253C366.106 283.344 366.128 283.433 366.166 283.515C366.204 283.598 366.258 283.672 366.325 283.734C366.392 283.796 366.47 283.844 366.555 283.875L366.789 283.898Z" fill="white"/>
<path d="M366.789 309.761C372.459 314.215 379.199 317.103 386.335 318.136C398.652 320.089 404.091 314.194 404.091 314.194C404.091 314.194 399.237 302.649 392.242 299.409C392.242 299.409 404.103 301.818 413.612 308.17C413.612 308.17 421.134 308.287 424.14 296.812C424.14 296.812 419.683 289.899 404.734 286.167C404.734 286.167 413.835 283.828 426.959 287.232C427.941 287.618 432.129 272.774 433.404 265.931C434.679 259.089 431.919 259.159 426.585 257.743C421.251 256.328 403.073 255.404 399.681 258.363C396.289 261.323 394.64 271.335 394.64 271.335C394.64 271.335 391.446 265.651 392.207 260.586C388.485 259.518 384.527 259.612 380.86 260.855C374.86 262.949 375.246 265.861 375.246 270.213C375.222 274.607 375.825 278.983 377.036 283.208C377.036 283.208 372.895 279.629 372.754 266.423C372.754 266.423 364.648 273.359 361.396 279.29C358.145 285.22 358.975 300.871 366.789 309.761Z" fill="#3457DC"/>
<path d="M366.789 310.462C366.92 310.46 367.049 310.421 367.16 310.351C367.271 310.281 367.361 310.182 367.421 310.065C377.352 289.419 414.303 265.428 427.532 262.855C427.713 262.818 427.872 262.712 427.975 262.558C428.078 262.405 428.117 262.218 428.082 262.036C428.045 261.858 427.94 261.702 427.789 261.601C427.638 261.501 427.453 261.464 427.275 261.498C413.812 264.107 376.264 288.483 366.169 309.456C366.129 309.539 366.107 309.628 366.102 309.719C366.097 309.81 366.11 309.901 366.14 309.987C366.171 310.073 366.218 310.152 366.279 310.219C366.34 310.287 366.414 310.342 366.497 310.38C366.586 310.43 366.687 310.458 366.789 310.462Z" fill="white"/>
<path d="M195.519 79.1163L183.811 118.957L196.607 125.542L206.585 92.3224L195.519 79.1163Z" fill="#FFA8A7"/>
<path d="M208.573 63.4305C202.362 64.0972 196.935 69.6884 194.443 78.4496C191.952 87.2108 188.595 100.838 188.595 100.838C188.595 100.838 195.402 108.289 204.643 106.031L208.573 63.4305Z" fill="#E6E6E6"/>
<path d="M192.607 294.367V292.683C191.917 294.648 188.7 303.082 183.974 307.257C180.208 310.579 175.096 314.404 173.751 318.159C172.406 321.914 180.699 323.505 184.173 322.943C188.209 322.3 193.449 320.101 196.338 316.662C198.374 314.241 199.684 311.363 201.146 309.457C202.608 307.55 205.907 305.456 206.714 303.245C207.158 302.076 206.714 299.339 206.141 297.069C205.567 294.8 205.076 292.683 204.363 292.87C204.363 293.127 204.363 294.145 204.363 294.145C203.497 295.081 201.122 295.981 198.455 296.04C196.736 296.087 192.572 295.677 192.607 294.367Z" fill="#263238"/>
<path d="M180.594 310.182C181.764 309.176 182.933 308.193 183.998 307.246C187.296 304.333 189.846 299.327 191.344 295.911C192.187 293.964 192.641 291.869 192.677 289.747L192.782 283.044L205.111 282.471L204.363 294.168V294.449H204.292C203.696 296.882 198.198 303.292 195.063 307.48C192.97 310.287 189.004 313.831 184.337 314.381C179.904 314.919 177.67 313.492 180.594 310.182Z" fill="#FFA8A7"/>
<path d="M252.73 296.508L252.286 294.894C252.169 296.964 251.467 305.971 248.11 311.27C245.431 315.516 241.606 320.627 241.361 324.604C241.115 328.581 249.549 327.774 252.719 326.265C256.415 324.499 260.825 320.908 262.626 316.802C263.889 313.913 264.346 310.778 265.2 308.544C266.053 306.31 268.65 303.362 268.802 301.011C268.884 299.713 267.632 297.268 266.463 295.244C265.293 293.221 264.205 291.338 263.574 291.735C263.632 291.981 263.913 292.975 263.913 292.975C263.34 294.145 261.316 295.642 258.778 296.484C257.187 296.999 253.07 297.783 252.73 296.508Z" fill="#263238"/>
<path d="M245.665 315.071C246.496 313.773 247.35 312.498 248.11 311.305C250.449 307.562 251.502 302.052 251.97 298.356C252.231 296.248 252.072 294.109 251.502 292.063L249.724 285.606L261.047 282.471L263.96 292.999L264.03 293.279C264.135 295.783 260.673 303.479 258.836 308.38C257.666 311.667 254.824 316.182 250.484 318.031C246.344 319.809 243.794 319.072 245.665 315.071Z" fill="#FFA8A7"/>
<path d="M246.39 124.829C252.917 133.204 254.099 141.86 252.672 166.342C251.245 190.824 250.8 211.317 251.163 212.698C251.525 214.078 256.824 225.319 258.766 234.408C261.047 245.04 261.608 284.495 261.608 284.495C260.146 285.95 258.327 286.996 256.334 287.528C254.341 288.059 252.243 288.058 250.25 287.524C250.25 287.524 231.348 223.985 229.511 218.511C227.675 213.037 216.06 154.972 216.06 154.972L217.826 122.22L246.39 124.829Z" fill="#37474F"/>
<path d="M196.526 153.007C197.52 141.696 199.941 122.103 199.941 122.103L228.856 120.407C233.535 127.706 231.5 139.848 230.225 150.82L213.685 215.564C214.025 218.663 216.879 225.237 213.685 241.905C210.176 260.516 205.205 285.033 205.205 285.033C205.205 285.033 198.982 287.899 192.747 285.278C192.747 285.278 190.408 226.313 191.882 210.206C193.578 192.789 195.847 160.739 196.526 153.007Z" fill="#37474F"/>
<path d="M221.124 180.46L216.445 156.715C212.267 155.228 208.299 153.203 204.643 150.691C206.98 153.647 209.766 156.216 212.901 158.306L221.124 180.46Z" fill="#263238"/>
<path d="M196.607 59.8277H219.896C227.454 59.8277 234.701 56.8256 240.045 51.4819C245.389 46.1382 248.391 38.8906 248.391 31.3335C248.392 27.9331 247.724 24.5658 246.424 21.4238C245.123 18.2819 243.217 15.4268 240.813 13.0219C238.409 10.6169 235.555 8.70916 232.414 7.40754C229.272 6.10593 225.905 5.43599 222.505 5.43599C215.636 5.43599 209.049 8.16446 204.193 13.0212C199.336 17.8779 196.607 24.465 196.607 31.3335V59.8277Z" fill="#263238"/>
<path d="M244.051 64.2493C248.543 64.4715 251.853 65.3137 254.906 74.1451C257.959 82.9764 264.322 116.875 262.193 120.407L247.993 114.418L244.484 95.8082C236.401 88.9186 236.857 66.7291 244.051 64.2493Z" fill="#FFA8A7"/>
<path d="M201.766 103.727C201.052 110.336 198.397 134.736 198.397 134.736C220.189 146.363 247.221 138.667 251.362 133.871C247.619 121.53 243.583 114.512 240.495 111.225L244.425 95.8082C244.425 95.8082 234.693 81.8886 244.051 64.2259L232.494 63.2784L215.522 62.7871C211.463 63.0094 208.574 63.4071 208.574 63.4071C205.965 65.8401 201.871 72.5192 199.216 79.3269C197.496 83.7367 195.648 90.7433 201.766 103.727Z" fill="#F5F5F5"/>
<path d="M244.051 64.2493C249.162 63.9568 252.239 65.2201 255.923 73.4315C259.608 81.6429 262.591 101.692 262.591 101.692C262.591 101.692 259.468 108.043 244.027 106.242L241.688 92.3224C241.688 92.3224 234.88 77.853 244.051 64.2493Z" fill="#E6E6E6"/>
<path d="M242.448 103.563C242.261 104.324 237.149 111.073 234.646 112.664C232.143 114.255 239.091 116.454 240.062 120.407C242.039 128.385 236.296 136.994 216.796 137.52C212.188 137.637 211.989 138.62 214.375 140.023C231.699 142.877 248.203 137.532 251.361 133.871C247.618 121.53 243.583 114.512 240.495 111.225L242.448 103.563Z" fill="#E6E6E6"/>
<path d="M205.86 16.7121C203.122 18.3263 199.742 25.2042 200.069 39.6268C200.362 51.8503 204.316 54.8331 206.304 55.7455C208.293 56.6578 212.153 56.0847 215.861 55.4647V62.7988C215.974 63.5672 216.239 64.3053 216.641 64.9701C217.042 65.6348 217.573 66.2129 218.2 66.6706C221.23 68.5772 224.832 67.8403 226.856 67.1268C231.313 65.5243 232.202 63.3252 232.202 63.3252L232.12 46.4579C232.12 46.4579 234.307 48.5985 238.027 45.2882C241.103 42.6096 242.144 38.0828 239.746 35.6498C239.126 35.0707 238.377 34.6475 237.561 34.4153C236.745 34.183 235.886 34.1483 235.053 34.314C234.221 34.4798 233.441 34.8412 232.776 35.3684C232.111 35.8956 231.582 36.5734 231.231 37.3459C231.231 37.3459 229.043 37.5213 226.856 33.4624C226.856 33.4624 226.926 22.4203 224.516 20.9815C216.656 16.4665 211.123 16.7121 205.86 16.7121Z" fill="#FFA8A7"/>
<path d="M213.72 35.7784C213.718 36.0784 213.805 36.3723 213.968 36.6237C214.132 36.8751 214.366 37.073 214.641 37.1928C214.916 37.3126 215.22 37.349 215.515 37.2975C215.811 37.246 216.085 37.109 216.303 36.9033C216.522 36.6976 216.675 36.4323 216.744 36.1404C216.813 35.8484 216.795 35.5427 216.691 35.261C216.588 34.9793 216.405 34.7341 216.163 34.5557C215.922 34.3774 215.634 34.2738 215.334 34.2578C214.92 34.2483 214.518 34.4025 214.216 34.687C213.913 34.9716 213.736 35.3637 213.72 35.7784Z" fill="#263238"/>
<g style="mix-blend-mode:multiply" opacity="0.5">
<g style="mix-blend-mode:multiply" opacity="0.5">
<path d="M213.311 46.9141L209.743 48.0838C209.807 48.3247 209.92 48.55 210.074 48.746C210.228 48.942 210.42 49.1046 210.639 49.2239C210.858 49.3432 211.099 49.4166 211.347 49.4398C211.595 49.463 211.845 49.4355 212.083 49.3588C212.565 49.1908 212.963 48.8416 213.192 48.3853C213.421 47.929 213.464 47.4013 213.311 46.9141Z" fill="#F28F8F"/>
</g>
</g>
<path d="M201.965 30.9826L205.076 28.8303C204.948 28.6198 204.778 28.4379 204.577 28.2957C204.376 28.1535 204.147 28.0541 203.906 28.0036C203.665 27.9532 203.416 27.9528 203.175 28.0024C202.933 28.0521 202.705 28.1507 202.503 28.2923C202.087 28.5876 201.8 29.0306 201.7 29.5306C201.6 30.0307 201.695 30.5501 201.965 30.9826Z" fill="#263238"/>
<path d="M215.861 30.386L219.37 31.7429C219.472 31.5175 219.527 31.2735 219.53 31.0261C219.534 30.7786 219.486 30.5331 219.391 30.3049C219.295 30.0766 219.154 29.8704 218.975 29.6992C218.797 29.5281 218.584 29.3955 218.352 29.3099C217.878 29.1403 217.357 29.1571 216.894 29.3569C216.432 29.5566 216.063 29.9244 215.861 30.386Z" fill="#263238"/>
<path d="M201.275 35.451C201.27 35.7537 201.355 36.051 201.519 36.3059C201.682 36.5607 201.917 36.7619 202.194 36.8843C202.471 37.0067 202.778 37.0451 203.076 36.9945C203.375 36.9439 203.652 36.8067 203.873 36.5998C204.094 36.393 204.25 36.1257 204.32 35.8313C204.391 35.5368 204.373 35.2281 204.269 34.9436C204.166 34.6591 203.981 34.4114 203.737 34.2312C203.494 34.051 203.203 33.9464 202.9 33.9303C202.694 33.9225 202.487 33.9557 202.293 34.0281C202.099 34.1004 201.922 34.2105 201.771 34.3519C201.619 34.4932 201.498 34.6631 201.413 34.8518C201.328 35.0404 201.281 35.2441 201.275 35.451Z" fill="#263238"/>
<g style="mix-blend-mode:multiply" opacity="0.5">
<g style="mix-blend-mode:multiply" opacity="0.5">
<path d="M209.088 34.5619L208.843 43.8143L203.977 42.3171L209.088 34.5619Z" fill="#F28F8F"/>
</g>
</g>
<g style="mix-blend-mode:multiply" opacity="0.5">
<g style="mix-blend-mode:multiply" opacity="0.5">
<path d="M215.861 55.4647C219.791 54.9501 227.885 52.6223 229.137 49.429C228.631 51.0428 227.643 52.4631 226.306 53.4996C223.885 55.57 215.861 57.9094 215.861 57.9094V55.4647Z" fill="#F28F8F"/>
</g>
</g>
<path d="M226.248 6.81626L226.844 0.0319182C226.402 -0.0301029 225.951 -0.0015399 225.52 0.115877C225.089 0.233294 224.686 0.437117 224.336 0.714969C223.986 0.99282 223.696 1.33891 223.484 1.73222C223.271 2.12554 223.141 2.55787 223.101 3.00299C223.016 3.92518 223.3 4.84351 223.889 5.55781C224.478 6.27211 225.326 6.72445 226.248 6.81626Z" fill="#263238"/>
<path d="M226.61 7.50641L232.108 3.48259C231.863 3.11271 231.545 2.79598 231.175 2.55125C230.804 2.30652 230.389 2.13878 229.952 2.05803C229.516 1.97727 229.067 1.98514 228.634 2.08117C228.2 2.1772 227.791 2.35942 227.429 2.617C226.693 3.1723 226.197 3.98886 226.045 4.89848C225.893 5.8081 226.095 6.7415 226.61 7.50641Z" fill="#263238"/>
<path d="M231.219 37.3926V43.8495C230.644 43.851 230.074 43.7389 229.543 43.5196C229.012 43.3003 228.529 42.9781 228.122 42.5716C227.716 42.165 227.393 41.6822 227.174 41.1507C226.955 40.6192 226.843 40.0497 226.844 39.4747V33.5443L231.219 37.3926Z" fill="#263238"/>
<path d="M213.72 6.9683C210.865 6.96676 208.038 7.52777 205.4 8.61928C202.761 9.7108 200.364 11.3114 198.345 13.3297C196.325 15.348 194.723 17.7443 193.631 20.3819C192.538 23.0195 191.975 25.8465 191.975 28.7016V31.5206H202.619C205.012 31.5198 207.324 30.6519 209.126 29.0777C210.929 27.5034 212.099 25.3294 212.422 22.9583L212.819 31.5206C214.788 31.5221 216.685 30.7851 218.136 29.4552C219.587 28.1254 220.487 26.2995 220.656 24.3386L220.785 22.9349C220.978 25.2685 222.039 27.4449 223.759 29.0344C225.478 30.6239 227.731 31.511 230.073 31.5206H231.008L232.096 16.1623L213.72 6.9683Z" fill="#263238"/>
<path d="M234.623 34.4917H222.47C222.226 33.3474 221.597 32.3212 220.688 31.5846C219.779 30.8481 218.645 30.4456 217.475 30.4445H216.691C215.688 30.4548 214.71 30.7596 213.878 31.3211C213.046 31.8825 212.397 32.6759 212.013 33.6027C211.225 32.8053 210.162 32.3406 209.041 32.3043C208.097 32.2274 207.158 32.507 206.41 33.088C205.974 32.2895 205.331 31.6229 204.549 31.1578C203.767 30.6928 202.875 30.4464 201.965 30.4445H201.181C199.828 30.4445 198.531 30.9818 197.575 31.9382C196.618 32.8947 196.081 34.1918 196.081 35.5444C196.081 36.897 196.618 38.1942 197.575 39.1507C198.531 40.1071 199.828 40.6444 201.181 40.6444H201.965C202.634 40.6444 203.298 40.5125 203.916 40.2562C204.535 39.9999 205.097 39.6242 205.571 39.1507C206.045 38.6771 206.42 38.1149 206.676 37.4961C206.933 36.8774 207.065 36.2142 207.065 35.5444C207.059 34.9937 206.96 34.4479 206.772 33.9302C207.066 33.6505 207.416 33.4377 207.8 33.3065C208.184 33.1752 208.591 33.1286 208.995 33.1699C209.52 33.1731 210.038 33.2984 210.507 33.5359C210.976 33.7734 211.383 34.1166 211.697 34.5385C211.626 34.877 211.591 35.222 211.591 35.5678C211.595 36.9195 212.133 38.2149 213.089 39.1706C214.044 40.1264 215.34 40.6647 216.691 40.6678H217.475C218.145 40.6678 218.808 40.5359 219.427 40.2796C220.046 40.0233 220.608 39.6476 221.081 39.1741C221.555 38.7005 221.931 38.1383 222.187 37.5195C222.443 36.9008 222.575 36.2376 222.575 35.5678C222.575 35.4977 222.575 35.4392 222.575 35.3807H232.915C233.432 34.992 234.009 34.6917 234.623 34.4917ZM201.93 39.7788H201.146C200.023 39.7788 198.946 39.3327 198.152 38.5386C197.358 37.7445 196.912 36.6675 196.912 35.5444C196.912 34.4214 197.358 33.3444 198.152 32.5503C198.946 31.7562 200.023 31.3101 201.146 31.3101H201.93C203.053 31.3101 204.13 31.7562 204.924 32.5503C205.718 33.3444 206.164 34.4214 206.164 35.5444C206.164 36.6675 205.718 37.7445 204.924 38.5386C204.13 39.3327 203.053 39.7788 201.93 39.7788ZM217.475 39.7788H216.691C215.568 39.7788 214.491 39.3327 213.697 38.5386C212.903 37.7445 212.457 36.6675 212.457 35.5444C212.457 34.4214 212.903 33.3444 213.697 32.5503C214.491 31.7562 215.568 31.3101 216.691 31.3101H217.475C218.598 31.3101 219.675 31.7562 220.469 32.5503C221.263 33.3444 221.709 34.4214 221.709 35.5444C221.709 36.6675 221.263 37.7445 220.469 38.5386C219.675 39.3327 218.598 39.7788 217.475 39.7788Z" fill="#455A64"/>
<path d="M262.193 120.407C259.023 124.104 230.225 150.82 230.225 150.82L231.219 134.689L247.993 114.43L262.193 120.407Z" fill="#FFA8A7"/>
<path d="M206.562 163.16L216.317 156.236C225.675 149.627 236.752 139.24 236.752 127.297C236.636 123.106 235.049 119.09 232.268 115.953C229.488 112.815 225.692 110.756 221.546 110.137C213.849 109.108 207.509 116.688 206.527 123.987C205.568 116.43 199.204 107.154 191.508 106.137C189.618 105.812 187.68 105.911 185.834 106.426C183.987 106.941 182.278 107.86 180.829 109.115C179.38 110.37 178.227 111.932 177.455 113.686C176.682 115.44 176.308 117.345 176.36 119.261C176.36 131.227 187.449 144.55 196.736 153.627L206.562 163.16Z" fill="#3457DC"/>
<path d="M233.102 139.392C229.184 141.731 222.493 141.813 217.99 142.012C213.486 142.211 207.918 149.1 211.58 151.884C214.394 153.722 217.724 154.609 221.079 154.415C224.435 154.221 227.64 152.957 230.225 150.808L233.102 139.392Z" fill="#FFA8A7"/>
<path d="M176.874 123.636C175.798 124.501 175.482 127.32 176.137 130.315C176.792 133.309 179.331 137.976 182.933 139.392C184.583 140.047 191.753 140.257 195.204 136.549C198.853 132.619 198.561 125.893 193.309 127.086C188.298 128.028 183.183 128.288 178.103 127.858C177.592 126.482 177.182 125.071 176.874 123.636Z" fill="#FFA8A7"/>
<path d="M367.093 304.134H355.56V320.92H367.093V304.134Z" fill="#FFA8A7"/>
<path d="M355.56 315.223V313.586C354.461 314.065 351.887 323.844 347.314 328.008C343.687 331.33 338.728 335.155 337.465 338.851C336.201 342.548 344.366 344.829 347.77 344.22C351.712 343.519 358.555 340.711 360.274 338.173C361.993 335.635 362.789 331.786 364.193 329.903C365.596 328.02 368.801 325.903 369.55 323.727C369.971 322.557 369.48 319.89 368.895 317.668C368.357 315.633 367.784 313.387 367.082 313.586V314.837C366.251 315.761 363.935 316.685 361.327 316.791C359.677 316.849 355.548 316.522 355.56 315.223Z" fill="#263238"/>
<path d="M316.246 308.076L304.724 308.474L305.707 291.49L317.228 291.104L316.246 308.076Z" fill="#FFA8A7"/>
<path d="M304.934 304.918C304.326 304.918 303.87 305.783 302.595 307.257C300.627 309.252 298.338 310.901 295.822 312.135C291.506 314.299 283.107 317.621 279.317 319.329C276.978 320.405 277.048 323.271 279.505 324.897C281.961 326.522 287.88 327.704 294.992 326.066C298.863 325.201 303.905 321.621 307.098 321.82C310.292 322.019 316.257 321.961 318.608 320.335C320.959 318.709 320.024 315.246 319.357 312.264C318.632 309.012 317.591 303.924 316.514 304.146L316.444 305.503C315.052 307.608 307.929 308.029 304.887 306.485L304.934 304.918Z" fill="#263238"/>
<path d="M318.07 89.1524C312.865 94.1471 282.195 110.207 280.511 109.915C277.984 109.564 268.814 100.557 260.976 92.2287C259.748 85.8889 257.947 77.8997 255.935 73.4314C254.901 70.8175 253.363 68.4327 251.408 66.4131L251.935 64.2609L281.622 92.334C281.622 92.334 314.198 67.77 319.053 66.3664C323.907 64.9627 323.275 84.1577 318.07 89.1524Z" fill="#F28F8F"/>
<path d="M240.366 60.5646C236.389 61.5589 233.348 64.2492 234.015 68.5537C234.448 71.3845 239.127 73.4549 241.641 71.3026C243.665 69.5597 249.724 65.3838 252.496 67.5244C253.124 68.7955 253.341 70.2304 253.116 71.6301C252.929 73.8759 254.075 75.4785 254.754 75.3732C255.432 75.2679 256.485 71.6886 256.59 70.2849C256.742 68.1093 255.503 61.7226 245.782 60.4359C243.985 60.1436 242.148 60.1872 240.366 60.5646Z" fill="#FFA8A7"/>
<path d="M390.184 132.198C389.926 128.689 383.996 112.804 381.048 106.242L366.111 113.26L371.831 126.361L387.306 138.316C391.318 137.684 390.301 133.672 390.184 132.198Z" fill="#FFA8A7"/>
<path d="M360.941 141.719C360.941 152.726 362.368 223.939 362.368 223.939C362.637 227.097 366.672 237.519 367.047 252.246C367.514 268.785 368.006 306.053 368.006 306.053C368.006 306.053 362.602 311.41 354.975 306.053C354.975 306.053 342.401 251.614 338.529 230.934C336.728 216.64 332.224 175.641 332.224 175.641L322.866 222.313C323.69 227.799 324.081 233.34 324.036 238.888C324.036 246.491 317.404 295.806 317.404 295.806C317.404 295.806 310.889 299.759 304.642 296.016C304.642 296.016 300.887 229.261 300.782 222.324C300.654 213.832 306.947 141.708 306.947 141.708L360.941 141.719Z" fill="#37474F"/>
<path d="M332.259 175.664L330.914 165.699C330.914 165.699 322.223 161.71 319.217 158.879C319.217 158.879 324.679 166.096 328.118 168.108L323.907 217.482L332.259 175.664Z" fill="#263238"/>
<path d="M323.416 64.9042C317.416 64.9042 309.38 70.1913 302.595 75.4317C295.811 80.672 290.173 84.9882 290.173 84.9882C291.343 91.3281 295.378 97.1299 299.729 101.879L319.041 91.41C319.041 91.41 327.463 74.262 323.416 64.9042Z" fill="#E6E6E6"/>
<path d="M343.582 65.4774C353.922 67.9689 367.035 72.1448 371.655 81.6663C376.275 91.1877 383.352 106.628 383.352 106.628C378.543 111.326 372.674 114.797 366.239 116.746L360.987 107.599V141.719C352.905 150.504 324.726 154.586 307.075 141.719V85.5731C307.075 76.5897 312.058 65.8049 325.791 64.9978L343.582 65.4774Z" fill="#F5F5F5"/>
<path d="M360.94 107.599C360.94 107.599 355.759 98.6154 354.636 96.4514L360.94 118.15V107.599Z" fill="#E6E6E6"/>
<path d="M347.465 19.5193C348.394 19.4107 349.335 19.5155 350.216 19.8256C351.098 20.1358 351.897 20.6431 352.553 21.309C354.729 23.5431 354.285 27.6722 352.553 37.1703L345.816 37.9423L347.465 19.5193Z" fill="#263238"/>
<path d="M308.128 16.7705C306.676 16.7831 305.238 16.4922 303.905 15.9166C301.835 14.7469 301.297 17.0863 302.431 19.1333C303.184 20.596 304.298 21.842 305.668 22.753C307.037 23.664 308.617 24.2098 310.257 24.3386C310.315 24.0461 312.199 19.0748 312.199 19.0748L308.128 16.7705Z" fill="#263238"/>
<path d="M344.307 38.0008C345.301 38.5974 346.728 36.6673 347.968 35.3807C349.208 34.094 353.232 32.316 355.244 36.5504C357.256 40.7847 352.647 46.6099 349.91 48.5049C346.67 50.7624 344.307 48.9961 344.307 48.9961L343.582 65.5125C343.582 65.5125 340.002 74.2737 330.305 75.5954C320.608 76.9172 322.597 68.8696 325.755 64.9043V58.9036C325.755 58.9036 320.749 59.8862 318.374 59.2779C316.661 58.7327 315.109 57.7726 313.856 56.4829C312.603 55.1932 311.688 53.6139 311.192 51.8853C308.523 43.0855 307.966 33.7801 309.566 24.7246C312.023 9.74053 328.925 9.51829 338.4 15.4487C347.875 21.3792 344.307 38.0008 344.307 38.0008Z" fill="#FFA8A7"/>
<path d="M344.307 39.6384C344.81 39.6384 346.717 36.4685 347.968 35.3339C349.7 33.7548 347.465 19.5193 347.465 19.5193C347.465 19.5193 349.22 14.127 345.804 10.5476C342.389 6.96831 335.768 7.56487 330.926 7.38941C324.983 7.41703 319.099 6.22259 313.637 3.88027C306.759 0.885803 306.245 0.53489 305.449 3.55275C304.654 6.57062 304.28 13.4836 308.374 18.1157L311.777 19.3673C311.777 19.3673 313.626 21.0049 320.036 21.7886C326.446 22.5723 336.412 21.6365 337.792 21.4494C339.652 21.192 340.049 22.9934 341.044 27.9179C341.874 32.2809 342.611 39.6033 344.307 39.6384Z" fill="#263238"/>
<path d="M347.453 20.6305L353.513 17.3787C353.319 16.9712 353.044 16.607 352.706 16.3082C352.368 16.0094 351.973 15.7821 351.544 15.64C351.116 15.498 350.663 15.444 350.214 15.4815C349.764 15.519 349.326 15.6471 348.927 15.8581C348.117 16.3131 347.512 17.062 347.238 17.9501C346.963 18.8382 347.041 19.7977 347.453 20.6305Z" fill="#263238"/>
<path d="M325.755 58.9504C325.755 58.9504 334.739 57.1374 337.874 55.4413C339.722 54.4838 341.236 52.9866 342.213 51.1484C341.742 52.9844 340.907 54.7068 339.757 56.2133C337.417 59.1493 325.72 61.3132 325.72 61.3132L325.755 58.9504Z" fill="#F28F8F"/>
<path d="M327.966 35.6614C327.962 35.901 328.004 36.1392 328.092 36.3624C328.179 36.5856 328.31 36.7893 328.476 36.9621C328.642 37.1348 328.84 37.2731 329.06 37.369C329.28 37.4649 329.516 37.5167 329.756 37.5212C330.13 37.5376 330.5 37.4416 330.818 37.2456C331.137 37.0496 331.389 36.7627 331.543 36.4218C331.697 36.0809 331.746 35.7016 331.682 35.333C331.618 34.9644 331.446 34.6233 331.186 34.3538C330.927 34.0843 330.593 33.8986 330.227 33.8208C329.861 33.7431 329.48 33.7767 329.134 33.9175C328.787 34.0582 328.49 34.2995 328.282 34.6104C328.074 34.9213 327.964 35.2873 327.966 35.6614Z" fill="#263238"/>
<path d="M330.201 28.2571L334.049 30.3743C334.315 29.8445 334.37 29.2333 334.203 28.6643C334.036 28.0954 333.659 27.6112 333.148 27.3097C332.894 27.1716 332.614 27.0865 332.326 27.0595C332.038 27.0326 331.747 27.0643 331.472 27.1529C331.196 27.2415 330.942 27.385 330.723 27.5748C330.505 27.7646 330.327 27.9967 330.201 28.2571Z" fill="#263238"/>
<path d="M328.095 47.9083L323.989 49.4523C324.079 49.7272 324.222 49.9813 324.412 50.1994C324.602 50.4175 324.833 50.5952 325.093 50.7218C325.353 50.8484 325.636 50.9214 325.924 50.9364C326.213 50.9515 326.502 50.9082 326.773 50.8092C327.319 50.5823 327.759 50.157 328.005 49.6188C328.25 49.0805 328.282 48.4694 328.095 47.9083Z" fill="#F28F8F"/>
<path d="M311.286 30.5263L314.795 27.8126C314.629 27.5766 314.417 27.3766 314.172 27.2246C313.927 27.0726 313.653 26.9717 313.368 26.928C313.083 26.8843 312.792 26.8987 312.513 26.9703C312.233 27.0419 311.971 27.1693 311.742 27.3447C311.274 27.7164 310.966 28.2531 310.881 28.8448C310.796 29.4364 310.941 30.0381 311.286 30.5263Z" fill="#263238"/>
<path d="M312.994 35.1935C313.01 35.5459 313.129 35.8857 313.336 36.171C313.544 36.4563 313.83 36.6744 314.161 36.7982C314.491 36.9221 314.85 36.9463 315.194 36.8678C315.538 36.7894 315.851 36.6117 316.095 36.3568C316.339 36.1019 316.502 35.781 316.566 35.434C316.629 35.087 316.589 34.7291 316.45 34.4047C316.312 34.0803 316.081 33.8036 315.787 33.6091C315.493 33.4145 315.148 33.3106 314.795 33.3103C314.308 33.3256 313.846 33.5314 313.509 33.8836C313.173 34.2358 312.987 34.7062 312.994 35.1935Z" fill="#263238"/>
<path d="M322.164 33.4857L321.568 44.3055L315.918 42.3872L322.164 33.4857Z" fill="#F28F8F"/>
<path d="M301.742 150.352L309.473 146.234C316.854 142.304 325.662 135.637 325.662 126.174C325.662 119.542 320.293 112.512 313.661 110.465C307.567 108.581 302.537 113.693 301.765 119.343C301.005 113.213 295.975 104.99 289.869 103.107C283.248 101.048 277.879 104.768 277.879 111.389C277.879 120.863 286.652 132.97 294.021 141.45L301.742 150.352Z" fill="#3457DC"/>
<path d="M387.306 138.292L371.83 126.338C371.83 126.338 340.634 131.414 336.973 131.695C333.312 131.976 330.083 129.215 328.691 125.624C327.299 122.033 325.112 122.419 325.112 122.419C325.696 124.429 325.816 126.544 325.463 128.607C324.2 129.964 316.983 131.321 312.116 129.671C307.25 128.022 300.197 130.42 304.56 137.041C308.923 143.661 317.427 144.445 323.276 144.445C325.74 144.43 328.2 144.265 330.645 143.954C332.551 143.708 334.458 143.509 336.376 143.38C348.495 142.515 381.82 140.023 387.306 138.292Z" fill="#FFA8A7"/>
<path d="M110.691 64.6938C121.336 62.7521 121.804 64.2142 155.304 82.953C155.304 82.953 194.759 66.9513 199.438 64.2376C204.116 61.5239 210.819 59.7342 215.814 62.7872C214.602 62.8208 213.401 63.0256 212.246 63.3954C211.673 63.6762 209.755 64.6587 210 65.536C210.094 65.9103 210.55 66.0273 210.936 66.0507C211.753 66.1113 212.574 66.072 213.381 65.9337C214.316 65.7699 215.428 65.536 216.071 66.2261C216.301 66.5382 216.417 66.9197 216.4 67.3071C216.383 67.6945 216.234 68.0643 215.977 68.355C215.455 68.9291 214.806 69.3737 214.082 69.6534L210.573 71.2793C209.719 71.6369 208.907 72.088 208.152 72.6245C207.462 73.1391 206.877 73.7942 206.163 74.2971C203.941 75.8295 201.333 75.0341 199.005 76.0283C198.607 76.1921 198.209 76.4026 197.835 76.5781C196.116 77.3969 194.478 78.3561 192.84 79.3269C188.068 82.1576 183.401 85.1755 178.722 88.1466C174.043 91.1176 169.61 93.9951 164.908 96.6504C163.198 97.768 161.344 98.6494 159.398 99.2706C153.55 100.686 119.944 86.0762 119.944 86.0762L110.691 64.6938Z" fill="#9E6767"/>
<path d="M97.5207 7.65854H105.498C111.374 7.65854 117.009 9.99266 121.164 14.1474C125.318 18.3022 127.653 23.9372 127.653 29.8129V33.5092C127.654 36.4027 127.085 39.2681 125.979 41.9417C124.873 44.6153 123.251 47.0448 121.205 49.0913C119.16 51.1379 116.731 52.7613 114.058 53.8689C111.385 54.9765 108.52 55.5466 105.627 55.5466H97.4388C91.5972 55.5466 85.9949 53.2261 81.8643 49.0955C77.7336 44.9648 75.4131 39.3625 75.4131 33.5209V29.8129C75.4131 23.9453 77.7408 18.3173 81.8854 14.1639C86.03 10.0105 91.6531 7.67093 97.5207 7.65854Z" fill="#263238"/>
<path d="M85.8817 317.048V315.364C86.5484 317.34 89.6248 325.821 94.2802 330.079C97.9882 333.459 103.053 337.366 104.34 341.132C105.626 344.899 97.3215 346.373 93.8124 345.811C89.7886 345.098 84.5833 342.805 81.7409 339.331C79.7524 336.875 78.4891 333.974 77.0621 332.055C75.635 330.137 72.3832 327.973 71.5878 325.751C71.1667 324.581 71.6697 321.844 72.2662 319.575C72.8043 317.504 73.4359 315.212 74.1027 315.41V316.685C74.9566 317.633 77.3194 318.58 79.9512 318.674C81.7292 318.732 85.8934 318.358 85.8817 317.048Z" fill="#263238"/>
<path d="M97.6611 333.05C96.4914 332.02 95.3217 331.026 94.304 330.067C91.0522 327.096 88.5724 322.054 87.1454 318.615C86.3269 316.655 85.9055 314.552 85.9055 312.428V305.725H74.1265V316.639V316.919H74.185C74.7581 319.364 80.1505 325.856 83.2151 330.09C85.2621 332.933 89.169 336.547 93.8361 337.167C98.2577 337.799 100.515 336.407 97.6611 333.05Z" fill="#9E6767"/>
<path d="M131.735 305.456V303.772C132.39 305.748 135.466 314.299 140.133 318.487C143.841 321.867 148.895 325.774 150.181 329.552C151.468 333.33 143.163 334.781 139.654 334.173C135.618 333.459 130.413 331.178 127.582 327.692C125.594 325.248 124.319 322.347 122.904 320.417C121.488 318.487 118.225 316.346 117.441 314.112C117.008 312.942 117.511 310.205 118.108 307.948C118.657 305.865 119.277 303.585 119.956 303.772V305.058C120.81 306.006 123.173 306.942 125.804 307.047C127.571 307.105 131.747 306.766 131.735 305.456Z" fill="#263238"/>
<path d="M143.49 321.469C142.321 320.44 141.151 319.434 140.133 318.475C136.87 315.504 134.39 310.462 132.963 307.023C132.153 305.061 131.736 302.959 131.735 300.836V294.168H120.038V305.07V305.363C120.599 307.807 125.991 314.311 129.056 318.545C131.115 321.388 135.022 325.002 139.689 325.622C144.099 326.207 146.368 324.815 143.49 321.469Z" fill="#9E6767"/>
<path d="M76.4657 134.374C67.3536 154.259 76.7932 224.383 76.7932 224.383C76.5242 227.612 72.8279 233.975 71.4593 248.187C69.8334 264.984 74.0093 307.152 74.0093 307.152C75.8002 308.192 77.8182 308.778 79.8875 308.86C81.9568 308.941 84.0147 308.516 85.8819 307.62C85.8819 307.62 97.0878 244.105 99.1933 227.413C101.03 212.838 104.562 180.788 104.562 180.788L114.587 227.331C113.122 232.028 112.061 236.841 111.417 241.718C110.458 251.532 119.979 297.268 119.979 297.268C119.979 297.268 124.038 298.765 131.676 297.631C131.676 297.631 135.045 236.934 135.922 225.108C137.42 205.223 132.144 143.228 128.495 131.531L76.4657 134.374Z" fill="#37474F"/>
<path d="M104.562 180.788L107.521 162.306C107.521 162.306 120.037 159.71 125.71 154.376C125.71 154.376 119.757 161.78 110.914 164.213L107.592 178.437L113.44 221.541L104.562 180.788Z" fill="#263238"/>
<path d="M92.5377 65.2318C80.8405 66.0272 80.0451 71.677 77.1208 77.8414C74.974 82.5933 74.7725 87.9969 76.5594 92.8956L84.7474 116.454C84.7474 116.454 80.9458 125.671 76.5594 134.374C96.9943 145.778 122.506 139.778 128.647 131.461C128.904 129.695 127.325 115.892 126.307 106.897C129.91 97.8669 130.858 92.147 129.337 86.1814C126.518 75.1042 115.581 64.3195 110.738 64.7055L92.5377 65.2318Z" fill="#F5F5F5"/>
<path d="M85.5075 132.549C85.5075 132.549 87.9171 122.969 88.7827 120.852C89.0631 119.997 89.6227 119.261 90.3715 118.763C91.1204 118.264 92.015 118.032 92.9118 118.103C91.6026 117.234 90.478 116.115 89.6027 114.811C88.7275 113.506 88.1188 112.041 87.8118 110.5L85.3321 98.0423C85.3321 98.0423 89.9407 83.4092 89.4728 78.4028L77.7757 79.0812L76.2668 80.134C75.023 84.2995 75.1377 88.7528 76.5943 92.8488L84.7823 116.407C84.7823 116.407 80.9807 125.624 76.5943 134.327C91.6485 142.725 109.463 141.684 120.248 137.216L85.5075 132.549Z" fill="#E6E6E6"/>
<path d="M61.6103 125.729C61.6805 124.805 65.716 99.9957 68.921 83.2922C71.0733 72.0161 75.565 67.8871 84.3612 66.5302L87.4844 66.0389C91.6603 79.7597 88.7828 85.924 83.2734 95.3636L78.0799 120.419L65.5055 133.134C61.1775 132.268 61.5167 127.028 61.6103 125.729Z" fill="#9E6767"/>
<path d="M119.067 18.2327C121.827 19.8703 125.243 26.8067 124.915 41.3697C124.623 53.7102 120.623 56.7631 118.622 57.6404C116.622 58.5177 112.774 57.9796 108.972 57.3597V64.764C108.972 64.764 114.177 70.8114 113.85 74.2035C113.522 77.5957 106.329 78.4028 101.463 75.0808C98.3055 72.8108 95.5966 69.9751 93.4734 66.7174V48.8207C93.4734 48.8207 90.9235 52.2129 86.771 49.4524C82.6185 46.6919 82.4547 39.849 84.8643 37.3926C87.274 34.9362 92.5026 35.7199 93.4734 39.1121C93.4734 39.1121 99.4741 39.3344 107.51 34.9362C110.611 33.2536 113.274 30.8649 115.281 27.9632C117.289 25.0615 118.586 21.7282 119.067 18.2327Z" fill="#9E6767"/>
<path d="M111.124 38.2699C111.129 38.575 111.043 38.8745 110.878 39.1313C110.713 39.3881 110.477 39.5908 110.198 39.7141C109.919 39.8374 109.61 39.876 109.309 39.825C109.008 39.7739 108.729 39.6356 108.506 39.4271C108.283 39.2187 108.127 38.9493 108.056 38.6525C107.985 38.3558 108.003 38.0447 108.107 37.7581C108.212 37.4715 108.398 37.2219 108.644 37.0404C108.889 36.859 109.182 36.7537 109.487 36.7376C109.695 36.7298 109.903 36.7633 110.098 36.8363C110.294 36.9092 110.473 37.0201 110.625 37.1625C110.777 37.305 110.9 37.4762 110.985 37.6663C111.071 37.8563 111.118 38.0615 111.124 38.2699Z" fill="#263238"/>
<path d="M111.534 48.7389L115.136 49.9086C115.072 50.1496 114.96 50.3751 114.806 50.5715C114.652 50.7679 114.46 50.9312 114.241 51.0514C114.023 51.1716 113.782 51.2464 113.534 51.2711C113.286 51.2958 113.035 51.27 112.797 51.1953C112.307 51.0318 111.901 50.6833 111.665 50.2243C111.429 49.7653 111.382 49.2322 111.534 48.7389Z" fill="#874C4C"/>
<path d="M123.851 33.5092L120.704 31.3335C120.836 31.1219 121.009 30.9393 121.213 30.7967C121.418 30.6542 121.649 30.5547 121.893 30.5044C122.137 30.4541 122.389 30.4539 122.633 30.5039C122.877 30.554 123.108 30.6531 123.313 30.7954C123.732 31.0932 124.022 31.5404 124.122 32.0451C124.222 32.5499 124.125 33.0738 123.851 33.5092Z" fill="#263238"/>
<path d="M123.125 37.147C123.13 37.452 123.044 37.7516 122.879 38.0084C122.714 38.2652 122.478 38.4678 122.199 38.5911C121.92 38.7145 121.61 38.753 121.31 38.702C121.009 38.651 120.73 38.5126 120.507 38.3041C120.284 38.0957 120.128 37.8263 120.057 37.5296C119.986 37.2328 120.004 36.9218 120.108 36.6351C120.213 36.3485 120.399 36.0989 120.645 35.9175C120.89 35.736 121.183 35.6307 121.488 35.6146C121.696 35.6068 121.904 35.6403 122.099 35.7133C122.295 35.7862 122.474 35.8971 122.626 36.0396C122.778 36.182 122.901 36.3532 122.986 36.5433C123.072 36.7334 123.119 36.9385 123.125 37.147Z" fill="#263238"/>
<path d="M115.803 36.258L116.049 45.604L120.962 44.0834L115.803 36.258Z" fill="#874C4C"/>
<path d="M108.961 57.3596C104.995 56.8333 96.819 54.4938 95.5557 51.2654C96.064 52.8973 97.06 54.3342 98.4098 55.3828C100.854 57.4766 108.937 59.8277 108.937 59.8277L108.961 57.3596Z" fill="#874C4C"/>
<path d="M147.351 147.556L139.911 143.591C132.811 139.813 124.342 133.391 124.342 124.291C124.342 117.916 129.501 111.143 135.876 109.178C141.724 107.365 146.59 112.278 147.327 117.717C148.064 111.868 152.907 103.903 158.767 102.09C165.142 100.124 170.312 103.692 170.312 110.067C170.312 119.179 161.867 130.818 154.778 138.982L147.351 147.556Z" fill="#3457DC"/>
<path d="M65.5054 133.122L78.0798 120.407C78.0798 120.407 109.814 127.426 113.393 127.765C116.973 128.104 119.815 124.817 122.33 121.986C122.635 121.619 123.018 121.324 123.451 121.121C123.884 120.919 124.356 120.815 124.833 120.817C124.479 121.951 124.372 123.147 124.517 124.326C125.056 125.823 132.951 127.426 137.724 125.811C142.496 124.197 149.421 126.537 145.104 133.029C140.788 139.52 132.53 140.257 126.752 140.269C124.339 140.252 121.929 140.092 119.534 139.789C117.675 139.544 115.815 139.357 113.932 139.216C102.129 138.339 70.8744 134.806 65.5054 133.122Z" fill="#9E6767"/>
<path d="M78.6177 10.4541C83.7177 12.5947 82.5714 16.9694 80.4425 22.0577C78.3136 27.1459 75.9976 31.0528 70.8976 28.9122C68.4499 27.8884 66.5092 25.9343 65.5023 23.4796C64.4954 21.0249 64.5049 18.2708 65.5286 15.8231C66.5524 13.3754 68.5065 11.4346 70.9612 10.4277C73.4159 9.42086 76.17 9.43033 78.6177 10.4541Z" fill="#263238"/>
<path d="M83.1095 15.016L84.8991 6.50046C84.3464 6.35497 83.77 6.32319 83.2046 6.40704C82.6393 6.4909 82.0969 6.68864 81.6102 6.98829C81.1235 7.28795 80.7028 7.68328 80.3734 8.15034C80.044 8.6174 79.8128 9.14646 79.6939 9.70547C79.4715 10.86 79.7023 12.0558 80.3383 13.0447C80.9743 14.0336 81.9667 14.7395 83.1095 15.016Z" fill="#263238"/>
</svg>
