<svg width="188" height="151" viewBox="0 0 188 151" fill="none" xmlns="http://www.w3.org/2000/svg">
<path d="M136.602 8.65759C134.773 3.77649 132.866 -1.31621 119.953 2.12841C113.018 3.97804 107.206 10.5129 102.454 20.2176C98.8793 27.9356 95.8587 37.9159 93.4491 49.8822C88.5254 74.3337 86.4512 105.964 87.4208 136.716L85.272 136.784L85.2437 135.856C84.5878 113.65 85.5086 91.0288 87.9376 70.9733C77.6032 60.2323 65.824 51.7664 57.2403 48.9545C36.8995 44.4693 31.5258 56.3189 31.659 66.8891C31.6834 68.8219 32.3589 70.4295 33.0393 72.0489C33.7429 73.7235 34.4518 75.4107 34.4518 77.4835C34.4518 78.8581 31.3777 81.6977 27.3817 85.3888C19.5255 92.6454 8.10597 103.194 9.47658 112.373C10.7432 120.856 18.7757 127.298 26.1692 130.761C26.8931 131.1 27.6814 131.73 28.63 132.488C29.3046 133.027 30.0603 133.631 30.9314 134.24L30.9984 134.287C31.6827 134.758 32.8121 135.423 34.3866 136.282L34.8723 136.545C57.1465 148.561 82.9975 140.466 91.053 137.478L91.5238 137.302L148.648 136.666L148.641 136.621C148.625 136.528 148.6 136.39 148.567 136.211C148.03 133.301 145.508 119.632 150.878 114.123C167.649 96.9198 186.038 47.688 161.035 27.0578C155.51 22.4987 150.027 19.7271 145.816 17.5986C143.259 16.3058 141.17 15.2502 139.827 14.1754C138.172 12.8518 137.394 10.7746 136.602 8.65759Z" fill="#3457DC"/>
<path fill-rule="evenodd" clip-rule="evenodd" d="M35.4368 63.7606C34.178 63.5418 36.4028 66.0382 36.4028 66.0382C36.4028 66.0382 36.6957 63.9794 35.4368 63.7606Z" fill="white"/>
<path fill-rule="evenodd" clip-rule="evenodd" d="M54.2663 136.858C54.2663 136.858 40.7441 131.2 40.7441 123.323C40.7441 121.012 42.1896 121.234 45.0805 123.989C45.3949 124.288 45.8453 124.748 46.4317 125.369C46.791 125.749 38.6755 115.894 42.7648 114.051C46.7509 112.254 47.6781 121.583 47.8864 121.454C48.118 121.311 48.0504 118.488 48.9729 117.24C49.4699 116.568 50.9314 116.424 52.0373 117.24C57.8471 121.527 54.2663 136.858 54.2663 136.858Z" fill="white"/>
<path fill-rule="evenodd" clip-rule="evenodd" d="M48.4535 79.0735C48.4535 79.0735 42.8287 78.7847 42.0619 76.9962C41.2952 75.2077 45.4663 76.2241 45.4663 76.2241L48.4535 79.0735Z" fill="white"/>
<path fill-rule="evenodd" clip-rule="evenodd" d="M38.941 70.5947C37.6817 69.89 38.3979 68.2099 38.941 68.14C40.5487 67.9331 41.8173 71.4957 41.9945 71.8524C42.3014 72.4702 39.5799 70.9523 38.941 70.5947Z" fill="white"/>
<path fill-rule="evenodd" clip-rule="evenodd" d="M51.8902 81.3941C51.8902 81.3941 48.8106 73.5424 51.6615 74.1612C54.5125 74.7799 53.6924 83.9075 53.6924 83.9075L51.8902 81.3941Z" fill="white"/>
<path fill-rule="evenodd" clip-rule="evenodd" d="M49.8225 75.6749C49.8628 76.9484 50.4069 78.9022 51.4518 81.5661C51.466 81.6024 51.4848 81.6368 51.5075 81.6685L53.3096 84.1819C53.564 84.5366 54.1223 84.3844 54.1613 83.9497L54.1939 83.5736C54.7005 77.4877 53.9691 74.1801 51.7614 73.701C50.4769 73.4222 49.7756 74.1905 49.8225 75.6749ZM51.6093 74.6326C52.9809 74.9843 53.6187 77.5296 53.3399 82.3065L53.3225 82.5838L52.3068 81.1671L52.1291 80.7062C51.2516 78.4002 50.7974 76.7051 50.7639 75.6451L50.7612 75.4971C50.7593 74.6941 50.9797 74.495 51.5617 74.6213L51.6093 74.6326Z" fill="#00160A"/>
<path fill-rule="evenodd" clip-rule="evenodd" d="M41.0147 113.575C39.031 114.469 39.1683 116.725 40.6827 119.798L40.799 120.031C41.076 120.575 41.3921 121.138 41.7417 121.715L41.8622 121.912L41.8472 121.902C41.2809 121.525 40.7923 121.305 40.3719 121.24C39.2557 121.069 38.6865 121.891 38.6865 123.323C38.6865 128.836 43.3418 133.495 52.5292 137.339C52.8272 137.464 53.1657 137.291 53.2392 136.976C55.6692 126.573 54.9042 119.839 50.8118 116.82C49.5562 115.894 47.7409 115.951 47.0176 116.93L46.9548 117.018C46.6473 117.47 46.4328 118.065 46.2737 118.805L46.2667 118.838L46.2462 118.756C46.1331 118.314 46.0136 117.896 45.8782 117.477C45.4298 116.09 44.8935 115 44.2208 114.271C43.3353 113.312 42.2344 113.025 41.0147 113.575ZM45.5088 120.19L45.738 121.271L45.7646 121.383C45.7814 121.451 45.7968 121.506 45.8124 121.552C45.8333 121.615 45.8552 121.666 45.8898 121.721C45.9329 121.789 45.9864 121.849 46.0715 121.9C46.2372 122 46.4499 122.006 46.6253 121.898C46.851 121.758 46.9062 121.639 46.968 121.244L46.9969 121.047C47.0173 120.901 47.092 120.281 47.1046 120.182C47.1548 119.791 47.2049 119.468 47.2665 119.16C47.411 118.437 47.6055 117.891 47.8571 117.55C48.2013 117.085 49.362 117.048 50.1917 117.66L50.3005 117.742C53.752 120.4 54.4992 126.422 52.4249 135.845L52.3609 136.133L52.1485 136.041C43.8325 132.414 39.7306 128.163 39.7306 123.323C39.7306 122.444 39.8842 122.222 40.2134 122.272C40.796 122.362 41.8138 123.06 43.1847 124.367L43.3599 124.537C43.5688 124.742 43.8255 125.003 44.1294 125.32L44.5342 125.745C44.5411 125.752 44.5515 125.761 44.5723 125.78L44.5789 125.796C44.595 125.822 44.6463 125.831 44.9886 125.895L45.1079 125.853C45.2491 125.8 45.2715 125.764 45.3915 125.576L45.4188 125.461C45.4355 125.386 45.4331 125.368 45.4243 125.303L45.4015 125.21C45.3965 125.192 45.3927 125.183 45.3864 125.169L45.3811 125.158C45.3671 125.128 45.359 125.113 45.3457 125.092L45.2037 124.901L44.8419 124.422C44.7798 124.339 44.7171 124.254 44.6477 124.16C44.0526 123.352 43.4754 122.518 42.933 121.657C42.4249 120.85 41.9814 120.072 41.6193 119.337C40.3415 116.744 40.2396 115.069 41.4437 114.527C42.8929 113.873 44.0056 115.079 44.8845 117.798C45.1234 118.538 45.3126 119.282 45.5088 120.19Z" fill="#00160A"/>
<path fill-rule="evenodd" clip-rule="evenodd" d="M42.6339 72.1402L43.0628 72.5307C48.3811 77.3854 52.0839 81.259 54.0576 83.947C57.5027 88.6386 60.2791 93.505 62.6187 98.6577C63.4503 100.489 64.203 102.302 64.9448 104.227L65.1469 104.755C65.3781 105.363 65.6016 105.964 65.8453 106.629L66.8834 109.493C69.6915 117.182 68.762 117.557 66.0887 110.078L65.0386 107.179C64.8187 106.576 64.6173 106.032 64.4148 105.494L64.2624 105.092C63.4614 102.986 62.6555 101.027 61.7572 99.0489C59.4433 93.9528 56.6989 89.1427 53.2949 84.507L53.1389 84.2969C51.1168 81.604 47.3623 77.7115 41.9978 72.8407C41.8044 72.6651 41.7899 72.3659 41.9656 72.1724C42.1412 71.979 42.4404 71.9645 42.6339 72.1402ZM30.1856 61.4168L36.8086 67.07C37.4294 67.6026 37.9133 68.0199 38.1443 68.2234C38.3403 68.3962 38.3592 68.6952 38.1864 68.8912C38.0136 69.0872 37.7147 69.1061 37.5186 68.9333L35.7951 67.4474C33.5062 65.4867 29.8925 62.4115 29.5702 62.1356C29.3717 61.9657 29.3486 61.6671 29.5185 61.4686C29.6884 61.2701 29.9871 61.2469 30.1856 61.4168Z" fill="#00160A"/>
<path fill-rule="evenodd" clip-rule="evenodd" d="M42.4258 75.4497C41.5563 75.6469 41.2634 76.3278 41.6294 77.1817C42.2402 78.6063 44.5043 79.3422 48.4296 79.5437C48.8658 79.5661 49.0948 79.0342 48.7788 78.7328L45.7916 75.8834C45.7319 75.8264 45.6582 75.7861 45.5781 75.7666C44.1212 75.4116 43.0844 75.3003 42.4258 75.4497ZM45.2329 76.652L47.1807 78.5095L47.0636 78.4985L46.7695 78.4675C44.2619 78.1865 42.8357 77.6051 42.4951 76.8106L42.4596 76.7253C42.3554 76.464 42.393 76.4228 42.6341 76.3681C43.0785 76.2673 43.9105 76.3467 45.0958 76.62L45.2329 76.652Z" fill="#00160A"/>
<path fill-rule="evenodd" clip-rule="evenodd" d="M39.6607 139.622C38.4749 140.305 38.958 141.016 41.5153 142.151C44.2746 143.392 49.4102 145.787 58.2311 146.462C71.8935 147.507 84.333 145.535 100.037 145.535C121.778 145.535 131.321 150.312 138.93 149.21C159.328 146.257 163.949 140.525 157.864 139.046C151.183 137.423 129.948 137.621 122.8 137.154L120.587 137.012L118.687 136.965C98.1118 136.459 65.1312 136.965 58.6901 136.965C45.5499 136.965 39.6607 139.622 39.6607 139.622Z" fill="white"/>
<path fill-rule="evenodd" clip-rule="evenodd" d="M100.037 145.535C121.778 145.535 131.321 150.477 138.93 149.375C159.328 146.422 163.949 140.525 157.864 139.046C151.183 137.423 126.914 136.895 120.938 137.025C120.938 137.025 148.411 142.101 146.941 143.782C142.563 148.788 131.664 142.739 111.867 142.916C107.789 142.952 100.037 145.535 100.037 145.535Z" fill="#E7EAEE"/>
<path fill-rule="evenodd" clip-rule="evenodd" d="M59.9944 137.179C59.4649 137.182 59.0401 137.184 58.6903 137.184L58.0905 137.185C49.548 137.225 43.3172 138.123 39.372 139.903L39.3103 139.935C38.3889 140.465 38.0358 141.247 38.6148 142.049C38.9893 142.568 39.7732 143.058 41.0964 143.654L42.2212 144.157C43.6247 144.779 44.4571 145.115 45.7069 145.555L45.8424 145.603C49.4474 146.862 53.4478 147.722 58.1776 148.084C61.5384 148.341 64.9634 148.429 68.7178 148.377L70.0321 148.354C72.5006 148.303 74.6035 148.216 78.4453 148.01L85.0862 147.642C91.4142 147.3 95.2747 147.163 99.8325 147.159L100.037 147.159C108.194 147.159 114.858 147.78 122.249 148.99L122.89 149.097C124.004 149.29 130.129 150.369 131.82 150.612L131.878 150.621C134.83 151.036 137.013 151.119 139.031 150.827L139.595 150.744C148.757 149.375 155.378 147.335 158.721 145.079C162.062 142.825 161.759 140.242 158.141 139.313L158.03 139.285C155.025 138.555 149.32 138.149 140.456 137.884L138.637 137.832C138.108 137.818 137.56 137.804 136.984 137.79L129.267 137.611C126.296 137.538 124.474 137.474 123.094 137.39L120.632 137.233L118.705 137.184L116.745 137.139C111.063 137.021 104.276 136.964 96.5082 136.959L94.1984 136.959C88.7851 136.963 83.1822 136.989 76.9268 137.036L59.9944 137.179ZM98.3149 138.366C106.068 138.38 112.791 138.448 118.351 138.581L120.57 138.636L123.094 138.798C124.482 138.881 126.3 138.943 129.227 139.015L136.66 139.187C137.536 139.208 138.346 139.229 139.123 139.251L140.943 139.304C149.393 139.567 154.886 139.967 157.698 140.65L157.867 140.693C160.199 141.305 160.276 142.335 157.935 143.915C154.735 146.074 141.599 151.86 132.315 149.887L131.888 149.827C129.926 149.535 123.35 148.06 122.962 147.996L122.009 147.84C114.891 146.693 108.393 146.093 100.561 146.067L99.4223 146.067C94.7388 146.079 90.7049 146.236 83.8507 146.615L79.0944 146.88C74.4939 147.131 72.3004 147.22 69.4383 147.272L69.2078 147.276C54.6925 147.84 45.8425 144.459 45.8425 144.459C44.6843 144.045 41.6871 143.004 41.6871 143.004L41.464 142.902C34.4714 140.528 49.7383 138.629 58.1031 138.59L60.7106 138.58L75.8585 138.449C82.9105 138.395 89.1193 138.365 95.1248 138.364L98.3149 138.366Z" fill="#00160A"/>
<path fill-rule="evenodd" clip-rule="evenodd" d="M130.573 127.04C130.573 127.04 130.536 129.122 131.177 130.086C131.818 131.05 133.606 133.731 135.269 134.436C135.781 134.653 137.736 134.681 138.911 135.367C141.272 136.747 141.797 139.231 138.911 139.757C133.182 140.802 131.177 137.782 131.177 137.782C131.177 137.782 128.817 134.436 126.451 132.217C124.085 129.998 122.201 129.33 122.201 129.33" fill="white"/>
<path d="M150.345 35.4747C149.548 35.4148 149.079 36.0211 149.079 36.7549C149.079 39.2954 153.23 42.7696 155.934 42.7696C156.727 42.7696 157.376 42.2026 157.145 41.3358C157.059 41.0092 156.859 40.7193 156.531 40.3621L156.459 40.2845C156.091 39.8935 155.71 39.5443 154.856 38.8097L153.549 37.6889C153.228 37.4113 152.718 36.9684 152.563 36.8365L152.378 36.6788C152.02 36.3774 151.744 36.1579 151.497 35.9835C151.061 35.6752 150.723 35.503 150.345 35.4747Z" fill="white"/>
<path fill-rule="evenodd" clip-rule="evenodd" d="M123.831 85.2849C123.831 85.2849 122.259 80.7999 118.22 79.5853C116.937 79.1993 122.551 87.6716 117.596 90.8321C116.049 91.8187 113.3 92.3305 109.916 92.8122C94.8313 94.9594 90.2834 89.3309 80.9719 86.5821C77.2382 85.48 59.0772 80.6045 56.3314 105.44C54.6127 120.985 67.6306 125.803 79.2968 128.273C102.668 133.221 138.48 131.271 149.648 114.962C162.962 95.5212 142.5 78.5913 139.617 76.8017C138.919 76.3683 140.921 81.9241 141.143 84.7342C141.366 87.5442 139.617 88.5661 139.617 88.5661C139.617 88.5661 138.928 85.591 132.835 85.0806C126.741 84.5701 123.831 85.2849 123.831 85.2849Z" fill="white"/>
<path fill-rule="evenodd" clip-rule="evenodd" d="M34.1817 64.5883C34.3953 65.0918 34.892 65.7586 35.6996 66.6648C36.2328 67.2632 37.2222 66.9644 37.335 66.1709C37.5929 64.3581 37.0533 63.0857 35.598 62.8328C34.4588 62.6348 33.7232 63.507 34.1817 64.5883ZM36.4028 66.0383L36.2583 65.8748C34.8994 64.3244 34.6255 63.6196 35.4368 63.7606C36.276 63.9065 36.598 64.6657 36.4028 66.0383Z" fill="#00160A"/>
<path fill-rule="evenodd" clip-rule="evenodd" d="M38.8808 67.6729C38.3514 67.7411 37.9199 68.3625 37.801 69.0489C37.6643 69.8384 37.9579 70.5842 38.711 71.0056L39.2302 71.2934C39.731 71.5678 40.1808 71.8034 40.6183 72.0137L40.8214 72.1095C41.1474 72.2602 41.4112 72.3657 41.6118 72.4208C41.8171 72.4773 41.9729 72.4934 42.1391 72.4327C42.4945 72.3028 42.5568 71.9672 42.434 71.6815L42.3952 71.5948C42.346 71.4798 42.2248 71.1907 42.155 71.0294L42.1399 70.9946C41.9499 70.5599 41.7561 70.159 41.5427 69.7767C40.7525 68.361 39.9027 67.5414 38.8808 67.6729ZM40.8176 70.4138C40.9455 70.6539 41.0675 70.9049 41.1875 71.1701L41.227 71.2592L41.1111 71.2052L41.0264 71.1649C40.4659 70.8954 39.8734 70.5769 39.171 70.1838C38.7916 69.9715 38.6566 69.6284 38.7291 69.2096C38.7607 69.0275 38.8321 68.8514 38.9216 68.7225C38.9489 68.6831 38.976 68.6511 39.0002 68.6279L39.0267 68.6048L39.0012 68.607C39.4912 68.5439 40.1085 69.1392 40.7204 70.2357L40.8176 70.4138Z" fill="#00160A"/>
<path fill-rule="evenodd" clip-rule="evenodd" d="M46.9337 75.7941C46.85 75.4295 42.1591 66.8808 45.453 67.1493C48.7468 67.4179 47.9625 77.1067 47.8479 77.1067C47.7129 77.1067 46.9939 76.0561 46.9337 75.7941Z" fill="white"/>
<path fill-rule="evenodd" clip-rule="evenodd" d="M43.811 68.4227C43.8112 69.2405 44.084 70.3232 44.5735 71.6388C44.7204 72.0337 44.885 72.4442 45.066 72.8699L45.1765 73.1272C45.6112 74.129 46.4825 75.9324 46.475 75.8994C46.5217 76.1032 46.7175 76.443 46.9755 76.8163L47.0703 76.9523C47.3859 77.4005 47.543 77.5627 47.8092 77.5766L47.9215 77.5794C48.2411 77.5962 48.2408 77.706 48.3146 77.2413L48.3413 77.0713C48.3523 77.0017 48.3637 76.9108 48.375 76.8026L48.3818 76.7357C48.4113 76.4335 48.4378 76.0395 48.4558 75.6083C48.5025 74.4945 48.4892 73.3024 48.3981 72.1902L48.3732 71.9079C48.0788 68.7897 47.2232 66.8212 45.4914 66.68C44.3846 66.5898 43.8109 67.2823 43.811 68.4227ZM45.4149 67.6186C46.5184 67.7086 47.2275 69.4382 47.4594 72.2672C47.5472 73.3375 47.56 74.4916 47.5149 75.5689L47.4994 75.8891L47.4825 75.8606C47.4371 75.7826 47.4057 75.7234 47.3957 75.6976L47.3928 75.6886C47.3725 75.6004 46.4277 73.6448 46.0404 72.7523C45.8218 72.2485 45.6262 71.7675 45.4561 71.3104C45.0028 70.092 44.7529 69.1003 44.7528 68.4226C44.7527 67.8053 44.9108 67.5931 45.365 67.6154L45.4149 67.6186Z" fill="#00160A"/>
<path fill-rule="evenodd" clip-rule="evenodd" d="M59.8789 93.1608C59.8789 93.1608 60.9105 91.7272 61.4905 91.0153C62.0705 90.3034 62.6921 89.7077 62.6921 89.7077C62.6921 89.7077 48.6849 88.3137 43.8328 84.7021C37.4971 79.9862 31.8137 72.1643 26.0888 70.5099C19.2449 68.5321 16.7119 73.1194 14.7379 73.4935C8.72438 74.6329 -2.28934 77.8753 2.74681 87.6686C4.30162 90.6921 9.33829 92.098 12.8866 90.4124C16.8473 88.5309 21.7249 83.9222 26.8547 83.9222C32.7868 83.9222 33.8196 88.782 41.35 91.3585C45.9719 92.9399 59.8789 93.1608 59.8789 93.1608Z" fill="white"/>
<path fill-rule="evenodd" clip-rule="evenodd" d="M76.5581 127.815C76.5581 127.815 79.9778 131.548 81.3947 133.949C82.8116 136.351 82.3152 137.653 84.2823 138.763C87.2375 140.431 90.2834 140.01 91.6388 139.124C92.9941 138.237 91.7226 135.967 88.8816 135.967C88.1828 135.967 87.3607 134.362 86.9628 133.301C86.5648 132.239 86.7469 129.627 86.7469 129.627L76.5581 127.815Z" fill="white"/>
<path fill-rule="evenodd" clip-rule="evenodd" d="M140.252 77.7415C140.252 77.7415 162.533 105.07 131.199 121.111C109.286 132.33 73.2827 126.273 73.2827 126.273C73.2827 126.273 112.476 136.809 138.093 124.106C154.438 116.001 157.671 102.223 149.873 88.1951C147.833 84.5242 140.252 77.7415 140.252 77.7415Z" fill="#E7EAEE"/>
<path fill-rule="evenodd" clip-rule="evenodd" d="M138.943 76.3786C139.223 76.0068 139.661 76.002 139.988 76.2047C141.039 76.8577 142.942 78.438 144.773 80.2917C147.313 82.8646 149.582 85.78 151.321 88.9224C156.083 97.526 155.658 106.533 149.614 115.359C144.272 123.16 133.82 127.868 119.149 129.977C106.317 131.822 91.461 131.567 79.1515 128.96L78.5342 128.828C71.4896 127.29 66.2961 125.336 62.3669 122.317C57.2133 118.357 54.8094 112.815 55.6334 105.363C56.8805 94.0821 61.3403 87.8129 68.0632 85.6166C70.5624 84.8002 73.2393 84.5995 76.002 84.872C77.8962 85.0589 79.487 85.4112 81.171 85.9083L81.4702 85.9978C83.2998 86.5527 84.8567 87.1652 87.258 88.2292L89.0332 89.0243C92.7117 90.6732 94.8404 91.4552 97.5959 92.0108C101.063 92.71 104.881 92.7923 109.514 92.159L110.201 92.0613C113.982 91.5101 116.011 91.0097 117.218 90.2397C118.632 89.3383 119.136 87.8775 118.934 85.8547C118.842 84.9344 118.613 83.9639 118.253 82.8322L118.153 82.5271C117.998 82.0648 117.543 80.7658 117.459 80.4834C117.355 80.1337 117.308 79.8902 117.325 79.6638C117.367 79.0956 117.866 78.7449 118.423 78.9125C121.369 79.7985 123.485 82.3717 124.784 86.5431C124.9 86.9135 124.693 87.3074 124.323 87.4228C123.952 87.5382 123.558 87.3314 123.443 86.961C122.454 83.7854 121.009 81.7199 119.118 80.7109L118.993 80.6466L119.505 82.1383L119.519 82.181C120.817 87.7189 119.853 92.0613 111.118 93.4032C110.638 93.477 100.979 94.3081 96.9684 93.3157C90.893 91.8123 82.2708 86.2019 77.1017 85.9978C71.9327 85.7938 70.7962 86.2019 68.4995 86.9521C62.3375 88.9652 57.2122 95.4855 56.1779 106.254C55.6318 111.941 58.7034 117.702 63.7401 121.252C76.5579 130.284 106.282 130.715 118.949 128.894C133.269 126.835 143.996 121.974 149.069 114.565C154.789 106.212 154.612 97.7697 150.092 89.6028C148.419 86.5814 146.229 83.7659 143.773 81.2789C142.655 80.1461 141.511 79.1222 140.582 78.3755L140.426 78.251L140.562 78.7863L140.997 80.4579L141.156 81.0841C141.18 81.1829 141.204 81.2795 141.228 81.3746L141.311 81.7183C141.604 82.9533 141.783 83.9118 141.844 84.6787C142.011 86.7984 141.398 88.3391 139.972 89.1725C139.637 89.3683 139.206 89.2554 139.011 88.9204C138.815 88.5854 138.928 88.1552 139.263 87.9594C140.168 87.4304 140.572 86.4165 140.443 84.7895C140.389 84.1094 140.221 83.2085 139.942 82.0352L139.863 81.7084C139.829 81.5687 139.793 81.4256 139.756 81.2764L139.143 78.9107C139.052 78.5524 138.984 78.2708 138.929 78.0256L138.913 77.953C138.819 77.5269 138.77 77.2218 138.768 76.9921C138.765 76.757 138.798 76.5697 138.943 76.3786Z" fill="#00160A"/>
<path fill-rule="evenodd" clip-rule="evenodd" d="M123.775 84.5108L124.277 84.4262C127.591 83.8797 130.265 83.682 132.309 83.8368C134.466 84.0001 136.751 84.5831 139.167 85.5826C139.485 85.7145 139.637 86.0797 139.505 86.3984C139.373 86.7171 139.008 86.8685 138.689 86.7366C136.39 85.7853 134.232 85.2349 132.215 85.0821C130.187 84.9286 127.441 85.147 123.987 85.7416C123.647 85.8001 123.324 85.572 123.265 85.2322C123.207 84.8923 123.435 84.5693 123.775 84.5108Z" fill="#00160A"/>
<path fill-rule="evenodd" clip-rule="evenodd" d="M127.769 81.709C129.265 81.4018 130.631 81.5607 131.85 82.1902C133.017 82.7929 134.028 83.551 134.88 84.4639C135.059 84.6548 135.049 84.9542 134.858 85.1326C134.667 85.3109 134.367 85.3008 134.189 85.1098C133.411 84.2772 132.487 83.5845 131.416 83.0309C130.396 82.5041 129.25 82.3709 127.959 82.6359C127.704 82.6884 127.453 82.5236 127.401 82.2676C127.348 82.0117 127.513 81.7616 127.769 81.709Z" fill="#00160A"/>
<path fill-rule="evenodd" clip-rule="evenodd" d="M130.793 79.2314C130.927 79.0071 131.218 78.9341 131.442 79.0682C132.642 79.7857 133.635 80.5885 134.42 81.4776C135.212 82.3754 135.863 83.5229 136.374 84.9175C136.464 85.1628 136.339 85.4347 136.093 85.5247C135.848 85.6147 135.576 85.4888 135.486 85.2435C135.013 83.9535 134.42 82.9077 133.71 82.1038C132.993 81.2912 132.076 80.5497 130.956 79.8803C130.732 79.7461 130.659 79.4556 130.793 79.2314Z" fill="#00160A"/>
<path fill-rule="evenodd" clip-rule="evenodd" d="M117.085 90.4737C117.283 90.1913 117.672 90.1227 117.955 90.3206C118.237 90.5185 112.208 99.1044 112.208 100.77C112.208 102.577 113.095 103.786 115.459 105.693L116.461 106.489L116.752 106.723C118.217 107.906 119.071 108.737 119.796 109.791C120.81 111.265 121.287 112.911 121.166 114.862C121.016 117.269 120.29 118.932 118.851 120.852L118.72 121.024C118.558 121.232 117.846 122.142 117.651 122.409C116.955 123.359 116.627 124.075 116.568 124.916C116.305 128.619 118.047 133.09 121.831 138.314C122.034 138.593 121.971 138.983 121.692 139.186C121.413 139.388 121.022 139.326 120.82 139.046C116.88 133.607 115.035 128.873 115.322 124.827C115.398 123.754 115.789 122.865 116.55 121.8L116.643 121.671C116.867 121.365 117.685 120.323 117.753 120.232C119.124 118.434 121.106 115.803 119.519 110.796C118.72 108.275 111.134 106.489 110.885 101.123C110.826 99.859 112.934 96.3993 117.085 90.4737Z" fill="#00160A"/>
<path d="M119.381 116.434L118.509 116.444C113.35 116.51 110.213 116.77 109.243 117.185L109.208 117.201C107.783 117.855 106.662 118.741 105.805 119.803C105.139 120.628 104.669 121.513 104.361 122.395C104.27 122.659 104.199 122.905 104.146 123.128L104.11 123.287L105.602 125.199C105.617 125.218 105.63 125.238 105.643 125.258L105.657 125.279L105.704 125.348C106.027 125.815 106.393 126.272 106.863 126.805L107.08 127.046C107.467 127.468 108.697 128.795 109.116 129.272C110.01 130.294 110.764 131.276 111.485 132.405C112.585 134.125 113.555 136.111 114.426 138.516L114.489 138.692L114.551 138.872C114.627 139.095 114.702 139.324 114.783 139.582L115.15 140.787C115.693 142.565 116.072 143.381 116.674 143.876L116.775 143.957C117.563 144.571 118.297 144.722 120.339 144.787L120.936 144.804C123.65 144.878 125.066 142.722 123.513 141.156C123.026 140.665 121.419 140.284 118.792 140.124C118.447 140.103 118.771 139.216 118.792 138.872C118.813 138.528 119.109 138.266 119.453 138.287C119.757 138.305 120.05 138.326 120.33 138.35C116.85 133.307 115.151 129.009 115.421 125.199C115.497 124.126 115.382 123.706 116.143 122.641L116.289 122.442C116.566 122.072 117.282 121.158 117.346 121.074C117.932 120.305 118.341 119.675 118.668 118.988L118.733 118.849L118.754 118.8L118.791 118.72C118.963 118.325 119.145 117.646 119.331 116.694L119.381 116.434Z" fill="white"/>
<path fill-rule="evenodd" clip-rule="evenodd" d="M104.715 122.563C105.207 123.998 106.065 124.874 107.26 126.23L107.428 126.419C107.727 126.747 109.08 128.204 109.523 128.709C110.417 129.731 111.171 130.713 111.892 131.842C112.992 133.562 113.962 135.548 114.833 137.953C114.875 138.069 114.917 138.187 114.958 138.309L115.072 138.651C115.098 138.729 115.123 138.809 115.15 138.892L115.299 139.371C115.375 139.62 115.529 140.131 115.557 140.224L115.64 140.49C116.14 142.085 116.51 142.844 117.081 143.313L117.182 143.394C117.936 143.981 118.642 144.145 120.493 144.215L121.343 144.24C124.057 144.315 125.473 142.159 123.92 140.593C123.433 140.101 121.827 139.721 119.199 139.561C118.855 139.54 118.593 139.244 118.613 138.9C118.634 138.556 118.93 138.294 119.275 138.315L119.602 138.336C122.346 138.526 124.052 138.952 124.807 139.713C127.238 142.165 125.073 145.523 121.42 145.491L120.98 145.48C118.372 145.41 117.437 145.223 116.288 144.277C115.468 143.603 115.022 142.697 114.45 140.87L114.079 139.654L113.96 139.272C113.909 139.112 113.861 138.963 113.813 138.82L113.776 138.713C113.737 138.598 113.698 138.487 113.659 138.378C112.819 136.058 111.889 134.155 110.84 132.514C110.208 131.525 109.549 130.654 108.778 129.757L108.583 129.532C108.132 129.017 106.664 127.438 106.46 127.209C105.128 125.721 104.332 124.518 103.764 122.934L103.706 122.768C102.602 119.546 101.184 118.447 99.3317 119.133C99.0083 119.253 95.3892 120.989 98.8943 118.659C102.399 116.328 104.715 122.563 104.715 122.563Z" fill="#00160A"/>
<path fill-rule="evenodd" clip-rule="evenodd" d="M126.506 100.378C125.826 100.378 124.849 98.4237 124.849 97.4688C124.849 96.5139 127.292 96.8369 127.292 96.8369C127.292 96.8369 129.858 97.1809 129.505 98.1414C129.151 99.1019 126.884 100.378 126.506 100.378Z" fill="#FFB61D"/>
<ellipse cx="122.484" cy="93.3471" rx="1.34759" ry="2.51754" fill="#00160A"/>
<ellipse cx="135.371" cy="93.9166" rx="1.47687" ry="2.47811" fill="#00160A"/>
<path fill-rule="evenodd" clip-rule="evenodd" d="M134.408 98.0769C135.533 97.5936 136.778 97.5023 138.129 97.7974C139.451 98.086 143.433 100.578 143.294 100.799C143.155 101.02 139.122 98.9827 137.927 98.7218C136.762 98.4674 135.718 98.544 134.781 98.9463C134.541 99.0494 134.263 98.9384 134.16 98.6983C134.056 98.4582 134.168 98.18 134.408 98.0769Z" fill="#00160A"/>
<path fill-rule="evenodd" clip-rule="evenodd" d="M135.124 99.7121C136.305 99.7747 136.613 99.5053 138.231 100.555C139.848 101.605 141.057 104.078 140.836 104.217C140.615 104.356 139.324 102.151 137.842 101.04C136.361 99.9296 134.613 100.42 134.627 100.16C134.64 99.9131 134.839 99.7208 135.081 99.7118L135.124 99.7121Z" fill="#00160A"/>
<path fill-rule="evenodd" clip-rule="evenodd" d="M126.924 101.403C126.596 103.442 126.678 104.74 126.801 106.189C126.924 107.637 128.082 109.723 128.198 110.594C128.314 111.466 126.008 107.871 125.868 106.348C125.729 104.824 124.74 100.682 126.467 100.874C126.467 100.874 126.96 101.177 126.924 101.403Z" fill="#00160A"/>
<path fill-rule="evenodd" clip-rule="evenodd" d="M118.33 98.3263C119.379 98.3263 119.804 98.3521 120.825 98.553C121.081 98.6035 121.248 98.8522 121.198 99.1086C121.147 99.365 120.899 99.5319 120.642 99.4815C120.279 99.41 119.582 99.1059 118.426 99.1181C116.847 99.1349 115.472 100.011 115.403 99.8663C115.291 99.6301 117.282 98.3263 118.33 98.3263Z" fill="#00160A"/>
<path fill-rule="evenodd" clip-rule="evenodd" d="M120.045 96.2948C120.3 96.3548 120.457 96.6096 120.397 96.8639C120.337 97.1182 120.082 97.2758 119.828 97.2158C117.556 96.68 115.734 96.6945 114.448 96.6442C113.184 96.5948 110.347 96.7929 110.264 96.5451C110.181 96.2974 117.72 95.7463 120.045 96.2948Z" fill="#00160A"/>
<path fill-rule="evenodd" clip-rule="evenodd" d="M130.584 126.415C130.929 126.422 131.203 126.706 131.197 127.051C131.175 128.324 131.353 129.223 131.697 129.74C133.14 131.91 134.364 133.374 135.513 133.861C135.544 133.874 135.619 133.893 135.735 133.916L135.907 133.947C136.036 133.969 136.581 134.051 136.676 134.066C137.035 134.123 137.331 134.177 137.62 134.242C138.257 134.387 138.787 134.572 139.227 134.828C140.546 135.599 141.417 136.726 141.501 137.834C141.599 139.115 140.669 140.071 139.024 140.371C134.984 141.108 132.156 140.386 130.667 138.142C129.116 135.944 127.568 134.121 126.024 132.673C124.504 131.247 123.156 130.331 121.992 129.919C121.667 129.803 121.497 129.446 121.612 129.121C121.727 128.796 122.084 128.626 122.409 128.742C123.759 129.22 125.244 130.228 126.878 131.762C128.488 133.272 130.091 135.159 131.697 137.437C132.871 139.205 135.2 139.799 138.799 139.143C139.867 138.948 140.3 138.503 140.256 137.93C140.207 137.284 139.592 136.489 138.596 135.907C138.285 135.725 137.867 135.579 137.344 135.46C137.118 135.409 136.883 135.365 136.603 135.319L135.701 135.179L135.527 135.148C135.311 135.107 135.157 135.067 135.025 135.011C134.166 134.647 133.284 133.863 132.361 132.759C131.752 132.03 131.284 131.375 130.657 130.432C130.146 129.664 129.922 128.532 129.948 127.029C129.955 126.684 130.239 126.409 130.584 126.415Z" fill="#00160A"/>
<path fill-rule="evenodd" clip-rule="evenodd" d="M135.628 137.936C135.689 137.729 135.907 137.612 136.113 137.674C136.756 137.866 137.211 138.078 137.489 138.33C137.752 138.569 138.012 138.937 138.279 139.435C138.38 139.625 138.309 139.862 138.119 139.963C137.929 140.065 137.692 139.993 137.591 139.803C137.362 139.377 137.15 139.077 136.964 138.908C136.792 138.752 136.431 138.583 135.89 138.422C135.683 138.36 135.566 138.142 135.628 137.936Z" fill="#00160A"/>
<path fill-rule="evenodd" clip-rule="evenodd" d="M137.664 137.11C137.732 136.905 137.953 136.795 138.157 136.863C138.708 137.046 139.117 137.255 139.389 137.502C139.659 137.747 139.917 138.143 140.179 138.695C140.272 138.889 140.189 139.122 139.994 139.215C139.799 139.307 139.567 139.224 139.474 139.029C139.252 138.561 139.044 138.243 138.864 138.08C138.686 137.918 138.367 137.755 137.911 137.603C137.706 137.535 137.596 137.314 137.664 137.11Z" fill="#00160A"/>
<path fill-rule="evenodd" clip-rule="evenodd" d="M120.956 142.488C121.024 142.284 121.245 142.173 121.449 142.241C122 142.424 122.409 142.633 122.681 142.88C122.951 143.125 123.209 143.521 123.471 144.073C123.564 144.268 123.481 144.501 123.286 144.593C123.091 144.685 122.859 144.602 122.766 144.408C122.544 143.94 122.336 143.622 122.156 143.458C121.978 143.297 121.659 143.134 121.203 142.982C120.998 142.914 120.888 142.693 120.956 142.488Z" fill="#00160A"/>
<path fill-rule="evenodd" clip-rule="evenodd" d="M122.091 141.164C122.159 140.959 122.38 140.848 122.584 140.916C123.135 141.1 123.544 141.309 123.816 141.556C124.086 141.801 124.345 142.196 124.607 142.748C124.699 142.943 124.616 143.176 124.421 143.268C124.227 143.361 123.994 143.278 123.901 143.083C123.679 142.615 123.471 142.297 123.291 142.133C123.114 141.972 122.795 141.809 122.338 141.657C122.133 141.589 122.023 141.368 122.091 141.164Z" fill="#00160A"/>
<path fill-rule="evenodd" clip-rule="evenodd" d="M76.1362 127.355C76.3905 127.122 80.7009 132.065 81.6253 133.632C81.9232 134.137 82.1584 134.623 82.3675 135.143C82.4319 135.303 82.492 135.462 82.5569 135.641L82.802 136.333C83.1656 137.344 83.7697 137.757 84.5891 138.219C86.9931 139.576 89.8318 139.56 91.2968 138.601C92.1092 138.069 91.012 136.592 88.8815 136.592C87.8857 136.592 87.0291 135.257 86.378 133.52C86.073 132.707 85.9967 131.408 86.1239 129.583C86.1479 129.239 86.4462 128.98 86.7903 129.004C87.1343 129.028 87.3938 129.326 87.3698 129.67C87.2541 131.329 87.3218 132.48 87.5474 133.082L87.6132 133.252C88.0517 134.351 88.697 135.343 88.8815 135.343C90.3827 135.343 91.6524 135.921 92.3351 136.841C93.0574 137.813 92.9621 139.004 91.9806 139.646C90.1136 140.868 86.775 140.887 83.9753 139.307C82.8935 138.697 82.4193 138.064 81.9755 136.87L81.7372 136.198C81.6575 135.974 81.5892 135.792 81.5158 135.609C81.3292 135.145 81.1212 134.715 80.8568 134.267C79.9382 132.71 78.3506 130.696 76.0976 128.237C75.8646 127.983 75.8819 127.588 76.1362 127.355Z" fill="#00160A"/>
<path fill-rule="evenodd" clip-rule="evenodd" d="M87.6995 137.936C87.7612 137.729 87.9786 137.612 88.1852 137.674C88.8282 137.866 89.2832 138.078 89.5608 138.33C89.824 138.569 90.0841 138.937 90.3506 139.435C90.4523 139.625 90.3806 139.862 90.1905 139.963C90.0004 140.065 89.764 139.993 89.6623 139.803C89.4342 139.377 89.2222 139.077 89.0359 138.908C88.8639 138.752 88.5024 138.583 87.9618 138.422C87.7553 138.36 87.6378 138.142 87.6995 137.936Z" fill="#00160A"/>
<path fill-rule="evenodd" clip-rule="evenodd" d="M89.168 137.299C89.2361 137.095 89.457 136.984 89.6616 137.052C90.2122 137.235 90.6215 137.444 90.8933 137.691C91.1629 137.936 91.4218 138.332 91.6837 138.884C91.7762 139.079 91.6933 139.311 91.4985 139.404C91.3038 139.496 91.071 139.413 90.9786 139.219C90.7564 138.751 90.5484 138.432 90.3684 138.269C90.1907 138.107 89.8717 137.945 89.4151 137.793C89.2106 137.725 89.1 137.504 89.168 137.299Z" fill="#00160A"/>
<path fill-rule="evenodd" clip-rule="evenodd" d="M17.1832 71.2502L17.0513 71.3412C16.6334 71.6332 15.8288 72.2203 15.6515 72.3449L15.6334 72.3575C15.1742 72.6738 14.8642 72.834 14.6218 72.8799C10.3404 73.6912 6.64277 74.599 4.11166 76.5154C0.572473 79.195 -1.33933 83.8807 1.08566 88.5963C2.81126 91.9519 9.33476 92.7911 13.1547 90.9764C13.8083 90.666 14.5044 90.2772 15.3444 89.7634L15.6935 89.5478C15.8143 89.4726 15.9386 89.3946 16.0709 89.311L16.9854 88.7274L17.9853 88.087L18.3513 87.8556C22.0279 85.5456 24.3638 84.5467 26.8549 84.5467C28.914 84.5467 30.3631 85.112 32.1834 86.4476L32.3207 86.5492C32.6368 86.7854 34.6882 88.4217 35.3809 88.926C37.1757 90.2328 38.9478 91.1965 41.148 91.9493L41.3415 92.0137C44.5614 93.0556 50.7203 93.6398 59.8692 93.7851C60.0735 93.7884 60.2666 93.6914 60.3859 93.5255L60.7425 93.0331C61.2549 92.3303 61.6662 91.7886 61.9748 91.4097C62.3455 90.9547 62.7287 90.5377 63.1244 90.1585C63.5093 89.7896 63.2847 89.1391 62.7542 89.0863L62.2038 89.0303C53.274 88.1013 47.2627 86.4766 44.2058 84.2012L43.983 84.034C42.3527 82.8013 40.7957 81.4101 38.4223 79.1331L35.3553 76.1867C34.1426 75.0313 33.7165 74.6556 32.8669 73.934L32.7339 73.8211C30.7477 72.1368 29.0245 70.9822 27.3529 70.2933C26.9861 70.1421 26.6228 70.0142 26.2624 69.91C22.5402 68.8343 19.868 69.432 17.1832 71.2502ZM25.9156 71.1098C26.2313 71.201 26.5515 71.3137 26.877 71.4479C28.3582 72.0583 29.9261 73.0965 31.7435 74.6197L32.4547 75.2242C33.2375 75.8973 33.7795 76.4011 35.5837 78.1347L37.7232 80.1929C40.1462 82.5126 41.7333 83.9177 43.4601 85.203L43.5615 85.2775C46.6986 87.5564 52.3971 89.158 60.6867 90.1199L61.3647 90.1963L61.3553 90.207C61.277 90.2968 61.1992 90.3881 61.122 90.4807L60.9516 90.6886L60.8213 90.8519C60.5739 91.1649 60.2797 91.5533 59.938 92.0177L59.5631 92.5308L58.8043 92.5167C50.1988 92.3419 44.4322 91.753 41.5523 90.7676C39.5583 90.0854 37.9437 89.2228 36.3119 88.0576L36.116 87.9163C35.4511 87.4322 33.4078 85.8024 33.0681 85.5487C30.9837 83.9915 29.2671 83.2977 26.8548 83.2977C24.0584 83.2977 21.5584 84.3657 17.6932 86.794L17.0992 87.1708L15.8254 87.9873C15.4473 88.2286 15.1486 88.4169 14.8581 88.5963L14.5355 88.7937C13.8005 89.2389 13.1867 89.5785 12.6188 89.8483C9.38053 91.3866 4.70349 90.1078 3.30227 87.383C1.15909 83.2153 1.91319 80.1524 4.97581 77.8336C7.31543 76.0622 10.7472 74.8851 14.8543 74.1069C15.2842 74.0255 15.6985 73.8198 16.239 73.456L16.3419 73.3859C16.5021 73.2756 17.4739 72.5655 17.8448 72.3106L17.8835 72.2842C20.2813 70.6604 22.5808 70.146 25.9156 71.1098Z" fill="#00160A"/>
<path fill-rule="evenodd" clip-rule="evenodd" d="M175.466 88.0811L175.407 88.2241L175.288 88.5198C173.752 92.4163 172.397 98.3862 171.213 106.444L171.144 106.918L171.14 106.894C170.681 104.192 170.103 102.093 169.398 100.589C168.174 97.9762 166.43 96.9898 164.369 97.9273C157.681 100.97 158.08 113.342 165.163 135.084C165.257 135.373 165.526 135.569 165.83 135.569H173.52C173.726 135.569 173.922 135.478 174.056 135.321C183.658 123.996 187.958 116.382 186.907 112.199L186.872 112.066C185.916 108.467 183.524 107.696 180.112 109.63L179.991 109.699L180.161 109.308C186.079 95.5988 187.165 87.1576 183.166 83.8677C180.231 81.4524 177.552 83.0504 175.466 88.0811ZM182.388 84.4102C185.909 87.3065 184.657 96.7906 177.98 111.49C177.674 112.162 185.544 106.894 185.544 112.541L185.569 112.648C186.327 116.124 182.416 123.141 173.795 133.45L173.194 134.164L165.831 134.689C165.831 134.689 155.904 101.912 164.951 99.2062C167.554 98.4276 169.475 102.208 170.428 112.435C170.506 113.272 171.722 113.29 171.824 112.455L171.908 111.782C173.276 100.844 174.9 93.1141 176.764 88.6193L176.87 88.3659C178.611 84.2901 180.421 82.792 182.388 84.4102Z" fill="#00160A"/>
<path d="M182.274 84.9527C185.794 87.8489 184.368 96.717 177.69 111.416C177.385 112.089 178.19 112.717 178.767 112.256L179.002 112.072C182.796 109.119 184.741 109.344 185.544 112.541L185.569 112.648C186.327 116.124 182.416 123.141 173.795 133.45L173.194 134.164H166.341L166.095 133.398C159.635 113.151 159.38 101.74 164.951 99.2062C167.52 98.0372 169.475 102.208 170.427 112.435C170.505 113.272 171.722 113.29 171.824 112.455L171.908 111.782C173.276 100.844 174.9 93.114 176.764 88.6193L176.87 88.3658C178.611 84.2901 180.307 83.3345 182.274 84.9527Z" fill="white"/>
<circle cx="163.968" cy="108.164" r="2.49779" fill="#E7EAEE"/>
<circle cx="179.579" cy="91.928" r="2.49779" fill="#E7EAEE"/>
<circle cx="180.828" cy="115.969" r="2.49779" fill="#E7EAEE"/>
<path fill-rule="evenodd" clip-rule="evenodd" d="M48.4385 137.304C44.0296 137.374 28.8675 138.498 28.6056 137.935C28.2705 137.215 44.8046 136.269 48.4087 136.212L49.5376 136.197C52.8145 136.161 48.4385 137.304 48.4385 137.304ZM113.294 135.843C113.682 135.833 114.004 136.139 114.015 136.527C114.025 136.915 113.719 137.237 113.331 137.247L107.056 137.402C103.15 137.492 98.6227 137.585 91.9331 137.717C91.5452 137.724 91.2245 137.416 91.2169 137.028C91.2092 136.64 91.5175 136.32 91.9054 136.312L103.751 136.071C107.347 135.993 110.237 135.924 113.294 135.843ZM129.48 135.516C129.868 135.509 130.187 135.819 130.193 136.207C130.199 136.595 129.89 136.914 129.502 136.92L127.856 136.941L122.819 136.975C121.764 136.986 120.939 137.001 119.966 137.024C119.578 137.034 119.256 136.727 119.246 136.339C119.237 135.951 119.543 135.629 119.931 135.62L121.17 135.593C121.981 135.578 122.806 135.569 123.901 135.561L128.089 135.533C128.576 135.529 129.017 135.523 129.48 135.516ZM175.008 134.164C175.008 134.164 176.269 133.947 185.477 134.636C185.864 134.665 186.154 135.002 186.125 135.389C186.097 135.776 181.543 135.58 175.318 135.569L173.606 135.572C169.035 135.593 164.789 135.716 157.741 136.006L148.846 136.382C145.05 136.537 142.785 136.613 140.031 136.678C139.644 136.687 139.322 136.38 139.313 135.992C139.303 135.605 139.61 135.283 139.998 135.274L142.21 135.216C144.84 135.14 147.544 135.034 152.336 134.829L157.418 134.613C165.365 134.285 169.784 134.164 175.008 134.164Z" fill="#00160A"/>
<path d="M153.723 33.0402L153.884 32.7442C155.143 30.4626 156.241 29.3299 157.52 29.6995C157.624 29.7294 157.726 29.7703 157.825 29.8219C158.61 30.2284 158.798 30.9844 158.578 32.0159L158.563 32.0794L158.6 32.0264C158.972 31.4986 159.326 31.091 159.694 30.7885L159.773 30.7252C160.59 30.0894 161.456 30.0303 162.241 30.6927C163.494 31.7505 163.352 33.5247 162.329 34.6167L162.272 34.6756C162.13 34.8194 162.044 35.1305 161.949 35.8627L161.866 36.5042C161.767 37.2445 161.7 37.5691 161.544 38.0706C161.249 39.0177 160.766 39.8077 160.013 40.4529C159.066 41.264 157.469 41.1509 155.22 40.2263C154.978 40.127 154.863 39.8506 154.962 39.6089C155.061 39.3672 151.806 36.4968 151.708 36.6227L151.676 36.6592C151.495 36.8477 151.196 36.8537 151.007 36.6726L150.55 36.2321C150.275 35.9665 150.412 35.501 150.787 35.4273C151.475 35.2924 152.008 35.1435 152.383 34.9845C152.698 34.851 152.87 34.7233 152.911 34.6405C152.911 34.6405 153.594 33.2794 153.723 33.0402Z" fill="white"/>
<path fill-rule="evenodd" clip-rule="evenodd" d="M150.346 35.4747C149.548 35.4148 149.08 36.0211 149.08 36.7549C149.08 39.2954 153.23 42.7696 155.935 42.7696C156.727 42.7696 157.376 42.2026 157.146 41.3358C157.059 41.0092 156.859 40.7193 156.532 40.3621L156.459 40.2845C156.091 39.8935 155.711 39.5443 154.857 38.8097L153.549 37.6889C153.228 37.4113 152.718 36.9684 152.564 36.8365L152.378 36.6788C152.021 36.3774 151.744 36.1579 151.498 35.9835C151.061 35.6752 150.723 35.503 150.346 35.4747ZM150.026 36.7549C150.026 35.7616 151.449 37.1349 153.162 38.6044L154.3 39.5779C155.693 40.7788 157.393 42.0281 156.532 42.1198C153.804 42.4101 150.026 38.793 150.026 36.7549Z" fill="#00160A"/>
<path fill-rule="evenodd" clip-rule="evenodd" d="M150.564 28.817C150.76 28.6437 151.737 27.9618 151.232 28.8572C150.728 29.7527 147.812 30.8884 150.728 35.4166C150.839 35.5888 150.704 35.9344 150.46 36.0299C150.217 36.1254 149.943 36.0057 149.847 35.7625C149.11 33.8847 148.769 32.5253 148.834 31.6415C148.903 30.7051 149.491 29.7684 150.564 28.817Z" fill="#00160A"/>
<path fill-rule="evenodd" clip-rule="evenodd" d="M146.921 30.3935C146.972 30.1373 147.478 29.5033 147.478 30.0227C147.478 30.542 146.735 31.8592 147.781 33.3435C148.826 34.8279 150.625 35.8345 150.471 36.0457C150.318 36.2569 150.022 36.3034 149.81 36.1496C148.297 35.0468 147.377 34.1841 147.031 33.5078C146.67 32.8022 146.645 31.7697 146.921 30.3935Z" fill="#00160A"/>
<path fill-rule="evenodd" clip-rule="evenodd" d="M153.723 33.0402L153.884 32.7442C155.143 30.4626 156.241 29.3299 157.52 29.6995C157.624 29.7294 157.726 29.7703 157.825 29.8219C158.61 30.2284 158.798 30.9844 158.578 32.0159L158.563 32.0794L158.6 32.0264C158.972 31.4986 159.326 31.091 159.694 30.7885L159.773 30.7252C160.59 30.0894 161.456 30.0303 162.241 30.6927C163.494 31.7505 163.352 33.5247 162.329 34.6167L162.272 34.6756C162.13 34.8194 162.044 35.1305 161.949 35.8627L161.866 36.5042C161.767 37.2445 161.7 37.5691 161.544 38.0706C161.249 39.0177 160.766 39.8077 160.013 40.4529C159.066 41.264 157.469 41.1509 155.22 40.2263C154.978 40.127 154.863 39.8506 154.962 39.6089C155.061 39.3672 158.467 41.3465 159.773 39.8078C161.078 38.2691 161.219 35.0862 161.595 34.1215L161.686 33.9533C162.408 33.2236 162.432 32.0926 161.63 31.4158C161.217 31.0665 160.842 31.0921 160.354 31.472C159.909 31.818 159.446 32.412 158.912 33.2765L158.755 33.5344C158.492 33.9778 157.966 34.8972 157.896 35.014L157.8 35.1732C157.476 35.7027 157.063 36.0344 157.001 36.0486C156.94 36.0628 156.853 36.0136 156.832 35.5657C156.825 35.4184 156.862 35.2701 156.94 35.0685L156.972 34.9903C157.066 34.7593 157.589 33.6734 157.625 33.5956C157.784 33.2536 157.911 32.9555 158.017 32.6744C158.442 31.5412 157.809 30.8793 157.39 30.662C157.345 30.6387 157.301 30.621 157.258 30.6085C156.608 30.4209 155.704 31.3855 154.648 33.3182L154.419 33.7459C154.25 34.0685 154.085 34.4003 153.759 35.0594C153.523 35.5387 152.891 35.8822 151.838 36.1593L151.781 36.1739L151.786 36.1877C151.832 36.3331 151.806 36.4968 151.708 36.6227L151.676 36.6592C151.495 36.8477 151.196 36.8537 151.007 36.6726L150.55 36.2321C150.275 35.9665 150.412 35.501 150.787 35.4273C151.475 35.2924 152.008 35.1435 152.383 34.9845C152.698 34.851 152.87 34.7233 152.911 34.6405L153.353 33.7509C153.489 33.4817 153.594 33.2794 153.723 33.0402Z" fill="#00160A"/>
<ellipse cx="159.93" cy="34.4872" rx="1.07494" ry="0.881288" fill="#FFB61D"/>
<ellipse cx="156.859" cy="32.0302" rx="1.07494" ry="0.881288" fill="#FFB61D"/>
<path fill-rule="evenodd" clip-rule="evenodd" d="M150.25 38.2115C150.1 38.0785 149.913 37.8385 149.748 37.5787L149.535 37.6733L149.283 37.7811C149.233 37.8042 149.2 37.8223 149.19 37.837C149.161 37.891 149.094 37.9115 149.039 37.8829C148.986 37.8543 148.965 37.7873 148.994 37.7335C149.014 37.6822 149.155 37.5216 149.418 37.3644C149.465 37.3359 149.518 37.3094 149.574 37.2836C149.477 37.1026 149.401 36.9276 149.366 36.7873C149.312 36.5805 149.355 36.4339 149.426 36.3824C149.495 36.3315 149.67 36.322 149.936 36.5426C149.985 36.5798 149.992 36.6494 149.955 36.6977C149.918 36.7459 149.849 36.7548 149.8 36.7176C149.749 36.6803 149.698 36.6592 149.657 36.6439L149.677 36.7231C149.685 36.7514 149.695 36.7809 149.708 36.8097C149.756 36.9139 149.816 37.0328 149.884 37.1549C150.092 37.0764 150.329 37.0053 150.584 36.971C150.709 36.9543 150.835 36.951 150.967 36.9521C151.043 36.9471 151.109 37.0046 151.114 37.0806C151.119 37.1563 151.061 37.222 150.985 37.227C150.678 37.2566 150.394 37.3342 150.143 37.4216L150.061 37.4511C150.197 37.6632 150.342 37.8558 150.467 37.9645C150.534 38.0243 150.541 38.1282 150.482 38.1962C150.421 38.2646 150.318 38.2714 150.25 38.2115Z" fill="#FFB61D"/>
<path fill-rule="evenodd" clip-rule="evenodd" d="M78.0276 122.708C77.251 126.368 73.5024 127.406 73.543 130.352C73.564 131.876 73.9847 133.14 74.3302 134.112C75.0327 136.088 76.8631 138.124 77.7108 140.009C78.4352 141.62 82.0703 140.531 82.3606 143.034C82.5188 144.398 79.9473 145.184 79.2474 145.237C78.2428 145.313 76.9695 144.968 75.4274 144.202C73.5519 143.29 72.0465 142.572 70.9566 141.259C70.7441 141.003 70.6105 140.28 70.3755 139.144C70.1183 137.9 69.2396 134.738 66.944 129.632C66.6161 128.903 65.3611 125.919 63.9653 122.867C62.8135 120.348 67.5737 115.303 69.6844 115.479C74.8692 115.913 78.5762 120.123 78.0276 122.708Z" fill="white"/>
<path fill-rule="evenodd" clip-rule="evenodd" d="M74.3921 144.256C73.1014 143.487 72.0399 142.602 71.2075 141.599C70.9949 141.343 70.8387 140.4 70.6036 139.263C70.4804 138.667 65.9995 127.917 64.5214 123.871C64.2456 123.116 64.9151 123.644 65.0724 123.871C65.93 125.106 71.2075 133.258 73.7289 140.809" fill="#E7EAEE"/>
<path fill-rule="evenodd" clip-rule="evenodd" d="M75.398 143.935L75.5898 144.029C77.0402 144.75 78.211 145.067 79.0848 145.001C80.0235 144.93 81.5557 144.083 81.6235 143.362C81.7323 142.206 81.4189 141.877 79.8712 141.293C79.4223 141.123 78.2086 141.16 76.338 141.443C75.997 141.495 75.6788 141.26 75.6271 140.919C75.5755 140.578 75.8101 140.26 76.1511 140.209L76.4587 140.163C78.372 139.889 79.6258 139.865 80.3125 140.124L80.5161 140.203C82.3737 140.938 83.0345 141.697 82.8669 143.479C82.7249 144.989 80.6523 146.134 79.1791 146.246C78.0804 146.329 76.7564 145.983 75.196 145.227L75.0391 145.15C73.0873 144.202 71.5333 143.036 70.3834 141.651C70.2319 141.469 70.135 141.226 70.0356 140.853L70.0126 140.764C69.9758 140.619 69.939 140.459 69.8961 140.257L69.6485 139.043L69.6104 138.865C69.203 137.042 68.0235 133.676 66.2362 129.677L65.9638 129.075C65.7958 128.709 63.3987 124.824 63.2198 123.914C62.5509 120.511 65.2863 118.825 65.2863 118.825C65.2863 118.825 63.8676 121.818 64.2674 123.29C64.5782 124.434 67.2013 128.37 68.1345 131.388C69.1002 134.511 70.1108 137.844 71.5873 140.569C72.7018 142.626 73.4997 143.558 75.398 143.935Z" fill="#00160A"/>
<path fill-rule="evenodd" clip-rule="evenodd" d="M78.4266 143.235C78.4883 143.028 78.7057 142.911 78.9122 142.972C79.5552 143.165 80.0102 143.377 80.2878 143.629C80.5511 143.868 80.8111 144.235 81.0777 144.734C81.1793 144.924 81.1076 145.16 80.9176 145.262C80.7275 145.364 80.491 145.292 80.3894 145.102C80.1613 144.675 79.9492 144.376 79.7629 144.207C79.591 144.051 79.2294 143.882 78.6888 143.72C78.4823 143.659 78.3649 143.441 78.4266 143.235Z" fill="#00160A"/>
<path fill-rule="evenodd" clip-rule="evenodd" d="M79.5167 142.03C79.5847 141.826 79.8057 141.715 80.0102 141.783C80.5608 141.966 80.9701 142.175 81.242 142.422C81.5116 142.667 81.7704 143.063 82.0324 143.615C82.1248 143.81 82.0419 144.043 81.8472 144.135C81.6525 144.227 81.4197 144.144 81.3272 143.95C81.1051 143.482 80.897 143.163 80.7171 143C80.5394 142.839 80.2203 142.676 79.7637 142.524C79.5592 142.456 79.4486 142.235 79.5167 142.03Z" fill="#00160A"/>
<path fill-rule="evenodd" clip-rule="evenodd" d="M75.6087 116.877C76.9817 117.429 79.6821 120.491 79.2644 122.21C78.8324 123.988 78.1989 124.699 77.1908 125.878L77.0853 125.999C76.7779 126.349 75.5081 127.639 75.4578 127.693L75.3373 127.826C74.2059 129.103 73.7435 130.515 74.6639 133.117C75.3381 135.023 76.4472 137.189 77.9781 139.255C78.18 139.528 78.6825 140.329 78.4099 140.53C78.1373 140.732 77.4922 140.08 77.2902 139.807C75.6904 137.648 74.5304 135.555 73.8129 133.526C72.7288 130.462 72.9903 129.199 74.4865 127.549L74.5818 127.446C74.742 127.279 75.8423 126.16 76.1335 125.835L76.1627 125.802C77.1029 124.733 77.7224 123.6 78.1201 121.963C78.395 120.832 77.2396 118.823 74.798 117.192C73.1772 116.11 74.2357 116.325 75.6087 116.877Z" fill="#00160A"/>
</svg>
