<svg width="150" height="151" viewBox="0 0 150 151" fill="none" xmlns="http://www.w3.org/2000/svg">
<path fill-rule="evenodd" clip-rule="evenodd" d="M136.625 121.761C163.762 97.5485 128.726 83.733 135.183 63.2719C141.64 42.8107 157.984 12.0398 97.0018 17.4611C36.0195 22.8823 -14.6086 84.4743 7.13187 113.462C28.8723 142.449 109.488 145.973 136.625 121.761Z" fill="#3457DC"/>
<path fill-rule="evenodd" clip-rule="evenodd" d="M86.2815 72.1231C88.0431 72.9784 89.8047 73.8338 91.5663 74.6892C94.3415 76.0368 97.1645 77.4169 99.4022 79.5361C101.64 81.6553 103.241 84.6698 102.905 87.7276C102.511 91.322 99.6602 94.091 96.9835 96.5324C93.4943 99.7149 90.005 102.897 86.5157 106.08C84.9866 107.475 83.3121 109.461 84.1357 111.356C86.2744 116.279 88.2116 121.879 86.2669 126.881C85.7178 128.293 84.5811 129.751 83.0626 129.681C81.9327 129.63 81.0368 128.745 80.3101 127.881C77.4214 124.449 75.2779 120.397 74.0686 116.082C72.52 110.558 72.709 104.084 76.4777 99.7476C79.4061 96.3784 84.4522 94.1126 84.7638 89.6664C79.0585 84.8391 70.8053 83.1941 63.6753 85.463C56.5453 87.7319 50.7769 93.8389 48.936 101.068C47.9334 105.004 50.1776 109.057 52.938 112.045C55.6984 115.033 59.0845 117.511 61.2084 120.977C65.48 127.949 63.6151 136.876 61.6164 144.798C60.9228 147.546 56.7373 148.005 54.6537 146.075C52.5701 144.146 52.2113 140.994 52.4321 138.168C52.6529 135.342 53.315 132.485 52.7596 129.705C51.3263 122.531 42.8973 119.255 38.767 113.207C35.6367 108.624 35.2054 102.627 36.3645 97.2042C37.5235 91.7816 40.1154 86.786 42.6796 81.8656C37.9078 74.5866 35.9045 65.5518 37.1545 56.9473C37.7852 52.6057 32.05 49.2652 32.6472 44.9189C33.1239 41.4501 37.2082 39.8838 40.6605 39.2312C47.2313 37.9891 53.9509 37.5299 60.6303 37.8665C62.1238 37.9418 62.781 35.78 62.033 34.4898C61.285 33.1996 59.8246 32.5354 58.615 31.6593C56.1782 29.8943 54.6472 27.1115 53.803 24.23C52.7196 20.5322 52.7175 16.3335 54.7297 13.0441C55.2325 12.2221 56.097 11.0037 57.4124 12.1844C57.8071 10.1235 61.9971 8.14273 64.676 9.24909C66.2817 9.91221 67.9927 8.55233 69.0131 7.15033C70.0335 5.74834 71.0204 4.05541 72.7161 3.67498C75.7524 2.99379 77.6968 7.04212 77.3471 10.1235C76.9975 13.2049 75.6374 16.4602 76.9727 19.2613C77.4804 20.3263 78.3598 21.2484 78.5284 22.4154C78.6746 23.4278 78.4125 23.0331 77.8426 25.3639C77.2726 27.6948 75.8992 28.4434 75.3331 29.7329C74.4617 31.7176 74.5927 33.461 72.7718 35.2176C72.4655 35.5132 73.0894 36.1906 72.869 36.6925C77.3534 36.7566 80.7601 40.4826 84.2309 43.3126C88.5474 46.8321 93.828 49.2941 99.3848 49.7717C104.942 50.2493 110.756 48.6247 114.905 44.9107C116.53 43.4568 120.404 45.3562 120.687 43.199C120.741 42.6401 120.592 42.3995 120.061 42.262C119.786 42.1909 119.136 42.3388 118.935 42.0801C118.343 41.3217 121.788 40.0145 121.643 41.0558C121.605 41.3224 121.449 41.5194 121.469 41.6923C121.526 42.1946 121.813 42.3495 122.256 42.4382C123.19 42.4962 124.528 41.8583 125.086 41.0558C125.46 40.5181 125.314 40.3755 125.021 40.3517C124.541 40.3129 123.667 40.5919 124.025 39.9816C124.465 39.2312 125.6 38.5196 126.68 39.1729C126.913 39.3139 126.831 39.5877 126.711 39.8567C126.492 40.3501 126.146 40.8273 127.386 40.4393C129.301 39.8398 129.411 39.9521 129.906 40.0986C130.401 40.2451 131.127 41.1149 131.593 41.9273C132.55 43.5991 133.532 45.3526 133.621 47.2752C133.711 49.1979 132.597 51.3238 130.705 51.7082C130.688 52.2677 130.962 52.7949 131.379 53.1657C131.833 53.5696 133 53.3236 132.804 53.6846C132.167 54.8574 130.615 55.1581 129.394 54.7478C129.059 54.6352 129.833 54.0579 129.906 53.6577C130.023 53.0173 129.89 52.3275 129.498 51.8041C128.394 52.2699 127.289 52.7357 126.185 53.2015C126.505 53.6099 126.359 54.0947 126.68 54.5031C126.983 54.8886 127.759 54.7909 127.89 55.3383C128.031 55.9334 126.884 56.1831 126.292 56.2388C125.642 56.2998 124.631 56.3662 124.329 55.9334C123.985 55.4413 125.063 55.2837 125.112 54.7688C125.167 54.2068 124.96 53.606 124.465 53.3341C123.517 52.8131 122.156 53.7724 122.333 54.8372C122.779 57.5195 121.663 60.4039 119.526 62.0945C117.389 63.7851 114.316 64.2135 111.796 63.1723C109.516 62.231 106.992 63.4419 104.633 64.1637C99.286 65.8 93.1845 64.7564 88.6911 61.437C88.4318 65.1478 87.7186 69.1671 85.338 71.9032C85.724 72.1231 85.5255 72.1231 86.2815 72.1231Z" fill="white"/>
<ellipse cx="62.4973" cy="30.6534" rx="1.29955" ry="1.29527" fill="#FFB61D"/>
<circle cx="71.8215" cy="28.0543" r="1.29955" fill="#FFB61D"/>
<path fill-rule="evenodd" clip-rule="evenodd" d="M79.4111 85.9403C78.8262 85.6781 78.2403 85.4155 77.6507 85.1597C73.3348 83.2875 68.1581 81.9411 64.0859 84.2936C63.464 80.3351 67.7232 77.3119 71.6428 76.4164C72.7177 76.1708 73.827 75.9966 74.9362 75.8224C77.8716 75.3614 80.8076 74.9003 83.1118 73.1158C86.533 70.4664 87.4453 65.7439 87.7463 61.437C92.2397 64.7564 98.3411 65.8 103.688 64.1637C104.096 64.0388 104.51 63.8992 104.925 63.7587C106.913 63.0873 108.966 62.3939 110.851 63.1723C113.372 64.2135 116.444 63.7851 118.581 62.0945C120.718 60.4039 121.834 57.5195 121.388 54.8372C121.211 53.7724 122.572 52.8131 123.521 53.3341C124.016 53.606 124.222 54.2068 124.168 54.7688C124.145 54.9992 123.917 55.1581 123.703 55.3075C123.438 55.4918 123.194 55.6616 123.384 55.9334C123.687 56.3662 124.697 56.2998 125.347 56.2388C125.939 56.1831 127.086 55.9334 126.945 55.3383C126.87 55.0246 126.583 54.9228 126.295 54.8204C126.08 54.7442 125.864 54.6677 125.735 54.5031C125.575 54.2989 125.531 54.0756 125.487 53.8523C125.444 53.629 125.4 53.4057 125.24 53.2015L128.553 51.8041C128.945 52.3275 129.078 53.0173 128.961 53.6577C128.93 53.8298 128.769 54.0346 128.622 54.2212C128.428 54.4685 128.259 54.6836 128.45 54.7478C129.671 55.1581 131.222 54.8574 131.859 53.6846C131.959 53.501 131.706 53.4744 131.373 53.4395C131.052 53.4057 130.657 53.3642 130.434 53.1657C130.018 52.7949 129.743 52.2677 129.76 51.7082C131.653 51.3238 132.766 49.1979 132.676 47.2752C132.587 45.3526 131.605 43.5991 130.648 41.9273C130.183 41.1149 129.456 40.2451 128.961 40.0986C128.93 40.0895 128.901 40.0805 128.873 40.0718C128.446 39.9409 128.237 39.877 126.441 40.4393C125.328 40.7875 125.493 40.4387 125.697 40.0068C125.72 39.9575 125.744 39.9072 125.767 39.8567C125.886 39.5877 125.968 39.3139 125.735 39.1729C124.655 38.5196 123.521 39.2312 123.08 39.9816C122.817 40.4297 123.219 40.3984 123.64 40.3654C123.793 40.3535 123.948 40.3414 124.076 40.3517C124.369 40.3755 124.515 40.5181 124.141 41.0558C123.583 41.8583 122.245 42.4962 121.311 42.4382C120.868 42.3495 120.582 42.1946 120.524 41.6923C120.513 41.6004 120.553 41.5017 120.597 41.3893C120.637 41.2903 120.68 41.1807 120.698 41.0558C120.844 40.0145 117.398 41.3217 117.99 42.0801C118.121 42.2487 118.443 42.2446 118.727 42.241C118.879 42.239 119.021 42.2372 119.117 42.262C119.648 42.3995 119.796 42.6401 119.742 43.199C119.588 44.3769 118.362 44.3453 117.017 44.3106C115.899 44.2817 114.698 44.2507 113.961 44.9107C109.812 48.6247 103.997 50.2493 98.44 49.7717C92.8832 49.2941 87.6025 46.8321 83.2861 43.3126C82.6904 42.8269 82.0965 42.3147 81.4988 41.7992C78.6141 39.3114 75.6389 36.7456 71.9242 36.6925C72.0332 36.4442 71.9356 36.153 71.8462 35.8862C71.7549 35.6138 71.6722 35.367 71.827 35.2176C72.786 34.2925 73.2759 32.4901 73.7002 30.9293C74.0815 29.5266 74.4097 28.319 74.9778 28.1183C76.1146 27.7168 76.4481 26.7146 76.8328 25.5586C76.8542 25.4942 76.8758 25.4292 76.8977 25.3639C77.029 24.9727 77.146 24.6567 77.2458 24.3875C77.5509 23.5641 77.6938 23.1784 77.5836 22.4154C77.4736 21.6545 77.0615 20.9977 76.6473 20.3375C76.4262 19.9851 76.2046 19.6319 76.0279 19.2613C75.0565 17.2235 75.5116 14.9453 75.9664 12.6685C76.1367 11.8158 76.307 10.9632 76.4023 10.1235C76.752 7.04212 74.8076 2.99379 71.7713 3.67498C70.2917 4.00694 69.3517 5.33822 68.4582 6.60355C68.3277 6.78833 68.1983 6.97169 68.0682 7.15033C67.0478 8.55233 65.3369 9.91221 63.7312 9.24909C61.0522 8.14273 56.8623 10.1235 56.4676 12.1844C55.1522 11.0037 54.2877 12.2221 53.7848 13.0441C51.7727 16.3335 51.7748 20.5322 52.8582 24.23C53.7023 27.1115 55.2334 29.8943 57.6702 31.6593C57.98 31.8837 58.3062 32.0942 58.6327 32.3048C59.5811 32.9167 60.5318 33.53 61.0882 34.4898C61.8362 35.78 61.179 37.9418 59.6855 37.8665C53.006 37.5299 46.2865 37.9891 39.7157 39.2312C36.2633 39.8838 32.179 41.4501 31.7024 44.9189C31.4044 47.0874 32.6827 49.0055 33.9603 50.9224C35.2433 52.8477 36.5257 54.7718 36.2096 56.9473C34.9597 65.5518 36.963 74.5866 41.7348 81.8656C39.1705 86.786 36.5787 91.7816 35.4196 97.2042C34.2606 102.627 34.6918 108.624 37.8222 113.207C39.4534 115.596 41.7552 117.552 44.0316 119.487C47.5192 122.451 50.9476 125.364 51.8148 129.705C52.2225 131.746 51.9741 133.828 51.7258 135.909C51.6359 136.663 51.546 137.416 51.4872 138.168C51.2665 140.994 51.6253 144.146 53.7089 146.075C54.8986 147.177 56.7734 147.5 58.2923 147.063C58.2794 147.296 58.2659 147.512 58.2532 147.715C58.1841 148.824 58.1388 149.551 58.3338 150.412C58.3845 150.637 58.4671 150.892 58.6829 150.974C59.1125 151.137 59.399 150.481 59.37 150.036C59.26 148.351 59.0493 147.399 58.8465 146.862C59.7304 146.469 60.4238 145.78 60.6716 144.798C62.6703 136.876 64.5351 127.949 60.2636 120.977C58.8525 118.674 56.8842 116.808 54.9125 114.938C53.9165 113.993 52.9196 113.048 51.9932 112.045C49.2327 109.057 46.9886 105.004 47.9911 101.068C49.8321 93.8389 55.6005 87.7319 62.7305 85.463C69.8605 83.1941 78.1137 84.8391 83.819 89.6664C83.6067 92.6948 81.1979 94.7117 78.758 96.7547C77.6157 97.7111 76.4666 98.6732 75.5328 99.7476C71.7642 104.084 71.5751 110.558 73.1237 116.082C74.3331 120.397 76.4766 124.449 79.3652 127.881C80.092 128.745 80.9879 129.63 82.1178 129.681C83.6363 129.751 84.773 128.293 85.3221 126.881C87.2668 121.879 85.3296 116.279 83.1908 111.356C82.3673 109.461 84.0418 107.475 85.5709 106.08L96.0387 96.5324C98.7154 94.091 101.566 91.322 101.96 87.7276C102.296 84.6698 100.695 81.6553 98.4574 79.5361C96.2197 77.4169 93.3967 76.0368 90.6215 74.6892L85.3367 72.1231C87.0787 74.354 89.7081 75.6064 92.2971 76.8395C92.7973 77.0778 93.2959 77.3153 93.7864 77.559C96.8156 79.0642 99.9252 81.2609 100.619 84.562C101.471 88.6175 98.375 92.3398 95.5047 95.3379C91.8701 99.1343 88.2038 102.958 83.886 105.961C82.4169 106.983 80.7878 107.934 78.9973 107.998C77.2068 108.062 75.2589 106.943 74.9778 105.18C74.724 103.589 75.8245 102.13 76.8594 100.891L84.5123 91.7312C85.6754 90.339 87.2075 89.9767 89.0302 89.5457C89.6714 89.3941 90.3486 89.234 91.0583 89.0175C86.764 89.2358 83.1077 87.597 79.4111 85.9403ZM48.4384 61.3216C48.7474 64.094 49.6045 66.8703 51.3429 69.057C53.0812 71.2437 55.7897 72.7659 58.5867 72.6451C59.5233 72.6046 59.8234 71.2161 59.2673 70.4641C58.7849 69.8118 57.9873 69.5149 57.2139 69.2271C57.0957 69.1831 56.978 69.1393 56.862 69.0944C55.9881 68.7564 55.0562 68.1908 54.8985 67.27C57.3646 69.1817 61.0463 69.3591 63.686 67.6934C64.6048 70.321 67.6526 71.8986 70.411 71.4647C73.1694 71.0308 75.4749 68.8341 76.3899 66.2052C76.4074 66.155 76.4246 66.1043 76.4419 66.0534C76.5809 65.6442 76.7238 65.2236 77.0396 64.9338C77.3338 64.6639 77.735 64.5492 78.1205 64.443L85.6627 62.3648C85.8499 62.3132 86.0623 62.2646 86.2283 62.365C86.4055 62.4721 86.4544 62.7024 86.4803 62.9072C87.0021 67.0299 84.6794 71.3603 80.9493 73.2189C78.9494 74.2154 76.6639 74.5411 74.3979 74.864C71.4415 75.2852 68.5184 75.7017 66.3066 77.5973C65.1028 78.629 64.2678 79.984 63.431 81.3419C63.0313 81.9905 62.6312 82.6398 62.1903 83.2547C59.4869 87.0256 54.5219 89.579 50.1123 88.1056C47.5813 87.2599 45.614 85.2586 43.997 83.1422C39.1293 76.7713 36.5599 68.6937 36.8559 60.6921C36.9096 59.2403 37.0592 57.7705 37.5861 56.4158C40.9278 60.2854 44.7917 63.7066 49.041 66.5584C48.8926 65.7903 48.3585 65.16 47.827 64.5845C46.3061 62.9376 44.6275 61.3954 42.9507 59.8548C39.0515 56.2723 35.1622 52.699 33.2894 47.8408C32.8777 46.7728 32.5732 45.6069 32.8268 44.4912C33.4021 41.9606 36.3869 40.9072 38.9395 40.3935C45.0698 39.1597 51.3262 38.5485 57.5803 38.5726C57.9125 42.4325 61.1359 45.8847 64.9905 46.393C68.8451 46.9012 72.9074 44.3308 73.9897 40.6097C74.0218 40.4993 74.0519 40.3875 74.0821 40.2753C74.2166 39.7752 74.3525 39.2701 74.674 38.8698C75.0676 38.3798 75.8681 38.1389 76.3275 38.5683C79.7329 41.7515 83.3063 44.8119 87.3785 47.0885C91.4506 49.365 96.0775 50.8333 100.742 50.6274C92.774 53.524 84.6292 55.9385 76.3677 57.8533C75.7359 57.9997 74.9535 58.0957 74.5474 57.5918C73.1085 55.8058 70.762 54.7865 68.4693 54.9517C66.1767 55.1169 64.0017 56.4618 62.8356 58.4355C62.4134 59.1501 61.3599 59.0604 60.5585 58.8369C58.8914 58.372 57.1759 57.657 56.1908 56.2387C56.0245 55.9993 55.8804 55.7416 55.7366 55.4845C55.455 54.9811 55.1746 54.4797 54.7304 54.1202C54.1022 53.6117 53.2793 53.4878 52.4644 53.3651C52.2378 53.331 52.0119 53.2969 51.791 53.2548C49.2752 52.7747 47.0474 50.9921 46.0338 48.6483C48.4053 47.0659 51.608 47.8169 54.2264 48.9486C54.6388 49.1269 55.0522 49.3141 55.4671 49.502C57.6871 50.5074 59.9521 51.5331 62.3466 51.314C64.3827 51.1276 66.1597 50.0719 67.9443 49.0117C69.522 48.0743 71.1057 47.1334 72.8795 46.7867C77.4303 45.8972 81.8972 49.2739 84.0277 53.3781C84.044 53.4095 84.0603 53.441 84.0767 53.4727C84.4253 54.1465 84.8022 54.8752 85.5011 55.1581C84.7881 51.1634 81.7767 47.6594 77.9249 46.3427C74.0731 45.026 69.537 45.9499 66.5129 48.6671C64.6364 50.3531 61.7849 50.4723 59.3358 49.8526C57.9564 49.5035 56.6417 48.957 55.3261 48.4101C54.3059 47.986 53.2852 47.5617 52.2333 47.229C49.8249 46.4674 47.0433 46.2421 44.8996 47.5749C44.2561 46.1619 43.3951 44.8474 42.356 43.6916C43.3859 49.5801 48.7759 54.4215 54.7607 54.8335L51.4396 56.0907C50.6636 56.3845 49.8594 56.6966 49.29 57.2984C48.3149 58.3288 48.2815 59.914 48.4384 61.3216ZM46.8001 102.509C46.4774 104.13 46.3003 105.886 47.0278 107.371C47.4199 108.171 48.0461 108.828 48.6618 109.475L48.704 109.519C52.4076 113.408 55.8864 117.51 59.1174 121.798C57.6828 123.171 56.0857 124.376 54.3699 125.379C53.892 125.658 53.3757 125.93 52.8217 125.92C51.996 125.905 51.3249 125.283 50.744 124.698C46.6868 120.613 42.7342 116.425 38.8915 112.14C37.6697 110.777 36.4274 109.35 35.8722 107.609C35.1664 105.395 35.6661 103.001 36.1699 100.733C37.5593 94.4796 39.0209 88.0557 42.6439 82.7652C44.6792 86.4068 48.4486 89.0351 52.5794 89.6931C49.7152 93.4573 47.7227 97.8758 46.8001 102.509ZM72.611 32.7932C72.005 34.0559 70.9827 35.1712 69.6569 35.6337C67.8894 36.2504 65.9453 35.6334 64.2148 34.9201C63.3156 34.5495 62.4071 34.1382 61.7106 33.461C61.1195 32.8861 60.7145 32.1514 60.3393 31.4181C59.1712 29.1347 58.2058 26.7484 57.4583 24.2961C56.8401 22.2682 56.5216 19.7021 58.167 18.359C60.0466 19.7963 62.5744 20.1569 64.9279 19.8842C67.0203 19.6417 69.0248 18.9487 71.0186 18.2593C71.2674 18.1733 71.516 18.0874 71.7645 18.0024C72.0484 17.9053 72.3845 17.8156 72.6296 17.9883C72.8171 18.1205 72.8833 18.3628 72.9342 18.586C73.6912 21.9042 73.9118 25.3434 73.5848 28.7307C73.4503 30.1239 73.2171 31.5306 72.611 32.7932ZM80.1625 127.589C76.7932 123.113 74.5363 117.813 73.6476 112.289C73.266 109.917 73.1426 107.432 73.9359 105.163C74.6934 108.134 78.2816 110.031 81.1755 108.991C81.9308 110.541 82.6174 112.125 83.2328 113.735C84.8496 117.967 85.9501 122.782 84.1595 126.944C83.7291 127.944 82.8788 129.009 81.7983 128.849C81.0979 128.746 80.5874 128.153 80.1625 127.589ZM57.7296 12.0306C58.5813 10.5104 60.4554 9.7381 62.1966 9.8842C62.6029 9.9183 63.0076 9.96972 63.4042 10.0201C64.6609 10.1798 65.8361 10.3291 66.7236 9.8842C68.0748 9.20689 68.6395 8.26531 69.2142 7.30691C69.5979 6.66714 69.986 6.01988 70.6157 5.43873C71.014 5.07108 71.458 4.71825 71.9883 4.60203C73.0728 4.36436 74.1141 5.18722 74.7318 6.10666C76.0574 8.07999 76.2323 10.7658 75.1738 12.8933C74.008 15.2362 71.6047 16.7024 69.2003 17.7509C67.4693 18.5058 65.6374 19.1182 63.7482 19.1571C61.8591 19.1961 59.8931 18.5999 58.5905 17.236C57.2878 15.8721 56.8084 13.6745 57.7296 12.0306ZM52.4028 135.331C52.3219 134.733 52.258 134.064 52.6225 133.582C54.1164 133.716 55.6582 133.176 56.7401 132.141C56.411 131.465 55.3924 131.51 54.749 131.903C54.502 132.054 54.2752 132.239 54.049 132.424C53.686 132.72 53.3246 133.015 52.8844 133.164C52.4588 132.745 52.535 132.004 52.889 131.523C53.243 131.042 53.7992 130.758 54.3347 130.491L57.7063 128.811C57.0586 128.172 55.9788 128.163 55.152 128.546C54.3252 128.928 53.6926 129.622 53.0838 130.297C52.408 129.121 52.8904 127.433 54.0866 126.788L58.4546 124.433C58.7939 124.25 59.1538 124.062 59.5395 124.073C60.3746 124.098 60.8785 124.999 61.107 125.799C61.7678 128.116 61.5663 130.578 61.3593 132.977C61.0548 136.505 60.7454 140.061 59.7523 143.461C59.41 144.633 58.8698 145.909 57.7329 146.364C56.4995 146.856 55.0487 146.108 54.3111 145.007C53.5735 143.906 53.3774 142.542 53.2001 141.23L52.4028 135.331ZM110.637 55.3383C111.11 55.2806 111.519 54.7362 111.289 54.3207L109.665 51.3941C109.451 51.0085 109.232 50.6067 109.204 50.1671C109.175 49.7274 109.396 49.2386 109.816 49.1027C110.418 48.9081 110.972 49.4882 111.32 50.0146C112.055 51.1238 112.695 52.2947 113.232 53.5109C113.87 52.6645 113.173 51.4958 112.537 50.6486C111.901 49.8014 111.344 48.5022 112.14 47.8015C112.926 47.1093 114.175 47.8188 114.777 48.6746C115.093 49.1242 115.353 49.6228 115.612 50.1196C116.114 51.0821 116.612 52.0375 117.509 52.6149C117.896 52.379 117.703 51.7879 117.468 51.4008L114.459 46.4378C114.19 45.994 114.635 45.3922 115.15 45.3172C115.665 45.2423 116.162 45.5167 116.592 45.8085C118.661 47.2122 120.309 49.3608 120.698 51.8247C121.086 54.2887 120.031 57.026 117.861 58.2697C117.205 58.6459 116.474 58.8803 115.73 59.0243C111.207 59.9006 106.257 57.0151 104.806 52.6571C104.584 51.9902 104.531 51.079 105.161 50.7631C105.641 50.5223 106.221 50.8085 106.621 51.1664C107.199 51.6836 107.611 52.3454 108.025 53.0076C108.422 53.6454 108.82 54.2835 109.366 54.7932C109.714 55.1177 110.164 55.3959 110.637 55.3383ZM63.449 60.2349C64.0046 60.252 64.5806 60.2697 65.0425 60.5678C65.552 60.8965 65.7741 61.7288 65.2914 62.0956C65.1088 62.2343 64.8718 62.2748 64.645 62.311C62.5368 62.648 60.1316 62.91 58.4928 61.5463C58.1243 61.7139 58.0167 62.2189 58.1671 62.5937C58.3175 62.9684 58.6522 63.2351 58.9871 63.4621C60.4744 64.4697 62.255 65.0421 64.0529 65.0905C62.8754 66.1066 61.1519 66.4524 59.6715 65.9694C59.0904 65.7798 58.273 65.5635 58.0159 66.1163C59.156 67.2023 60.8962 67.2858 62.4733 67.3062C59.6559 68.644 55.9592 67.7727 54.0419 65.3189C53.9054 65.1442 53.5975 65.2335 53.4891 65.4267C53.3807 65.62 53.4102 65.8576 53.4428 66.0767C53.6087 67.1915 53.8365 68.4173 54.7246 69.1154C55.1947 69.4849 55.778 69.6458 56.3616 69.8068C56.5945 69.8711 56.8274 69.9353 57.0532 70.0129C57.8451 70.2847 58.6635 70.8814 58.6711 71.716C56.1202 71.935 53.623 70.4945 52.0787 68.4597C50.5344 66.4249 49.8249 63.874 49.4978 61.3438C49.4132 60.6897 49.3537 60.0126 49.5444 59.3811C49.9242 58.1237 51.1707 57.3636 52.3196 56.7204C53.1529 56.2539 54.3021 55.824 54.9631 56.5119C57.1169 58.7534 60.1657 60.1164 63.278 60.2293C63.3347 60.2313 63.3917 60.2331 63.449 60.2349ZM68.9203 64.7545L101.566 55.7498C102.987 55.3577 104.67 55.0148 105.808 55.9504C92.8823 59.9304 79.7915 63.3765 66.5799 66.2769C65.8607 66.4348 64.8354 66.4032 64.71 65.68C65.1442 65.696 65.1425 65.211 65.1407 64.6981C65.1389 64.1932 65.137 63.6611 65.5509 63.5534L103.594 53.6531C103.824 53.5933 104.116 53.5533 104.257 53.7439C104.486 54.0537 104.017 54.3999 103.644 54.5031L67.3615 64.5536C67.6908 65.0044 68.381 64.9033 68.9203 64.7545ZM105.727 62.1597C103.372 63.7322 100.382 64.1449 97.5668 63.8123C94.7515 63.4797 92.0675 62.4588 89.4586 61.3533L105.078 56.9911C105.625 56.8382 106.301 56.7179 106.687 57.1336C109.857 60.5456 115.623 61.1545 119.44 58.4801C118.995 60.6034 117.068 62.3307 114.902 62.5475C113.668 62.671 112.453 62.3519 111.244 62.0345C110.923 61.9503 110.603 61.8662 110.283 61.7905C108.757 61.4294 107.031 61.2894 105.727 62.1597ZM62.5649 36.0306C62.7879 35.7125 63.268 35.537 63.5772 35.7731C65.3897 37.1572 67.9093 37.5659 70.0689 36.8261C70.7581 36.59 71.5422 37.0789 71.8267 37.7475C72.1112 38.4161 71.9964 39.1908 71.7465 39.8729C70.9853 41.9501 68.9366 43.4954 66.7236 43.6617C64.5105 43.8279 62.2524 42.6062 61.1873 40.6662C60.8585 40.0673 60.7488 39.1287 61.383 38.8705C62.0156 38.613 62.1968 37.8195 62.2652 37.142L62.2673 37.1215C62.3056 36.7415 62.3458 36.3432 62.5649 36.0306ZM122.922 52.6585C122.667 52.7273 122.397 52.7948 122.142 52.7268C121.887 52.6588 121.662 52.4032 121.726 52.1479C124.009 51.7868 126.213 50.9367 128.145 49.6721C128.897 49.1796 129.696 48.3212 129.316 47.5079C129.064 46.9687 128.388 46.7611 127.792 46.7854C126.928 46.8206 126.123 47.2066 125.347 47.585L121.158 49.6268C120.963 49.397 121.044 49.0274 121.25 48.8075C121.448 48.5955 121.73 48.4868 122.002 48.3818L122.032 48.3701C123.934 47.6346 125.705 46.5669 127.242 45.2302C127.692 44.8387 127.458 44.0321 126.945 43.7285C126.431 43.4248 125.785 43.4847 125.198 43.594C123.494 43.9111 121.854 44.566 120.403 45.5094C119.688 45.9738 118.673 46.4881 118.089 45.8689C119.667 44.2756 121.829 43.4252 123.924 42.6179L127.979 41.0557C128.261 40.9471 128.565 40.8369 128.858 40.9115C129.257 41.0132 129.49 41.4145 129.67 41.7827C130.694 43.8721 131.448 46.0927 131.908 48.3724C131.974 48.7032 132.03 49.0686 131.859 49.3599C131.704 49.6239 131.402 49.759 131.118 49.876C128.449 50.9759 125.71 51.906 122.922 52.6585ZM103.748 52.798C103.596 52.959 103.369 53.0218 103.155 53.0777L65.9236 62.7908C66.5016 61.3997 68.2005 60.9238 69.6768 60.6028C79.9494 58.3689 90.0123 55.2882 100.064 52.2108C100.636 52.0358 101.208 51.8608 101.779 51.686C102.275 51.5343 102.815 51.3833 103.301 51.5645C103.787 51.7458 104.103 52.4213 103.748 52.798ZM53.3571 15.7543C53.5852 15.0103 53.9581 13.9822 54.5416 13.4654C54.8391 13.2018 55.242 12.9207 55.6001 13.094C55.8252 13.203 55.9356 13.4548 56.0279 13.6866C56.1659 14.0332 56.363 14.498 56.5601 14.9627C56.7572 15.4275 56.9543 15.8923 57.0923 16.2389C57.2859 16.7251 57.4732 17.4806 57.1182 17.7262C55.6001 18.7762 55.9455 22.6095 56.6254 24.3733C56.7877 24.7944 56.9269 25.6573 56.787 26.2865C56.6471 26.9156 55.9455 27.4815 55.3718 27.1841C55.0427 27.0135 54.5206 26.1094 54.3316 25.7819C54.3143 25.752 54.2998 25.7269 54.2885 25.7076C51.4919 20.9395 53.0421 16.6325 53.3212 15.8571C53.3385 15.809 53.3509 15.7745 53.3571 15.7543ZM65.6259 67.3819C68.112 66.9229 70.5726 66.3262 72.9925 65.5956C73.03 65.5843 73.0675 65.5729 73.105 65.5616C73.8583 65.3335 74.6226 65.1021 75.4086 65.106C75.3099 66.3456 74.6188 67.4939 73.6709 68.3027C72.7229 69.1114 71.5359 69.604 70.32 69.8842C69.3981 70.0966 68.4259 70.1921 67.5097 69.9562C66.5936 69.7203 65.7391 69.1101 65.3907 68.2335C65.2659 67.9193 65.2924 67.4435 65.6259 67.3819ZM68.7081 59.9866C67.1224 60.2105 65.4464 60.0958 64.0191 59.3723C63.7174 59.2194 63.8736 58.7595 64.0867 58.4975C65.1825 57.1503 66.8424 56.2736 68.5765 56.1263C70.3107 55.9789 72.0956 56.5629 73.4045 57.7058C73.6208 57.8947 73.8407 58.1937 73.6946 58.4406C73.6177 58.5707 73.4639 58.6306 73.3213 58.6816C71.8139 59.2206 70.2937 59.7628 68.7081 59.9866ZM63.8228 45.3311C62.413 44.8905 61.3097 43.7725 60.5037 42.5387C60.0151 41.7907 59.6153 40.9917 59.2153 40.1922C58.9554 39.6728 58.6955 39.1533 58.411 38.6475C58.9334 38.5611 59.4419 38.916 59.7316 39.3576C59.9385 39.6729 60.0639 40.0299 60.1893 40.3869C60.2395 40.53 60.2898 40.6731 60.3453 40.8135C61.3876 43.4508 64.4922 45.0322 67.288 44.5095C70.0839 43.9868 72.3512 41.5329 72.8359 38.74C72.8869 38.4465 72.9794 38.0836 73.2725 38.0253C73.5892 38.2889 73.6034 38.7654 73.5475 39.1728C73.1418 42.1297 70.4515 44.3547 67.5774 45.1949C66.3579 45.5514 65.0355 45.71 63.8228 45.3311ZM119.712 47.1015C121.473 45.7315 123.55 44.7657 125.735 44.3001C125.997 44.2441 126.391 44.3017 126.367 44.568C126.36 44.6521 126.305 44.7237 126.251 44.7887C125.165 46.0934 123.576 46.8568 122.039 47.5813C121.608 47.7843 121.154 47.9921 120.678 47.9628C120.202 47.9335 119.711 47.5763 119.712 47.1015ZM127.335 47.7582C127.562 47.6861 127.809 47.6184 128.032 47.7015C128.254 47.7847 128.401 48.0893 128.245 48.2674C126.896 49.8015 124.878 50.5585 122.909 51.1159C122.394 51.2617 121.638 51.258 121.55 50.7319C123.294 49.4292 125.259 48.4195 127.335 47.7582ZM74.372 25.2823C74.4859 24.5803 74.6219 23.7414 74.6219 23.1989C74.6219 22.4536 74.7354 21.5421 75.4328 21.2767C76.1014 21.0222 76.8568 21.6327 76.9856 22.3342C77.1143 23.0356 76.3191 25.8678 75.9242 26.4626C75.7437 26.7344 75.5339 27.0055 75.237 27.1421C74.94 27.2787 74.5358 27.2345 74.3539 26.9636C74.2593 26.8226 74.238 26.6465 74.2219 26.4776C74.2056 26.3083 74.2819 25.8382 74.372 25.2823ZM74.388 16.4601C74.4229 16.51 74.4379 16.5706 74.4519 16.6297C74.7416 17.8549 74.8539 19.1216 74.7845 20.3784C74.4522 20.5274 74.177 20.0855 74.0794 19.7357L73.6618 18.2397C73.4975 17.6509 73.3651 16.9304 73.8039 16.5034C73.9631 16.3483 74.2609 16.278 74.388 16.4601ZM56.8096 29.7906C56.3779 29.4933 56.0279 29.2523 56.0279 28.5169C56.0279 27.6469 56.9714 26.7989 57.1771 26.9636C57.9248 27.5623 59.2685 30.5313 59.3358 31.4846C58.7732 31.2557 58.3585 30.9435 57.6014 30.3735C57.4366 30.2494 57.2556 30.1131 57.0533 29.9628C56.9704 29.9013 56.8887 29.845 56.8096 29.7906ZM61.7163 63.709L63.2412 63.3877C63.4313 63.3476 63.6625 63.3201 63.7897 63.4666C64.0348 63.7488 63.552 64.1054 63.1774 64.1124C62.665 64.1219 62.1508 63.9799 61.7163 63.709ZM108.002 49.7492C108.278 49.7803 108.511 50.1313 108.33 50.3407L108.313 50.3595C108.075 50.5409 107.801 50.7324 107.504 50.6897C107.207 50.6471 106.998 50.2141 107.244 50.0428C107.472 49.8842 107.727 49.7181 108.002 49.7492ZM110.196 54.2917L109.85 54.2411L109.816 54.2378L109.082 53.1123C109.726 52.9047 110.443 53.6639 110.196 54.2917ZM108.584 52.2606C108.302 52.2742 108.075 51.9237 108.204 51.6735C108.334 51.4232 108.751 51.4031 108.904 51.6397C109.057 51.8764 108.866 52.247 108.584 52.2606ZM70.0958 15.556L67.4453 16.8065C65.4202 17.7619 62.8764 17.5144 61.0751 16.1866C60.8209 16.1278 60.6005 16.4307 60.6435 16.6872C60.6865 16.9437 60.8956 17.1376 61.1052 17.2925C62.5575 18.365 64.5432 18.4994 66.2949 18.0549C68.0467 17.6104 69.6178 16.6534 71.1398 15.6816C71.0295 15.2967 70.4589 15.3847 70.0958 15.556ZM67.6039 21.3577C67.3861 21.5519 67.009 21.2883 67.0125 20.9971C67.0161 20.706 67.253 20.4719 67.4973 20.3122C68.522 19.6425 69.9911 19.7464 70.9105 20.5537C70.7076 20.8861 70.2334 20.8091 69.8338 20.7441C69.8025 20.739 69.7717 20.734 69.7415 20.7293C68.9831 20.6105 68.1761 20.8477 67.6039 21.3577ZM62.6949 22.4579C63.0427 22.3788 63.4107 22.1137 63.3776 21.7598C63.3497 21.4615 63.0486 21.2635 62.7589 21.1832C62.0759 20.9938 61.2917 21.2399 60.8409 21.7851C60.3902 22.3302 60.2978 23.1442 60.6149 23.7759C60.7676 23.6399 60.892 23.4724 61.0158 23.3058L61.0158 23.3058C61.1994 23.0586 61.3816 22.8134 61.6524 22.676C61.8575 22.572 62.0872 22.5443 62.3177 22.5166C62.4445 22.5013 62.5716 22.486 62.6949 22.4579ZM69.6166 26.3847C70.0372 26.3787 70.321 25.9458 70.4267 25.5401C70.6441 24.7058 70.4228 23.7706 69.8544 23.1209C69.597 22.8267 69.1585 22.5819 68.8311 22.7961C68.7298 22.8623 68.657 22.9641 68.5983 23.0697C68.1876 23.8093 68.3933 24.7341 68.7126 25.5172C68.8804 25.9288 69.1708 26.391 69.6166 26.3847ZM64.2989 26.3864L64.1736 25.0854C64.1259 24.5903 64.0196 24.0082 63.5668 23.7988C62.9482 23.5127 62.2948 24.1981 62.1327 24.8582C61.9586 25.567 62.0591 26.3392 62.4089 26.9803C62.7263 27.5618 63.5162 28.049 64.0208 27.6185C64.3551 27.3332 64.3409 26.823 64.2989 26.3864ZM63.2539 123.901C66.7407 123.797 70.2276 123.695 73.7145 123.595C74.0976 123.584 74.5089 123.581 74.8268 123.794C75.1216 123.992 75.2828 124.369 75.2212 124.718L64.9849 124.91C64.6047 124.917 64.2112 124.922 63.8614 124.773C63.5116 124.625 63.2163 124.278 63.2539 123.901ZM66.8357 30.597C66.4619 30.4906 66.6381 29.9378 66.8138 29.5924C67.3815 28.4763 67.0617 27.1076 66.4932 25.9919L66.4791 25.9643C66.3529 25.7171 66.2181 25.4531 66.263 25.1809C66.3095 24.8986 66.6665 24.6639 66.8897 24.8439C66.9568 24.898 66.9976 24.9773 67.0363 25.0542C67.4632 25.9014 67.8819 26.7724 68.0209 27.7103C68.1599 28.6481 67.9808 29.6777 67.3354 30.3742C67.2048 30.5151 67.0207 30.6497 66.8357 30.597ZM67.3933 34.1515C69.1435 33.8719 70.5472 32.1738 70.4872 30.4086C70.4837 30.3036 70.4742 30.1943 70.42 30.1042C70.2681 29.8515 69.8547 29.9104 69.6597 30.1318C69.4992 30.3139 69.4382 30.5553 69.3781 30.7934C69.3651 30.8446 69.3522 30.8957 69.3384 30.946C69.1044 31.7957 68.5222 32.5447 67.7551 32.9829L67.7351 32.9942L67.7022 33.0126L67.6412 33.0463C67.4171 33.1696 67.1867 33.2964 67.0691 33.5182C66.9315 33.7781 67.1021 34.198 67.3933 34.1515ZM78.0798 140.457C78.1545 142.553 78.3882 149.205 78.1151 150.412C78.0644 150.637 77.9817 150.892 77.766 150.974C77.3363 151.137 77.0842 150.494 77.0789 150.036C77.0357 146.325 76.9924 141.964 76.9492 137.603L76.9491 137.595C76.9059 133.236 76.8627 128.878 76.8195 125.169C77.5318 125.169 77.766 127.673 77.766 129.291C77.766 134.725 78.0798 140.457 78.0798 140.457ZM53.5672 94.3635C53.4629 94.3029 53.3416 94.2422 53.2171 94.18C52.7209 93.9317 52.1751 93.6586 52.4623 93.2741C60.0583 93.6018 67.6719 93.5258 75.2598 93.0464C77.4088 92.9107 79.8329 92.5974 81.1103 90.8701C81.1614 90.801 81.2106 90.7297 81.2599 90.6582L81.2601 90.6579C81.43 90.4116 81.6007 90.1642 81.8506 90.0046C82.173 89.7986 82.689 89.8247 82.8502 90.1709C82.6226 92.0225 80.8808 93.566 79.0087 93.5752C78.1895 93.5792 77.9118 94.6446 77.808 95.4543C77.7042 96.264 77.1437 97.3012 76.3748 97.0196C76.5689 96.3557 76.6945 95.6719 76.7491 94.9826C76.7674 94.7514 76.7626 94.4832 76.5832 94.3356C76.4438 94.2211 76.2457 94.2206 76.0652 94.2257L56.0165 94.7955C55.8894 94.7991 55.7494 94.808 55.6586 94.8967C55.5478 95.0049 55.558 95.1825 55.576 95.3361L56.999 107.424C57.0303 107.69 57.1387 108.029 57.4074 108.031L68.7727 108.093C69.3769 108.097 70.2368 108.557 69.8677 109.033C69.7166 109.228 69.4331 109.246 69.1859 109.247L57.6193 109.294C57.1309 109.296 56.9928 109.958 57.0108 110.444L57.1948 115.418C55.8054 114.431 55.7102 112.451 55.7004 110.751C55.6721 105.798 55.2278 100.847 54.3735 95.9667C54.2669 95.3576 54.1034 94.6746 53.5672 94.3635Z" fill="#00160A"/>
<path fill-rule="evenodd" clip-rule="evenodd" d="M79.3024 117.845C79.7783 116.769 80.887 116.001 82.0645 115.931C82.3706 115.912 82.718 115.957 82.9049 116.2C83.0918 116.442 82.9313 116.902 82.6273 116.862C81.8975 116.767 81.169 117.138 80.6569 117.664C80.1447 118.191 79.8106 118.86 79.4846 119.518C79.0161 119.136 79.058 118.397 79.3024 117.845Z" fill="#00160A"/>
<path fill-rule="evenodd" clip-rule="evenodd" d="M131.309 14.9346C131.907 14.9909 132.462 14.6453 132.958 14.3068C134.337 13.3659 135.823 12.083 135.732 10.4194C135.703 9.89101 135.512 9.39392 135.321 8.89626C135.239 8.68327 135.157 8.47018 135.088 8.25449C134.727 7.1281 134.713 5.94047 134.7 4.74978C134.689 3.77314 134.678 2.79444 134.475 1.8458C134.402 1.5056 134.256 1.11913 133.921 1.02239C133.732 0.967872 133.531 1.02325 133.342 1.07844L127.317 2.84107C126.183 3.17287 125.94 4.64098 125.908 5.81896L125.819 9.02409C125.461 9.06884 125.121 8.9289 124.781 8.78896C124.652 8.73555 124.522 8.68213 124.391 8.63899C123.104 8.21417 121.547 8.92847 121.033 10.1797C120.52 11.4309 121.127 13.0285 122.344 13.6257C123.56 14.2229 125.201 13.7286 125.882 12.5597C126.345 11.7659 126.372 10.8021 126.387 9.88421L126.416 8.16064C126.426 7.51649 127.151 7.15929 127.764 6.9545C129.651 6.32374 131.555 5.74481 133.474 5.2186C133.664 5.1666 133.9 5.12758 134.029 5.27511C134.099 5.35482 134.115 5.4671 134.127 5.57235L134.389 7.8289C134.428 8.16356 134.391 8.61359 134.06 8.68454C132.465 9.02717 131.047 10.1134 130.304 11.5619C129.987 12.1789 129.787 12.8877 129.928 13.5665C130.068 14.2454 130.617 14.8694 131.309 14.9346ZM133.746 2.02626C133.814 2.09442 133.833 2.19481 133.849 2.28896L134.032 3.34824C134.08 3.62804 134.126 3.92859 134.004 4.18542C133.812 4.59111 133.301 4.71317 132.858 4.80035C131.834 5.0017 130.823 5.26891 129.834 5.59975C129.007 5.87625 128.196 6.19685 127.386 6.51732C127.317 6.54442 127.249 6.57153 127.18 6.59861C126.988 6.67457 126.723 6.72933 126.612 6.55542C126.585 6.51186 126.573 6.46037 126.564 6.4098C126.37 5.38263 126.846 4.26219 127.722 3.68218C128.205 3.36272 128.775 3.20601 129.335 3.05413L133.267 1.98657C133.43 1.94245 133.628 1.90698 133.746 2.02626ZM125.812 10.4733C125.795 11.4661 125.555 12.6012 124.672 13.0817C123.971 13.4629 123.057 13.2797 122.421 12.8009C121.674 12.2386 121.264 11.119 121.81 10.3656C122.037 10.0517 122.392 9.84834 122.76 9.71527C123.604 9.40958 124.569 9.4403 125.391 9.79907C125.523 9.85633 125.657 9.92708 125.733 10.047C125.811 10.1714 125.814 10.3267 125.812 10.4733ZM20.5487 12.6916C20.6507 13.0049 21.0953 12.9929 21.4171 12.9177L24.3434 12.2333C24.2618 11.4736 24.1137 10.7209 23.9015 9.9867C23.839 9.77031 23.7635 9.54398 23.5933 9.39588C23.3296 9.16651 22.9351 9.19824 22.588 9.24326L18.0934 9.82626C17.7848 9.86628 17.3729 10.0662 17.4904 10.3534C18.5194 12.869 19.331 15.4729 19.9132 18.1268C20.0246 18.6344 20.0059 19.3473 19.4965 19.4587C18.0211 19.7812 16.7588 20.935 16.3093 22.3718C16.1711 22.8138 16.1083 23.3047 16.2872 23.732C16.3841 23.9636 16.5467 24.1627 16.7291 24.3358C17.6041 25.1664 18.9997 25.3974 20.0973 24.8932C21.1948 24.3891 21.9249 23.1816 21.8592 21.9792C21.8344 21.525 21.7075 21.0833 21.5815 20.6461L18.7083 10.6803L22.5125 10.3828C22.8946 10.4042 23.0561 10.9452 22.8542 11.2691C22.6523 11.5931 22.2513 11.7279 21.8761 11.8031C21.822 11.8139 21.7675 11.8241 21.7128 11.8344C21.3877 11.8954 21.0569 11.9575 20.7933 12.1512C20.6226 12.2767 20.4832 12.4906 20.5487 12.6916Z" fill="#FFB61D"/>
<path fill-rule="evenodd" clip-rule="evenodd" d="M78.6758 114.622C78.5616 114.77 78.3037 114.727 78.1937 114.576C78.0837 114.425 78.0936 114.216 78.1535 114.039C78.2608 113.723 78.5038 113.471 78.7584 113.253C79.3982 112.707 80.1599 112.303 80.9722 112.079C81.2924 111.99 81.6659 111.939 81.931 112.139C82.196 112.338 82.1533 112.871 81.8224 112.901C80.5962 113.01 79.4268 113.65 78.6758 114.622Z" fill="#00160A"/>
</svg>
