<svg width="125" height="150" viewBox="0 0 125 150" fill="none" xmlns="http://www.w3.org/2000/svg">
<path fill-rule="evenodd" clip-rule="evenodd" d="M35.3374 146.501C49.875 141.519 64.0842 131.446 89.0681 135.49C114.052 139.534 131.308 106.565 122.072 90.3913C117.971 85.1679 115.058 78.2832 122.072 67.2711C128.629 46.5022 116.017 33.4624 104.387 27.3219C92.7581 21.1815 64.4315 8.4243 40.6976 17.3659C16.9636 26.3075 7.33757 40.3528 5.7632 50.1017C4.18883 59.8505 10.4793 60.8038 11.6047 76.2236C12.7302 91.6435 -2.76907 117.061 3.53331 131.046C9.83568 145.031 20.7998 151.484 35.3374 146.501Z" fill="#3457DC"/>
<path fill-rule="evenodd" clip-rule="evenodd" d="M100.875 132.82C100.358 132.052 99.5038 131.597 98.7182 131.108C96.7047 129.853 94.9665 128.21 93.251 126.572C89.6768 123.158 86.1346 119.71 82.6252 116.23C81.7416 115.354 80.8549 114.469 80.1428 113.448C78.5118 111.11 76.4327 109.086 74.052 107.519C73.7125 107.295 73.3463 107.074 72.9402 107.057C72.457 107.037 72.015 107.309 71.6134 107.578C68.4921 109.672 65.7088 112.268 63.4037 115.236C63.119 115.603 62.8267 116.026 62.8798 116.487C62.9191 116.828 63.1414 117.116 63.3565 117.383C66.0607 120.742 68.9725 123.934 72.0699 126.935C72.9107 127.749 73.7675 128.552 74.5127 129.455C75.5424 130.702 76.3426 132.119 77.2673 133.446C81.5368 139.571 88.3594 143.561 95.5145 145.695C96.3976 145.959 97.3196 146.199 98.2311 146.063C100.261 145.761 101.646 143.3 100.85 141.408C100.28 140.054 100.706 138.513 101.069 137.089C101.432 135.665 101.695 134.04 100.875 132.82Z" fill="white"/>
<path fill-rule="evenodd" clip-rule="evenodd" d="M102.224 96.4149C102.965 94.7722 104.71 93.6345 106.512 93.6188C107.391 93.6112 108.251 93.8465 109.099 94.08C112.825 95.1067 116.551 96.1335 120.277 97.1602C121.247 97.4275 122.236 97.7032 123.071 98.2638C123.906 98.8244 124.577 99.7296 124.59 100.735C124.598 101.395 124.33 102.025 124.03 102.613C123.622 103.414 123.122 104.206 122.372 104.704C120.857 105.711 118.842 105.243 117.093 104.739C113.027 103.568 108.954 102.395 105.002 100.883C103.72 100.393 102.292 99.6902 101.965 98.3577C101.806 97.7113 101.95 97.0216 102.224 96.4149Z" fill="white"/>
<path fill-rule="evenodd" clip-rule="evenodd" d="M51.4288 129.541C53.0939 128.653 55.4368 129.477 56.1791 131.212C56.6653 132.349 56.5036 133.645 56.3332 134.869C55.8796 138.128 55.4261 141.387 54.9725 144.646C54.8795 145.314 54.7857 145.986 54.5859 146.631C54.2034 147.866 53.3942 149.003 52.2447 149.595C51.0951 150.186 49.5974 150.151 48.5823 149.35C47.8219 148.751 47.3995 147.802 47.2485 146.845C47.0976 145.889 47.1906 144.912 47.2962 143.949C47.6415 140.799 48.1175 137.664 48.7224 134.554C49.0979 132.623 49.6934 130.466 51.4288 129.541Z" fill="white"/>
<path fill-rule="evenodd" clip-rule="evenodd" d="M11.5821 64.681C11.3963 64.4361 11.7139 64.1279 11.9868 63.9865C15.1152 62.3661 18.2788 60.8137 21.4746 59.3306C22.3098 58.943 23.1609 58.556 24.071 58.4166C24.9812 58.2773 25.9735 58.4149 26.6934 58.9889C27.5466 59.6692 27.8684 60.8263 27.9214 61.9162C27.9652 62.8167 27.8317 63.7885 27.2281 64.4581C26.9508 64.7656 26.5933 64.9876 26.2396 65.203C22.9774 67.1898 19.596 68.9807 16.1196 70.5628C15.0679 71.0414 13.8548 71.5045 12.7937 71.0473C12.3955 70.8757 12.0578 70.5852 11.7746 70.2569C10.4618 68.735 10.3774 66.2898 11.5821 64.681Z" fill="white"/>
<path fill-rule="evenodd" clip-rule="evenodd" d="M42.7976 33.24C42.6023 34.7927 43.3193 36.4267 44.5942 37.3342C45.1961 37.7626 45.4177 38.5811 45.3222 39.3137C45.2266 40.0462 44.8674 40.7149 44.5008 41.3562C44.2258 41.8372 43.9301 42.328 43.4792 42.65C43.0283 42.9719 42.3792 43.0818 41.9247 42.7651C40.1808 41.5499 37.8179 42.0247 35.7579 42.5481C35.075 42.7217 34.4108 42.253 33.8614 41.8119C33.164 41.2521 32.4667 40.6923 31.7694 40.1325C31.5191 39.9315 31.2615 39.7219 31.1147 39.4365C30.9325 39.0824 30.9461 38.6618 30.9912 38.2662C31.2169 36.2856 32.1113 34.4471 33.0856 32.708C34.0921 30.9114 35.4999 28.9791 37.5536 28.8268C38.0892 28.787 38.6818 28.9064 39.021 29.3228C39.6233 30.0621 40.5532 30.433 41.3564 30.9471C42.1596 31.4612 42.9166 32.2938 42.7976 33.24Z" fill="white"/>
<path fill-rule="evenodd" clip-rule="evenodd" d="M30.697 37.5716C30.0919 38.1073 29.2152 38.2495 28.4166 38.1255C27.618 38.0016 26.8773 37.6425 26.1587 37.2729C22.381 35.3296 18.8205 32.9645 15.5648 30.2354C15.315 30.026 15.0623 29.809 14.8963 29.5285C14.7012 29.1989 14.6414 28.8082 14.6037 28.4271C14.2019 24.3608 16.0522 20.1436 19.3165 17.6858C20.6475 16.6837 22.5491 15.9796 23.9275 16.9156C27.0734 19.0518 30.1553 21.2822 33.1677 23.6028C34.4845 24.6172 35.8168 25.681 36.6761 27.1039C36.9715 27.5929 37.1841 28.2799 36.7841 28.6878C36.287 27.1466 28.6721 37.7067 30.697 37.5716Z" fill="white"/>
<path fill-rule="evenodd" clip-rule="evenodd" d="M8.15555 137.728C6.49499 138.329 4.25555 137.639 3.80558 135.931C3.05321 133.076 7.19988 131.616 8.74899 129.103C10.5876 126.119 8.38364 122.351 6.21798 119.596C4.68122 120.881 2.44292 122.201 0.860218 120.973C-1.05634 119.487 0.556403 116.38 2.51086 114.944C6.01628 112.368 10.4992 111.158 14.8246 111.621C15.9257 103.419 20.1388 95.6741 26.4258 90.2936C32.7128 84.9131 41.0158 81.9468 49.2889 82.1256C48.3641 66.0846 57.6641 49.9076 71.9917 42.6351C73.547 41.8456 75.2122 41.141 76.9563 41.1515C78.7005 41.1619 80.542 42.0498 81.2039 43.6635C81.8658 45.2772 80.8395 47.4918 79.1015 47.6392C78.2921 47.7078 71.2688 50.2081 71.9917 50.0501C81.2039 48.0357 103.254 64.1052 115.126 64.1052C116.191 64.1052 118.958 60.1752 119.707 59.6497C120.396 59.1672 122.292 58.8941 123.12 59.0365C125.281 59.4078 125.129 62.5976 124.2 64.5828C118.658 76.4234 106.242 83.8742 93.4785 86.7041C80.7151 89.5341 67.4488 88.4155 54.4247 87.2827C53.5236 96.5974 52.2508 106.727 45.5865 113.297C39.2505 119.543 29.2288 120.916 20.6514 118.553C20.6514 117.266 20.6514 117.266 20.7247 113.741C19.2369 121.058 16.2457 128.066 11.9913 134.202C10.9851 135.653 9.8161 137.127 8.15555 137.728Z" fill="white"/>
<path d="M98.0743 24.2568C97.5475 24.9427 97.0208 25.6287 96.4941 26.3146C96.2097 26.6849 95.6529 27.0739 95.3502 26.7185C94.8203 26.0961 93.8405 26.2715 93.0401 26.1059C92.5216 25.9987 92.0525 25.7314 91.5933 25.468C84.9544 21.6596 78.3155 17.8512 71.6766 14.0429C71.152 13.742 70.5838 13.3881 70.4099 12.8089C71.9256 10.1561 74.4843 6.50169 74.6304 6.59001C76.2228 7.73744 77.8439 8.84495 79.4917 9.91116C84.7194 13.2937 90.2063 16.2545 95.5441 19.4606C96.0635 19.7725 96.6329 20.1597 96.7296 20.7578C96.8041 21.2184 96.4663 22.359 96.7852 22.1382C96.9569 22.0193 97.1891 22.1261 97.3684 22.2333C97.9105 22.5572 98.5324 23.0505 98.401 23.6681C98.3539 23.8896 98.2122 24.0772 98.0743 24.2568Z" fill="white"/>
<path fill-rule="evenodd" clip-rule="evenodd" d="M70.4968 50.7059C70.8734 50.6442 71.2138 50.3922 71.3828 50.0501C74.1837 50.3268 76.9601 50.8502 79.6695 51.6123C85.8012 53.3369 91.5235 56.2599 97.0903 59.3556C102.792 62.5262 109.198 64.4222 115.707 64.8653C115.756 65.2211 115.456 65.55 115.114 65.6604C114.772 65.7709 114.402 65.7173 114.047 65.6627C108.651 64.8321 103.086 63.9409 98.4551 61.0493C93.7293 58.0985 88.7096 55.6187 83.4943 53.6587C82.149 53.1531 80.7902 52.6817 79.41 52.2809C76.507 51.4378 73.513 50.9087 70.4968 50.7059Z" fill="#00160A"/>
<path fill-rule="evenodd" clip-rule="evenodd" d="M102.224 96.4149C102.965 94.7722 104.71 93.6345 106.512 93.6188C107.391 93.6112 108.252 93.8465 109.099 94.08C112.825 95.1067 116.551 96.1335 120.278 97.1602C121.247 97.4275 122.236 97.7032 123.071 98.2638C123.907 98.8244 124.577 99.7296 124.59 100.735C124.599 101.395 124.33 102.025 124.031 102.613C123.622 103.414 123.122 104.206 122.373 104.704C120.857 105.711 118.842 105.243 117.094 104.739C113.027 103.568 108.955 102.395 105.002 100.883C103.72 100.393 102.292 99.6902 101.965 98.3577C101.806 97.7113 101.95 97.0216 102.224 96.4149ZM111.777 100.961C111.667 101.724 111.824 102.737 112.58 102.889C114.417 103.258 116.236 103.714 118.03 104.255C119.174 104.6 120.427 104.977 121.531 104.517C122.359 104.172 122.936 103.415 123.426 102.663C123.984 101.807 124.49 100.701 123.993 99.8074C123.661 99.2102 122.979 98.9137 122.341 98.6691C119.893 97.731 117.382 96.9561 114.832 96.3511C114.072 96.171 113.398 96.8636 112.997 97.5329C112.37 98.5803 111.953 99.7531 111.777 100.961Z" fill="#00160A"/>
<path fill-rule="evenodd" clip-rule="evenodd" d="M33.8102 24.9822C33.6214 24.8716 33.4175 24.7676 33.1987 24.7658C32.9629 24.7639 32.7441 24.8805 32.54 24.9986C28.6161 27.2679 25.7823 31.3365 25.0141 35.8038C26.6051 37.0637 28.6721 37.7067 30.697 37.5716C30.0919 38.1073 29.2152 38.2495 28.4166 38.1255C27.618 38.0016 26.8773 37.6425 26.1587 37.2729C22.381 35.3296 18.8205 32.9645 15.5648 30.2354C15.315 30.026 15.0623 29.809 14.8963 29.5285C14.7012 29.1989 14.6414 28.8082 14.6037 28.4271C14.2019 24.3608 16.0522 20.1436 19.3165 17.6858C20.6475 16.6837 22.5491 15.9796 23.9275 16.9156C27.0734 19.0518 30.1553 21.2822 33.1677 23.6028C34.4845 24.6172 35.8168 25.681 36.6761 27.1039C36.9715 27.5929 37.1841 28.2799 36.7841 28.6878C36.287 27.1466 35.2072 25.8011 33.8102 24.9822ZM17.1161 20.7661C16.6685 21.358 16.2255 21.9637 15.938 22.6478C15.6097 23.429 15.4971 24.281 15.3875 25.1212C15.19 26.6367 15.039 28.3359 15.9813 29.539C16.3185 29.9696 16.7693 30.2944 17.2137 30.6132C19.1996 32.0376 21.1854 33.462 23.1713 34.8865C23.4087 35.0567 23.6589 35.2323 23.9485 35.2709C24.238 35.3095 24.5753 35.1599 24.6432 34.8758C25.6771 30.5487 28.5469 26.692 32.3947 24.4588C32.6407 24.3161 32.4336 23.9425 32.2166 23.7587C30.2805 22.1189 28.2239 20.6213 26.0688 19.2822C25.9485 19.2074 25.8215 19.1311 25.6802 19.1222C25.4979 19.1108 25.3301 19.2129 25.1768 19.3122C23.2818 20.5391 21.4614 21.9329 20.0623 23.7046C18.6632 25.4763 17.7059 27.6645 17.7182 29.922C17.6168 30.1038 17.3646 29.8577 17.331 29.6523C17.0577 27.9797 17.7654 26.2998 18.6566 24.8584C20.2052 22.3537 22.3647 20.2297 24.8948 18.7229C24.1398 17.3031 22.1378 16.96 20.6503 17.571C19.1628 18.1819 18.0861 19.4835 17.1161 20.7661Z" fill="#00160A"/>
<path fill-rule="evenodd" clip-rule="evenodd" d="M56.1791 131.212C56.6653 132.349 56.5036 133.645 56.3332 134.869L54.9725 144.646C54.8795 145.314 54.7857 145.986 54.5859 146.631C54.2034 147.866 53.3942 149.003 52.2447 149.595C51.0951 150.186 49.5974 150.151 48.5823 149.35C47.8219 148.751 47.3995 147.802 47.2485 146.845C47.0976 145.889 47.1906 144.912 47.2962 143.949C47.6415 140.799 48.1175 137.664 48.7224 134.554L48.7614 134.357C49.1396 132.478 49.7523 130.435 51.4288 129.541C53.0939 128.653 55.4368 129.477 56.1791 131.212ZM48.9842 139.742L48.9846 139.737C48.8703 139.796 48.7528 139.86 48.6322 139.928C48.4954 140.792 48.3738 141.657 48.2745 142.526C48.1393 143.708 48.0455 144.896 48.0119 146.086L48.0083 146.246C48.0025 146.648 48.0267 147.059 48.2211 147.406C48.5159 147.933 49.13 148.189 49.7153 148.339C50.6492 148.577 51.7034 148.622 52.5151 148.102C53.4956 147.474 53.8453 146.227 54.0664 145.084C54.2703 144.03 54.4304 142.967 54.5461 141.899L54.5606 141.757C54.5917 141.422 54.5972 141.077 54.4483 140.78C54.3115 140.506 54.0603 140.308 53.8027 140.143C53.7202 140.09 53.6361 140.04 53.5507 139.992C52.8903 139.758 52.8903 139.397 51.5575 139.367C50.6834 139.348 49.791 139.397 48.9842 139.742Z" fill="#00160A"/>
<path fill-rule="evenodd" clip-rule="evenodd" d="M11.5821 64.681C11.3963 64.4361 11.7139 64.1279 11.9868 63.9865C15.1152 62.3661 18.2788 60.8137 21.4746 59.3306C22.3098 58.943 23.1609 58.556 24.071 58.4166C24.9812 58.2773 25.9735 58.4149 26.6934 58.9889C27.5466 59.6692 27.8684 60.8263 27.9214 61.9162C27.9652 62.8167 27.8317 63.7885 27.2281 64.4581C26.9508 64.7656 26.5933 64.9876 26.2396 65.203C22.9774 67.1898 19.596 68.9807 16.1196 70.5628C15.0679 71.0414 13.8548 71.5045 12.7937 71.0473C12.3955 70.8757 12.0578 70.5852 11.7746 70.2569C10.4618 68.735 10.3774 66.2898 11.5821 64.681ZM26.9767 60.3629C26.7423 59.7173 26.1301 59.2545 25.4646 59.0848C24.7991 58.915 24.089 59.0082 23.4366 59.2227C22.9462 59.3839 22.4807 59.6113 22.0169 59.8379C21.2144 60.2301 20.4118 60.6224 19.6093 61.0146C19.3639 61.1345 19.1079 61.2632 18.9504 61.4864C18.8388 61.6446 18.7871 61.8362 18.7375 62.0233C18.5453 62.7483 18.3517 63.5017 18.4841 64.24C18.6798 65.3315 19.5378 66.1654 20.3507 66.9196C20.5049 67.0627 20.6694 67.2114 20.8749 67.2565C21.1477 67.3165 21.4215 67.1809 21.668 67.0495C22.8152 66.4381 23.9624 65.8267 25.1097 65.2154C25.9937 64.7442 26.9464 64.1979 27.3029 63.2616C27.6568 62.3321 27.3163 61.2977 26.9767 60.3629Z" fill="#00160A"/>
<path fill-rule="evenodd" clip-rule="evenodd" d="M65.4048 1.91283C65.5232 1.73645 65.7673 1.68156 65.975 1.72608C66.1827 1.77059 66.3631 1.89465 66.5375 2.016C67.7671 2.87182 68.9967 3.72765 70.2263 4.58347C70.432 4.72666 70.655 4.89595 70.6965 5.14314C70.6066 5.34399 70.3038 5.24887 70.1219 5.125C68.5495 4.05428 66.9772 2.98355 65.4048 1.91283Z" fill="#00160A"/>
<path fill-rule="evenodd" clip-rule="evenodd" d="M80.6922 15.033C80.5043 15.0077 80.5531 14.7209 80.6537 14.5602C81.0302 13.9591 81.4066 13.3579 81.7831 12.7567C81.915 12.7813 81.8975 12.9762 81.8432 13.0989C81.5386 13.7865 81.1512 14.4374 80.6922 15.033Z" fill="#00160A"/>
<path fill-rule="evenodd" clip-rule="evenodd" d="M63.176 114.757C65.4524 112.123 68.0094 109.732 70.7895 107.637C71.4322 107.153 72.1333 106.667 72.9362 106.611C74.2107 106.524 75.2716 107.521 76.1543 108.444C78.4771 110.874 80.7999 113.305 83.1227 115.735C85.8622 118.601 88.6031 121.469 91.4795 124.198C94.5604 127.122 97.8073 129.893 101.387 132.179C102.483 132.879 102.568 134.468 102.213 135.72C101.858 136.972 101.188 138.168 101.199 139.469C101.204 140.019 101.333 140.56 101.417 141.104C101.662 142.684 101.503 144.397 100.592 145.71C99.6806 147.023 97.8937 147.794 96.4085 147.204C90.6336 144.907 84.7013 142.511 80.2231 138.201C79.1107 137.131 78.1043 135.956 77.0999 134.784C72.3804 129.274 67.661 123.765 62.9415 118.255C62.6324 117.894 62.3128 117.513 62.2127 117.048C62.0314 116.207 62.613 115.408 63.176 114.757M100.875 132.82C100.358 132.052 99.5039 131.597 98.7183 131.107C96.7047 129.853 94.9666 128.21 93.2511 126.572C89.6768 123.158 86.1347 119.71 82.6253 116.23C81.7416 115.353 80.8549 114.469 80.1428 113.448C78.5119 111.11 76.4328 109.086 74.0521 107.519C73.7126 107.295 73.3463 107.074 72.9402 107.057C72.4571 107.037 72.0151 107.309 71.6135 107.578C68.4922 109.671 65.7089 112.268 63.4037 115.236C63.119 115.603 62.8268 116.026 62.8799 116.487C62.9191 116.828 63.1414 117.116 63.3566 117.383C66.0607 120.742 68.9726 123.934 72.07 126.935C72.9107 127.749 73.7675 128.552 74.5128 129.454C75.5424 130.702 76.3427 132.119 77.2674 133.446C81.5368 139.571 88.3595 143.561 95.5145 145.695C96.3976 145.959 97.3197 146.199 98.2312 146.063C100.261 145.761 101.646 143.3 100.85 141.408C100.28 140.054 100.706 138.512 101.069 137.089C101.433 135.665 101.695 134.039 100.875 132.82Z" fill="#00160A"/>
<path fill-rule="evenodd" clip-rule="evenodd" d="M77.7085 10.6081C77.4441 11.0998 77.1797 11.5916 76.9153 12.0833C76.8119 11.3726 77.2833 10.7195 77.7286 10.1561C77.8547 10.2611 77.7862 10.4636 77.7085 10.6081L77.7085 10.6081Z" fill="#00160A"/>
<path fill-rule="evenodd" clip-rule="evenodd" d="M79.1617 12.2531C79.2168 12.7678 78.9933 13.304 78.5888 13.6271C78.5426 13.113 78.7639 12.5821 79.1617 12.2531L79.1617 12.2531Z" fill="#00160A"/>
<path fill-rule="evenodd" clip-rule="evenodd" d="M85.9829 15.3685C85.8978 15.9049 85.6267 16.4099 85.2267 16.7773C85.0616 16.929 84.8724 17.0591 84.6594 17.1291C84.5765 17.0229 84.6682 16.8726 84.7569 16.7712C85.1656 16.3036 85.5742 15.8361 85.9829 15.3685Z" fill="#00160A"/>
<path fill-rule="evenodd" clip-rule="evenodd" d="M82.9568 15.5465C83.0265 15.3136 83.1489 15.0966 83.3123 14.9165C83.4766 14.892 83.4592 15.1646 83.3669 15.3027C83.2187 15.5245 83.0704 15.7463 82.9221 15.9681C82.7638 15.889 82.7648 15.6179 82.9236 15.5398L82.9568 15.5465Z" fill="#00160A"/>
<path fill-rule="evenodd" clip-rule="evenodd" d="M90.3643 18.2796C90.2555 18.5502 90.0095 18.7615 89.7256 18.8283C89.9433 18.4801 90.161 18.1318 90.3787 17.7836C90.479 17.9297 90.473 18.1406 90.3645 18.2808L90.3643 18.2796Z" fill="#00160A"/>
<path fill-rule="evenodd" clip-rule="evenodd" d="M93.5075 20.5425C93.5442 20.408 93.6994 20.3185 93.8343 20.3542C93.7409 20.6225 93.6075 20.8768 93.44 21.1062C93.277 20.9631 93.3076 20.6598 93.4958 20.552L93.5075 20.5425Z" fill="#00160A"/>
<path fill-rule="evenodd" clip-rule="evenodd" d="M42.7973 33.24C42.602 34.7927 43.3191 36.4267 44.594 37.3342C45.1958 37.7626 45.4175 38.5811 45.3219 39.3137C45.2264 40.0462 44.8672 40.7149 44.5005 41.3562C44.2256 41.8372 43.9298 42.328 43.4789 42.65C43.0281 42.9719 42.379 43.0818 41.9244 42.7651C40.1806 41.5499 37.8177 42.0247 35.7576 42.5481C35.0748 42.7217 34.4106 42.253 33.8611 41.8119C33.1638 41.2521 32.4665 40.6923 31.7692 40.1325C31.5188 39.9315 31.2613 39.7219 31.1144 39.4365C30.9323 39.0824 30.9459 38.6618 30.991 38.2662C31.2167 36.2856 32.111 34.4471 33.0854 32.708C34.0919 30.9114 35.4997 28.9791 37.5534 28.8268C38.089 28.787 38.6815 28.9064 39.0207 29.3228C39.623 30.0621 40.553 30.433 41.3562 30.9471C42.1593 31.4612 42.9163 32.2938 42.7973 33.24ZM34.4161 33.0966C34.251 33.0089 34.0602 32.919 33.8846 32.9831C33.7698 33.025 33.6878 33.1249 33.6132 33.2216C32.707 34.3971 32.0377 35.7544 31.6569 37.1889C31.5382 37.636 31.4493 38.1215 31.6183 38.5521C31.7519 38.8925 32.0292 39.1526 32.298 39.4006C32.9044 39.9599 33.5107 40.5192 34.1171 41.0785C34.5346 41.4636 35.0514 41.8778 35.6056 41.7533C37.6172 41.3011 39.817 40.8685 41.6642 41.7843C42.4286 42.1633 43.395 41.7622 43.9293 41.097C44.4635 40.4318 44.6688 39.5689 44.8593 38.7372C43.3642 37.6006 42.2295 35.9972 41.6547 34.2094C41.5744 33.9595 41.1953 34.1156 41.0151 34.3063C40.0104 35.3691 39.0057 36.4319 38.001 37.4946C37.3348 38.1993 36.6168 39.0725 36.8163 40.0215C36.8707 40.2809 36.4298 40.3923 36.2603 40.1885C36.0909 39.9847 36.139 39.6817 36.216 39.4281C36.9326 37.0657 39.1803 35.5717 40.8102 33.7174C41.1283 33.3556 41.4425 32.9234 41.4016 32.4433C41.3586 31.939 40.9416 31.5589 40.5532 31.2343C39.8036 30.6077 39.0162 29.9673 38.0686 29.7297C37.1209 29.4921 35.9661 29.7821 35.5091 30.6457C36.9602 31.3152 38.3646 32.0858 39.7089 32.95C39.8994 33.0725 40.097 33.3568 39.9081 33.4818C38.7641 32.8436 37.6202 32.2054 36.4763 31.5672C36.1202 31.3685 35.7514 31.1657 35.3458 31.1238C34.9403 31.0819 34.4846 31.2434 34.3051 31.6095C34.0741 32.0805 34.3986 32.6595 34.8396 32.9436C35.2807 33.2277 35.8153 33.3189 36.301 33.517C37.0122 33.8071 37.6223 34.3386 38.0072 35.0033C36.8102 34.3677 35.6131 33.7322 34.4161 33.0966Z" fill="#00160A"/>
<path fill-rule="evenodd" clip-rule="evenodd" d="M91.3534 20.4925C91.3075 20.6538 91.1725 20.7866 91.0105 20.8299C91.0674 20.3678 91.3392 19.9367 91.7315 19.686C91.7405 19.9868 91.5823 20.2873 91.3292 20.4501L91.3534 20.4925Z" fill="#00160A"/>
<path fill-rule="evenodd" clip-rule="evenodd" d="M87.5572 18.0938C87.4856 18.2547 87.3224 18.3709 87.147 18.386C87.1862 18.0869 87.3079 17.7991 87.4953 17.5626C87.5686 17.4701 87.6618 17.3801 87.7792 17.3671C87.8965 17.354 88.0281 17.4602 87.9971 17.5741C87.8446 17.7395 87.6921 17.9048 87.5396 18.0702L87.5572 18.0938Z" fill="#00160A"/>
<path fill-rule="evenodd" clip-rule="evenodd" d="M63.1355 56.6254C63.1665 56.7105 63.0188 56.7838 62.9697 56.7077C62.941 56.628 62.9622 56.5326 63.0221 56.4727C63.0662 56.5169 63.1102 56.561 63.1543 56.6052L63.1355 56.6254Z" fill="#00160A"/>
<path fill-rule="evenodd" clip-rule="evenodd" d="M98.2822 26.4146C98.5078 26.2703 98.7395 26.1203 98.8925 25.9004C99.0455 25.6806 99.1019 25.371 98.9568 25.1458C98.6803 25.11 98.4236 24.9432 98.2785 24.7051C98.2722 24.5624 98.4173 24.4334 98.5583 24.4565C98.8306 24.5755 99.1141 24.703 99.2986 24.9359C99.4832 25.1687 99.5288 25.5408 99.3167 25.7489C101.38 27.1673 103.443 28.5858 105.506 30.0042C105.382 30.0953 105.208 30.0375 105.068 29.9738C103.225 29.1369 101.674 27.7863 99.9895 26.665C99.5985 26.4048 99.014 26.1799 98.7172 26.5438C98.3199 27.031 97.3949 26.8645 97.1924 26.2694C97.1545 26.047 97.5292 26.0345 97.7015 26.1799C97.8739 26.3254 98.0922 26.5361 98.2822 26.4146Z" fill="#00160A"/>
<path fill-rule="evenodd" clip-rule="evenodd" d="M94.7043 132.784C95.0734 132.304 95.4527 131.831 95.8419 131.367C95.9566 131.23 96.0744 131.092 96.2238 130.994C96.7932 130.621 97.5483 130.959 98.1172 131.332C98.7449 131.743 99.3432 132.2 99.9064 132.696C100.373 133.107 100.837 133.584 100.964 134.192C101.091 134.801 100.725 135.548 100.106 135.601C99.7258 136.29 99.1839 136.889 98.5363 137.335C98.1688 137.589 97.6658 137.433 97.2666 137.233C96.1228 136.66 95.1353 135.779 94.4362 134.708C94.3246 134.537 94.2184 134.356 94.1781 134.156C94.0783 133.66 94.3961 133.186 94.7043 132.784ZM98.4551 137.052C98.7956 136.567 99.1361 136.082 99.4766 135.598C99.149 135.21 98.5511 135.209 98.1222 134.938C97.8875 134.789 97.7127 134.565 97.5427 134.345C97.045 133.702 96.5472 133.058 96.0495 132.415C95.6344 132.849 95.2489 133.311 94.8968 133.798C94.8454 133.869 94.793 133.944 94.784 134.032C94.7736 134.131 94.8215 134.227 94.8702 134.314C95.6234 135.665 96.9538 136.681 98.4551 137.052ZM97.8214 131.657C97.5027 131.438 97.0102 131.243 96.7861 131.558C96.6501 131.75 96.7206 132.014 96.8108 132.231C97.3104 133.432 98.2828 134.428 99.4709 134.956C99.8121 135.108 100.33 135.151 100.446 134.796C100.489 134.664 100.453 134.521 100.408 134.39C99.9904 133.183 98.8743 132.38 97.8214 131.657Z" fill="#00160A"/>
<path fill-rule="evenodd" clip-rule="evenodd" d="M68.5082 115.815C68.3069 116.106 68.1056 116.398 67.9043 116.69C67.7135 116.966 67.5162 117.26 67.4914 117.595C67.4692 117.895 67.5887 118.185 67.7213 118.455C68.3042 119.639 69.1938 120.67 70.2792 121.421C69.9803 121.79 69.3823 121.573 69.0032 121.287C68.0011 120.531 67.2458 119.453 66.8769 118.253C66.7868 117.96 66.7186 117.653 66.752 117.348C66.8216 116.713 67.306 116.213 67.7633 115.767C68.3177 115.226 68.9593 114.649 69.7338 114.66C70.243 114.667 70.7116 114.935 71.1175 115.243C72.2882 116.13 73.1805 117.574 72.9207 119.02C72.8569 119.375 72.5902 119.795 72.2431 119.696C70.9809 119.336 69.8601 118.502 69.1535 117.396C69.0048 117.163 68.8623 116.907 68.6205 116.773C68.6134 116.451 68.5757 116.13 68.5082 115.815ZM69.6963 115.635C69.3673 115.842 69.3281 116.319 69.4527 116.687C69.7874 117.676 70.8953 118.147 71.5777 118.937C71.6661 119.039 71.7563 119.154 71.8865 119.191C72.0839 119.247 72.2917 119.089 72.3629 118.897C72.4341 118.704 72.4034 118.491 72.365 118.289C72.2545 117.709 72.084 117.13 71.7659 116.632C71.4477 116.134 70.9675 115.72 70.3943 115.575C70.1615 115.517 69.8995 115.507 69.6963 115.635Z" fill="#00160A"/>
<path fill-rule="evenodd" clip-rule="evenodd" d="M91.9331 125.23C92.1657 125.343 92.2887 125.597 92.3948 125.833C92.5546 126.188 92.7145 126.543 92.8743 126.899C92.9411 127.047 93.009 127.2 93.015 127.363C93.0239 127.606 92.8988 127.877 93.0357 128.078C92.3935 128.587 91.7907 129.145 91.2342 129.746C91.0826 129.909 90.9267 130.082 90.719 130.163C90.33 130.315 89.8976 130.104 89.556 129.863C88.752 129.297 88.0891 128.533 87.6429 127.657C87.4155 127.21 87.2768 126.59 87.6623 126.27C87.7866 126.166 87.8268 125.996 87.8726 125.842C88.0863 125.119 88.5843 124.485 89.2355 124.106C89.3298 124.051 89.4312 124 89.5403 123.996C89.6352 123.992 89.7273 124.025 89.8168 124.056C90.2929 124.225 90.769 124.394 91.2451 124.562C91.4444 124.633 91.685 124.767 91.6559 124.976C91.6373 125.11 91.8115 125.171 91.9331 125.23M88.3479 125.64C88.125 126.115 87.9015 126.64 88.0327 127.148C88.0838 127.346 88.1863 127.527 88.2988 127.697C88.7094 128.319 89.27 128.842 89.9196 129.208C90.3379 129.443 90.8987 129.601 91.2686 129.295C91.553 129.059 91.6449 128.603 91.9932 128.481C92.1782 128.416 92.1896 128.136 92.0627 127.986C91.9358 127.837 91.7339 127.781 91.5489 127.717C90.5169 127.357 89.6847 126.47 89.3916 125.417C89.3654 125.323 89.3415 125.224 89.2792 125.149C89.1446 124.987 88.8763 125.003 88.7054 125.126C88.5344 125.25 88.4375 125.449 88.3479 125.64M92.3897 127.351C92.6605 126.841 92.2352 126.251 91.8381 125.831C91.5957 125.574 91.3534 125.318 91.111 125.061C90.9273 124.867 90.7301 124.664 90.4721 124.594C90.214 124.524 89.8834 124.65 89.8327 124.913C89.8109 125.026 89.8433 125.142 89.8812 125.25C90.2585 126.331 91.2591 127.17 92.3897 127.351H92.3897Z" fill="#00160A"/>
<path fill-rule="evenodd" clip-rule="evenodd" d="M86.7502 130.994C87.5867 131.139 88.2292 131.792 88.811 132.41C89.0454 132.659 89.2827 132.912 89.4439 133.214C89.8249 133.928 89.721 134.821 89.3717 135.551C89.0223 136.28 88.4567 136.88 87.9 137.467C87.5704 137.814 87.1651 138.191 86.6895 138.134C86.5128 138.113 86.3494 138.032 86.1935 137.946C84.8013 137.18 83.6849 135.924 83.0875 134.452C83.009 134.258 82.938 134.051 82.968 133.844C82.9973 133.642 83.1198 133.466 83.2387 133.3C83.6688 132.696 84.1069 132.085 84.6874 131.624C85.2678 131.164 86.0203 130.867 86.7502 130.994M83.9764 133.562C83.7552 133.786 83.4964 134.027 83.4856 134.341C83.4807 134.484 83.5294 134.622 83.5855 134.753C84.107 135.973 85.2604 136.782 86.3582 137.525C86.4299 137.574 86.5061 137.624 86.5924 137.63C86.6879 137.636 86.7774 137.586 86.8577 137.534C87.2553 137.276 87.582 136.925 87.9042 136.578C88.0654 136.404 88.2343 136.215 88.2687 135.98C88.3032 135.746 88.1305 135.468 87.8943 135.489C87.3994 135.533 86.9216 135.279 86.5473 134.952C85.8888 134.377 85.4561 133.55 85.3591 132.681C85.3256 132.382 85.3178 132.047 85.1066 131.832C84.8496 132.476 84.4628 133.068 83.9764 133.562ZM86.5319 131.715C86.3234 131.699 86.099 131.732 85.9408 131.869C85.577 132.183 85.7744 132.779 86.0402 133.179C86.4435 133.786 86.9482 134.326 87.5269 134.77C87.7461 134.938 87.9833 135.096 88.2533 135.154C88.5233 135.212 88.8338 135.151 89.0128 134.941C89.1927 134.73 89.2024 134.414 89.112 134.152C89.0216 133.889 88.8466 133.666 88.6804 133.444C88.1113 132.683 87.4795 131.788 86.5319 131.715V131.715Z" fill="#00160A"/>
<path fill-rule="evenodd" clip-rule="evenodd" d="M78.6375 130.003C78.3271 130.24 77.8932 130.269 77.5189 130.157C77.1445 130.044 76.8199 129.808 76.524 129.553C75.8033 128.931 75.2045 128.169 74.7715 127.321C74.5408 126.869 74.3535 126.374 74.3904 125.868C74.4457 125.111 74.9834 124.485 75.5263 123.955C75.7813 123.706 76.0609 123.455 76.4086 123.376C76.7477 123.3 77.1012 123.4 77.4242 123.529C79.0605 124.182 80.3503 125.645 80.7932 127.35C80.5514 128.49 79.5628 129.295 78.6375 130.003ZM77.3808 129.278C77.7332 129.486 78.1544 129.664 78.5426 129.533C78.9267 129.404 79.1555 129.013 79.2999 128.634C78.8549 128.113 78.1866 127.841 77.6695 127.392C76.7508 126.593 76.4067 125.336 76.1081 124.155C75.6021 124.575 75.1982 125.117 74.9408 125.722C74.8668 125.896 74.8037 126.082 74.8239 126.27C74.8383 126.405 74.8949 126.532 74.9547 126.654C75.4869 127.738 76.3412 128.662 77.3808 129.278ZM76.5207 124.617C76.501 124.802 76.5923 124.979 76.6858 125.14C77.2539 126.116 78.0122 126.981 78.9056 127.672C79.1782 127.883 79.5531 128.083 79.8465 127.902C80.0214 127.794 80.102 127.579 80.1193 127.375C80.1657 126.824 79.8473 126.314 79.5216 125.867C79.0361 125.202 78.4727 124.546 77.7099 124.235C77.4856 124.143 77.2378 124.083 77.0014 124.136C76.7649 124.188 76.5464 124.377 76.5207 124.617V124.617Z" fill="#00160A"/>
<path fill-rule="evenodd" clip-rule="evenodd" d="M60.884 4.32843C60.5464 4.7732 60.2668 5.52919 60.765 5.78126C61.1557 5.97894 61.5786 5.59531 61.849 5.25087C62.9095 3.89984 63.97 2.54881 65.0305 1.19778C65.2892 1.65867 64.993 2.22284 64.704 2.66538C63.9021 3.89334 63.0539 5.16604 61.783 5.89806C63.9719 6.97482 66.0594 8.2575 68.009 9.72364C68.8433 9.40738 69.5362 8.73592 69.8785 7.91195C69.6412 8.13823 69.2541 7.96803 68.9791 7.78948C67.2465 6.66453 65.5502 5.48385 63.8935 4.2499C64.0101 3.93518 64.4834 4.07162 64.7604 4.26106C66.2956 5.31082 67.8308 6.36057 69.366 7.41033C69.7411 7.66687 70.2053 7.25139 70.4675 6.88015C71.0429 6.06547 71.6183 5.2508 72.1937 4.43612C72.4051 4.13678 72.6359 3.82186 72.9775 3.68908C73.5606 3.46243 74.187 3.84854 74.6932 4.21615C74.8416 4.32394 74.9975 4.44113 75.0637 4.61223C75.1781 4.9082 74.9836 5.22606 74.7983 5.48366C72.9956 7.98997 71.1928 10.4963 69.3901 13.0026C69.3082 13.1165 69.2225 13.2338 69.1007 13.3034C68.7895 13.4812 68.3971 13.277 68.1379 13.0294C67.7715 12.6795 67.2172 12.096 67.54 11.5092C67.8628 10.9224 67.8763 10.896 68.1478 10.4484C65.86 8.71092 63.476 6.92766 60.671 6.30722C60.1931 6.2015 59.9331 5.64057 59.9899 5.15439C60.0467 4.66821 60.334 4.24418 60.6129 3.84188C61.2751 2.88638 61.9374 1.93088 62.5997 0.975387C62.77 0.729649 62.9442 0.47978 63.181 0.297255C63.6119 -0.0348664 64.2354 -0.0949662 64.7219 0.148739C65.2083 0.392445 65.5334 0.92787 65.5254 1.47186C65.2318 1.18475 64.926 0.889678 64.5403 0.748748C64.1546 0.607817 63.6646 0.664722 63.4164 0.991798C62.5722 2.10401 61.7281 3.21622 60.884 4.32843ZM67.7872 11.7065C67.7872 12.2094 68.1771 12.4835 68.4736 12.5979C68.77 12.7124 69.1538 12.6669 69.3381 12.408C70.9638 10.1238 72.5896 7.83958 74.2153 5.55538C74.2862 5.45573 74.3585 5.35321 74.3898 5.23494C74.4566 4.98189 74.3152 4.71067 74.1104 4.54774C73.9056 4.3848 73.6476 4.30737 73.3965 4.23344C73.2834 4.20012 73.1582 4.16746 73.0511 4.21679C72.9787 4.25009 72.9273 4.31561 72.8789 4.37883C71.5192 6.15423 70.2223 7.97781 68.9917 9.845C68.9432 9.75074 68.1186 10.9435 67.7872 11.7065Z" fill="#00160A"/>
<path fill-rule="evenodd" clip-rule="evenodd" d="M43.577 38.706C43.5234 39.0548 43.2357 39.3108 43.0072 39.5797C42.5067 40.1687 42.2446 40.9181 41.9929 41.6488C41.6969 41.3263 41.6495 40.8346 41.7622 40.4116C41.8749 39.9886 42.1243 39.6172 42.3696 39.2546C42.5106 39.0461 42.658 38.8314 42.8721 38.6993C43.0863 38.5671 43.3873 38.5406 43.577 38.706L43.577 38.706Z" fill="#00160A"/>
<path fill-rule="evenodd" clip-rule="evenodd" d="M98.0743 24.2568C97.5475 24.9427 97.0208 25.6286 96.4941 26.3146C96.2097 26.6849 95.6529 27.0739 95.3502 26.7184C94.8203 26.0961 93.8405 26.2715 93.0401 26.1059C92.5216 25.9986 92.0525 25.7314 91.5933 25.468C84.9544 21.6596 78.3155 17.8512 71.6766 14.0429C71.152 13.7419 70.5838 13.3881 70.4099 12.8089C77.5116 16.6189 84.4943 20.6507 91.3444 24.8963C92.1846 25.4171 93.3433 25.921 94.0701 25.251C94.2787 25.0586 94.4073 24.7968 94.5312 24.5415C95.1698 23.225 95.8085 21.9085 96.4471 20.592C89.2754 15.98 81.4478 12.3842 74.637 7.25411C74.5006 7.15137 74.3543 7.03152 74.3269 6.86296C74.2996 6.6944 74.4843 6.50167 74.6304 6.58999C76.2228 7.73742 77.8439 8.84493 79.4917 9.91114C84.7194 13.2937 90.2063 16.2545 95.5441 19.4605C96.0635 19.7725 96.6329 20.1597 96.7296 20.7578C96.8041 21.2184 96.5705 21.6668 96.3444 22.0749C95.8794 22.9147 95.4144 23.7545 94.9494 24.5943C94.7856 24.8901 94.6162 25.2223 94.6959 25.5509C94.8203 26.0644 95.5129 26.2509 95.9976 26.0405C96.4823 25.8302 96.7988 25.3653 97.0886 24.9235C97.3535 24.5195 97.6185 24.1155 97.8835 23.7116C98.0962 23.3872 97.6125 23.0674 97.2437 22.9473C96.8748 22.8272 96.4663 22.359 96.7852 22.1382C96.9569 22.0193 97.1891 22.1261 97.3684 22.2333C97.9105 22.5572 98.5324 23.0504 98.401 23.6681C98.3539 23.8895 98.2122 24.0772 98.0743 24.2568Z" fill="#00160A"/>
<path fill-rule="evenodd" clip-rule="evenodd" d="M40.4117 32.2798C40.5223 32.3432 40.6408 32.4157 40.6855 32.5351C40.7303 32.6544 40.6448 32.8231 40.5186 32.8047C39.3496 32.1324 38.1805 31.4601 37.0115 30.7878C37.0327 30.6547 37.1808 30.5729 37.3154 30.5779C37.45 30.5829 37.5729 30.6517 37.6897 30.7187C38.597 31.2391 39.5043 31.7594 40.4117 32.2798Z" fill="#00160A"/>
<path fill-rule="evenodd" clip-rule="evenodd" d="M23.7161 25.7465C23.4703 25.114 23.8285 24.4147 24.2291 23.867C24.84 23.032 25.5791 22.291 26.4126 21.6779C26.62 21.5253 26.938 21.3904 27.1051 21.5863C27.3076 21.8236 26.9986 22.1479 26.7409 22.3237C25.653 23.066 24.8947 24.1882 24.1548 25.2777C24.0334 25.4565 23.905 25.6415 23.7161 25.7465L23.7161 25.7465Z" fill="#FFB61D"/>
<path fill-rule="evenodd" clip-rule="evenodd" d="M85.7659 121.367C84.967 121.936 84.168 122.504 83.3691 123.073C83.0789 123.279 82.7239 123.496 82.3898 123.372C81.1968 122.932 80.3614 121.839 79.8065 120.694C79.5893 120.247 79.4016 119.734 79.5545 119.261C79.6312 119.023 79.7869 118.82 79.9399 118.623C80.4124 118.013 80.9706 117.353 81.738 117.274C82.0783 117.238 82.4202 117.326 82.7401 117.447C83.7501 117.83 84.6218 118.567 85.1677 119.499C84.9556 119.418 84.7311 119.369 84.5044 119.356C83.9466 118.448 82.9366 117.835 81.8742 117.759C82.1591 118.422 82.5098 119.057 82.9194 119.652C83.2911 120.192 83.7521 120.726 84.3829 120.903C84.8616 121.037 85.452 120.982 85.7659 121.367ZM81.7177 122.204C82.1058 122.523 82.6053 122.79 83.0927 122.669C83.7715 122.5 84.1243 121.661 84.8065 121.506C83.8969 121.404 83.0955 120.824 82.527 120.107C81.9585 119.389 81.5895 118.538 81.227 117.697C81.1766 118.498 80.1422 119.011 80.1898 119.812C80.1985 119.959 80.2457 120.102 80.2989 120.24C80.5928 121.002 81.0867 121.686 81.7177 122.204H81.7177Z" fill="#00160A"/>
<path fill-rule="evenodd" clip-rule="evenodd" d="M35.9989 32.186C36.1798 32.0787 36.4085 32.1801 36.5919 32.2832C37.1548 32.5996 37.7068 32.9354 38.2466 33.2898C38.3533 33.3598 38.4744 33.4727 38.4281 33.5917C38.3689 33.7439 38.1412 33.6869 38.0005 33.6038C37.4369 33.2708 36.8732 32.9379 36.3095 32.6049C36.1496 32.5105 35.9664 32.3688 35.9989 32.186L35.9989 32.186Z" fill="#00160A"/>
<path fill-rule="evenodd" clip-rule="evenodd" d="M24.9892 27.4006C25.3203 26.4675 25.8338 25.5996 26.4921 24.8601C26.7231 24.6006 26.9714 24.3571 27.2195 24.1138C27.58 23.7604 27.9405 23.4069 28.3009 23.0535C28.4012 22.9551 28.5191 22.8497 28.6594 22.857C28.8381 22.8662 28.9575 23.0672 28.9432 23.2456C28.929 23.424 28.8204 23.5794 28.7107 23.7208C28.1508 24.4425 27.4662 25.0568 26.8601 25.74C26.254 26.4233 25.7138 27.2046 25.5305 28.0994C25.4814 28.3392 25.0857 28.3218 24.9627 28.1103C24.8396 27.8988 24.9074 27.6312 24.9892 27.4006Z" fill="#FFB61D"/>
<path fill-rule="evenodd" clip-rule="evenodd" d="M92.0861 140.193C92.2728 139.385 92.664 138.625 93.2132 138.003C93.4542 138.314 93.1774 138.743 92.9717 139.078C92.8055 139.35 92.6836 139.648 92.6122 139.958C92.5912 140.049 92.5746 140.145 92.5995 140.236C92.6203 140.312 92.6685 140.377 92.7157 140.44C93.528 141.525 94.4599 142.689 95.7891 142.954C96.0504 143.006 96.3202 142.868 96.4967 142.668C96.6731 142.468 96.7742 142.215 96.872 141.967C95.2535 141.324 94.0056 139.823 93.6689 138.114C93.6554 138.045 93.6435 137.972 93.6686 137.906C93.7035 137.815 93.799 137.764 93.8891 137.727C94.5312 137.462 95.2928 137.505 95.9009 137.841C96.1366 137.971 96.3476 138.141 96.5572 138.31C96.8821 138.572 97.207 138.834 97.5319 139.096C98.0664 139.527 98.6549 140.081 98.5812 140.763C98.5407 141.139 98.3013 141.458 98.0707 141.757C97.5675 142.409 97.0643 143.061 96.5611 143.714C94.8001 143.485 93.1626 142.438 92.216 140.936C92.1443 140.822 92.0751 140.702 92.0538 140.569C92.0337 140.444 92.0576 140.317 92.0861 140.193ZM95.8614 138.494C95.3078 138.174 94.6507 138.037 94.0153 138.108C94.4928 139.402 95.4304 140.52 96.6208 141.216C96.9122 141.387 97.268 141.535 97.5775 141.4C97.9761 141.227 98.068 140.696 98.3903 140.404C97.7684 139.923 97.1464 139.442 96.5244 138.961C96.3104 138.796 96.0957 138.63 95.8614 138.494Z" fill="#00160A"/>
<path fill-rule="evenodd" clip-rule="evenodd" d="M74.9632 110.153C75.8101 109.651 76.944 110.086 77.6122 110.809C78.2805 111.533 78.6343 112.483 79.1288 113.334C79.0349 113.373 78.9409 113.411 78.847 113.449C78.374 112.186 77.5503 111.056 76.4922 110.219C76.319 110.082 75.9946 109.996 75.9377 110.209C75.9214 110.27 75.9398 110.334 75.958 110.395C76.0645 110.748 76.171 111.1 76.2775 111.453C76.3429 111.669 76.4087 111.887 76.5071 112.091C76.8655 112.833 77.6039 113.303 78.3063 113.735C78.4682 113.834 78.3659 114.094 78.2126 114.207C78.0593 114.319 77.8542 114.404 77.8079 114.588C77.7454 113.834 76.9143 113.426 76.4639 112.818C76.3 112.597 76.1853 112.344 76.0718 112.093C75.8318 111.562 75.5917 111.031 75.3517 110.5C75.0552 110.785 74.7586 111.071 74.4621 111.356C74.3245 111.488 74.1826 111.627 74.1171 111.806C74.0243 112.06 74.1029 112.344 74.2059 112.594C74.3981 113.06 74.6755 113.491 75.0205 113.859C75.2311 114.083 75.4689 114.288 75.6307 114.55C75.7926 114.811 75.8669 115.155 75.7226 115.427C74.9344 114.774 74.2695 113.972 73.7733 113.077C73.5795 112.727 73.4071 112.345 73.426 111.946C73.4647 111.124 74.2559 110.572 74.9632 110.153V110.153Z" fill="#00160A"/>
<path fill-rule="evenodd" clip-rule="evenodd" d="M11.9913 134.202C10.9851 135.653 9.8161 137.127 8.15555 137.728C6.49499 138.329 4.25555 137.639 3.80558 135.931C3.05321 133.076 7.19988 131.617 8.74899 129.103C10.5876 126.119 8.38364 122.351 6.21798 119.596C4.68122 120.881 2.44292 122.201 0.860218 120.974C-1.05634 119.487 0.556403 116.38 2.51086 114.944C6.01628 112.368 10.4992 111.158 14.8246 111.621C15.9257 103.419 20.1388 95.6742 26.4258 90.2937C32.7128 84.9132 41.0158 81.9469 49.2889 82.1257C48.3641 66.0847 57.6641 49.9077 71.9917 42.6352C73.547 41.8457 75.2122 41.1411 76.9563 41.1515C78.7005 41.162 80.542 42.0498 81.2039 43.6636C81.8658 45.2773 80.8395 47.4919 79.1015 47.6393C72.4093 48.2069 66.0536 51.9352 62.2925 57.4995C71.1938 56.8142 79.6161 61.1776 87.4749 65.4136C90.6773 67.1397 93.8797 68.8659 97.0821 70.592C100.191 72.2679 103.641 73.9986 107.097 73.2674C113.487 71.915 115.434 63.5423 120.783 59.7935C121.472 59.311 122.292 58.8942 123.12 59.0366C125.281 59.4079 125.129 62.5977 124.2 64.5829C118.658 76.4235 106.242 83.8743 93.4785 86.7042C80.7151 89.5342 67.4488 88.4156 54.4247 87.2828C53.5236 96.5975 52.2508 106.727 45.5865 113.297C39.2505 119.543 29.2288 120.916 20.6514 118.553C25.2144 118.889 29.8358 119.148 34.3369 118.327C38.838 117.506 43.2674 115.497 46.1922 111.978C47.943 109.872 49.081 107.329 50.0367 104.762C52.1028 99.2136 53.4177 93.386 53.9341 87.488C52.3403 87.5961 50.7464 87.7042 49.1525 87.8122C49.5563 95.6666 47.6005 103.971 42.196 109.684C36.7916 115.398 27.5028 117.73 20.7247 113.741C19.2369 121.058 16.2457 128.066 11.9913 134.202ZM29.3396 115.044C31.9746 114.633 34.5507 113.846 36.9662 112.716C35.4698 111.522 34.0248 110.236 32.8851 108.698C30.4582 105.422 29.5388 101.175 26.8955 98.0715C23.7211 102.474 21.6404 107.658 20.8909 113.033C20.874 113.154 20.8601 113.287 20.9256 113.39C20.9937 113.498 21.1264 113.54 21.2485 113.575C23.2684 114.148 25.3215 114.604 27.394 114.94C26.2444 113.69 25.0864 112.428 24.212 110.972C23.3375 109.516 22.7559 107.833 22.8698 106.138C23.9468 108.958 25.4873 111.602 27.4105 113.929C27.9067 114.53 28.5701 115.165 29.3396 115.044ZM124.692 62.1521C125.288 60.6792 123.254 59.2727 121.736 59.7416C120.217 60.2106 119.276 61.6784 118.391 62.9983C113.428 70.4005 106.194 76.2578 97.9214 79.5733C85.1792 84.6802 70.941 83.663 57.2249 83.1033C50.7758 82.8401 44.1942 82.712 38.0093 84.5581C29.0043 87.2459 21.398 94.2594 17.99 103.017C16.0224 108.074 15.417 113.542 14.071 118.798C12.725 124.054 10.4267 129.381 6.04567 132.582C5.25093 133.163 4.32962 133.76 4.10864 134.719C3.78013 136.145 5.36663 137.439 6.82685 137.346C8.28707 137.252 9.5126 136.233 10.5147 135.167C20.7015 124.328 18.364 105.584 28.8801 95.0646C33.8387 90.1045 40.9584 87.846 47.9445 87.2267C54.9307 86.6074 61.9512 87.4518 68.9559 87.8038C79.8679 88.3522 91.0413 87.6584 101.234 83.7241C111.427 79.7897 120.59 72.2789 124.692 62.1521M58.7649 65.1484C58.5398 65.2853 58.405 65.5284 58.2832 65.7621C55.7102 70.6978 54.4379 76.3044 54.6287 81.8672C54.3526 81.8541 54.2445 81.5071 54.2157 81.2322C53.5363 74.7536 56.2295 68.4498 58.8639 62.4921C59.6619 60.6873 60.4658 58.8719 61.5669 57.2343C63.6185 54.1832 66.6029 51.8912 69.6428 49.8229C70.6546 49.1345 71.6934 48.4571 72.8526 48.0648C73.6239 47.8038 74.4324 47.6746 75.2365 47.5465C76.2377 47.3871 77.2389 47.2276 78.2401 47.0681C79.2797 46.9025 80.4704 46.6317 80.9444 45.6917C81.61 44.3714 80.2693 42.8337 78.8455 42.4353C77.0495 41.9327 75.1359 42.4475 73.3791 43.0731C70.6868 44.0318 68.0741 45.2666 65.7694 46.9565C63.9303 48.3052 62.3067 49.929 60.8169 51.6558C53.7892 59.8011 49.703 70.4319 49.466 81.1873C49.4605 81.4325 49.4596 81.6892 49.5718 81.9073C49.8406 82.4298 50.5639 82.4568 51.1503 82.42C55.3367 82.1571 59.5495 82.3182 63.7035 82.8999C61.6752 80.9861 59.613 79.0478 57.1431 77.7528C56.3612 77.3428 55.4915 76.9534 55.0608 76.1826C56.7588 76.4566 58.381 77.1868 59.7118 78.2764C60.784 79.1541 61.6589 80.2492 62.7019 81.1614C63.7449 82.0735 65.04 82.8204 66.4249 82.7769C70.3081 82.6549 74.1973 82.7248 78.0736 82.9862C74.9809 80.9282 72.4316 78.17 69.6346 75.7252C66.8377 73.2804 63.6313 71.0768 59.9619 70.4981C58.9377 70.3366 57.6494 70.1105 57.3928 69.1059C61.267 69.3124 64.899 71.1206 68.0297 73.412C71.1605 75.7034 73.8922 78.488 76.8402 81.0101C77.893 81.9107 79.1416 82.8306 80.5172 82.6654C84.8266 82.1478 89.1691 81.6231 93.2931 80.27C83.2604 76.7039 75.3372 68.1639 64.9462 65.8398C63.2275 65.4554 61.4743 65.2514 59.7249 65.048C59.399 65.0102 59.0453 64.9779 58.7649 65.1484ZM98.2866 71.9622C97.1435 71.4081 96.0005 70.854 94.8574 70.2999C93.2248 69.5084 91.5919 68.7169 89.983 67.8784C86.2363 65.9257 82.6215 63.7193 78.8075 61.9017C74.9934 60.084 70.9303 58.6492 66.7147 58.3669C65.6425 58.295 64.5529 58.2962 63.5173 58.0089C62.8694 57.8292 62.1645 58.1312 61.6867 58.6044C61.2089 59.0775 60.9132 59.6995 60.6269 60.3079C59.9885 61.6642 59.3502 63.0205 58.7119 64.3769C63.6307 63.9178 68.4691 65.7594 72.8899 67.9643C77.0779 70.053 81.0818 72.4945 84.977 75.0886C86.7447 76.2658 88.5038 77.4821 90.4482 78.3366C92.3926 79.191 94.5629 79.6696 96.6529 79.2919C100.235 78.6445 102.936 75.6687 106.341 74.3827C103.51 74.4618 100.835 73.1977 98.2866 71.9622ZM33.6575 92.4329C34.7285 95.0808 36.2469 97.5708 38.2776 99.5796C40.3083 101.588 42.8674 103.101 45.6613 103.695C46.3119 101.315 46.9345 98.9268 47.5289 96.5317C47.5852 96.3047 47.6102 96.0033 47.4017 95.8973C44.4163 94.3792 41.7296 92.2764 39.5386 89.7431C39.5575 89.4801 39.8734 89.3232 40.1325 89.3723C40.3916 89.4214 40.5991 89.6092 40.791 89.7901C42.9274 91.806 45.0289 94.002 47.7555 95.0944C48.3747 93.0602 48.7962 90.9658 49.0121 88.8503C49.0518 88.4611 48.9561 87.9182 48.5649 87.9168C40.8478 87.8879 33.1698 91.101 27.7733 96.6175C27.3992 97 27.3771 97.6223 27.5656 98.123C27.7542 98.6237 28.1145 99.0367 28.4475 99.4555C30.0709 101.497 31.1711 103.894 32.4537 106.165C33.7363 108.436 35.2781 110.662 37.4899 112.045C37.7179 112.187 37.9706 112.325 38.2387 112.304C38.4591 112.287 38.6561 112.166 38.841 112.045C41.4787 110.315 43.6828 107.93 45.1986 105.163C45.3629 104.864 45.4384 104.364 45.1042 104.291C43.0759 103.851 41.1501 102.945 39.5175 101.664C38.2564 100.674 37.1792 99.474 36.109 98.2804C35.4544 97.5502 34.7956 96.8144 34.2901 95.9741C33.6822 94.9634 33.3089 93.8125 33.2077 92.6374C33.3576 92.5692 33.5075 92.501 33.6575 92.4329ZM1.95307 120.849C3.04843 121.077 4.08903 120.334 4.94192 119.61C5.93117 118.77 6.90039 117.89 8.02469 117.242C9.14899 116.594 10.4646 116.188 11.7464 116.39C12.1815 116.459 12.6131 116.596 13.0523 116.564C13.4916 116.531 13.9583 116.263 14.0343 115.829C14.2147 114.799 14.3569 113.762 14.4605 112.721C14.4753 112.573 14.4838 112.406 14.3862 112.293C14.2917 112.183 14.132 112.165 13.9879 112.155C9.41204 111.86 4.74224 113.647 1.53233 116.922C1.04569 117.418 0.572608 117.985 0.459324 118.671C0.300832 119.63 1.00086 120.651 1.95307 120.849ZM11.1855 117.822C11.8004 118.53 12.4152 119.239 13.0301 119.948C13.1918 119.078 13.4477 118.226 13.7918 117.41C11.957 116.639 9.73367 116.876 8.10286 118.017C7.74799 118.266 7.42162 118.552 7.09606 118.838C6.96688 118.951 6.83237 119.072 6.77744 119.235C6.72251 119.398 6.78247 119.613 6.94561 119.667C7.5523 119.868 7.98271 120.402 8.3297 120.939C9.46853 122.701 10.0933 124.791 10.1082 126.889C10.981 125.052 11.8539 123.216 12.7267 121.38C12.3802 121.283 12.2911 120.847 12.2043 120.498C11.8962 119.258 10.902 118.326 9.95447 117.469C10.1024 117.272 10.4024 117.247 10.6285 117.345C10.8546 117.443 11.024 117.635 11.1855 117.822Z" fill="#00160A"/>
</svg>
