<svg width="158" height="152" viewBox="0 0 158 152" fill="none" xmlns="http://www.w3.org/2000/svg">
<path d="M138.52 112.616C137.581 130.915 122.92 147.497 104.948 151.064C86.9765 154.63 67.3074 145.143 58.5504 129.049C57.584 127.273 56.7234 125.41 55.863 123.548C53.6414 118.739 51.4207 113.932 47.3822 110.624C42.7713 106.847 36.8411 105.837 30.8513 104.817C27.0477 104.169 23.22 103.517 19.6907 102.15C11.1828 98.8542 4.57689 91.0467 2.73541 82.1106C-0.24874 67.6295 9.20359 52.8447 21.8086 45.1169C34.4136 37.389 49.5603 35.2368 64.2523 33.5783C69.8726 32.9439 74.4379 28.7086 77.6986 24.0871C78.9609 22.298 80.0966 20.418 81.2315 18.5394C83.0281 15.5654 84.8226 12.5949 87.1139 9.99388C96.8162 -1.0199 114.884 -2.87843 127.242 5.04113C139.6 12.9607 145.515 29.2456 142.228 43.5507C141.662 46.0146 140.859 48.4137 140.055 50.813L140.055 50.8133C139.286 53.11 138.517 55.4069 137.956 57.7609C136.757 62.7924 136.528 67.9991 136.391 73.1698C136.228 79.3346 136.19 85.5156 136.767 91.6555C136.968 93.7914 137.243 95.9246 137.519 98.0573C138.144 102.904 138.769 107.748 138.52 112.616Z" fill="#3457DC"/>
<path d="M64.2319 29.2079C70.9517 25.8649 76.3001 20.0592 79.6681 13.3519C80.1097 12.4724 80.5282 11.538 80.5127 10.5541C80.4972 9.5701 79.9247 8.52787 78.9729 8.27798C77.6088 7.91987 76.4358 9.2277 75.5852 10.3526C69.7418 18.0799 61.2369 24.1462 51.6397 25.4692C47.9538 25.9773 44.2115 25.7865 40.4957 25.5946L34.6917 25.295C30.0171 25.0536 25.2775 24.8171 20.7018 25.8035C16.126 26.7899 11.655 29.1622 9.14183 33.1112C8.34189 34.3682 7.74272 35.8494 7.96405 37.3228C8.19086 38.8327 9.26411 40.1142 10.5569 40.9265C11.8497 41.7388 13.3516 42.1452 14.8401 42.4852C15.9299 42.7342 17.043 42.9547 18.1581 42.8762C19.9812 42.7478 21.6356 41.8413 23.2454 40.9592C23.3526 40.9004 23.4597 40.8418 23.5666 40.7835C26.3801 39.2486 29.2955 37.8854 32.3362 36.8726C36.7704 35.3956 41.433 34.6728 46.084 33.9518C52.3497 32.9805 58.5946 32.0124 64.2319 29.2079Z" fill="#3457DC"/>
<path d="M29.2867 118.267L29.2906 118.267C29.5645 118.278 29.8382 118.289 30.1112 118.303C34.4293 118.528 38.7024 119.587 42.6259 121.404C44.1218 122.097 45.6369 122.964 46.4771 124.382C47.5167 126.137 48.7646 127.769 50.1863 129.232C50.7378 129.799 51.3351 130.354 52.0714 130.644C52.8078 130.934 53.717 130.907 54.3145 130.389C55.0403 129.758 55.0873 128.639 54.8637 127.704C54.4971 126.171 53.583 124.836 52.6783 123.546C49.7093 119.314 46.5836 115.082 42.452 111.975C38.3203 108.867 32.9883 106.985 27.9311 108.059C26.1849 108.429 24.4543 109.185 23.2965 110.544C22.1388 111.902 21.6814 113.947 22.5151 115.526C23.1766 116.778 24.5176 117.548 25.8905 117.896C26.997 118.175 28.143 118.221 29.2864 118.267H29.2867Z" fill="#3457DC"/>
<path d="M146.085 54.609C144.931 54.1738 143.624 54.6994 142.646 55.4526C140.717 56.9403 139.575 59.2674 139.056 61.648C138.536 64.0285 138.578 66.491 138.623 68.9272L139.004 89.8594C139.032 91.3887 139.1 93.0369 140.04 94.2431C140.335 94.6206 140.738 94.9519 141.214 95.0005C141.791 95.0594 142.325 94.695 142.742 94.2915C145.021 92.0847 145.32 88.6085 145.593 85.44L145.603 85.3249C146.004 80.6739 146.698 76.0482 147.68 71.4844C147.956 70.201 148.259 68.9094 148.837 67.7305C150.648 64.0348 150.215 59.3434 147.758 56.0416C147.313 55.4444 146.782 54.8717 146.085 54.609Z" fill="#3457DC"/>
<path d="M104.737 82.9424C105.955 83.2779 107.046 84.2921 107.166 85.5498C107.397 85.0495 107.904 84.6879 108.453 84.633L107.657 85.4789L108.664 85.499L107.278 86.273C108.137 87.862 107.998 89.822 107.447 91.5425C107.11 92.5955 106.623 93.6503 106.718 94.7519C106.811 95.8354 107.773 96.9423 108.825 96.7205L108.878 96.7083C110.142 96.389 111.526 96.5738 112.662 97.2138C114.294 98.1333 115.284 99.8408 116.406 101.341C117.396 102.666 118.568 103.897 120.033 104.664C121.498 105.432 123.294 105.685 124.821 105.048C125.578 104.732 126.256 104.209 127.059 104.042C127.863 103.876 128.686 104.322 128.981 105.084C129.112 105.421 128.831 106.669 128.116 108.126C128.232 108.093 128.354 108.072 128.481 108.063C132.24 107.819 136.033 107.002 139.267 105.072C140.296 104.459 141.256 103.74 142.21 103.016L142.765 102.592L143.102 102.333C145.194 100.712 147.259 98.9053 148.12 96.44L148.165 96.3073L148.26 96.0159C148.444 95.4644 148.677 94.8941 149.21 94.7228C149.947 94.4857 150.618 95.1992 151.066 95.8306L154.294 100.382C154.377 100.499 154.462 100.62 154.494 100.76C154.634 101.378 153.71 101.691 153.116 101.471C152.034 101.072 151.165 99.8817 150.03 100.086C149.232 100.229 148.756 101.002 148.361 101.73L148.262 101.915C145.873 106.388 141.853 109.966 137.133 111.821C135.917 112.299 134.66 112.665 133.405 113.031L130.869 113.769L131.316 113.849C135.099 114.512 139.135 114.917 142.571 113.241C144.858 112.125 146.62 110.203 148.282 108.261L148.885 107.552L149.134 107.256C150.154 106.033 151.123 104.723 151.421 103.172C151.535 102.576 152.287 102.292 152.872 102.453C153.456 102.615 153.901 103.077 154.315 103.52L157.454 106.879C157.701 107.144 157.961 107.436 157.997 107.796C158.034 108.157 157.711 108.565 157.363 108.464L153.96 107.475C153.641 107.382 153.287 107.292 152.986 107.434C152.756 107.543 152.607 107.766 152.476 107.986L148.817 114.165C147.787 115.904 145.878 116.913 144.002 117.668C139.503 119.477 134.621 120.327 129.776 120.145C129.249 120.125 128.723 120.093 128.202 120.011C126.248 119.703 124.483 118.709 122.773 117.704C123.073 118.8 122.806 119.724 121.026 119.795C119.45 119.857 115.588 113.366 114.387 113.029C107.832 111.191 106.756 107.562 104.65 105.084C104.65 105.084 100.394 105.634 97.5844 105.048C90.9981 103.675 86.5719 99.4509 84.9762 99.182C83.3805 98.9131 82.3282 99.9358 81.8354 99.3155L81.8354 98.8659C81.9117 98.7424 82.6743 98.0298 84.8495 98.4926C87.887 99.1389 92.7426 101.578 96.4508 102.034C100.343 102.512 103.641 101.879 103.623 101.773C103.586 101.556 104.564 100.635 103.782 100.17C103.001 99.705 91.6514 95.1499 89.1846 91.3539L89.155 91.3066C88.7309 90.6026 88.4087 88.8531 89.2621 89.654L89.501 89.2303C90.42 90.0969 93.4371 92.0778 96.5713 94.0306C99.8849 96.0952 104.564 97.4175 104.65 97.3596C106.557 96.0697 104.866 95.136 104.55 94.8618C103.811 94.2201 102.83 93.8703 102.194 93.1271C100.667 91.3444 101.757 88.1555 100.012 86.586C99.7476 86.3485 99.4273 86.1616 99.236 85.8624C98.9081 85.3497 99.0693 84.6363 99.4663 84.1751C99.8634 83.7139 100.444 83.4564 101.019 83.2558C102.211 82.8394 103.519 82.6069 104.737 82.9424Z" fill="white"/>
<circle cx="105.76" cy="92.0583" r="0.450343" fill="#FFB61D"/>
<ellipse cx="103.015" cy="92.0583" rx="0.33398" ry="0.450343" fill="#FFB61D"/>
<path d="M86.6945 94.2408C82.5075 93.1581 78.1069 92.9082 73.8242 93.51C74.1481 91.9094 74.5537 90.3254 75.039 88.7661C73.6455 89.2158 72.0004 87.9387 72.0905 86.4772C72.1806 85.0157 73.9701 83.9504 75.2978 84.5679C75.7539 83.5155 75.7828 82.2852 75.3767 81.2125C75.1819 80.6979 75.9584 80.401 76.5087 80.4009L79.549 80.4003C79.974 80.4002 80.5665 80.2028 80.461 79.7911C80.2106 78.8149 80.8819 77.6995 81.8617 77.4637C82.8236 77.2321 83.9066 77.8909 84.1551 78.8454L84.1681 78.8987C84.3988 79.9239 85.6975 80.2495 86.7482 80.2293L87.2712 80.2168C88.18 80.1977 89.127 80.2272 89.7353 80.8629C90.4627 81.6231 90.3002 82.8338 90.0604 83.8658L90.0443 83.9344C89.7046 85.367 89.3424 86.7943 88.9578 88.2155C89.7046 94.2259 87.8552 94.5409 86.6945 94.2408Z" fill="white"/>
<path d="M51.7724 89.2224C51.3285 86.3336 51.3291 83.3769 51.7742 80.4883L51.7967 80.3485C51.9072 79.6929 52.1011 79.0009 52.6489 78.6397C53.059 78.3693 53.5769 78.3491 54.0708 78.3489L57.8526 78.3593C58.0247 78.3598 58.2133 78.3662 58.3428 78.4797C58.4722 78.5932 58.4687 78.8538 58.3028 78.8997C57.9066 79.0094 57.679 79.4663 57.7271 79.8745C57.7752 80.2827 58.0406 80.6361 58.3523 80.9041C59.0957 81.5431 60.2511 81.7701 61.0739 81.2373C61.8968 80.7045 62.0903 79.332 61.3106 78.7379C63.0771 78.702 64.8444 78.7075 66.6106 78.7545L67.2729 78.7741C67.487 78.781 67.7237 78.7981 67.8732 78.9514C67.9855 79.0665 68.0224 79.2338 68.0478 79.3926C68.2434 80.6153 68.0295 81.9 67.4483 82.9934C67.3558 83.1675 67.1414 83.3595 66.9954 83.2269C66.3748 82.6635 65.331 82.7402 64.696 83.2873C64.061 83.8344 63.8155 84.743 63.9277 85.5736C64.0358 86.3731 64.6185 87.227 65.4242 87.1867C66.0588 87.1549 66.7644 86.5999 67.244 87.0168L66.4361 90.6265C66.2926 91.2677 66.0349 92.0284 65.3923 92.1659C61.6828 92.9593 57.7933 92.8994 54.11 91.9919L53.9313 91.9467C53.4844 91.8297 53.0391 91.6782 52.6903 91.3797C52.0833 90.8601 51.8938 90.0121 51.7724 89.2224Z" fill="white"/>
<path d="M80.8749 60.8963L89.8392 61.0765L89.9857 61.0801C90.2549 61.0885 90.5261 61.1122 90.7686 61.2253C91.3165 61.481 91.5678 62.1115 91.7344 62.6928C92.6238 65.7957 92.514 69.1768 91.4251 72.2155L91.3794 72.34C91.2376 72.7138 91.0523 73.0866 90.7177 73.2969C90.4422 73.47 90.1064 73.5062 89.7797 73.5237L89.7098 73.5272C88.3769 73.5904 87.0393 73.5563 85.7112 73.4253C86.4029 72.9995 86.5775 71.9629 86.1383 71.2797C85.6992 70.5965 84.7713 70.3112 83.99 70.5331C83.5138 70.6684 83.0703 70.9938 82.8979 71.4579C82.7255 71.9221 82.8922 72.5181 83.3323 72.7447C83.6367 72.9015 83.5842 73.395 83.3177 73.61C83.0512 73.8249 82.6808 73.8401 82.3384 73.8457L77.8408 73.9186C77.5028 73.9241 77.1474 73.9255 76.8506 73.7636C76.4297 73.534 76.2361 73.0393 76.1176 72.5747C75.8314 71.4538 75.7928 70.2704 76.0051 69.1332C76.2608 70.0313 77.3675 70.5767 78.2355 70.2323C79.1034 69.888 79.5352 68.7321 79.1056 67.903C78.676 67.074 77.4827 66.7602 76.7008 67.2707L76.6683 66.9809C76.5561 65.9653 76.469 64.9363 76.664 63.936C76.8777 62.8403 77.4871 61.7643 78.4861 61.2664C79.2148 60.9033 80.0562 60.8833 80.8749 60.8963Z" fill="white"/>
<path d="M53.6872 70.9799C52.4249 70.9849 51.1624 70.933 49.9047 70.8244L49.7826 70.8131C49.3322 70.7682 48.8599 70.678 48.5648 70.3431C48.1665 69.8911 48.2638 69.2095 48.3834 68.6132L48.3954 68.5539C48.9299 65.9374 49.1399 63.2548 49.0193 60.5871L48.9969 60.1272C48.9633 59.3001 49.0162 58.3622 49.7033 57.9368C49.9123 57.8074 50.1549 57.7473 50.3969 57.6985L50.4774 57.6826C54.8764 56.8257 59.4568 56.9126 63.8201 57.9356C64.3947 58.0703 64.5546 58.8487 64.364 59.4072C64.1735 59.9657 63.7644 60.4352 63.6113 61.0051C63.4582 61.5751 63.7388 62.3466 64.3286 62.3651C65.5562 62.4035 66.5967 63.6507 66.4317 64.8677C66.2667 66.0848 64.9513 67.0078 63.7471 66.7661C63.4645 66.7094 63.3646 67.1271 63.3956 67.4136L63.7392 70.5906C63.7953 71.1092 63.0595 71.2729 62.5394 71.2325L59.5057 70.9963C59.0291 70.9592 58.3899 71.0414 58.3165 71.5139C58.1336 72.69 56.9276 73.6085 55.7452 73.4721C54.5627 73.3357 53.5975 72.1668 53.6872 70.9799Z" fill="white"/>
<path fill-rule="evenodd" clip-rule="evenodd" d="M45.521 90.5321C45.8577 90.614 46.3395 90.7594 46.3128 91.0776C45.7741 97.493 43.4553 96.3124 41.3876 98.1518C40.8413 98.6379 40.5148 99.7875 40.2801 99.8139C41.1503 100.216 42.4131 101.828 44.5864 101.902C50.6418 102.107 52.8458 97.6886 52.8458 97.6886C52.9883 96.2719 52.2697 93.7204 53.1666 94.4349C53.7856 94.928 53.6633 92.5255 54.5089 92.7647C54.7631 92.8366 54.3192 94.4341 54.5089 94.5296C54.6138 94.5824 54.7688 94.1468 55.0393 93.8004C55.2648 93.5116 55.6128 93.2975 55.6847 93.3607C55.7335 93.4035 55.6867 93.8164 55.4837 94.1657C55.1982 94.6567 54.7209 95.1292 54.7876 95.208C54.8612 95.2947 56.1199 94.1233 56.1967 94.2257C56.7059 94.9051 53.48 102.725 48.0363 104.201L47.6053 104.317C44.432 105.16 43.0994 105.275 40.1593 104.201C38.7652 103.692 37.8982 108.448 37.1233 110.031C36.634 111.031 34.2575 113.48 33.1723 112.739C31.7406 111.762 30.5732 109.943 29.3548 109.023L29.2765 108.965C28.4461 108.37 26.5681 107.466 23.6423 106.255L23.7741 106.194C24.3845 105.917 25.9568 105.238 27.1641 104.201C28.8796 102.729 29.8086 99.5651 31.0045 97.859C32.1852 96.1745 33.7696 96.4226 32.8134 96.1245C32.8134 96.1245 30.3903 94.8408 29.2765 94.7233C25.5565 94.3307 20.707 96.0888 19.1557 97.2217C17.0271 98.7763 19.142 101.064 16.2007 99.9427C15.2205 99.569 17.8478 94.7277 21.4719 92.7647C26.5093 90.0363 31.2724 89.2857 36.0477 93.6291C37.9912 95.3967 38.1835 96.9703 38.7047 98.17L38.598 97.8759C44.3588 97.4962 35.7273 91.7287 42.9333 90.2853C43.6901 90.1338 44.4844 90.2915 45.243 90.4669L45.521 90.5321Z" fill="white"/>
<circle cx="41.8114" cy="94.5353" r="0.450343" fill="#FFB61D"/>
<circle cx="44.2882" cy="95.4359" r="0.450343" fill="#FFB61D"/>
<path fill-rule="evenodd" clip-rule="evenodd" d="M18.1443 112C23.0257 115.38 16.7801 110.711 22.1136 116.275C23.1906 117.399 28.6438 110.982 29.2064 114.785C29.4116 116.172 28.9641 117.616 29.2369 118.991C29.4914 120.275 35.0736 119.504 35.5048 118.943C37.0678 116.908 32.2035 111.681 31.1835 110.845C25.4919 106.183 23.6137 106.506 18.2956 111.33L18.1443 112Z" fill="white"/>
<path fill-rule="evenodd" clip-rule="evenodd" d="M145.129 27.5139C146.086 27.6284 146.976 27.7348 146.976 26.6189C146.976 26.3534 143.754 24.021 142.799 24.9192C141.571 26.0742 140.596 27.3988 139.652 28.6817C137.669 31.3751 135.821 33.8852 132.053 34.2592L132.007 34.2642C130.546 34.4406 133.268 35.737 136.324 34.2592C138.425 33.2431 141.22 30.0286 142.548 28.5018C142.896 28.1023 143.143 27.8183 143.25 27.7196L143.278 27.6958C143.731 27.3468 144.447 27.4324 145.129 27.5139ZM149.674 30.5341L152.862 33.0648C153.484 33.5578 152.756 34.6203 151.965 34.6712C151.506 34.7008 151.065 34.5595 150.623 34.4175C150.302 34.3147 149.981 34.2116 149.65 34.1725C147.778 33.9511 146.351 35.7144 145.189 37.1996C144.128 38.5568 142.965 39.8351 141.715 41.0206L141.546 41.1794L141.37 41.3416C140.364 42.2559 139.236 43.0841 137.909 43.3228C135.956 43.6741 134.015 42.6738 132.419 41.4933C132.03 41.2053 131.648 40.9031 131.265 40.6008L131.265 40.6008L131.265 40.6007L131.265 40.6007L131.265 40.6006L131.265 40.6006C130.08 39.664 128.893 38.7257 127.487 38.1999C126.269 38.8646 125.129 39.6677 124.088 40.5838L124.135 40.5473C125.882 42.2989 127.104 44.5683 127.605 46.9915L127.271 46.9328L127.05 46.8952C124.985 46.5489 122.773 46.344 121.028 47.4491C120.413 47.8386 119.865 48.3824 119.322 48.9201L119.322 48.9201L119.322 48.9201L119.322 48.9202L119.322 48.9202L119.322 48.9202C118.945 49.2945 118.57 49.6659 118.178 49.9802C118.278 50.0394 118.38 50.1009 118.484 50.1647C120.415 50.9546 122.462 51.4605 124.539 51.6611C124.856 51.6918 125.177 51.7162 125.499 51.7406C126.988 51.8537 128.497 51.9683 129.77 52.7162L130.217 52.9831C130.933 53.4072 131.731 53.8109 132.331 53.3198C132.504 53.1786 132.616 52.985 132.73 52.7904L132.73 52.7904L132.73 52.7904L132.73 52.7904L132.73 52.7903L132.73 52.7903C132.799 52.672 132.868 52.5534 132.951 52.446C133.171 52.162 133.606 51.9622 133.878 52.1954L133.989 53.0631C134.069 52.5049 134.608 52.0512 135.171 52.0668C135.735 52.0825 136.248 52.5655 136.297 53.1273C136.386 54.147 135.23 54.7573 134.248 55.082L129.162 56.7212C127.345 57.3068 125.33 57.0034 123.578 56.2442C121.947 55.5373 120.507 54.4615 119.132 53.3308L118.828 53.0788C117.789 52.2145 116.385 51.2757 115.207 51.9367C117.254 52.0612 118.747 53.8256 119.969 55.4944L120.086 55.6555C120.284 55.9281 120.487 56.2149 120.536 56.548C120.673 57.4806 119.614 58.0996 118.719 58.396C119.473 58.7999 119.099 59.9725 118.515 60.5972C117.665 61.506 116.552 62.16 115.351 62.4839L115.242 62.8632C115.235 62.8887 115.231 62.9021 115.232 62.9024C115.799 62.8631 116.148 63.6239 115.917 64.1425C115.686 64.6612 115.117 64.9373 114.571 65.0918C112.771 65.6008 110.737 65.1993 109.266 64.0442L108.98 64.1933C107.737 64.8367 106.451 65.435 105.069 65.6379C103.581 65.8563 101.943 65.5497 100.868 64.4986L100.939 64.6535C101.091 64.9907 101.227 65.3398 101.232 65.7074C101.238 66.1315 101.019 66.5894 100.617 66.7255C99.9539 66.9501 99.3747 66.2415 99.0306 65.6319C98.8421 66.1013 99.0365 66.6294 99.2255 67.1428C99.4411 67.7285 99.6497 68.2952 99.2749 68.7339C98.8846 69.1907 98.1443 69.0737 97.6073 68.8043C95.5955 67.7952 94.6504 65.2552 95.0862 63.0471C95.522 60.8391 97.1097 58.99 99.0003 57.7688C97.7167 56.828 96.7777 55.4272 96.3952 53.8824C96.4971 54.0139 96.9522 53.591 97.5986 52.9901C98.7812 51.891 100.604 50.1966 102.077 50.2124C102.359 50.2154 102.815 50.4337 103.261 50.6476C103.584 50.8024 103.902 50.9549 104.147 51.0216C104.167 50.9956 104.191 50.972 104.22 50.9514L103.941 50.7512C103.38 50.353 102.795 49.9785 102.131 49.8135C101.357 49.621 100.44 49.7793 99.9466 50.4065C98.7402 51.9401 97.2118 53.2191 95.4895 54.1361L96.5104 56.021C96.0885 56.2225 95.5628 56.1856 95.1712 55.9314L95.123 55.8986L95.1532 55.9363C95.7412 56.7033 95.2245 58.0405 94.262 58.1921C93.2851 58.602 92.3 57.3777 92.3962 56.3227C92.4636 55.5832 92.8298 54.9281 93.1968 54.2716C93.3534 53.9914 93.5102 53.7109 93.6439 53.4236C94.0956 52.4531 94.2942 51.375 94.4915 50.3037C94.762 48.8354 95.0301 47.38 95.9443 46.2323C96.5845 45.4284 97.4812 44.8695 98.4009 44.4111C102.051 42.5918 106.371 42.1568 110.31 43.2117C110.981 40.8077 112.311 38.5912 114.117 36.8683L114.225 36.7673C114.916 36.1308 115.775 35.5622 116.691 35.6666L116.764 35.6762C117.674 35.815 118.465 35.1129 119.126 34.463L119.33 34.2628L119.49 34.1089C120.802 32.8555 122.326 31.6986 124.119 31.5738C125.714 31.4628 127.241 32.1952 128.617 33.0083C130.175 33.9282 131.657 34.9768 133.043 36.1398L133.286 36.3462C133.351 36.4018 133.416 36.458 133.482 36.5144C134.789 37.6369 136.219 38.8651 137.92 38.7633C139.664 38.659 140.938 37.2112 142.112 35.8771C142.207 35.7692 142.302 35.662 142.396 35.5563C143.844 33.926 145.493 32.4907 147.162 31.0847L147.878 30.4835C148.095 30.3019 148.328 30.1127 148.608 30.0763C149.003 30.0251 149.363 30.2868 149.674 30.5341ZM118.152 58.1696C117.798 58.099 117.314 58.1299 116.701 58.2621C117.105 58.2637 117.444 58.2565 117.72 58.2405C117.854 58.224 117.987 58.2032 118.117 58.177L118.152 58.1696ZM105.023 50.3635C105.152 50.2312 105.288 50.0917 105.438 49.9723L105.44 49.9713L105.442 49.9703C105.723 49.8225 106.039 49.7475 106.358 49.7778C107.438 49.8803 108.255 51.0291 108.114 52.1047C107.544 53.5176 106.133 54.3238 104.738 55.1211C103.878 55.6123 103.024 56.1001 102.376 56.7244C102.539 56.4563 102.717 56.2423 102.897 56.111C103.46 55.7009 104.049 55.3456 104.605 55.0108L104.605 55.0108L104.605 55.0108L104.605 55.0108L104.605 55.0108L104.605 55.0107L104.605 55.0107L104.605 55.0106C105.071 54.7292 105.514 54.4622 105.897 54.1893C106.5 53.7597 106.906 53.3515 107.219 53.0352C107.46 52.7934 107.646 52.6053 107.827 52.5024C107.842 52.4939 108.523 51.1142 106.877 50.2124C105.635 49.5315 105.082 50.3929 104.784 50.8558C104.688 51.006 104.618 51.1142 104.561 51.1142C104.546 51.1142 104.525 51.1119 104.499 51.1074C104.54 50.9608 104.602 50.8193 104.682 50.6867L104.683 50.686L104.684 50.6851C104.795 50.5975 104.906 50.4835 105.023 50.3636L105.023 50.3635L105.023 50.3635ZM104.684 50.6851L104.683 50.6859L104.682 50.6867L104.642 50.717C104.56 50.7765 104.478 50.8204 104.393 50.8404C104.222 50.8807 103.815 50.5683 103.47 50.3037L103.47 50.3037L103.47 50.3036C103.264 50.1454 103.08 50.0043 102.982 49.9659C102.337 49.713 102.261 49.7094 101.814 49.6882C101.739 49.6846 101.652 49.6805 101.551 49.6747L101.366 49.663C101.325 49.6607 101.28 49.6588 101.232 49.6568C100.862 49.6412 100.328 49.6188 100.435 49.3306C102.34 44.1736 110.481 43.0513 109.135 48.8809C109.024 49.3629 108.732 49.7848 108.439 50.2067C108.293 50.4177 108.147 50.6286 108.024 50.8471C107.498 50.0995 106.924 49.7055 106.304 49.6649C105.959 49.6423 105.682 49.7807 105.442 49.9703L105.44 49.9712L105.438 49.9723L105.374 50.0077C105.092 50.1712 104.85 50.4087 104.684 50.6851ZM120.142 45.3812L120.143 45.3782C119.695 46.2299 119.214 47.255 118.7 48.4535C119.087 47.3886 119.571 46.3599 120.142 45.3812ZM123.771 46.1666L123.709 46.1689C123.212 46.1898 122.766 46.2641 122.372 46.3919C121.934 46.5337 121.469 46.7708 120.975 47.1032C121.839 46.6247 122.794 46.3046 123.771 46.1666Z" fill="white"/>
<path fill-rule="evenodd" clip-rule="evenodd" d="M98.3693 67.7651C97.979 68.2219 97.4133 68.0746 96.895 67.5693C95.8104 66.512 95.3746 64.4718 95.8104 62.2637C96.2462 60.0557 97.9448 59.1459 99.8354 57.9248C98.987 57.5754 97.4502 55.3599 97.2959 53.2069C97.8188 53.8816 97.8463 55.0927 98.3693 55.7674C98.8655 56.4077 99.8571 57.1872 100.353 57.8275C100.417 57.9093 100.471 58.0467 100.381 58.0978C98.5689 59.1272 97.3944 59.4678 96.3255 62.2636C95.2565 65.0593 97.4268 67.6455 97.7152 67.5693C98.0705 67.4755 97.9446 67.0041 97.7405 66.6985C97.165 65.8365 97.7125 64.6871 98.1817 63.7628C98.4325 64.0441 97.8295 64.8508 97.9565 65.6896C98.0806 66.5086 98.7167 67.3584 98.3693 67.7651Z" fill="#E7EAEE"/>
<circle cx="105.76" cy="58.5077" r="0.450343" fill="#FFB61D"/>
<circle cx="104.184" cy="56.7063" r="0.450343" fill="#FFB61D"/>
<path d="M36.8377 61.1291C37.0981 61.615 36.6888 62.3098 36.1376 62.3177C35.6655 59.664 35.1565 56.9181 33.6204 54.7033C30.6791 50.4624 24.618 49.0695 22.0998 44.5646C20.3852 45.785 17.7633 45.4739 16.3819 43.8861C15.5228 42.8987 14.0252 42.7775 12.7351 42.9978C11.4449 43.2181 10.1844 43.7051 8.87615 43.6637C8.30849 43.6457 7.69002 43.4931 7.35965 43.0311C7.02927 42.5692 7.22013 41.7562 7.78234 41.6757C10.2316 41.3251 12.6809 40.9745 15.1302 40.6239C15.3226 40.5964 15.5267 40.5636 15.6727 40.4354C15.8379 40.2904 15.8898 40.0585 15.9326 39.8429C16.2872 38.0584 16.5427 35.931 15.2287 34.6726C14.1396 33.6297 12.4208 33.6657 10.9412 33.9566C9.46166 34.2476 7.93682 34.7263 6.47869 34.3421C5.02056 33.9579 3.80114 32.2258 4.58721 30.939C5.11369 30.0771 4.52004 28.9277 3.70793 28.3273C2.89582 27.7269 1.88516 27.4312 1.098 26.7984C0.310848 26.1657 -0.188713 24.9448 0.438274 24.153C0.714024 23.8048 1.14579 23.6213 1.56939 23.4877C2.97134 23.0454 4.53458 23.0117 5.88596 23.5904C7.23735 24.169 8.33479 25.4092 8.5547 26.8627C8.73386 28.0469 8.39343 29.4245 9.17624 30.3309C10.1997 31.5159 12.0913 30.8512 13.6571 30.837C15.2585 30.8224 16.842 31.6714 17.7161 33.0133C18.5902 34.3552 18.7268 36.1468 18.0662 37.6057C19.9263 35.7131 22.4316 34.2613 25.0835 34.3601C27.5329 34.4514 29.7834 35.8603 31.4216 37.6835C33.0598 39.5067 34.1773 41.7272 35.2731 43.9197C35.6813 44.7365 36.7169 45.1792 37.5894 44.91C38.462 44.6407 39.068 43.6915 38.9449 42.7866C39.7054 42.9524 39.7846 43.9804 39.808 44.7583C39.8573 46.3928 40.4491 48.0064 41.4685 49.2851C41.8095 48.6561 42.0696 47.9833 42.2406 47.2885C42.9846 48.1439 43.2622 49.3819 42.9547 50.4731C42.6471 51.5643 41.7638 52.4752 40.6826 52.8161C40.1073 52.9975 39.4038 53.0848 39.1182 53.6162C40.1971 55.5054 41.1251 57.4808 41.8904 59.5173C42.3008 60.6094 42.5969 62.0146 41.7331 62.7987C40.7344 62.0613 40.1669 60.8918 39.637 59.7691C38.8105 58.0179 37.9839 56.2668 37.1574 54.5156" fill="white"/>
<path fill-rule="evenodd" clip-rule="evenodd" d="M39.564 43.5997C39.347 45.7203 40.1407 47.9221 41.6608 49.4164C42.2029 49.0893 42.5494 48.4616 42.5375 47.8286C43.1071 48.7652 42.788 50.0353 42.0796 50.872C41.3713 51.7086 40.355 52.2103 39.3689 52.689C38.8038 52.9634 38.2172 53.2432 37.5893 53.2619C36.6315 53.2905 35.7733 52.7145 34.9901 52.1623L32.6923 50.5422C33.8794 52.7575 36.5817 54.0475 39.0507 53.5776C40.7678 55.9863 41.8191 58.8646 42.0589 61.8129L41.5973 60.9602C41.5931 60.9497 41.5875 60.9394 41.5805 60.9291L41.5973 60.9602C41.6637 61.1237 41.4043 61.3046 41.2296 61.22C41.0439 61.13 40.9737 60.9064 40.9189 60.7074C40.2429 58.2562 39.0315 55.9541 37.3939 54.009L39.8735 59.2625C40.4034 60.3852 40.9709 61.5547 41.9696 62.2921C42.8334 61.508 42.5373 60.1028 42.1269 59.0107C41.3616 56.9742 40.4336 54.9988 39.3547 53.1096C39.5866 52.678 40.0941 52.5394 40.5848 52.4054C40.6983 52.3744 40.811 52.3436 40.9191 52.3095C42.0003 51.9686 42.8836 51.0577 43.1911 49.9665C43.4987 48.8753 43.221 47.6373 42.477 46.7819C42.3061 47.4767 42.0459 48.1495 41.7049 48.7785C40.6856 47.4998 40.0937 45.8862 40.0445 44.2517C40.021 43.4738 39.9418 42.4458 39.1814 42.28C39.3044 43.1849 38.6985 44.1341 37.8259 44.4034C36.9534 44.6727 35.9178 44.2299 35.5096 43.4131C34.4137 41.2207 33.2962 39.0001 31.658 37.1769C30.0199 35.3537 27.7693 33.9448 25.3199 33.8535C22.6681 33.7547 20.1628 35.2065 18.3026 37.0991C18.9632 35.6402 18.8267 33.8486 17.9526 32.5067C17.0785 31.1648 15.4949 30.3158 13.8935 30.3304C13.4873 30.3341 13.0592 30.3815 12.6299 30.4291C11.4047 30.565 10.1706 30.7019 9.4127 29.8243C8.87738 29.2044 8.86734 28.3643 8.8572 27.5163C8.85251 27.1242 8.84781 26.7305 8.79116 26.3561C8.57125 24.9026 7.47381 23.6624 6.12243 23.0838C4.77104 22.5051 3.2078 22.5389 1.80585 22.9811C1.38225 23.1147 0.950487 23.2982 0.674738 23.6464C0.0477503 24.4382 0.547311 25.6591 1.33447 26.2919C1.74875 26.6249 2.22494 26.8645 2.70151 27.1044L2.70151 27.1044C3.13045 27.3203 3.5597 27.5363 3.94439 27.8207C4.75651 28.4211 5.35016 29.5706 4.82367 30.4324C4.03761 31.7192 5.25702 33.4513 6.71515 33.8355C7.92051 34.1531 9.17145 33.881 10.4047 33.6128C10.6633 33.5566 10.9212 33.5005 11.1777 33.45C12.6572 33.1591 14.3761 33.1231 15.4651 34.166C16.7792 35.4244 16.5237 37.5518 16.1691 39.3363C16.1263 39.552 16.0744 39.7838 15.9092 39.9289C15.7632 40.057 15.559 40.0898 15.3667 40.1173L8.01881 41.1691C7.4566 41.2496 7.26574 42.0626 7.59611 42.5245C7.92649 42.9865 8.54496 43.1391 9.11262 43.1571C9.98056 43.1846 10.8275 42.9794 11.676 42.7739L11.6761 42.7739C12.1065 42.6697 12.5373 42.5653 12.9715 42.4912C14.2617 42.2709 15.7593 42.3921 16.6184 43.3795C17.9998 44.9673 20.6216 45.2784 22.3363 44.058C23.6614 46.4285 25.9675 47.9374 28.2838 49.4529C30.3694 50.8174 32.4633 52.1874 33.8568 54.1967C35.3929 56.4115 35.902 59.1574 36.3741 61.8111C36.9253 61.8033 37.3346 61.1084 37.0742 60.6225L36.5563 61.3057C36.365 57.1232 34.2288 53.0698 30.8868 50.5477C30.0592 49.9231 29.1516 49.3756 28.246 48.8293C26.256 47.6288 24.2754 46.434 23.1735 44.4399C23.0742 44.2603 22.9819 44.0701 22.9658 43.8656C22.9455 43.6068 23.0486 43.3573 23.1482 43.1164L23.1624 43.0821C23.5596 42.1185 23.837 41.0612 23.6419 40.0373C23.4468 39.0135 22.6761 38.0454 21.6453 37.8914C23.3901 39.0074 23.7477 41.777 22.3437 43.2997C20.9397 44.8223 18.1502 44.69 16.8966 43.0413C15.8919 41.7199 13.883 41.8817 12.266 42.2565C10.6489 42.6312 8.74468 43.0234 7.49551 41.9303C10.168 41.1955 12.9181 40.743 15.6851 40.5829C16.3443 40.5448 16.6029 39.7225 16.6916 39.0682C16.8281 38.0624 16.9646 37.0404 16.8151 36.0365C16.6655 35.0326 16.1884 34.0311 15.3365 33.4793C14.3134 32.8167 12.9928 32.9193 11.7805 33.0462L8.55893 33.3833C7.86478 33.4559 7.1514 33.5271 6.47838 33.3423C5.80536 33.1574 5.17212 32.6556 5.04307 31.9697C4.96157 31.5365 5.08559 31.1099 5.21063 30.6798C5.30064 30.3702 5.39118 30.0588 5.40594 29.7418C5.44797 28.8392 4.86487 28.0121 4.15634 27.4514C3.72223 27.1078 3.23851 26.8375 2.75434 26.5669L2.75434 26.5669L2.75434 26.5669L2.75433 26.5669L2.75433 26.5669L2.75433 26.5669L2.75433 26.5668L2.75432 26.5668C2.44825 26.3958 2.14201 26.2246 1.848 26.0348C1.29457 25.6775 0.726739 25.1002 0.880617 24.4596C0.979023 24.05 1.3497 23.7661 1.72237 23.5696C2.9806 22.9064 4.55332 22.8766 5.83579 23.4916C7.11827 24.1067 8.0795 25.3519 8.3499 26.7483C8.41661 27.0927 8.44692 27.4525 8.47717 27.8116C8.54715 28.6422 8.6168 29.4688 9.13574 30.0928C9.75562 30.8383 10.827 31.026 11.7953 30.9799C12.1273 30.9641 12.4593 30.9269 12.791 30.8897L12.7911 30.8897C13.4268 30.8185 14.0616 30.7474 14.6937 30.827C16.8191 31.0947 18.4937 33.3062 18.1752 35.4246C18.1575 35.5417 18.1349 35.6599 18.1121 35.7785V35.7785C18.031 36.2011 17.9491 36.6277 18.0935 37.0247C18.2783 37.5329 19.0868 37.8036 19.3429 37.3273C20.4907 35.193 23.1232 34.1177 25.5301 34.3996C27.937 34.6814 30.091 36.1307 31.6712 37.968C33.2514 39.8053 34.3263 42.0162 35.3067 44.2324C35.652 45.013 36.6801 45.2957 37.5015 45.0634C38.3229 44.8312 38.9747 44.2172 39.564 43.5997ZM35.2508 47.3194C35.2741 47.3162 35.3283 47.4221 35.4099 47.582C35.6108 47.9752 35.9782 48.6944 36.4626 48.9131C36.4411 49.1169 36.1206 49.0078 35.9873 48.8521C35.6085 48.4095 35.2066 47.9003 35.2508 47.3194ZM36.3942 50.8128C36.6442 51.1793 35.1468 51.3616 34.649 51.0419C34.7366 51.0251 34.8521 51.034 34.98 51.044C35.1318 51.0558 35.3009 51.0689 35.4616 51.0419C35.697 51.0023 35.9242 50.9301 36.0957 50.8755C36.2622 50.8226 36.3761 50.7864 36.3942 50.8128ZM36.0349 49.4512C35.4388 49.5533 34.7064 48.7594 34.7064 48.0127C34.8782 48.5648 35.4886 49.0027 35.8259 49.2447C35.9975 49.3679 36.0984 49.4403 36.0349 49.4512ZM38.1706 52.5736C37.3767 52.5736 37.0168 51.2348 37.3767 51.1488C37.4628 51.1097 37.4669 51.2297 37.4728 51.4067C37.4791 51.5929 37.4876 51.8423 37.5958 52.0365C37.716 52.2523 37.9706 52.3965 38.1192 52.4806C38.2316 52.5442 38.2834 52.5736 38.1706 52.5736ZM39.0553 50.7505C39.2296 50.8465 39.3887 50.9954 39.4338 51.1892C39.4789 51.383 39.3705 51.618 39.1757 51.6584C39.1146 51.5687 39.1477 51.5117 39.1826 51.4516C39.2339 51.3632 39.289 51.2682 39.0553 51.0529C38.9569 50.9622 38.8424 50.9228 38.762 50.8952C38.7002 50.8739 38.6586 50.8596 38.6602 50.8342C38.6703 50.6732 38.914 50.6727 39.0553 50.7505ZM37.569 49.0061C37.5298 49.0334 37.5027 49.0522 37.5259 49.0737C37.5977 49.1404 37.6821 49.1723 37.7664 49.1239C37.8307 49.0869 37.8633 49.012 37.8785 48.9393C37.9632 48.5337 37.5349 48.1148 37.1313 48.2086C37.1671 48.303 37.2357 48.3332 37.3189 48.3699C37.415 48.4122 37.5306 48.4631 37.6379 48.6311C37.7826 48.8576 37.6498 48.9499 37.569 49.0061ZM37.4332 52.8295C36.9657 52.6934 36.5034 51.5894 36.7523 51.5058C36.9075 51.4536 36.9066 51.462 36.8976 51.5493C36.8893 51.6293 36.8742 51.7755 36.9657 52.0021C37.0793 52.2834 37.2384 52.5118 37.3397 52.6572C37.4091 52.7568 37.4514 52.8175 37.4332 52.8295ZM144.507 27.7645C143.504 27.8878 142.713 28.6972 142.214 29.5768C141.973 30.002 141.78 30.452 141.587 30.9019L141.587 30.9023C141.38 31.3829 141.174 31.8635 140.91 32.3137C139.647 34.4614 137.247 35.6354 134.948 36.5948C134.551 36.7602 133.857 36.6824 133.98 36.271C137.745 35.5566 140.986 32.5759 142.012 28.884C142.133 28.4491 141.568 28.082 141.131 28.197C140.736 28.3011 140.455 28.6305 140.201 28.9574L140.122 29.0602C138.025 31.7877 135.014 34.0937 131.577 34.2425C131.334 34.2531 130.986 34.1046 131.093 33.8859C133.639 33.8005 136.039 32.544 137.929 30.8367C139.819 29.1294 141.261 26.9894 142.609 24.8285C142.818 24.4942 143.319 24.5657 143.692 24.6928C144.836 25.0831 145.934 25.6094 146.954 26.2572C147.502 26.605 147.068 27.533 146.445 27.715C146.087 27.8195 145.713 27.7942 145.338 27.7687C145.06 27.7498 144.781 27.7309 144.507 27.7645ZM143.53 25.636L143.442 25.6094C143.174 25.5326 142.875 25.49 142.659 25.6562C142.576 25.7206 142.516 25.8096 142.461 25.9003L141.745 27.1084C142.121 27.1954 142.481 27.3495 142.804 27.5612C143.068 27.7342 143.431 27.7408 143.701 27.5776C143.971 27.4144 144.133 27.0895 144.103 26.7757C144.091 26.6586 144.283 26.6267 144.363 26.7129C144.423 26.7772 144.441 26.8654 144.459 26.9533L144.459 26.9534C144.465 26.9832 144.471 27.0129 144.478 27.0417C144.509 27.1553 144.601 27.2778 144.717 27.2544C144.833 27.1433 144.897 26.9788 144.886 26.8179C144.928 26.6519 145.187 26.7999 145.227 26.9663C145.267 27.1328 145.342 27.3695 145.508 27.325C145.751 27.2649 145.827 26.9265 145.709 26.706C145.59 26.4854 145.352 26.3607 145.125 26.2555C144.607 26.0155 144.074 25.8085 143.53 25.636ZM141.352 27.6002C141.726 27.9766 142.271 28.1769 142.799 28.1328C142.475 27.7246 141.924 27.5113 141.409 27.5902L141.352 27.6002ZM114.571 65.0918C112.771 65.6008 110.737 65.1993 109.266 64.0442C107.934 64.7424 106.557 65.4194 105.069 65.6379C103.581 65.8563 101.943 65.5497 100.868 64.4987C101.045 64.8838 101.227 65.2833 101.232 65.7074C101.238 66.1315 101.018 66.5894 100.617 66.7255C99.9538 66.9501 99.3746 66.2415 99.0305 65.632C98.842 66.1013 99.0364 66.6294 99.2254 67.1428C99.441 67.7286 99.6496 68.2953 99.2748 68.7339C98.8845 69.1907 98.1443 69.0737 97.6072 68.8043C95.5954 67.7952 94.6503 65.2552 95.0861 63.0472C95.5219 60.8391 97.1096 58.99 99.0002 57.7689C97.7166 56.828 96.7777 55.4273 96.3951 53.8825C96.6566 54.2198 96.8505 54.6118 97.0444 55.0037C97.2383 55.3957 97.4322 55.7876 97.6937 56.125C97.9418 56.4451 98.2574 56.7107 98.5731 56.9763C98.8888 57.2419 99.2044 57.5075 99.4525 57.8276C99.5159 57.9094 99.5705 58.0467 99.4806 58.0978C97.6682 59.1272 96.1178 60.7676 95.6035 62.7875C95.0892 64.8074 95.8048 67.1918 97.5798 68.2846C97.8926 68.4773 98.2656 68.6319 98.6208 68.5381C98.976 68.4443 99.2425 67.9983 99.0385 67.6928C98.4629 66.8307 98.3929 65.6558 98.8621 64.7316L100.349 66.3993C100.691 66.3114 100.776 65.8514 100.685 65.5102C100.656 65.402 100.617 65.2953 100.577 65.1888L100.577 65.1886C100.492 64.9591 100.408 64.7305 100.43 64.4904C100.464 64.1389 100.922 63.8244 101.165 64.0812C102.132 65.1063 103.686 65.3971 105.077 65.1715C106.468 64.9458 107.743 64.278 108.989 63.6199L110.46 62.8432C110.354 63.2674 110.01 63.6236 109.59 63.7446C111.01 64.7646 112.908 65.0852 114.584 64.5878C114.873 64.5021 115.169 64.3836 115.357 64.1477C115.544 63.9118 115.574 63.5281 115.348 63.3293C115.32 63.305 115.289 63.2837 115.259 63.2624C115.198 63.2206 115.138 63.1791 115.103 63.1155C115.051 63.0197 115.132 62.8586 115.232 62.9024C115.798 62.8631 116.148 63.6239 115.917 64.1425C115.686 64.6612 115.117 64.9374 114.571 65.0918ZM104.521 57.5632C104.198 57.4592 103.835 57.6823 103.695 57.9916C103.554 58.3008 103.594 58.6642 103.7 58.9868C103.734 58.6229 103.78 58.3486 103.918 58.1094C103.977 58.0062 104.161 57.9089 104.323 57.8234C104.532 57.7128 104.704 57.6218 104.521 57.5632ZM104.247 56.6488C104.719 56.5312 105.252 56.7129 105.553 57.0941C105.855 57.4753 105.91 58.0355 105.687 58.4678C105.634 58.4032 105.621 58.2861 105.605 58.1393C105.558 57.7056 105.484 57.0125 104.247 56.6488ZM103.838 59.9997C103.689 60.1861 104.209 60.6784 105.022 60.3389C105.172 60.276 105.049 60.2688 104.856 60.2574C104.679 60.2471 104.443 60.2333 104.303 60.1706C104.184 60.1176 104.123 60.0326 104.077 59.969C104.01 59.8749 103.976 59.8275 103.838 59.9997ZM105.486 60.623C106.007 60.3634 105.68 61.1245 104.59 61.0312C104.492 61.0228 104.363 60.9848 104.364 60.8858C104.365 60.851 104.457 60.843 104.6 60.8305C104.823 60.8111 105.169 60.7809 105.486 60.623ZM102.271 59.1784C102.467 59.37 102.752 59.375 102.943 59.3382C103.059 59.3158 103.116 59.212 103.009 59.1784C102.984 59.1706 102.943 59.1641 102.894 59.1563C102.78 59.1384 102.624 59.1138 102.519 59.0504C102.452 59.0098 102.413 58.8712 102.38 58.7523C102.346 58.63 102.318 58.5287 102.271 58.5762C102.176 58.67 102.074 58.9869 102.271 59.1784ZM102.444 59.8262C102.539 59.9707 102.177 59.921 102.1 59.8262C102.022 59.7315 101.945 59.3749 102.076 59.3749C102.113 59.3749 102.126 59.4311 102.142 59.4984L102.142 59.4984C102.156 59.5606 102.172 59.6321 102.213 59.6777C102.291 59.7661 102.343 59.7793 102.381 59.7889C102.407 59.7954 102.427 59.8004 102.444 59.8262ZM118.706 59.1091C118.901 59.4984 118.56 59.9351 118.231 60.2205C116.895 61.3811 115.297 62.2395 113.592 62.7137C115.43 62.7262 117.259 61.9396 118.515 60.5971C119.099 59.9725 119.473 58.7998 118.719 58.3959C119.614 58.0995 120.673 57.4805 120.536 56.5479C120.487 56.2148 120.284 55.928 120.086 55.6554L119.969 55.4943C118.748 53.8256 117.254 52.0611 115.207 51.9366C116.385 51.2756 117.789 52.2144 118.828 53.0787L119.132 53.3307C120.508 54.4614 121.947 55.5372 123.578 56.2441C125.33 57.0033 127.345 57.3067 129.162 56.7211L134.248 55.0819C135.23 54.7572 136.386 54.1469 136.297 53.1272C136.248 52.5654 135.735 52.0824 135.171 52.0667C134.608 52.0511 134.069 52.5048 133.989 53.063L133.878 52.1953C133.606 51.9621 133.171 52.1619 132.951 52.4459C132.868 52.5533 132.799 52.6719 132.73 52.7902L132.73 52.7904C132.617 52.9849 132.504 53.1785 132.331 53.3198C131.731 53.8108 130.933 53.4072 130.217 52.983L129.77 52.7161C128.497 51.9682 126.988 51.8537 125.499 51.7405C125.177 51.7161 124.856 51.6917 124.539 51.6611C122.462 51.4604 120.415 50.9545 118.484 50.1646C120.255 51.6168 122.569 51.8606 124.903 52.1065C126.079 52.2304 127.26 52.3548 128.38 52.6347C129.268 52.8568 130.25 53.3094 130.467 54.1985C130.784 55.4894 129.25 56.4894 127.927 56.6101C125.762 56.8076 123.652 55.887 121.814 54.7121L121.608 54.578C120.942 54.1413 120.298 53.6715 119.653 53.2019L119.653 53.2018C118.471 52.3403 117.289 51.4795 115.984 50.8252C117.332 50.893 118.317 49.917 119.322 48.92C119.865 48.3823 120.413 47.8385 121.028 47.449C122.836 46.3044 125.144 46.5651 127.271 46.9327L127.605 46.9914C127.105 44.5682 125.883 42.2988 124.135 40.5472L127.138 46.451C123.976 45.3977 120.184 46.714 118.355 49.4999C119.767 44.7357 123.126 40.58 127.487 38.1999C128.893 38.7257 130.08 39.6639 131.265 40.6005C131.648 40.9029 132.03 41.2051 132.42 41.4932C134.015 42.6737 135.956 43.674 137.909 43.3227C139.314 43.07 140.496 42.1564 141.546 41.1794L141.715 41.0205C142.966 39.835 144.128 38.5567 145.189 37.1995C146.351 35.7144 147.778 33.951 149.65 34.1724C149.981 34.2115 150.302 34.3146 150.623 34.4174C151.065 34.5594 151.506 34.7007 151.965 34.6712C152.756 34.6203 153.484 33.5578 152.863 33.0647L149.674 30.534C149.363 30.2867 149.003 30.025 148.609 30.0762C148.328 30.1126 148.095 30.3018 147.878 30.4834L147.162 31.0846C145.493 32.4906 143.844 33.9259 142.396 35.5562C142.303 35.6602 142.21 35.7656 142.117 35.8718L142.115 35.8742L142.114 35.8753L142.113 35.8765L142.112 35.877C140.938 37.2111 139.664 38.6589 137.92 38.7633C136.219 38.8651 134.789 37.6368 133.482 36.5143L133.286 36.3461L133.043 36.1397C131.657 34.9767 130.175 33.9281 128.617 33.0082C127.241 32.1951 125.714 31.4627 124.119 31.5738C122.252 31.7037 120.678 32.9515 119.33 34.2628L119.126 34.4629C118.465 35.1128 117.674 35.8149 116.764 35.6761L116.691 35.6665C115.775 35.5621 114.916 36.1307 114.225 36.7672L114.117 36.8682C112.311 38.5911 110.981 40.8076 110.31 43.2116C106.371 42.1567 102.051 42.5918 98.401 44.411C97.4813 44.8694 96.5846 45.4284 95.9444 46.2322C95.0302 47.3799 94.7621 48.8353 94.4916 50.3037L94.4916 50.3037C94.2943 51.375 94.0957 52.453 93.644 53.4235C93.5103 53.7109 93.3536 53.9913 93.1969 54.2715C92.8299 54.928 92.4637 55.5832 92.3963 56.3226C92.3001 57.3777 93.2852 58.602 94.2621 58.1921C95.2406 58.0379 95.7584 56.6583 95.123 55.8984C95.519 56.182 96.071 56.2308 96.5105 56.0209L95.4896 54.136C97.2119 53.219 98.7403 51.94 99.9467 50.4064C100.44 49.7793 101.357 49.6209 102.131 49.8134C102.795 49.9784 103.38 50.3529 103.941 50.7511L104.22 50.9513C103.895 51.1875 104.082 51.8153 104.483 51.8353C104.224 50.7816 105.278 49.6751 106.358 49.7777C107.438 49.8803 108.256 51.029 108.115 52.1047C107.544 53.5176 106.133 54.3238 104.738 55.1211C103.224 55.9862 101.728 56.841 101.344 58.449C100.957 60.0689 102.206 61.8832 103.858 62.0998C105.509 62.3164 107.184 60.8857 107.228 59.2208C107.228 59.2208 107.472 59.2459 107.559 58.9869C107.695 58.5786 107.824 58.1264 107.952 57.6783L107.952 57.6779C108.193 56.835 108.429 56.0065 108.702 55.5115C109.468 54.1236 110.893 53.0248 112.477 52.9865C112.981 52.9743 113.481 52.8997 113.98 52.8251C114.618 52.7299 115.255 52.6347 115.898 52.6701C117.042 52.7332 118.297 53.4035 118.462 54.5381C117.193 54.2916 115.868 54.3332 114.617 54.6589L119.048 55.1859C120.021 55.3016 120.203 56.8082 119.509 57.5004C118.855 58.1531 117.859 58.2604 116.927 58.302L116.758 58.3089C116.921 58.6413 117.326 58.6757 117.732 58.7101C118.136 58.7444 118.541 58.7788 118.706 59.1091ZM142.276 39.7471C140.902 41.2722 139.296 42.9113 137.245 42.9878C135.452 43.0547 133.883 41.8988 132.432 40.8297L132.324 40.7508L131.978 40.4976C130.357 39.3216 128.677 38.2254 126.948 37.2144C125.61 36.4315 124.07 35.6752 122.568 36.0635L124.945 36.8117C124.544 37.0267 124.402 37.6118 124.658 37.9873C124.713 37.425 125.364 37.0675 125.922 37.1554C126.48 37.2433 126.934 37.653 127.279 38.0999C124.282 39.2491 121.733 41.5242 120.251 44.3713C119.975 44.9008 119.735 45.4486 119.496 45.9961C119.171 46.7381 118.846 47.4797 118.433 48.1752C117.714 49.3837 116.65 50.4832 115.281 50.8034C115.089 50.8482 114.893 50.8776 114.696 50.907C114.303 50.9659 113.91 51.0247 113.56 51.207C113.522 51.2268 113.483 51.2478 113.443 51.2693L113.441 51.2701L113.44 51.2709L113.439 51.2715C113.028 51.4911 112.521 51.7616 112.267 51.4047C111.852 50.8201 111.191 50.4167 110.481 50.3156C111.655 46.3728 114.674 43.0222 118.474 41.4459C118.689 41.3567 118.606 41.0349 118.489 40.8339L116.761 37.8764C116.601 37.6033 116.788 37.2318 117.069 37.0869C117.35 36.942 117.686 36.9637 118 37.0028C119.999 37.2518 121.924 38.0722 123.488 39.3419C123.738 39.545 124.148 39.7444 124.331 39.4792C122.547 37.6795 119.994 36.8451 117.482 36.5089C119.654 36.2966 121.899 36.9804 123.583 38.3669L123.665 38.434C124.068 38.7607 124.555 39.108 125.019 38.9076C123.138 37.1032 120.565 36.0382 117.959 35.9849C118.495 35.5862 118.996 35.1429 119.497 34.6996L119.497 34.6994C120.006 34.249 120.515 33.7986 121.061 33.3948C122.144 32.5937 123.439 31.9682 124.784 32.0468C125.761 32.1038 126.677 32.5252 127.54 32.984C129.367 33.9537 131.086 35.1242 132.658 36.4676C132.77 36.5627 132.882 36.6592 132.994 36.7564C134.489 38.0439 136.119 39.4485 138.05 39.2671C139.227 39.1564 140.271 38.4451 141.099 37.6012C141.558 37.1344 141.967 36.6231 142.376 36.1117L142.376 36.1116C142.706 35.6986 143.036 35.2856 143.393 34.8958C143.907 34.3334 144.503 33.8046 145.234 33.5899C145.965 33.3752 146.857 33.553 147.291 34.1792L142.276 39.7471ZM94.9515 50.1923C95.2164 48.7431 95.4783 47.3101 96.4576 46.255C96.9372 45.7384 97.5508 45.3663 98.1755 45.0396C101.371 43.3682 105.098 42.732 108.667 43.2485C109.54 43.3749 110.622 43.8649 110.608 44.6942C110.603 44.7449 110.598 44.7956 110.593 44.8464C110.602 44.7944 110.607 44.7437 110.608 44.6942C110.964 41.2269 112.983 37.9649 115.934 36.1072C116.196 37.9319 116.995 39.6761 118.206 41.0654C114.996 42.4177 112.33 45.0177 110.898 48.1935L110.876 48.2437C110.469 49.134 109.824 50.2272 108.882 50.0054L109.348 47.1241C109.391 46.86 109.43 46.5738 109.305 46.3373C109.165 46.0733 108.866 45.9516 108.575 45.8638L108.472 45.834C106.784 45.3561 104.89 44.8973 103.349 45.7346C102.533 46.1777 101.948 46.9201 101.4 47.6824L100.994 48.2534C100.029 49.6005 98.9487 50.8649 97.7689 52.0283C97.2936 52.4969 96.7799 52.9625 96.1437 53.1642C95.5075 53.3659 94.717 53.2302 94.3394 52.6799C94.6406 51.8934 94.7966 51.0401 94.9515 50.1923ZM105.356 61.4198C104.353 61.7915 103.538 61.6083 102.755 61.1527C102.421 60.9578 102.105 60.7068 101.917 60.3683C101.634 59.8608 101.676 59.2307 101.84 58.6731C102.083 57.8395 102.582 57.0823 103.252 56.5294C103.715 56.147 104.248 55.8664 104.781 55.5859L104.781 55.5858C104.965 55.489 105.149 55.3921 105.33 55.2911C107.098 54.3049 108.623 52.8868 109.735 51.1951C109.957 50.8574 110.425 50.7479 110.817 50.8476C111.208 50.9474 111.535 51.2156 111.817 51.5046C112.019 51.7115 112.169 52.1229 111.899 52.2273C110.012 52.9581 108.491 54.58 107.884 56.511C107.875 56.5395 107.866 56.5682 107.858 56.5969L107.835 56.6703C107.743 56.9757 107.65 57.2849 107.451 57.532C107.219 57.8223 106.752 58.8444 106.99 59.329C106.99 59.329 106.358 61.048 105.356 61.4198ZM107.975 46.1225C108.281 46.1911 108.614 46.2896 108.782 46.5544C108.919 46.7712 108.91 47.0468 108.889 47.3025C108.803 48.314 108.591 49.3148 108.257 50.2736C108.201 50.4357 108.027 50.6306 107.9 50.5151C107.756 49.7893 107.093 49.1991 106.355 49.1405C105.618 49.082 104.87 49.5601 104.613 50.2541C104.562 50.3911 104.384 50.442 104.243 50.4042C104.137 50.3759 104.047 50.3119 103.961 50.2428L103.875 50.1732C102.996 49.4594 101.807 49.1424 100.69 49.3243C101.285 48.3225 102.04 47.4159 102.918 46.6493C103.277 46.3355 103.667 46.0397 104.12 45.8926C104.547 45.7541 105.006 45.7555 105.454 45.7783C106.302 45.8214 107.146 45.9367 107.975 46.1225ZM148.043 33.3726C147.616 32.9172 147.03 32.6125 146.412 32.526L147.114 31.6346C147.336 31.3552 147.596 31.0686 147.947 31.0245C148.2 30.9927 148.449 31.0965 148.68 31.2063C149.45 31.5736 150.177 32.0337 150.839 32.5734C151.059 32.7535 151.281 32.9545 151.377 33.2228C151.473 33.4911 151.396 33.8423 151.139 33.9651C150.882 34.0878 150.511 33.819 150.617 33.5543L150.627 33.5246C150.67 33.3741 150.602 33.1963 150.466 33.1171L150.217 33.5934C150.195 33.635 150.168 33.6753 150.127 33.698C149.961 33.7896 149.826 33.5319 149.816 33.3427L149.814 33.3165C149.796 33.1303 149.698 32.8927 149.527 32.9507C149.504 33.2698 149.276 33.5645 148.973 33.6668C148.669 33.769 148.309 33.6727 148.098 33.4328L148.043 33.3726ZM94.5379 56.8855L94.238 55.7476C94.0954 55.7077 93.9563 55.8506 93.9361 55.9972C93.9226 56.095 93.9443 56.1917 93.9736 56.2871L94.0197 56.4291C94.1738 56.9121 94.17 57.4441 94.009 57.9248C93.7117 57.3162 93.5565 56.6387 93.5594 55.9614C93.3655 55.855 93.2335 56.1797 93.2475 56.4004L93.3312 57.7175C92.9247 57.3512 92.7814 56.7568 92.8509 56.214C92.9204 55.6713 93.1752 55.1701 93.4618 54.7039C93.6113 54.4606 93.777 54.2167 94.0149 54.0586C94.2528 53.9006 94.5805 53.8464 94.8235 53.9965C95.0253 54.1212 95.119 54.3427 95.2141 54.5672C95.2859 54.737 95.3585 54.9086 95.4791 55.0414C95.5219 55.0884 95.5718 55.1366 95.6226 55.1855C95.819 55.375 96.0288 55.5773 95.8915 55.7813C95.4685 55.5217 95.0817 55.2034 94.7455 54.8383C94.6239 55.5923 94.7353 56.3823 95.0608 57.0732C95.1274 57.2146 94.9074 57.3493 94.7689 57.2769C94.6305 57.2045 94.5778 57.0365 94.5379 56.8855ZM135.155 53.163C135.372 52.9713 135.57 52.7961 135.666 52.8438C135.945 52.983 135.187 53.5949 134.785 53.7677C134.814 53.9616 135.095 53.8747 135.26 53.7677C135.424 53.6607 135.884 53.5456 135.794 53.662C135.233 54.3879 134.149 54.9649 133.148 55.0777C132.742 55.1234 132.24 55.015 132.11 54.6273C131.992 54.2737 132.255 53.9248 132.533 53.662L132.6 53.6007C132.716 53.4962 132.904 53.3942 133.012 53.5081C133.298 53.811 133.798 53.5633 134.128 53.3083C134.128 53.3083 134.985 52.4817 135.128 52.5346C135.271 52.5872 134.701 53.5193 134.701 53.5193C134.842 53.44 135.003 53.2974 135.155 53.163ZM131.053 53.9304C131.156 53.9071 131.263 53.9484 131.351 54.0053C131.673 54.212 131.827 54.6478 131.706 55.0108C131.585 55.3739 131.201 55.6303 130.819 55.6026C130.765 55.5987 130.708 55.5885 130.666 55.5545C130.577 55.4831 130.588 55.3467 130.608 55.2343L130.752 54.412C130.786 54.2135 130.857 53.9751 131.053 53.9304ZM112.903 52.0634C113.455 51.9701 114.026 51.9929 114.569 52.1298C114.538 52.3538 114.276 52.4555 114.055 52.5013C113.372 52.6424 112.666 52.6729 111.973 52.5911C112.147 52.2649 112.539 52.1249 112.903 52.0634ZM147.513 33.83L146.064 32.9744C146.778 32.8677 147.539 33.2427 147.889 33.8736C147.789 33.9652 147.63 33.8991 147.513 33.83ZM115.765 50.9891C115.151 51.1517 114.544 51.3408 113.946 51.5556C114.567 51.899 115.449 51.6244 115.765 50.9891ZM109.762 50.2124C109.931 50.2473 109.854 50.5133 109.719 50.621C109.309 50.9489 108.685 50.9772 108.246 50.6878L109.762 50.2124ZM148.316 30.3666C148.415 30.343 148.518 30.3832 148.611 30.4253C149.216 30.6985 149.77 31.0839 150.237 31.556L148.155 30.4929C148.187 30.4303 148.247 30.3828 148.316 30.3666ZM116.596 36.1097L116.616 36.1241C116.804 36.0971 116.998 36.113 117.179 36.1702C117.021 36.4687 116.801 36.7343 116.537 36.9453C116.405 36.6837 116.429 36.3506 116.596 36.1097ZM152.223 33.1886L152.227 33.2018C152.458 33.2952 152.614 33.5448 152.598 33.7926C152.124 33.5468 151.741 33.1311 151.534 32.639C151.817 32.737 152.065 32.9344 152.223 33.1886ZM109.115 51.3607L109.081 51.4077C108.961 51.5709 108.818 51.7479 108.617 51.7713C108.416 51.7947 108.209 51.5345 108.351 51.39C108.59 51.2831 108.869 51.2724 109.115 51.3607ZM94.8668 53.3808C95.0463 53.4227 95.249 53.5536 95.2208 53.7357C94.8096 53.682 94.4039 53.587 94.0118 53.4524C94.2799 53.3402 94.5837 53.3148 94.8668 53.3808ZM133.051 53.3459C132.958 53.3864 132.873 53.216 132.962 53.1662C132.962 53.1662 133.575 52.091 133.602 52.844C133.615 53.0313 133.218 53.2605 133.051 53.3459ZM107.145 58.8664V58.8663L107.145 58.8661C107.191 58.5397 107.276 57.9248 107.451 57.9248C107.698 57.8986 107.603 58.3194 107.536 58.6158L107.536 58.6162L107.536 58.6168C107.517 58.6982 107.501 58.7701 107.495 58.8207C107.472 58.9987 107.306 59.1386 107.115 59.0529C107.123 59.0269 107.132 58.9582 107.145 58.8668L107.145 58.8664ZM49.6798 70.1488C50.9374 70.2574 52.2 70.3093 53.4623 70.3043C53.3726 71.4912 54.3378 72.6601 55.5202 72.7965C56.7027 72.9329 57.9087 72.0144 58.0915 70.8383C58.165 70.3658 58.8041 70.2836 59.2808 70.3207L62.3145 70.5569C62.8345 70.5973 63.5704 70.4336 63.5143 69.915L63.1706 66.738C63.1396 66.4515 63.2396 66.0338 63.5222 66.0905C64.7263 66.3322 66.0418 65.4092 66.2068 64.1921C66.3717 62.9751 65.3312 61.728 64.1037 61.6895C63.5138 61.671 63.2332 60.8995 63.3863 60.3296C63.4687 60.0231 63.625 59.7457 63.7816 59.4678C63.9162 59.229 64.051 58.9898 64.1391 58.7316C64.3296 58.1731 64.1698 57.3947 63.5952 57.26C59.2319 56.237 54.6515 56.1501 50.2525 57.007L50.1719 57.0229C49.93 57.0717 49.6874 57.1318 49.4783 57.2612C48.7912 57.6866 48.7384 58.6245 48.7719 59.4516L48.7943 59.9115C48.9149 62.5792 48.705 65.2618 48.1705 67.8783L48.1584 67.9376C48.0388 68.5339 47.9416 69.2155 48.3399 69.6675C48.6349 70.0024 49.1072 70.0926 49.5576 70.1375L49.6798 70.1488ZM57.4189 70.7885C57.4541 70.9603 57.4101 71.1393 57.341 71.3004L57.3189 71.3495C56.9131 72.2066 55.7045 72.5741 54.8947 72.0728C54.0696 71.562 53.8673 70.2786 54.4952 69.5387C52.8995 69.7298 51.2825 69.7423 49.6841 69.5761C49.1893 69.5246 48.5427 69.2575 48.6438 68.7705C49.3395 65.4217 49.5568 61.9739 49.2871 58.5643C49.2382 57.9464 49.9989 57.6257 50.6085 57.5138C54.5421 56.7916 58.6124 56.8215 62.535 57.6014C63.0368 57.7011 63.6827 58.0825 63.4603 58.5433C62.9367 59.6281 62.7275 60.8624 62.8643 62.0591C62.8992 62.3643 63.1381 62.7638 63.4045 62.6108C64.1219 62.1987 65.1603 62.5291 65.5077 63.28C65.8551 64.0309 65.4348 65.0362 64.6562 65.3162C63.8777 65.5963 62.9133 65.0892 62.7027 64.2891C62.5146 65.937 62.5816 67.6138 62.9008 69.2414C63.0114 69.8056 62.1899 70.0185 61.6166 69.9758L57.0399 69.6348C56.8996 69.8557 57.0434 70.0841 57.1946 70.3242C57.2889 70.4741 57.3861 70.6285 57.4189 70.7885ZM81.1009 60.4458L90.0653 60.626L90.2117 60.6296C90.4809 60.6381 90.7522 60.6617 90.9946 60.7748C91.5426 61.0306 91.7938 61.661 91.9604 62.2423C92.8499 65.3453 92.7401 68.7264 91.6511 71.7651L91.6054 71.8895C91.4637 72.2634 91.2783 72.6361 90.9437 72.8464C90.6682 73.0196 90.3324 73.0557 90.0057 73.0732L89.9359 73.0767C88.6029 73.14 87.2653 73.1059 85.9372 72.9748C86.6289 72.549 86.8035 71.5125 86.3643 70.8293C85.9252 70.1461 84.9973 69.8608 84.216 70.0827C83.7398 70.2179 83.2963 70.5434 83.1239 71.0075C82.9516 71.4716 83.1182 72.0676 83.5583 72.2943C83.8627 72.451 83.8103 72.9446 83.5437 73.1595C83.2772 73.3744 82.9068 73.3897 82.5644 73.3952L78.0669 73.4682C77.7288 73.4737 77.3734 73.4751 77.0766 73.3132C76.6557 73.0835 76.4622 72.5888 76.3436 72.1243C76.0575 71.0033 76.0188 69.82 76.2311 68.6828C76.4868 69.5808 77.5936 70.1263 78.4615 69.7819C79.3295 69.4375 79.7612 68.2817 79.3316 67.4526C78.902 66.6235 77.7087 66.3097 76.9269 66.8202L76.8943 66.5305C76.7821 65.5148 76.695 64.4859 76.89 63.4855C77.1037 62.3899 77.7131 61.3138 78.7122 60.8159C79.4408 60.4528 80.2822 60.4328 81.1009 60.4458ZM90.8865 61.3834C90.662 61.2484 90.3915 61.2252 90.1281 61.2141L90.0625 61.2115C87.274 61.1073 84.4836 61.0546 81.6931 61.0533L80.763 61.0548C80.1746 61.057 79.567 61.0653 79.0285 61.3024C78.2249 61.6563 77.7041 62.477 77.4917 63.3291C77.2793 64.1811 77.3302 65.0737 77.3825 65.9503C78.7955 65.561 80.3155 66.9969 80.1478 68.4528C79.9801 69.9088 78.366 70.9604 76.9275 70.6796C76.8622 71.1396 76.7981 71.6171 76.9331 72.0617C77.0682 72.5062 77.4627 72.9082 77.9271 72.8932L82.0969 72.7591C82.3552 72.7508 82.7119 72.6173 82.6368 72.3701C82.2108 70.9665 83.4402 69.3281 84.9069 69.3446C86.3735 69.3612 87.5656 71.027 87.108 72.4205C88.0245 72.6269 88.9774 72.6703 89.9089 72.5481C90.2114 72.5084 90.5271 72.4443 90.7588 72.2458C90.9865 72.0507 91.0984 71.7556 91.1934 71.4711C92.1611 68.5714 92.2671 65.39 91.4945 62.4324C91.3946 62.05 91.256 61.6385 90.9359 61.4154L90.8865 61.3834ZM51.3224 88.997C50.8785 86.1082 50.8791 83.1516 51.3242 80.263L51.3467 80.1232C51.4572 79.4676 51.6511 78.7756 52.1989 78.4144C52.609 78.144 53.1269 78.1238 53.6208 78.1236L57.4026 78.134C57.5747 78.1345 57.7634 78.1409 57.8928 78.2544C58.0222 78.3679 58.0187 78.6285 57.8528 78.6744C57.4567 78.7841 57.229 79.241 57.2771 79.6492C57.3252 80.0574 57.5906 80.4108 57.9023 80.6788C58.6457 81.3178 59.8011 81.5448 60.624 81.012C61.4468 80.4792 61.6403 79.1067 60.8606 78.5126C62.6271 78.4767 64.3944 78.4822 66.1607 78.5292L66.8229 78.5488C67.037 78.5557 67.2737 78.5728 67.4232 78.7261C67.5355 78.8412 67.5724 79.0085 67.5978 79.1673C67.7934 80.39 67.5795 81.6746 66.9983 82.7681C66.9058 82.9422 66.6914 83.1341 66.5454 83.0016C65.9248 82.4382 64.881 82.5149 64.246 83.062C63.611 83.6091 63.3655 84.5177 63.4777 85.3483C63.5858 86.1478 64.1685 87.0017 64.9742 86.9614C65.2013 86.95 65.4374 86.8717 65.6691 86.7948C66.0848 86.6569 66.486 86.5238 66.794 86.7915L65.9861 90.4012C65.8426 91.0424 65.5849 91.8031 64.9423 91.9406C61.2328 92.734 57.3433 92.674 53.66 91.7666L53.4813 91.7214C53.0344 91.6044 52.5891 91.4529 52.2403 91.1544C51.6333 90.6348 51.4438 89.7868 51.3224 88.997ZM66.0775 87.437C65.0281 87.9306 63.6609 87.507 63.0041 86.5512C62.3474 85.5954 62.4117 84.2295 63.0856 83.2858C63.7595 82.342 64.9707 81.8404 66.1262 81.939L66.2226 81.9475C66.3846 81.9612 66.5507 81.9671 66.6882 81.8861C66.8622 81.7837 66.9364 81.5732 66.9848 81.3772C67.1777 80.5954 67.1671 79.7642 66.9542 78.9875L62.0651 79.0232C62.1542 80.3804 61.037 81.7048 59.6843 81.8457C58.3315 81.9867 56.9653 80.921 56.7728 79.5746L56.7459 79.3744C56.7169 79.1725 56.6716 78.9729 56.5208 78.8448C56.4149 78.7548 56.2757 78.7191 56.1383 78.6919L56.0868 78.682C54.6644 78.4131 52.861 78.3015 52.1145 79.5419C51.8603 79.9642 51.792 80.4696 51.7403 80.9598C51.4432 83.7742 51.5138 86.6273 51.9498 89.4235L51.9711 89.5544C52.042 89.9705 52.153 90.3979 52.4627 90.6771C52.6756 90.8691 52.9552 90.9642 53.2324 91.0424L53.3017 91.0617C56.8489 92.0373 60.6255 92.1676 64.2317 91.4405L64.4319 91.3993C64.6092 91.3619 64.7936 91.3189 64.9329 91.2031C65.1144 91.0521 65.1842 90.8088 65.2447 90.5806L66.0775 87.437ZM92.461 94.5892C92.461 94.5892 92.4813 94.0266 92.5523 93.8419C92.6805 93.508 93.0586 93.0334 93.0586 93.0334C93.0323 93.1619 92.9955 93.2994 92.9576 93.4412C92.8275 93.9274 92.6839 94.4643 92.9022 94.8617C93.0705 95.1682 95.5337 96.7823 96.3802 97.1606C100 98.7784 103.639 100.242 107.294 101.713L107.294 101.714C108.789 102.315 110.287 102.918 111.788 103.533C109.211 103.219 106.838 102.019 104.526 100.838C104.027 103.606 105.57 106.397 107.651 108.29C109.167 109.668 110.951 110.69 112.734 111.711L112.735 111.711C113.4 112.092 114.066 112.474 114.718 112.874L114.957 113.022C117.27 114.47 119.482 116.297 120.503 118.817C120.69 119.28 121.265 119.543 121.737 119.383C122.21 119.222 122.505 118.663 122.372 118.183C122.867 118.588 122.582 119.495 121.983 119.719C121.384 119.943 120.697 119.639 120.255 119.177C119.922 118.829 119.689 118.403 119.457 117.979L119.457 117.979C119.381 117.84 119.305 117.701 119.226 117.564C117.798 115.117 115.277 113.597 112.775 112.206L111.601 111.556C108.886 110.04 106.104 108.219 104.941 105.349C100.72 106.019 96.3259 105.565 92.331 104.046C91.4766 103.721 90.64 103.348 89.8037 102.976L89.8034 102.976L89.8033 102.976C88.4711 102.382 87.1399 101.79 85.7394 101.391C84.9591 101.168 83.8836 101.144 83.5914 101.901C83.5913 101.901 83.5909 101.902 83.5901 101.903C83.5816 101.918 83.5261 102.015 83.2772 102.037C83.1603 102.047 83.053 101.841 83.0199 101.706C82.9917 101.667 82.982 101.56 82.982 101.341C82.982 101.222 83.2237 100.704 83.6786 100.383C83.9949 100.16 84.3509 100.079 84.5374 100.037C84.6215 100.018 84.6711 100.006 84.667 99.9935C84.6575 99.9637 84.334 99.8797 84.0401 100.022C83.8132 100.132 83.5984 100.278 83.401 100.411C83.0955 100.618 82.8315 100.797 82.6285 100.773C82.3536 100.741 82.1585 100.613 82.1555 100.336C82.1525 100.06 82.2259 99.7232 82.4394 99.5494C82.8955 99.178 83.4845 98.9733 84.0727 98.9817C84.1997 98.9836 84.3405 99.0016 84.4234 99.0979C84.5062 99.1943 84.4654 99.3865 84.3385 99.3922C83.576 99.4265 82.6945 99.5541 82.3977 100.336C82.3113 100.564 82.857 100.601 83.068 100.479C83.1904 100.409 83.2956 100.314 83.4009 100.219C83.477 100.151 83.5532 100.082 83.6361 100.022C83.8841 99.844 84.192 99.7507 84.4972 99.7615C84.6203 99.7659 84.7558 99.7943 84.8283 99.8938C84.9009 99.9933 84.8497 100.174 84.7266 100.176C83.9358 100.189 83.2139 100.875 83.1604 101.664C83.1637 101.694 83.1862 101.822 83.2772 101.852C83.3847 101.889 83.5035 101.801 83.5084 101.792C83.9199 101.057 84.6714 100.566 85.4791 100.812C85.7844 100.905 86.0783 101.047 86.3708 101.188L86.3709 101.188C86.8826 101.434 87.3904 101.679 87.9483 101.658L87.6134 99.8821C86.2558 98.6376 84.2097 98.1989 82.4612 98.7773C82.2741 98.8393 82.0719 98.929 81.9956 99.1108C81.9193 99.2925 82.0868 99.5564 82.2709 99.4861C81.9814 99.7538 81.4921 99.2993 81.6023 98.9207C81.7124 98.5421 82.1277 98.3474 82.5093 98.2482C84.6509 97.6916 86.7854 98.6618 88.8481 99.5994L88.8482 99.5994L88.8483 99.5995L88.8485 99.5995L88.8486 99.5996L88.8488 99.5997L88.849 99.5997C89.2316 99.7737 89.6116 99.9464 89.9888 100.108C94.189 101.908 98.9344 102.412 103.419 101.533C103.224 102.066 102.561 102.227 101.998 102.29C98.0037 102.739 93.9009 102.189 90.1658 100.705C89.7096 101.284 89.9269 102.185 90.4461 102.709C90.9653 103.232 91.6997 103.47 92.4064 103.682C96.3667 104.865 100.566 105.771 104.612 104.929L103.956 101.092L103.943 101.022C103.911 100.869 103.851 100.71 103.708 100.662L103.672 100.649C98.485 98.8879 94.5317 97.5453 89.3989 92.6524C89.3888 92.6427 89.3788 92.6327 89.3691 92.6226C89.3312 94.0928 88.8647 94.4162 86.9202 94.0154C82.677 93.1408 78.3326 92.6828 74.0499 93.2846C74.3738 91.684 74.7794 90.1 75.2647 88.5407C73.8712 88.9904 72.2261 87.7133 72.3162 86.2519C72.4063 84.7904 74.1958 83.725 75.5235 84.3425C75.9796 83.2901 76.0085 82.0598 75.6024 80.9871C75.4076 80.4725 76.1841 80.1757 76.7344 80.1756L79.7747 80.1749C80.1997 80.1748 80.7923 79.9774 80.6867 79.5657C80.4363 78.5896 81.1076 77.4742 82.0874 77.2383C83.0493 77.0067 84.1323 77.6655 84.3808 78.62L84.3938 78.6734C84.6245 79.6986 85.9232 80.0241 86.9739 80.0039L87.4969 79.9914C88.4057 79.9723 89.3527 80.0018 89.961 80.6375C90.6884 81.3977 90.5259 82.6084 90.2861 83.6405L90.27 83.709C90.1531 84.2022 89.9826 84.6029 89.8111 85.0059C89.4844 85.7737 89.1542 86.55 89.1835 87.9901C89.1954 88.5768 89.2166 89.1153 89.2406 89.6083C89.3249 89.2625 89.3989 89.034 89.3989 89.034C89.3989 89.034 99.3085 96.4124 105.429 97.4139C106.162 96.766 105.739 95.5034 105 94.8617C104.689 94.5913 104.334 94.3727 103.981 94.1547L103.981 94.1546C103.496 93.8553 103.012 93.557 102.644 93.127C101.912 92.2729 101.781 91.0961 101.652 89.9292C101.511 88.6604 101.371 87.4035 100.462 86.5859C100.381 86.5129 100.294 86.4447 100.208 86.3766C100.013 86.223 99.8187 86.0696 99.6861 85.8623C99.3582 85.3496 99.5194 84.6362 99.9165 84.175C100.314 83.7138 100.894 83.4563 101.469 83.2557C102.662 82.8393 103.969 82.6068 105.187 82.9423C106.405 83.2778 107.496 84.292 107.616 85.5497C107.847 85.0494 108.354 84.6878 108.903 84.6329L108.107 85.4788L109.114 85.4989L107.728 86.2729C108.587 87.8619 108.448 89.8219 107.897 91.5424C107.83 91.753 107.756 91.9637 107.683 92.1749C107.388 93.0193 107.092 93.8706 107.168 94.7518C107.261 95.8353 108.224 96.9422 109.275 96.7205L109.328 96.7083C110.592 96.3889 111.976 96.5738 113.112 97.2137C114.437 97.96 115.339 99.2254 116.231 100.478L116.231 100.478L116.231 100.478L116.231 100.478L116.231 100.478L116.231 100.478L116.231 100.478L116.231 100.478L116.232 100.478L116.232 100.479L116.232 100.479L116.232 100.479L116.232 100.479L116.233 100.48C116.439 100.77 116.645 101.059 116.856 101.341C117.846 102.666 119.018 103.897 120.483 104.664C121.948 105.432 123.745 105.685 125.271 105.048C125.551 104.931 125.821 104.785 126.09 104.64C126.548 104.393 127.004 104.147 127.509 104.042C128.313 103.876 129.336 104.269 129.431 105.084C129.016 104.389 128.031 104.266 127.256 104.5C126.819 104.632 126.416 104.848 126.012 105.065C125.7 105.232 125.388 105.399 125.06 105.528C123.417 106.173 121.503 105.782 119.99 104.872C118.524 103.99 117.376 102.674 116.34 101.31L116.24 101.178C116.135 101.038 116.03 100.897 115.925 100.756L115.925 100.756L115.925 100.756L115.924 100.755C115.196 99.7763 114.462 98.7904 113.501 98.0459C112.422 97.2107 110.974 96.7172 109.676 97.118L109.597 97.1437C108.355 97.5644 107.04 96.3763 106.816 95.0844C106.593 93.7925 107.12 92.5016 107.635 91.296C108.167 90.0525 107.19 88.6016 105.96 88.0411C104.817 87.521 103.446 87.5327 102.313 88.0723C101.946 88.2471 101.879 88.7288 101.892 89.1406L101.893 89.1861C101.957 90.6398 102.345 92.1679 103.407 93.1635C103.722 93.4595 104.087 93.6986 104.45 93.9372L104.451 93.9373C104.906 94.2358 105.36 94.5337 105.716 94.9417C106.356 95.6759 106.455 97.0508 105.565 97.4479C107.092 97.7234 108.602 98.0882 110.085 98.54C102.103 97.7234 94.7636 93.9584 89.4942 89.4106C89.3865 89.6209 89.3107 89.8431 89.2644 90.0711C89.2768 90.2995 89.2893 90.517 89.3012 90.7241C89.318 91.0164 89.3337 91.2877 89.3459 91.539C89.5997 92.3733 90.1924 93.1085 91.0063 93.4318C90.9417 92.8455 91.1394 92.2352 91.5354 91.798C91.2785 92.3725 90.8708 93.474 92.461 94.5892ZM104.722 83.3517C104.011 83.2194 103.289 83.149 102.567 83.1415C102.518 83.2325 102.499 83.3395 102.515 83.4417C103.32 83.5087 104.114 83.721 104.845 84.0652C104.539 84.3708 104.034 84.1878 103.624 84.0391L103.6 84.0303C102.899 83.7765 102.129 83.7151 101.397 83.8546C101.023 83.9257 100.65 84.0536 100.362 84.3023C100.074 84.5509 99.886 84.9379 99.9502 85.3127C100.032 85.7914 100.482 86.1185 100.932 86.3026C102.046 86.759 103.381 86.6304 104.388 85.9698C104.47 85.9162 104.585 86.0056 104.589 86.1031C104.594 86.2005 104.528 86.2866 104.459 86.3555C104.058 86.7548 103.461 86.882 102.896 86.9148C102.731 86.9245 102.565 86.9277 102.399 86.9309C101.997 86.9388 101.595 86.9466 101.207 87.0451C101.259 87.3655 101.659 87.4757 101.983 87.4992C103.22 87.5891 104.476 87.4225 105.647 87.0131C105.94 86.9106 106.21 87.2044 106.383 87.4626L107.645 89.3454C108.059 88.9552 108.034 88.2811 107.839 87.7465C107.763 87.5377 107.665 87.3363 107.568 87.1351L107.568 87.1349C107.417 86.8213 107.266 86.5083 107.195 86.1689C107.156 85.9818 107.141 85.7899 107.127 85.5983C107.108 85.3292 107.088 85.0608 106.999 84.8077C106.685 83.916 105.651 83.5248 104.722 83.3517ZM89.4813 100.539L88.3361 99.8807C88.2091 99.8077 87.9749 99.7954 87.9878 99.9414C87.9486 100.533 87.9969 101.257 88.3769 101.749C88.6163 102.06 88.7893 102.219 89.635 102.429L89.5728 100.773C89.5695 100.685 89.5575 100.582 89.4813 100.539ZM106.92 91.5324C107.059 91.4516 107.148 91.3078 107.231 91.1698C107.379 90.923 107.532 90.6616 107.538 90.3738C107.545 90.086 107.346 89.772 107.058 89.7607C106.915 89.755 106.779 89.8231 106.662 89.9059C106.403 90.0895 106.202 90.3555 106.098 90.6556C106.23 90.8465 106.53 90.676 106.663 90.4857C106.796 90.2955 106.994 90.0551 107.206 90.15C107.066 90.6354 106.818 91.0894 106.486 91.47C106.575 91.6043 106.781 91.6132 106.92 91.5324ZM109.211 105.516C108.893 105.01 108.549 104.464 107.981 104.3C109.24 106.669 111.191 108.666 113.531 109.979C114.348 110.437 115.21 110.813 116.071 111.19L116.071 111.19C117.272 111.714 118.471 112.238 119.545 112.982C120.89 113.915 122.003 115.181 122.756 116.634C122.46 114.562 120.727 112.975 118.876 111.995C118.039 111.551 117.159 111.194 116.279 110.836L116.279 110.836C115.215 110.404 114.153 109.972 113.166 109.389C111.594 108.459 110.246 107.152 109.269 105.608L109.211 105.516ZM113.166 106.217L113.201 106.295C113.356 106.654 113.463 107.104 113.172 107.347C112.94 107.541 112.589 107.467 112.316 107.338C111.724 107.061 111.236 106.571 110.96 105.979C111.305 105.91 111.629 105.737 111.876 105.487C112.082 105.28 112.446 105.322 112.678 105.499C112.91 105.677 113.042 105.952 113.166 106.217ZM112.978 107.066C113.276 106.531 112.668 105.742 112.372 105.691C112.243 105.669 112.109 105.797 111.966 105.934C111.819 106.075 111.662 106.226 111.488 106.235C111.488 106.235 112.68 107.6 112.978 107.066ZM127.998 108.603C135.23 108.365 142.29 104.842 146.828 99.2068C147.063 98.9151 147.528 98.9101 147.855 99.0934C148.182 99.2767 148.402 99.5988 148.611 99.9097C148.838 99.8764 148.845 99.5232 148.688 99.355C148.611 99.272 148.514 99.2117 148.417 99.1515C148.317 99.0895 148.217 99.0276 148.139 98.9411C147.823 98.5914 147.992 98.0409 148.177 97.6074L149.002 95.6754C149.113 95.4165 149.286 95.1146 149.567 95.1185C149.773 95.1214 149.931 95.2935 150.062 95.4526C151.486 97.1872 152.807 99.0064 154.015 100.897C153.27 101.013 152.554 100.646 151.847 100.284C151.058 99.8792 150.281 99.481 149.489 99.7679C148.8 100.018 148.393 100.712 148.028 101.349C146.834 103.43 145.465 105.434 143.732 107.094C139.707 110.948 134.09 112.616 128.618 113.67C132.002 114.951 135.731 115.311 139.298 114.7C141.34 114.35 143.375 113.661 144.966 112.335C145.611 111.798 146.169 111.168 146.725 110.54L150.823 105.914C151.063 105.644 151.506 105.903 151.729 106.188C151.953 106.472 152.256 106.827 152.597 106.706C152.353 106.159 151.93 105.695 151.408 105.402C151.377 104.749 151.357 104.051 151.704 103.497C152.051 102.944 152.916 102.674 153.366 103.147C154.842 104.7 156.256 106.311 157.603 107.975C156.812 108.099 156.061 107.759 155.315 107.421L155.315 107.421C155.085 107.317 154.855 107.213 154.624 107.122C153.648 106.741 152.28 106.749 151.835 107.698C150.617 110.293 149.353 112.954 147.263 114.916C143.773 118.193 138.674 118.933 133.918 119.472C131.808 119.711 129.641 119.938 127.587 119.401C126.092 119.01 124.732 118.232 123.392 117.463L122.328 116.852C122.015 116.931 122.267 117.405 122.545 117.569C124.325 118.619 126.16 119.689 128.202 120.011C128.722 120.093 129.249 120.125 129.775 120.144C134.621 120.326 139.502 119.476 144.001 117.667C145.877 116.913 147.786 115.904 148.817 114.164L152.447 108.033C152.586 107.798 152.739 107.55 152.986 107.434C153.287 107.292 153.64 107.382 153.959 107.475L157.362 108.463C157.71 108.564 158.033 108.157 157.997 107.796C157.961 107.436 157.701 107.144 157.453 106.879L154.315 103.52C153.901 103.077 153.456 102.615 152.871 102.453C152.287 102.292 151.535 102.576 151.421 103.172C151.083 104.93 149.882 106.379 148.723 107.743C146.929 109.855 145.061 112.025 142.57 113.24C138.999 114.983 134.779 114.477 130.869 113.769L133.404 113.03C134.659 112.665 135.916 112.299 137.133 111.821C141.852 109.966 145.872 106.388 148.261 101.915C148.676 101.139 149.164 100.242 150.03 100.086C150.742 99.9576 151.349 100.378 151.969 100.808L151.969 100.808C152.338 101.063 152.712 101.322 153.115 101.471C153.71 101.69 154.633 101.378 154.493 100.759C154.462 100.62 154.377 100.499 154.294 100.382L151.066 95.8305C150.618 95.199 149.946 94.4856 149.209 94.7226C148.617 94.9131 148.395 95.5966 148.199 96.1994L148.164 96.3071C147.245 99.1072 144.774 101.063 142.429 102.848C141.403 103.629 140.374 104.412 139.267 105.072C136.033 107.002 132.239 107.819 128.481 108.063C127.419 108.132 126.751 109.128 126.141 110.04C126.068 110.148 125.996 110.256 125.925 110.36C124.878 111.884 123.389 113.1 121.686 113.82C121.971 114.135 122.49 113.946 122.85 113.721C124.558 112.653 126.008 111.174 127.04 109.443C127.268 109.062 127.554 108.618 127.998 108.603ZM105.309 92.2659C105.143 92.63 104.772 92.8923 104.373 92.9277C103.974 92.9632 103.563 92.7705 103.335 92.4414C103.252 92.3205 103.252 92.0843 103.399 92.097C103.704 92.5021 104.34 92.6068 104.758 92.3209C104.94 92.197 105.254 92.0532 105.309 92.2659ZM102.103 89.6195C102.139 89.3145 102.397 89.0494 102.7 89.0041C103.004 88.9588 103.328 89.1373 103.451 89.4184C103.229 89.4184 103.08 89.3783 102.956 89.3448C102.704 89.2767 102.555 89.2366 102.103 89.6195ZM104.457 91.3189L104.112 91.4671L104.092 91.4556C104.002 91.6263 103.738 91.4331 103.718 91.2413C103.714 91.2018 103.712 91.16 103.71 91.1177V91.1177V91.1176V91.1175V91.1174V91.1173C103.702 90.9549 103.694 90.786 103.56 90.713C103.392 90.9548 103.315 91.2729 103.413 91.5506C103.51 91.8282 103.807 92.0388 104.097 91.9866C104.387 91.9343 104.595 91.5793 104.457 91.3189ZM104.873 88.9619C105.31 88.9971 105.426 89.0208 105.547 89.3083C105.571 89.3649 105.384 89.3116 105.206 89.2608L105.206 89.2608C105.075 89.2234 104.948 89.1874 104.914 89.1975C103.451 89.6313 104.435 88.9267 104.873 88.9619ZM104.749 89.7179C104.991 89.9094 104.921 90.6723 104.564 90.5288C104.415 90.4687 104.236 89.3111 104.749 89.7179ZM116.316 110.149C116.201 110.005 116.332 109.749 116.516 109.758C116.597 109.81 116.652 109.901 116.662 109.998C116.592 110.111 116.448 110.173 116.317 110.146L116.316 110.149ZM113.03 108.662L113.281 108.623L113.301 108.616C113.389 108.453 113.103 108.267 112.989 108.413C112.964 108.496 112.98 108.591 113.03 108.662ZM114.819 109.653C114.673 109.692 114.653 109.442 114.735 109.315L115.083 109.474C115.029 109.568 114.93 109.634 114.823 109.647L114.819 109.653ZM110.475 106.007C110.437 105.911 110.299 105.875 110.218 105.939L110.24 105.961C110.17 106.052 110.226 106.208 110.337 106.235C110.44 106.225 110.514 106.102 110.475 106.007ZM102.834 90.5467C102.694 90.5467 102.548 90.4096 102.555 90.1717C102.562 89.9338 102.627 89.714 102.834 89.8308C103.042 89.9475 102.979 90.5467 102.834 90.5467ZM37.6179 61.6388C37.7022 61.7497 37.895 61.701 37.9691 61.5831C38.0433 61.4652 38.034 61.3151 38.0206 61.1764C37.8265 59.1716 37.3062 57.1987 36.4863 55.3589C36.2528 54.8349 36.0072 54.1815 36.3647 53.7329C37.1913 55.7987 38.0248 57.8902 38.3258 60.0947C38.408 60.6964 38.4375 61.3553 38.102 61.8615C37.7666 62.3678 36.9307 62.5619 36.558 62.0824C37.1312 61.9627 37.5699 61.3822 37.5285 60.798C37.7933 60.9785 37.8388 61.4066 37.6179 61.6388ZM44.2991 101.447C47.2982 101.282 50.7727 100.849 52.3458 98.2902C52.7538 97.6267 52.6668 96.5836 52.5951 95.724C52.5375 95.0334 52.4897 94.4613 52.7165 94.2996C53.2255 93.9368 53.6327 94.8725 53.6327 94.8725C53.6476 94.8106 53.6647 94.734 53.684 94.6475C53.8261 94.0099 54.0879 92.8356 54.4992 93.0562C54.6684 93.1469 54.6102 93.7178 54.5701 94.1101C54.5607 94.2022 54.5523 94.2845 54.5481 94.3484C54.5386 94.4089 54.5372 94.4596 54.5444 94.4955C54.546 94.4948 54.5477 94.4941 54.5493 94.4933C54.5508 94.4925 54.5523 94.4917 54.5538 94.4909C54.5566 94.4893 54.5594 94.4875 54.5623 94.4856C54.5638 94.4853 54.5654 94.4847 54.5671 94.4837C54.5703 94.4818 54.574 94.4784 54.5781 94.4735C54.6447 94.4173 54.7358 94.2786 54.8371 94.1243C55.0471 93.8045 55.3011 93.4178 55.4713 93.5599C55.7386 93.7831 54.7883 95.2079 54.7883 95.2079C54.7883 95.2079 55.9169 93.9677 56.0121 94.4955C56.1074 95.0233 53.537 99.7907 51.2169 101.66C48.8967 103.53 45.6275 104.577 42.6714 104.202C42.7374 103.03 43.1266 101.511 44.2991 101.447ZM54.5781 94.4735C54.5727 94.4781 54.5674 94.4821 54.5623 94.4856C54.5445 94.4884 54.5424 94.4355 54.5481 94.3484C54.5699 94.2104 54.6344 94.0213 54.7375 93.8408C54.718 93.9028 54.6984 93.9627 54.68 94.0192C54.5977 94.2718 54.5381 94.4548 54.5999 94.4405C54.5916 94.4552 54.5844 94.4661 54.5781 94.4735ZM55.1368 93.3977C54.9705 93.5028 54.8363 93.6679 54.7375 93.8408C54.8915 93.353 55.0474 92.738 54.6683 92.6888C54.0255 92.6053 53.3972 93.6516 53.5088 94.2074C53.3304 93.7646 52.5881 93.9562 52.4083 94.3985C52.2704 94.7378 52.329 95.1095 52.3873 95.4784C52.4049 95.5903 52.4226 95.7019 52.4347 95.8123C52.6278 97.5758 51.3057 99.2241 49.7029 99.9846C48.1918 100.702 46.4768 100.802 44.7994 100.854L44.4081 100.866C43.4504 100.891 42.4134 100.869 41.6825 100.258C40.9295 99.6277 40.9303 98.1333 41.8759 97.8692C44.2762 97.1988 46.1071 94.86 46.1817 92.3689C46.2037 91.6327 46.6812 91.0202 47.1427 90.4281C47.1841 90.3749 47.2254 90.3219 47.2663 90.269L47.3677 90.1362C47.8842 89.451 48.3088 88.5071 47.8751 87.7667C47.2031 88.6289 45.9443 88.9765 44.9251 88.5814C44.4999 88.4166 44.1231 88.1411 43.7487 87.8674C43.2474 87.5008 42.7502 87.1373 42.1463 87.0464C40.9655 86.8686 39.7943 88.0643 39.9964 89.2412C39.6767 88.9729 39.1806 89.379 39.146 89.7949C39.1257 90.0393 39.1899 90.2771 39.2545 90.516C39.2998 90.6835 39.3452 90.8516 39.3616 91.0229C39.3808 91.2223 39.3604 91.4218 39.3399 91.6217C39.3261 91.7566 39.3123 91.8918 39.3106 92.0271C39.3021 92.7277 39.6142 93.376 39.9216 94.0145C39.9526 94.079 39.9836 94.1433 40.0142 94.2076L40.0965 94.3829C40.4465 95.1417 40.706 96.0447 40.333 96.7925C39.9601 97.5404 38.6904 97.7747 38.3307 97.0204C36.5679 93.3235 32.5721 90.8064 28.4765 90.8126C23.7344 90.8197 19.4678 93.9448 16.6732 97.7759C16.3247 98.2537 15.9835 98.7684 15.9076 99.355C15.8316 99.9415 16.1038 100.615 16.6617 100.811C17.2197 101.007 17.9432 100.458 17.7613 99.8955C18.0444 100.226 18.6234 99.9134 18.7567 99.4993C18.8316 99.2666 18.8307 99.0211 18.8298 98.7748C18.8291 98.5828 18.8284 98.3902 18.8636 98.2029C19.0365 97.2841 19.9815 96.7535 20.8321 96.3655L21.0036 96.2876C23.0071 95.381 25.0945 94.5716 27.286 94.4176C29.54 94.2592 31.9454 94.8857 33.4944 96.5309C31.3807 97.0324 30.1533 99.1532 29.1748 101.112L29.0391 101.385C28.0512 103.369 26.7573 105.533 24.591 105.954C24.6733 106.381 25.0507 106.735 25.4826 106.789L17.5407 111.511L18.15 112.266C16.2163 115.23 14.0293 118.028 11.6207 120.621C10.3112 122.03 8.61071 123.491 6.71493 123.163C6.37212 123.103 6.03975 122.986 5.70853 122.868C5.22352 122.697 4.74099 122.526 4.23175 122.54C3.37476 122.565 2.51472 123.607 3.09644 124.237C4.38475 125.632 5.85515 126.858 7.45851 127.875L7.50003 127.901C7.69522 128.023 7.90991 128.137 8.13623 128.111C8.36502 128.084 8.55131 127.922 8.72148 127.766L19.4774 117.959C20.3583 117.163 21.3277 116.365 22.5012 116.248L22.6002 116.236C23.4681 116.116 24.1831 115.567 24.9001 115.017L24.9002 115.017C25.2124 114.777 25.525 114.537 25.8507 114.332C26.953 113.638 28.7814 113.567 29.2101 114.797C29.438 115.451 29.1397 116.115 28.8458 116.771C28.7582 116.966 28.671 117.16 28.5983 117.353C28.2812 118.194 28.541 119.487 29.4392 119.471L34.466 119.382C34.6466 119.38 34.8369 119.39 34.9773 119.501C35.1243 119.616 35.1759 119.809 35.2042 119.997L35.2158 120.084C35.4051 121.624 35.379 123.189 35.1385 124.722C34.8778 126.383 34.1843 128.209 32.6173 128.818C31.629 129.202 30.5281 129.003 29.4872 128.764L23.1621 127.287C23.1515 126.521 23.8444 125.897 24.5831 125.694C25.2095 125.522 25.8674 125.575 26.5189 125.627L26.6389 125.636L26.8686 125.653C28.4694 125.763 30.0877 125.615 31.6416 125.215L29.3994 119.604C29.628 121.466 30.1318 123.295 30.8895 125.012L23.5187 125.252C22.8768 125.269 22.1643 125.241 21.7328 124.773C21.622 124.652 21.5297 124.504 21.4383 124.358C21.2504 124.057 21.066 123.761 20.7325 123.723C20.4443 123.689 20.1832 123.882 19.9625 124.07C18.5214 125.299 17.3249 126.814 16.4628 128.5C16.7736 129.27 17.8034 129.485 18.6034 129.264C19.0714 129.135 19.4985 128.903 19.9264 128.669L19.9265 128.669L19.9265 128.669C20.2301 128.504 20.5342 128.338 20.8535 128.209C22.6352 127.489 24.594 127.977 26.4756 128.544L27.5933 128.884C29.802 129.547 32.4951 129.888 34.1502 128.282C35.1269 127.334 35.4828 125.924 35.6761 124.577C36.2342 120.69 35.7818 116.662 34.3753 112.995C35.9435 112.39 36.6835 110.636 37.2588 109.057L38.3854 105.964C38.7618 104.931 39.617 103.663 40.6349 104.079C43.5448 105.269 46.9819 104.766 49.691 103.171C52.4001 101.576 54.4281 98.9919 55.7941 96.1603L55.8307 96.0838C56.098 95.5212 56.4387 94.2082 56.1344 94.0627C56.0209 93.9737 55.8188 94.1216 55.6811 94.2224C55.6066 94.2769 55.551 94.3176 55.5383 94.2996C55.5306 94.2887 55.5556 94.216 55.5909 94.1129C55.7301 93.7075 56.0304 92.8324 55.1368 93.3977ZM35.8804 110.759C35.5284 111.551 34.9459 112.482 34.0861 112.377C33.6257 112.321 33.2779 111.973 32.9651 111.616L32.7974 111.422C30.9802 109.313 28.5116 107.911 26.0304 106.62L25.2038 106.193C27.2249 105.795 28.4717 103.797 29.3619 101.939L29.6456 101.347C30.4597 99.6596 31.386 97.923 33.0651 97.1633C33.2972 97.0582 33.5634 96.9746 33.8027 97.0619C33.839 97.0751 33.8782 97.0901 33.9189 97.1058C34.2144 97.2194 34.595 97.3657 34.589 97.0857C34.0502 96.8686 33.9616 96.0828 34.2723 95.592C34.5561 95.1439 35.0476 94.8853 35.5342 94.6625L35.6729 94.5997C35.3625 94.1716 34.6897 94.5316 34.3382 94.9266L34.3093 94.9587C33.9565 95.3457 33.4151 95.7695 33.0079 95.4549C31.3255 94.155 29.0834 93.7377 26.9671 93.9418C24.8508 94.1459 22.8318 94.9196 20.8984 95.8042C20.1899 96.1284 19.4701 96.4819 18.9443 97.057C18.5375 97.5018 18.4953 98.094 18.453 98.6892C18.4406 98.8634 18.4281 99.0378 18.4066 99.2089C18.3543 99.6227 18.1267 99.6385 17.9262 99.6525C17.8188 99.6599 17.7191 99.6669 17.6584 99.7342C17.6535 99.7396 17.6378 99.7638 17.6142 99.8001C17.4938 99.9849 17.1681 100.485 17.0209 100.435C16.8049 100.362 16.915 99.8955 16.915 99.8955C16.915 99.8955 16.2738 100.079 16.2261 99.8955C16.0591 99.2543 17.0209 97.9421 17.0209 97.9421C18.6381 95.563 21.0363 93.589 23.673 92.4415C26.3584 91.2728 29.4922 91.0471 32.2375 92.0675C35.3325 93.2178 37.7833 95.9658 38.5734 99.1717C38.7704 99.9709 39.7001 100.324 40.5125 100.457C40.5889 100.469 40.6663 100.481 40.7441 100.493C41.4939 100.611 42.2911 100.735 42.769 101.308C42.9098 101.476 42.8709 101.726 42.8225 101.94L42.8084 102.002C42.6301 102.767 42.3192 103.622 41.5764 103.854C40.9012 104.065 40.1012 103.521 40.0496 102.816C40.045 102.753 40.0437 102.688 40.0423 102.621V102.621V102.621C40.0366 102.347 40.0307 102.058 39.8004 101.945L35.8804 110.759ZM29.4954 114.94C29.2429 113.643 28.4756 112.476 27.4688 111.62C27.5081 112.13 27.7238 112.624 28.0708 113C26.3646 113.543 24.7557 114.389 23.3425 115.488C22.9643 115.782 22.3217 116.051 22.1002 115.626C21.2286 113.954 19.8411 112.556 18.1762 111.672L25.021 107.739C25.3304 107.561 25.6576 107.378 26.0144 107.374C26.2909 107.372 26.5537 107.478 26.8038 107.601L26.9278 107.664C29.4892 108.983 31.782 110.821 33.6269 113.034C34.0838 113.582 34.2964 114.284 34.4773 114.978L35.2915 118.159C35.3454 118.369 35.3849 118.63 35.2199 118.772C35.127 118.851 34.9962 118.865 34.8742 118.874L34.7315 118.885L34.7313 118.885L34.731 118.885C32.7044 119.041 31.0693 119.167 29.0389 118.874C28.7359 118.293 28.9648 117.574 29.2013 116.83C29.4038 116.193 29.6119 115.539 29.4954 114.94ZM19.3128 112.984C20.0722 113.653 20.7569 114.407 21.3499 115.227C21.4134 115.315 21.4787 115.413 21.4719 115.521C21.464 115.647 21.3619 115.744 21.2668 115.827L12.4201 123.57C12.0512 123.893 11.4628 123.836 11.0496 123.572C10.6881 123.341 10.4295 122.988 10.1924 122.627L10.0918 122.472C12.3974 121.261 13.8763 119.09 15.3685 116.9C16.3044 115.526 17.2455 114.145 18.399 112.988C18.5112 112.876 18.6376 112.759 18.7954 112.742C18.9906 112.72 19.1654 112.855 19.3128 112.984ZM45.0755 91.3867L45.3013 91.4561C45.7412 91.5922 45.8143 92.1814 45.7583 92.6385C45.5265 94.5307 44.3503 96.4037 42.5368 96.9917L42.472 97.0136C41.2903 97.4307 40.4455 98.6669 40.4959 99.9209C39.7027 100.07 38.8523 99.4349 38.7689 98.6322C38.7523 98.4722 38.7996 98.2643 38.9587 98.2399C39.6793 98.1292 40.3422 97.6869 40.7211 97.0639C41.1 96.441 41.1878 95.649 40.9547 94.9581C40.9071 94.8171 40.8465 94.6758 40.7859 94.5344L40.7859 94.5342C40.6135 94.1321 40.4405 93.7283 40.5616 93.3227C40.8378 93.3481 40.8902 93.7269 40.861 94.0028L40.8579 94.0363C40.8355 94.3082 40.8835 94.6571 41.1473 94.6934C41.3212 94.2941 41.3574 93.8471 41.3933 93.4034C41.4386 92.8433 41.4834 92.2885 41.8047 91.8422C42.1719 91.3319 42.8307 91.0974 43.4594 91.09C44.0095 91.0836 44.5473 91.2264 45.0755 91.3867ZM5.32605 123.29L5.38278 123.225C5.6994 123.156 6.00174 123.561 5.84494 123.845C5.74434 124.027 6.05372 124.207 6.22646 124.091C6.3992 123.975 6.43405 123.74 6.45305 123.533C6.62684 123.479 6.77718 123.678 6.80999 123.857C6.81866 123.904 6.82404 123.953 6.82942 124.002C6.84441 124.139 6.85942 124.275 6.94552 124.378C7.06254 124.518 7.37256 124.445 7.32171 124.27C7.24586 124.01 7.55403 123.797 7.82298 123.758C7.88764 123.749 7.95441 123.743 8.02135 123.738C8.23284 123.721 8.44607 123.703 8.60003 123.566L8.62325 123.547C8.81864 123.409 9.06056 123.665 9.20803 123.893L9.27662 124.003C9.60089 124.507 10.1521 124.86 10.7463 124.941C10.8627 124.957 10.8035 125.138 10.718 125.219L8.71246 127.107C8.61525 127.199 8.45771 127.134 8.34382 127.064C7.15338 126.335 6.05442 125.457 5.08083 124.457C4.77411 124.142 5.03423 123.639 5.32605 123.29ZM22.8647 126.806C22.8069 127.044 22.6424 127.31 22.398 127.292C21.8089 127.249 21.2116 127.32 20.6491 127.5C20.7007 127.26 20.5958 126.994 20.3944 126.854C20.2474 127.064 20.3075 127.39 20.5198 127.534L19.959 128.088L19.6906 127.471C19.5583 127.506 19.5544 127.669 19.5635 127.818L19.5701 127.91C19.5969 128.301 19.2657 128.68 18.8752 128.707C18.4846 128.733 18.1054 128.401 18.0796 128.011C18.0514 127.585 18.3773 127.228 18.6803 126.928L20.8315 124.798C20.8772 124.755 20.9296 124.714 20.9914 124.715C21.0596 124.717 21.115 124.768 21.163 124.817L22.0024 125.664C22.1652 125.828 22.0623 126.08 21.9621 126.325C21.8589 126.577 21.7585 126.822 21.9534 126.959C22.1431 126.97 22.3011 126.805 22.3741 126.63C22.4113 126.54 22.4339 126.446 22.4565 126.351C22.4782 126.26 22.4999 126.169 22.5346 126.083C22.6053 125.907 22.758 125.739 22.9481 125.743C23.1381 125.747 23.2847 126.018 23.1378 126.139C22.9811 126.267 22.9364 126.476 22.8929 126.68C22.8838 126.722 22.8747 126.764 22.8647 126.806ZM8.15637 127.748C6.2228 126.713 4.51363 125.262 3.17956 123.522C3.35449 123.356 3.61757 123.532 3.78677 123.72L3.82866 123.769C5.09623 125.337 6.68815 126.643 8.4747 127.578C8.46022 127.719 8.28141 127.814 8.15637 127.748ZM17.4296 127.351C18.2672 126.256 19.1952 125.23 20.2012 124.287C20.3571 124.14 20.681 124.042 20.7204 124.252C19.5493 125.37 18.4292 126.541 17.3648 127.761C17.2491 127.661 17.3366 127.473 17.4296 127.351ZM10.9971 124.613C10.4126 124.405 9.89159 124.022 9.51828 123.527C9.37781 123.34 9.28921 123.016 9.50204 122.92C9.67026 122.845 9.83185 123.004 9.94919 123.158L10.0372 123.278C10.4152 123.776 10.9545 124.152 11.5542 124.331C11.5553 124.491 11.4228 124.641 11.2639 124.66C11.1734 124.67 11.083 124.643 10.9971 124.613ZM39.6788 92.1963C39.9536 92.2028 40.1862 92.4892 40.1363 92.7595L40.1428 92.7634C40.1808 92.9593 40.1558 93.1669 40.0723 93.3482C39.7718 93.0536 39.6214 92.6132 39.6788 92.1963ZM45.0213 92.1963C44.9843 92.1967 44.9479 92.1999 44.9132 92.203C44.7871 92.2141 44.6843 92.2232 44.6646 92.09C44.7353 91.8255 45.1665 91.8515 45.3139 92.0822C45.4214 92.2505 45.3076 92.2329 45.1716 92.2118C45.1212 92.204 45.0677 92.1957 45.0213 92.1963ZM45.2602 93.3439L45.2664 93.3201C45.3713 92.9228 45.3106 92.6094 45.0213 92.6094C44.9096 92.6179 44.7391 93.1864 44.7554 93.3588C44.7717 93.5312 44.966 93.6908 45.1165 93.6051C45.2057 93.5544 45.2343 93.4441 45.2602 93.3439ZM43.3517 93.2233C43.1499 92.9431 43.1288 92.5442 43.2997 92.2442C43.3252 92.1995 43.3561 92.1554 43.4008 92.1298C43.5139 92.0649 43.6653 92.1528 43.7152 92.2734C43.7651 92.3939 43.7434 92.5306 43.7208 92.6591C43.7208 92.6591 43.5534 93.5035 43.3517 93.2233ZM86.0858 93.2314C82.4005 92.3275 78.5506 92.0988 74.7844 92.561C75.438 91.038 75.725 89.3591 75.6142 87.7055C74.6328 88.3933 73.0215 87.5865 72.9843 86.3886C72.9471 85.1907 74.5053 84.2855 75.5275 84.9111C75.7985 85.0769 76.0963 84.7331 76.2047 84.4344C76.5737 83.4171 76.5773 82.2715 76.2147 81.2519C76.0734 80.8548 76.6727 80.6394 77.0941 80.6477L80.6705 80.7185C80.9107 80.7233 81.1657 80.7242 81.3708 80.5992C81.5759 80.4742 81.6924 80.1734 81.5417 79.9864C80.9228 79.2184 81.6341 77.8442 82.6184 77.906C83.6027 77.9678 84.1364 79.4203 83.4263 80.1047C83.2939 80.2324 83.5513 80.3968 83.7352 80.401L88.4115 80.5086C89.3415 80.5301 89.9988 81.5209 90.0367 82.4504C90.0688 83.237 89.7895 83.9903 89.5136 84.7345C89.4895 84.7993 89.4655 84.8641 89.4417 84.9289L89.3654 85.1394C88.5371 87.4634 88.2706 89.9855 88.5946 92.4313C88.6578 92.9085 88.2185 93.333 87.7484 93.4363C87.3336 93.5274 86.9065 93.437 86.4913 93.3331L86.0858 93.2314Z" fill="#00160A"/>
<path fill-rule="evenodd" clip-rule="evenodd" d="M36.2411 50.4298C36.2751 50.2093 36.5689 50.082 36.7812 50.1577C36.9935 50.2333 37.183 50.5378 37.0274 50.71C36.7812 50.9826 36.175 50.8575 36.2411 50.4298Z" fill="#FFB61D"/>
<path fill-rule="evenodd" clip-rule="evenodd" d="M128.653 107.507C128.515 107.624 128.236 107.666 128.21 107.486C128.752 106.935 129.125 106.22 129.266 105.461C129.443 105.413 129.494 105.695 129.45 105.872C129.3 106.471 129.126 107.11 128.653 107.507Z" fill="#00160A"/>
<path d="M9.07739 41.8507C9.0719 42.0284 8.80242 42.018 8.63946 41.9471C8.69812 41.7886 8.93592 41.7355 9.05639 41.8541L9.07739 41.8507Z" fill="black"/>
<path fill-rule="evenodd" clip-rule="evenodd" d="M85.976 90.655C85.7883 90.8221 85.4724 90.5666 85.5003 90.3169C85.5282 90.0671 85.7494 89.8884 85.9617 89.7539C86.7225 89.2719 87.6037 88.9814 88.502 88.9165C88.5261 89.259 88.082 89.4006 87.745 89.4663C87.0298 89.6057 86.3485 89.9156 85.7733 90.3629C85.8773 90.4266 85.9527 90.5353 85.976 90.655V90.655Z" fill="#00160A"/>
<path fill-rule="evenodd" clip-rule="evenodd" d="M88.5273 91.0921C88.1058 91.2954 87.6768 91.4833 87.2416 91.6554C87.2911 91.839 87.5549 91.833 87.7338 91.7684C87.9127 91.7038 88.148 91.6359 88.264 91.7867C87.9697 92.2358 87.2404 92.3059 86.866 91.9209C86.7032 91.7536 86.4085 91.8637 86.1983 91.7622C85.8975 91.6169 85.9535 91.1626 86.1306 90.8793C86.5004 90.2878 87.2057 89.923 87.9021 89.963C88.1673 89.9782 88.4841 90.1092 88.5018 90.3742C87.67 90.322 86.822 90.6649 86.2604 91.2807C86.5794 91.5276 87.0371 91.3434 87.3969 91.161C87.7567 90.9787 88.2317 90.8176 88.5273 91.0921Z" fill="#00160A"/>
</svg>
