<svg width="78" height="55" viewBox="0 0 78 55" fill="none" xmlns="http://www.w3.org/2000/svg">
<g clip-path="url(#clip0)">
<path d="M61.7403 36.9708C60.4322 36.9296 60.5615 35.9929 60.7942 35.0684C61.6932 31.4726 62.6196 27.886 63.5323 24.2948C63.8669 22.9858 64.1924 21.6738 64.5514 20.371C64.8404 19.3168 65.3592 19.0285 66.2247 19.9026C69.9647 23.6759 73.7138 27.439 77.4721 31.1919C78.2326 31.9547 78.1657 32.5649 77.1831 32.8334C72.1298 34.2354 67.0583 35.5703 61.9929 36.9281C61.9533 36.9418 61.9107 36.9448 61.7403 36.9708Z" fill="#FE5757"/>
<path d="M41.2231 24.8577C40.1051 24.1727 40.6801 23.4237 41.3387 22.7341C43.8922 20.0562 46.4579 17.389 49.0358 14.7325C49.9728 13.7607 50.9022 12.7813 51.856 11.8339C52.6287 11.0619 53.225 11.0711 53.5444 12.2595C54.9348 17.3926 56.3378 22.5226 57.7535 27.6495C58.044 28.693 57.6805 29.1842 56.6887 28.934C51.6065 27.6449 46.5396 26.2902 41.468 24.9584C41.4163 24.937 41.3753 24.9157 41.2231 24.8577Z" fill="#FFBE2E"/>
<path d="M59.9332 17.9407C58.66 18.2459 58.5429 17.3031 58.5277 16.3496C58.4668 12.644 58.4333 8.93834 58.3923 5.23119C58.3771 3.87953 58.3527 2.52788 58.3619 1.17622C58.3695 0.082381 58.7969 -0.331049 59.8602 0.288333C64.448 2.95809 69.0419 5.61716 73.6418 8.26556C74.5804 8.80409 74.6655 9.40974 73.7939 9.92844C69.2746 12.5951 64.7218 15.2039 60.1812 17.8324C60.134 17.8568 60.0853 17.8736 59.9332 17.9407Z" fill="#3457DC"/>
<path d="M15.3286 45.4789C15.3286 46.3683 15.3286 47.4743 15.3012 48.257C15.14 52.8688 12.0749 55 7.39127 55C3.16856 55 0.698208 53.2456 0.372682 50.0373L0.345301 49.7673H4.43719L4.46457 50.0098C4.59844 51.1693 5.75451 51.8711 7.50687 51.8711C9.57716 51.8711 10.9477 50.8733 11.0557 48.7421C11.0831 48.2295 11.109 47.6086 11.109 46.9343V46.5575L10.0335 48.1486C9.22729 48.7421 8.01646 49.093 6.56528 49.093C2.58595 49.093 0 46.3149 0 42.0525C0 36.9021 3.14574 34.3666 6.83148 34.3666C8.01342 34.3666 9.43874 34.6626 10.1658 35.1218L11.1059 36.6321V34.7434H15.3286V45.4789ZM11.1044 41.7031V41.4331C11.1044 38.3575 9.41135 37.2789 7.82479 37.2789C5.78037 37.2789 4.32615 38.6016 4.32615 41.729C4.32615 44.562 5.69519 46.1791 7.68789 46.1791C9.6015 46.1791 11.1044 44.9922 11.1044 41.7031Z" fill="#222222"/>
<path d="M23.4257 31.3185C23.4257 32.6397 22.513 33.4757 21.1668 33.4757C19.8206 33.4757 18.9353 32.6397 18.9353 31.3185C18.9353 30.0248 19.8221 29.1827 21.1668 29.1827C22.5115 29.1827 23.4257 30.0248 23.4257 31.3185ZM19.0661 49.1235V34.7434H23.2888V49.1235H19.0661Z" fill="#222222"/>
<path d="M31.7052 34.42V34.8517H34.6365V37.549H31.7052V49.1235H27.5099V37.549H25.9766V34.8517H27.5099V34.478C27.5099 34.0203 27.5099 33.3445 27.5373 32.8593C27.7517 30.3238 29.3915 28.7861 33.2644 28.7861C33.8076 28.7907 34.3487 28.8541 34.8783 28.9752V31.8342C33.1305 31.5107 31.8938 31.9959 31.7585 33.2362C31.7143 33.6291 31.6966 34.0246 31.7052 34.42V34.42Z" fill="#222222"/>
<path d="M42.1922 43.5902C42.1922 44.0754 42.1922 44.562 42.2196 44.9388C42.3276 46.3683 42.8113 46.6917 44.9577 46.5575V49.2547C44.0951 49.3952 43.2228 49.4672 42.3489 49.4698C39.2031 49.4698 38.1809 48.4446 38.0197 46.3424C37.9664 45.6131 37.9664 44.9694 37.9664 44.1562V37.549H35.7927V34.8517H37.971V31.2377H42.1922V34.8517H45.2345V37.549H42.1922V43.5902Z" fill="#222222"/>
<path d="M56.821 34.478V37.9029C53.4866 37.6863 52.0613 39.0349 52.0613 43.1082V49.1235H47.8401V34.7434H52.0613V37.4895L53.1367 35.4925C53.8277 34.7912 54.7627 34.3855 55.7455 34.3605C56.1069 34.3653 56.467 34.4047 56.821 34.478V34.478Z" fill="#222222"/>
</g>
<defs>
<clipPath id="clip0">
<rect width="78" height="55" fill="white"/>
</clipPath>
</defs>
</svg>
